<?xml version="1.0" standalone="no"?>
<!DOCTYPE svg PUBLIC "-//W3C//DTD SVG 1.1//EN" "http://www.w3.org/Graphics/SVG/1.1/DTD/svg11.dtd" >
<svg xmlns="http://www.w3.org/2000/svg" width="100%" height="100%">
<metadata>
Created by FontXChange 20110222 at Fri Apr 26 14:54:20 2013
 By James Beall
Copyright (c) 2011 by GM. All rights reserved.
</metadata>
<defs>
<font id="Louis-Italic" horiz-adv-x="527" >
  <font-face 
    font-family="Louis"
    font-weight="450"
    font-style="italic"
    font-stretch="normal"
    units-per-em="1000"
    panose-1="2 0 0 0 0 0 0 0 0 0"
    ascent="750"
    descent="-250"
    x-height="560"
    cap-height="750"
    bbox="-149 -276 1173 1047"
    underline-thickness="50"
    underline-position="-50"
    stemh="101"
    stemv="104"
    unicode-range="U+0020-FB02"
  />
<missing-glyph horiz-adv-x="570" 
d="M500 0h-490l132 750h490zM75 93l217 281l-118 281zM467 93l99 562l-217 -281zM329 421l216 279h-333zM428 50l-116 276l-214 -276h330z" />
    <glyph glyph-name="fi" unicode="fi" horiz-adv-x="562" 
d="M459 0h-98l82 470h-186l-108 -620h-98l108 620h-87l16 90h87l8 43c26 142 100 193 236 193c21 0 60 -3 68 -4l-17 -95c-11 2 -42 4 -60 4c-80 0 -116 -25 -131 -109l-6 -32h284z" />
    <glyph glyph-name="fl" unicode="fl" horiz-adv-x="593" 
d="M490 0h-98l123 698c-44 4 -78 5 -105 5c-80 0 -116 -24 -131 -108l-6 -35h129l-16 -94h-129l-108 -616h-98l108 616h-87l16 94h87l8 43c25 142 103 193 238 193c48 0 146 -5 207 -11z" />
    <glyph glyph-name=".notdef" horiz-adv-x="570" 
d="M500 0h-490l132 750h490zM75 93l217 281l-118 281zM467 93l99 562l-217 -281zM329 421l216 279h-333zM428 50l-116 276l-214 -276h330z" />
    <glyph glyph-name="space" unicode=" " horiz-adv-x="216" 
 />
    <glyph glyph-name="exclam" unicode="!" horiz-adv-x="251" 
d="M179 231h-87l79 519h113zM155 0h-119l22 127h119z" />
    <glyph glyph-name="quotedbl" unicode="&#x22;" horiz-adv-x="356" 
d="M183 458h-82l51 292h103zM352 458h-82l51 292h102z" />
    <glyph glyph-name="numbersign" unicode="#" horiz-adv-x="539" 
d="M344 0h-75l52 191h-130l-52 -191h-76l53 191h-96l12 68h103l50 182h-105l12 68h112l54 191h75l-54 -191h131l53 191h76l-54 -191h96l-12 -68h-103l-50 -182h105l-12 -68h-112zM340 259l51 182h-130l-51 -182h130z" />
    <glyph glyph-name="dollar" unicode="$" horiz-adv-x="541" 
d="M253 -70h-49l18 101c-117 17 -177 101 -166 202h99c-8 -54 22 -104 82 -116l41 233l-13 6c-77 32 -154 82 -138 198c15 108 107 164 216 167l16 89h49l-17 -92c106 -13 174 -79 153 -197h-96c9 51 -9 100 -72 112l-37 -212l9 -3c84 -35 167 -97 153 -209
c-14 -117 -115 -181 -231 -181zM323 330l-38 -216c65 6 110 42 118 105c6 55 -38 90 -80 111zM294 440l34 195c-77 -6 -101 -49 -104 -89c-4 -55 25 -84 70 -106z" />
    <glyph glyph-name="percent" unicode="%" horiz-adv-x="539" 
d="M95 0h-64l488 750h65zM269 592l3 20c10 55 -10 84 -49 84c-38 0 -67 -29 -77 -84l-3 -20c-10 -55 9 -84 47 -84c39 0 69 29 79 84zM340 612l-3 -20c-16 -91 -74 -149 -150 -149c-74 0 -128 58 -112 149l3 20c16 91 75 148 149 148c76 0 129 -57 113 -148zM464 139l4 20
c9 55 -10 84 -49 84c-38 0 -68 -29 -77 -84l-4 -20c-10 -55 10 -84 48 -84c39 0 68 29 78 84zM536 159l-4 -20c-16 -91 -74 -149 -149 -149s-129 58 -113 149l4 20c16 91 74 148 149 148s129 -57 113 -148z" />
    <glyph glyph-name="ampersand" unicode="&#x26;" horiz-adv-x="632" 
d="M581 0h-114l-36 58c-49 -41 -108 -68 -174 -68c-127 0 -215 81 -215 197c0 124 88 191 170 230c-24 44 -49 87 -49 143c0 137 104 200 195 200c109 0 180 -62 180 -151c0 -85 -59 -166 -189 -227l102 -162c26 45 45 98 58 145h99c-17 -68 -53 -152 -102 -232l77 -123z
M386 133l-133 212c-52 -28 -108 -77 -108 -152c0 -71 57 -112 119 -112c44 0 88 21 122 52zM306 455c89 36 132 90 132 141c0 38 -27 73 -82 73c-52 0 -94 -42 -94 -97c0 -34 18 -75 44 -117z" />
    <glyph glyph-name="quotesingle" unicode="'" horiz-adv-x="188" 
d="M178 458h-77l51 292h98z" />
    <glyph glyph-name="parenleft" unicode="(" horiz-adv-x="340" 
d="M264 -182h-83c-102 175 -117 358 -88 526c30 168 100 332 264 507h95c-146 -171 -226 -343 -257 -517c-30 -174 -15 -345 69 -516z" />
    <glyph glyph-name="parenright" unicode=")" horiz-adv-x="340" 
d="M40 -182h-95c146 171 226 343 257 517c30 174 15 345 -69 516h83c102 -175 117 -358 88 -526c-30 -168 -100 -332 -264 -507z" />
    <glyph glyph-name="asterisk" unicode="*" horiz-adv-x="435" 
d="M419 427l-70 -48l-66 127l-89 -127l-62 48l106 115l-141 36l32 78l132 -57l2 151h81l-24 -151l142 57l18 -78l-146 -36z" />
    <glyph glyph-name="plus" unicode="+" horiz-adv-x="539" 
d="M542 256h-213l-42 -236h-89l42 236h-213l15 88h213l42 236h89l-42 -236h213z" />
    <glyph glyph-name="comma" unicode="," horiz-adv-x="225" 
d="M-19 -163l9 50c62 19 85 62 91 101c2 9 -2 12 -8 12h-53l23 131h130l-20 -109c-14 -83 -62 -170 -172 -185z" />
    <glyph glyph-name="hyphen" unicode="-" horiz-adv-x="439" 
d="M430 346h-359l15 88h359z" />
    <glyph glyph-name="period" unicode="." horiz-adv-x="225" 
d="M144 0h-123l23 131h123z" />
    <glyph glyph-name="slash" unicode="/" horiz-adv-x="416" 
d="M74 -77h-100l436 881h99z" />
    <glyph glyph-name="zero" unicode="0" horiz-adv-x="576" 
d="M573 488l-43 -246c-24 -140 -106 -252 -261 -252c-156 0 -220 129 -195 272l43 246c24 140 106 252 261 252c156 0 220 -129 195 -272zM427 245l43 250c14 83 3 165 -100 165c-90 0 -135 -68 -150 -155l-43 -250c-14 -80 -3 -165 100 -165c90 0 135 68 150 155z" />
    <glyph glyph-name="one" unicode="1" horiz-adv-x="377" 
d="M261 0h-103l107 614l-184 -127h-2l23 130l194 133h97z" />
    <glyph glyph-name="two" unicode="2" horiz-adv-x="538" 
d="M464 0h-440l7 40c28 162 131 243 224 310c81 58 188 125 196 216c5 60 -34 96 -101 96c-48 0 -87 -22 -107 -56c-8 -14 -17 -48 -19 -77h-101c3 41 12 78 22 100c37 79 115 131 214 131c119 0 210 -74 199 -194c-11 -125 -126 -205 -219 -271
c-63 -45 -168 -114 -187 -196h329z" />
    <glyph glyph-name="three" unicode="3" horiz-adv-x="552" 
d="M264 350h-51l16 91h75c98 0 144 57 150 124c6 66 -41 100 -103 100c-81 0 -124 -51 -129 -110h-103c10 113 105 205 240 205c120 0 208 -72 198 -196c-6 -77 -61 -145 -133 -174c69 -40 95 -108 89 -176c-11 -128 -123 -224 -256 -224c-147 0 -229 88 -219 213h102
c-5 -71 38 -115 125 -115c76 0 138 51 145 135c6 70 -36 127 -146 127z" />
    <glyph glyph-name="four" unicode="4" horiz-adv-x="576" 
d="M419 0h-103l34 194h-312l17 97l353 469h145l-84 -474h105l-16 -92h-105zM366 286l63 360h-2l-264 -360h203z" />
    <glyph glyph-name="five" unicode="5" horiz-adv-x="569" 
d="M532 281l-7 -39c-25 -140 -106 -252 -261 -252c-140 0 -210 103 -194 228h103c-9 -67 12 -128 99 -128c90 0 132 68 149 155l6 31c14 70 2 137 -91 137c-54 0 -104 -27 -130 -60l-101 1l70 396h400l-18 -101h-297l-32 -183c39 27 85 44 129 44c141 0 197 -99 175 -229z
" />
    <glyph glyph-name="six" unicode="6" horiz-adv-x="570" 
d="M536 268l-5 -30c-24 -142 -106 -248 -261 -248c-156 0 -221 129 -195 272l44 246c25 140 106 252 261 252c125 0 194 -83 196 -190h-104c-3 50 -30 91 -105 91c-85 0 -128 -69 -144 -156l-15 -83h1c46 46 105 66 157 66c89 0 148 -45 167 -116c8 -30 9 -66 3 -104z
M427 241l3 18c12 70 -2 134 -91 134c-72 0 -145 -54 -161 -139c-15 -80 -3 -164 100 -164c90 0 135 69 149 151z" />
    <glyph glyph-name="seven" unicode="7" horiz-adv-x="516" 
d="M226 0h-124c52 196 203 439 350 651h-328l18 99h444l-17 -95c-160 -228 -292 -455 -343 -655z" />
    <glyph glyph-name="eight" unicode="8" horiz-adv-x="570" 
d="M442 391c68 -40 97 -110 91 -177c-11 -128 -118 -224 -260 -224c-141 0 -233 96 -221 224c8 88 74 163 157 192c-58 40 -81 99 -76 158c11 124 111 196 238 196c128 0 216 -72 205 -196c-5 -63 -44 -128 -134 -173zM430 219c5 64 -33 127 -126 127
c-92 0 -142 -63 -147 -127c-7 -84 40 -133 124 -133c85 0 142 49 149 133zM473 563c6 65 -40 106 -110 106c-69 0 -121 -41 -127 -106c-5 -62 33 -116 108 -116c76 0 124 54 129 116z" />
    <glyph glyph-name="nine" unicode="9" horiz-adv-x="571" 
d="M419 245l15 83h-1c-46 -46 -105 -66 -157 -66c-89 0 -148 45 -167 116c-8 30 -10 66 -3 104l5 28c26 143 106 250 261 250c156 0 221 -128 195 -272l-44 -246c-25 -140 -106 -252 -261 -252c-125 0 -194 83 -196 190h104c3 -50 30 -91 105 -91c85 0 128 69 144 156z
M215 509l-3 -18c-12 -70 2 -134 91 -134c72 0 145 54 161 139c15 80 2 164 -101 164c-90 0 -134 -69 -148 -151z" />
    <glyph glyph-name="colon" unicode=":" horiz-adv-x="245" 
d="M152 0h-123l23 131h123zM225 415h-123l23 131h123z" />
    <glyph glyph-name="semicolon" unicode=";" horiz-adv-x="245" 
d="M-9 -163l9 50c62 19 85 62 91 101c2 9 -2 12 -8 12h-53l23 131h130l-20 -109c-14 -83 -62 -170 -172 -185zM227 415h-123l23 131h123z" />
    <glyph glyph-name="less" unicode="&#x3c;" horiz-adv-x="541" 
d="M466 43l-401 206l18 102l474 206l-18 -102l-384 -161l327 -161z" />
    <glyph glyph-name="equal" unicode="=" horiz-adv-x="541" 
d="M527 361h-447l16 88h447zM490 151h-447l16 88h447z" />
    <glyph glyph-name="greater" unicode="&#x3e;" horiz-adv-x="541" 
d="M502 249l-473 -206l18 102l383 161l-326 161l16 90l400 -206z" />
    <glyph glyph-name="question" unicode="?" horiz-adv-x="487" 
d="M280 231h-92c22 234 220 229 231 349c5 58 -38 86 -101 86c-68 0 -115 -47 -121 -108l-2 -20h-96l2 18c13 119 106 204 224 204c119 0 203 -64 193 -182c-15 -165 -224 -160 -238 -347zM257 0h-119l22 127h119z" />
    <glyph glyph-name="at" unicode="@" horiz-adv-x="911" 
d="M558 240l25 107c14 63 -3 126 -70 126c-63 0 -102 -51 -117 -122l-26 -114c-15 -73 -1 -118 58 -118s117 63 130 121zM627 -37l18 -54c-62 -33 -160 -59 -248 -59h-20c-198 0 -347 124 -297 380l24 132c55 275 228 388 426 388h23c199 0 351 -100 321 -366
c-21 -182 -101 -362 -227 -354c-51 3 -84 35 -93 81c-44 -53 -99 -77 -146 -77c-103 0 -155 77 -127 202l25 111c31 136 110 209 212 209c50 0 89 -24 109 -65l22 52h65l-82 -360c-11 -51 -14 -88 26 -93c76 -9 141 161 157 297c27 224 -98 303 -264 303h-23
c-164 0 -309 -99 -356 -333l-25 -132c-41 -214 72 -315 237 -315h20c83 0 173 24 223 53z" />
    <glyph glyph-name="A" unicode="A" horiz-adv-x="584" 
d="M408 328l-29 317h-4l-139 -317h172zM542 0h-104l-19 229h-228l-99 -229h-110l338 750h149z" />
    <glyph glyph-name="B" unicode="B" horiz-adv-x="598" 
d="M294 0h-248l132 750h193c46 0 81 -4 106 -12c80 -26 125 -88 117 -183c-7 -79 -57 -138 -129 -170c70 -33 99 -101 93 -170c-9 -96 -67 -169 -154 -200c-27 -9 -60 -15 -110 -15zM167 100h142c32 0 58 5 75 14c40 20 66 58 70 104c4 49 -19 88 -61 107
c-15 7 -29 11 -61 11h-123zM226 436h124c32 0 50 4 67 11c39 17 69 54 74 105c4 46 -18 76 -56 90c-17 6 -37 8 -66 8h-105z" />
    <glyph glyph-name="C" unicode="C" horiz-adv-x="586" 
d="M288 -10h-8c-118 0 -193 78 -204 180c-3 26 0 64 5 92l43 246c24 140 110 252 265 252h8c118 0 193 -78 204 -180c2 -19 1 -45 -2 -68h-103c2 18 3 39 2 53c-5 54 -36 95 -110 95h-6c-90 0 -140 -68 -155 -155l-43 -250c-4 -20 -7 -51 -5 -70c5 -54 36 -95 110 -95h6
c90 0 140 67 155 154h103c-24 -142 -110 -254 -265 -254z" />
    <glyph glyph-name="D" unicode="D" horiz-adv-x="609" 
d="M282 0h-236l132 750h205c29 0 52 -3 68 -7c88 -21 141 -86 150 -172c3 -26 0 -65 -5 -93l-39 -226c-22 -128 -88 -221 -205 -246c-19 -4 -43 -6 -70 -6zM454 255l39 230c4 20 7 51 5 70c-4 39 -21 72 -59 86c-14 5 -36 8 -71 8h-104l-97 -548h114c29 0 55 3 71 9
c57 21 90 77 102 145z" />
    <glyph glyph-name="E" unicode="E" horiz-adv-x="547" 
d="M477 0h-431l132 750h431l-18 -101h-327l-38 -214h270l-18 -101h-270l-41 -233h327z" />
    <glyph glyph-name="F" unicode="F" horiz-adv-x="542" 
d="M150 0h-104l132 750h431l-18 -101h-327l-38 -214h270l-18 -101h-270z" />
    <glyph glyph-name="G" unicode="G" horiz-adv-x="609" 
d="M511 0h-50l-12 75c-49 -55 -108 -85 -174 -85c-118 0 -188 78 -199 180c-3 26 0 64 5 92l43 246c24 140 110 252 265 252h8c118 0 195 -78 204 -180c1 -17 1 -39 -1 -59h-103c1 15 2 32 1 44c-5 54 -36 95 -110 95h-6c-90 0 -140 -68 -155 -155l-43 -250
c-4 -20 -7 -51 -5 -70c5 -54 36 -95 110 -95h3c66 0 139 38 161 161l5 30h-136l17 98h238z" />
    <glyph glyph-name="H" unicode="H" horiz-adv-x="640" 
d="M534 0h-104l59 340h-280l-59 -340h-104l132 750h104l-55 -309h280l55 309h104z" />
    <glyph glyph-name="I" unicode="I" horiz-adv-x="256" 
d="M150 0h-104l132 750h104z" />
    <glyph glyph-name="J" unicode="J" horiz-adv-x="537" 
d="M371 231l92 519h104l-91 -517c-8 -40 -17 -76 -35 -116c-38 -76 -100 -127 -201 -127s-165 59 -183 144c-6 30 -6 64 -1 98l6 39h104l-6 -36c-4 -21 -5 -42 -3 -62c6 -47 32 -83 88 -83c55 0 90 34 109 79c7 16 12 36 17 62z" />
    <glyph glyph-name="K" unicode="K" horiz-adv-x="616" 
d="M575 0h-117l-137 384l-126 -130l-45 -254h-104l132 750h104l-60 -336l1 -1s23 24 43 44l287 293h137l-284 -285z" />
    <glyph glyph-name="L" unicode="L" horiz-adv-x="539" 
d="M479 0h-433l132 750h104l-115 -649h329z" />
    <glyph glyph-name="M" unicode="M" horiz-adv-x="768" 
d="M662 0h-100l89 508c4 25 11 58 11 58h-1l-242 -420h-80l-94 420h-1s-5 -33 -9 -58l-89 -508h-100l132 750h121l102 -460l264 460h129z" />
    <glyph glyph-name="N" unicode="N" horiz-adv-x="639" 
d="M533 0h-125l-160 581h-1s-5 -33 -9 -58l-92 -523h-100l132 750h124l160 -581h1s5 33 10 58l92 523h100z" />
    <glyph glyph-name="O" unicode="O" horiz-adv-x="606" 
d="M288 -10h-8c-118 0 -193 78 -204 180c-3 26 0 64 5 92l43 246c24 140 110 252 265 252h8c118 0 193 -78 204 -180c3 -26 0 -64 -5 -92l-43 -246c-24 -140 -110 -252 -265 -252zM450 245l43 250c4 20 7 51 5 70c-5 54 -36 95 -110 95h-6c-90 0 -140 -68 -155 -155
l-43 -250c-4 -20 -7 -51 -5 -70c5 -54 36 -95 110 -95h6c90 0 140 68 155 155z" />
    <glyph glyph-name="P" unicode="P" horiz-adv-x="594" 
d="M219 392h128c40 0 68 6 86 17c38 22 65 61 69 110c5 51 -15 92 -49 113c-17 11 -46 17 -84 17h-105zM150 0h-104l132 750h199c44 0 84 -5 109 -15c82 -32 129 -112 120 -216c-9 -102 -70 -181 -158 -213c-26 -10 -65 -15 -108 -15h-139z" />
    <glyph glyph-name="Q" unicode="Q" horiz-adv-x="606" 
d="M591 12l-17 -95c-123 4 -195 24 -253 75c-11 -1 -22 -2 -33 -2h-8c-118 0 -193 78 -204 180c-3 26 0 64 5 92l43 246c24 140 110 252 265 252h8c118 0 193 -78 204 -180c3 -26 0 -64 -5 -92l-43 -246c-15 -87 -54 -163 -124 -208c40 -13 96 -19 162 -22zM450 245l43 250
c4 20 7 51 5 70c-5 54 -36 95 -110 95h-6c-90 0 -140 -68 -155 -155l-43 -250c-4 -20 -7 -51 -5 -70c5 -54 36 -95 110 -95h6c90 0 140 68 155 155z" />
    <glyph glyph-name="R" unicode="R" horiz-adv-x="596" 
d="M224 423h117c90 0 143 50 149 123c5 55 -21 86 -69 98c-17 4 -39 6 -65 6h-92zM541 0h-113c-16 20 -18 57 -15 90l14 137c7 71 -32 96 -106 96h-115l-56 -323h-104l132 750h190c34 0 63 -3 86 -8c95 -22 150 -86 141 -191c-7 -78 -61 -150 -144 -178v-1
c58 -23 85 -67 78 -144l-12 -130c-4 -38 1 -75 24 -96v-2z" />
    <glyph glyph-name="S" unicode="S" horiz-adv-x="560" 
d="M569 537h-102c12 66 -16 128 -109 128c-96 0 -124 -52 -128 -100c-5 -65 30 -99 85 -123l44 -19c89 -39 174 -108 160 -232c-15 -130 -123 -201 -246 -201c-155 0 -237 102 -224 227h104c-9 -69 36 -132 119 -132c78 0 136 41 144 117c7 69 -51 110 -100 132l-44 20
c-81 36 -161 91 -144 220c16 123 119 186 237 186c134 0 229 -76 204 -223z" />
    <glyph glyph-name="T" unicode="T" horiz-adv-x="550" 
d="M298 0h-104l114 649h-202l18 101h506l-18 -101h-200z" />
    <glyph glyph-name="U" unicode="U" horiz-adv-x="620" 
d="M295 -10h-8c-121 0 -193 78 -204 180c-3 26 0 64 5 92l86 488h103l-86 -495c-4 -20 -7 -51 -5 -70c5 -54 36 -95 110 -95h6c90 0 140 68 155 155l89 505h104l-90 -508c-24 -140 -110 -252 -265 -252z" />
    <glyph glyph-name="V" unicode="V" horiz-adv-x="580" 
d="M329 0h-138l-77 750h105l55 -631h2l282 631h112z" />
    <glyph glyph-name="W" unicode="W" horiz-adv-x="864" 
d="M659 0h-138l-21 569h-2l-218 -569h-136l-16 750h107l-1 -616h2l234 616h121l16 -616h2l217 616h114z" />
    <glyph glyph-name="X" unicode="X" horiz-adv-x="572" 
d="M532 0h-112l-108 291l-209 -291h-125l288 393l-132 357h114l89 -262l180 262h127l-262 -363z" />
    <glyph glyph-name="Y" unicode="Y" horiz-adv-x="570" 
d="M307 0h-104l57 324l-155 426h112l108 -315h2l219 315h123l-305 -426z" />
    <glyph glyph-name="Z" unicode="Z" horiz-adv-x="576" 
d="M499 0h-484l16 94l439 555h-327l18 101h464l-17 -93l-441 -556h349z" />
    <glyph glyph-name="bracketleft" unicode="[" horiz-adv-x="369" 
d="M290 -190h-269l185 1049h269l-13 -73h-171l-159 -903h171z" />
    <glyph glyph-name="backslash" unicode="\" horiz-adv-x="416" 
d="M354 -77h-92l-133 881h91z" />
    <glyph glyph-name="bracketright" unicode="]" horiz-adv-x="368" 
d="M219 -190h-267l13 73h169l159 903h-170l13 73h268z" />
    <glyph glyph-name="asciicircum" unicode="^" horiz-adv-x="468" 
d="M478 400h-89l-65 263l-157 -263h-97l225 360h86z" />
    <glyph glyph-name="underscore" unicode="_" horiz-adv-x="437" 
d="M382 -137h-436l13 74h436z" />
    <glyph glyph-name="grave" unicode="`" horiz-adv-x="490" 
d="M426 657h-69l-170 180h123z" />
    <glyph glyph-name="a" unicode="a" horiz-adv-x="532" 
d="M432 0h-65v82h-1c-39 -56 -91 -92 -156 -92c-104 0 -171 69 -160 186c7 84 63 146 148 168c21 5 44 8 78 8h120l5 29c11 65 -15 100 -80 100c-54 0 -87 -27 -107 -65h-99c34 93 105 154 215 154c133 0 188 -78 165 -210zM376 242l5 26h-112c-23 0 -41 -3 -55 -8
c-36 -13 -62 -43 -66 -83c-6 -60 23 -99 81 -99c67 0 131 82 147 164z" />
    <glyph glyph-name="b" unicode="b" horiz-adv-x="555" 
d="M412 229l17 96c5 26 7 48 6 66c-2 48 -24 88 -82 88c-68 0 -139 -70 -163 -198l-7 -38c-13 -69 5 -160 97 -160c79 0 119 70 132 146zM528 331l-19 -104c-22 -123 -87 -237 -226 -237c-60 0 -125 35 -146 88h-1l-25 -78h-68l138 785h98l-41 -234c-5 -25 -12 -58 -12 -58
h1c39 48 92 77 146 77c102 0 157 -72 161 -163c1 -24 -1 -50 -6 -76z" />
    <glyph glyph-name="c" unicode="c" horiz-adv-x="514" 
d="M369 176h102c-9 -29 -20 -56 -36 -80c-40 -63 -104 -106 -193 -106c-92 0 -152 48 -173 120c-10 36 -11 79 -3 124l18 102c8 46 22 91 46 128c40 63 104 106 193 106c92 0 152 -48 173 -120c6 -23 9 -49 8 -76h-97c0 9 0 18 -1 27c-6 42 -30 75 -89 75
c-50 0 -84 -25 -107 -63c-14 -24 -24 -52 -29 -82l-18 -102c-4 -23 -7 -48 -4 -70c6 -42 30 -75 89 -75c50 0 84 25 107 63c5 9 10 19 14 29z" />
    <glyph glyph-name="d" unicode="d" horiz-adv-x="555" 
d="M452 0h-68l-1 81h-1c-47 -62 -104 -91 -159 -91c-108 0 -159 73 -164 164c-1 24 1 49 6 75l19 104c22 123 87 237 226 237c50 0 105 -25 133 -64h1s5 33 9 58l39 221h98zM403 279l7 38c13 69 -5 160 -97 160c-79 0 -119 -70 -132 -146l-17 -96c-4 -23 -7 -48 -6 -66
c2 -48 24 -88 82 -88c68 0 139 70 163 198z" />
    <glyph glyph-name="e" unicode="e" 
d="M185 346h218c4 20 9 42 5 69c-6 43 -43 66 -90 66c-50 0 -84 -25 -107 -63c-11 -18 -21 -49 -26 -72zM488 258h-320l-5 -29c-4 -23 -7 -48 -4 -70c6 -42 30 -78 89 -78c50 0 85 28 108 66c3 6 7 12 10 19h102c-9 -26 -19 -49 -33 -70c-40 -63 -104 -106 -193 -106
c-92 0 -152 48 -173 120c-10 36 -11 79 -3 124l18 102c8 46 22 91 46 128c40 63 104 106 199 106c99 0 164 -50 176 -135c4 -27 3 -62 -4 -104z" />
    <glyph glyph-name="f" unicode="f" horiz-adv-x="354" 
d="M148 -153h-98l109 619h-87l16 94h87l8 43c26 142 104 193 220 193c19 0 48 -2 55 -3l-16 -94c-13 2 -30 3 -42 3c-70 0 -106 -24 -121 -108l-6 -34h129l-16 -94h-131s-4 -32 -9 -58z" />
    <glyph glyph-name="g" unicode="g" horiz-adv-x="555" 
d="M354 0l2 14c4 25 10 54 10 54h-1c-43 -46 -92 -68 -140 -68c-108 0 -159 73 -164 164c-1 24 1 49 6 75l17 94c22 123 87 237 226 237c60 0 125 -35 146 -88h1l25 78h68l-100 -569c-22 -124 -98 -229 -240 -229c-105 0 -182 57 -187 170h99c7 -56 43 -78 95 -78
c80 0 124 70 137 146zM405 289l5 28c13 69 -5 159 -97 159c-79 0 -118 -69 -132 -145l-17 -96c-11 -64 -4 -141 83 -141c64 0 133 57 158 195z" />
    <glyph glyph-name="h" unicode="h" horiz-adv-x="570" 
d="M470 0h-98l56 318c5 29 8 55 7 73c-2 48 -24 88 -82 88c-68 0 -140 -70 -163 -198l-49 -281h-98l138 785h98l-41 -234c-5 -25 -12 -58 -12 -58h1c39 48 92 77 146 77c102 0 157 -72 161 -163c1 -24 -2 -54 -7 -83z" />
    <glyph glyph-name="i" unicode="i" horiz-adv-x="238" 
d="M141 0h-98l98 560h98zM257 647h-103l20 113h103z" />
    <glyph glyph-name="j" unicode="j" horiz-adv-x="250" 
d="M-131 -235l17 94c11 -1 26 -2 36 -2c69 0 105 24 120 108l105 595h98l-106 -606c-25 -142 -105 -191 -220 -191c-16 0 -40 1 -50 2zM264 647h-104l20 113h104z" />
    <glyph glyph-name="k" unicode="k" horiz-adv-x="517" 
d="M477 0h-110l-111 284l-77 -69l-38 -215h-98l138 785h98l-77 -435l229 210h136l-232 -207z" />
    <glyph glyph-name="l" unicode="l" horiz-adv-x="244" 
d="M141 0h-98l138 785h98z" />
    <glyph glyph-name="m" unicode="m" horiz-adv-x="836" 
d="M735 0h-98l59 335c14 80 5 144 -59 144c-49 0 -125 -57 -148 -189l-51 -290h-98l59 335c14 80 5 144 -59 144c-52 0 -126 -60 -152 -208l-47 -271h-98l98 560h68l1 -81h1c47 65 107 91 154 91c67 0 107 -45 123 -107c36 56 103 107 174 107c78 0 123 -52 136 -124
c6 -34 3 -72 -4 -110z" />
    <glyph glyph-name="n" unicode="n" horiz-adv-x="570" 
d="M470 0h-98l56 318c5 29 8 55 7 73c-2 48 -24 88 -82 88c-68 0 -140 -70 -163 -198l-49 -281h-98l98 560h68l1 -81h1c47 62 106 91 162 91c102 0 157 -72 161 -163c1 -24 -2 -54 -7 -83z" />
    <glyph glyph-name="o" unicode="o" 
d="M499 326l-18 -102c-8 -46 -22 -91 -46 -128c-40 -63 -104 -106 -193 -106c-92 0 -152 48 -173 120c-10 36 -11 79 -3 124l18 102c8 46 22 91 46 128c40 63 104 106 193 106c92 0 152 -48 173 -120c10 -36 11 -79 3 -124zM384 229l18 102c4 23 7 48 4 70
c-6 42 -30 75 -89 75c-50 0 -84 -25 -107 -63c-14 -24 -24 -52 -29 -82l-18 -102c-4 -23 -7 -48 -4 -70c6 -42 30 -75 89 -75c50 0 84 25 107 63c14 24 24 52 29 82z" />
    <glyph glyph-name="p" unicode="p" horiz-adv-x="555" 
d="M97 -244h-98l142 804h68l1 -81h1c47 62 104 91 159 91c108 0 159 -73 164 -164c1 -24 -1 -49 -6 -75l-19 -104c-22 -123 -87 -237 -226 -237c-50 0 -105 25 -133 64h-1s-5 -33 -9 -58zM412 229l17 96c4 23 7 48 6 66c-2 48 -24 88 -82 88c-68 0 -139 -70 -163 -198
l-7 -38c-13 -69 5 -160 97 -160c79 0 119 70 132 146z" />
    <glyph glyph-name="q" unicode="q" horiz-adv-x="555" 
d="M403 279l7 38c13 69 -5 160 -97 160c-79 0 -119 -70 -132 -146l-17 -96c-5 -26 -7 -48 -6 -66c2 -48 24 -88 82 -88c68 0 139 70 163 198zM408 -244h-98l45 253c5 25 12 58 12 58h-1c-39 -48 -92 -77 -146 -77c-102 0 -157 72 -161 163c-1 24 1 50 6 76l19 104
c22 123 87 237 226 237c60 0 125 -35 146 -88h1l25 78h68z" />
    <glyph glyph-name="r" unicode="r" horiz-adv-x="410" 
d="M141 0h-98l98 560h68l1 -81h1c47 62 104 91 160 91c25 0 54 -5 74 -11l-19 -97c-23 10 -49 16 -78 16c-64 0 -134 -59 -160 -207z" />
    <glyph glyph-name="s" unicode="s" horiz-adv-x="481" 
d="M473 413h-96c-4 45 -33 71 -87 71c-62 0 -95 -34 -95 -70s19 -60 86 -81c90 -28 155 -70 155 -169c0 -108 -98 -174 -199 -174c-119 0 -200 62 -200 176h96c3 -58 43 -88 104 -88c60 0 101 41 101 87c0 41 -22 60 -101 87c-98 33 -138 80 -138 151c0 103 89 167 190 167
c95 0 181 -44 184 -157z" />
    <glyph glyph-name="t" unicode="t" horiz-adv-x="370" 
d="M321 93l-17 -93c-15 -2 -25 -3 -38 -3c-143 0 -176 81 -152 214l45 255h-87l16 94h87l25 140h98l-25 -140h129l-16 -94h-129l-45 -256c-12 -66 -14 -119 71 -119c12 0 21 0 38 2z" />
    <glyph glyph-name="u" unicode="u" horiz-adv-x="568" 
d="M465 0h-68l-1 81h-1c-47 -62 -106 -91 -162 -91c-102 0 -157 72 -161 163c-1 24 2 54 7 83l57 324h98l-56 -318c-5 -29 -8 -55 -7 -73c2 -48 24 -88 82 -88c68 0 140 70 163 198l49 281h98z" />
    <glyph glyph-name="v" unicode="v" horiz-adv-x="490" 
d="M268 0h-106l-85 560h100l54 -439h2l208 439h108z" />
    <glyph glyph-name="w" unicode="w" horiz-adv-x="741" 
d="M549 0h-107l-35 395h-2l-172 -395h-102l-46 560h101l23 -413h2l179 413h90l34 -412h2l168 412h108z" />
    <glyph glyph-name="x" unicode="x" horiz-adv-x="508" 
d="M464 0h-106l-95 211l-164 -211h-119l242 299l-125 261h107l82 -184l143 184h122l-224 -271z" />
    <glyph glyph-name="y" unicode="y" horiz-adv-x="498" 
d="M130 -39l46 85l-97 514h101l66 -394h2l201 394h108l-341 -637c-51 -95 -111 -139 -194 -139c-29 0 -58 4 -79 11l17 94c19 -5 38 -10 63 -10c46 0 81 33 107 82z" />
    <glyph glyph-name="z" unicode="z" horiz-adv-x="490" 
d="M425 0h-420l14 85l342 381h-264l16 94h392l-15 -86l-339 -380h290z" />
    <glyph glyph-name="braceleft" unicode="{" horiz-adv-x="417" 
d="M341 -190h-65c-140 0 -222 52 -172 211l43 133c36 114 -1 138 -67 138h-27l15 83h27c66 0 111 24 115 138l5 135c7 159 96 211 246 211h65l-13 -73h-55c-67 0 -142 -29 -145 -143l-3 -115c-2 -92 -31 -169 -127 -200c85 -30 87 -108 57 -199l-38 -113
c-39 -115 30 -133 97 -133h55z" />
    <glyph glyph-name="bar" unicode="|" horiz-adv-x="312" 
d="M138 -190h-92l185 1049h92z" />
    <glyph glyph-name="braceright" unicode="}" horiz-adv-x="416" 
d="M12 -190h-63l13 73h54c66 0 141 28 144 143l3 113c2 91 32 169 127 199c-84 31 -87 108 -57 200l38 115c38 114 -30 133 -96 133h-55l13 73h64c141 0 222 -52 172 -211l-42 -135c-35 -114 0 -138 67 -138h26l-15 -83h-26c-67 0 -110 -24 -115 -138l-6 -133
c-7 -159 -96 -211 -246 -211z" />
    <glyph glyph-name="asciitilde" unicode="~" horiz-adv-x="534" 
d="M464 476h75c-16 -97 -62 -153 -135 -159c-33 -2 -66 12 -102 39c-46 36 -66 51 -97 50c-27 -2 -43 -19 -54 -74h-75c16 98 62 154 135 160c33 2 66 -12 103 -39c46 -36 65 -51 96 -50c26 1 45 19 54 73z" />
    <glyph glyph-name="uni00A0" unicode="&#xa0;" horiz-adv-x="216" 
 />
    <glyph glyph-name="exclamdown" unicode="&#xa1;" horiz-adv-x="251" 
d="M118 -190h-113l105 519h87zM231 433h-119l22 127h119z" />
    <glyph glyph-name="cent" unicode="&#xa2;" horiz-adv-x="517" 
d="M247 -70h-49l18 102c-74 10 -122 55 -140 118c-10 36 -11 79 -3 124l18 102c8 46 22 91 46 128c38 60 98 102 181 106l16 91h49l-17 -95c72 -11 119 -54 137 -116c5 -20 8 -43 8 -66h-97c0 41 -16 75 -64 88l-69 -387c44 9 76 42 93 81h101c-9 -25 -19 -49 -33 -70
c-38 -59 -97 -101 -178 -106zM232 126l69 390c-38 -6 -65 -29 -84 -61c-14 -24 -24 -52 -29 -82l-18 -104c-4 -23 -7 -48 -4 -70c5 -36 24 -66 66 -73z" />
    <glyph glyph-name="sterling" unicode="&#xa3;" horiz-adv-x="539" 
d="M310 0h-315l16 93c47 0 68 30 82 110l25 138h-79l12 68h79l22 127c5 29 13 62 25 89c35 80 104 135 202 135c111 0 187 -73 180 -205h-96c0 78 -36 114 -93 114c-46 0 -79 -24 -98 -61c-11 -21 -18 -46 -22 -70l-22 -129h183l-12 -68h-183l-24 -133
c-13 -75 -37 -101 -64 -115v-2h196c54 0 86 10 101 90h92c-19 -149 -93 -181 -207 -181z" />
    <glyph glyph-name="yen" unicode="&#xa5;" horiz-adv-x="539" 
d="M516 184h-196l-32 -184h-98l32 184h-195l12 68h195l17 97h-195l12 68h171l-135 333h105l106 -284l207 284h117l-253 -333h171l-12 -68h-196l-17 -97h196z" />
    <glyph glyph-name="brokenbar" unicode="&#xa6;" horiz-adv-x="312" 
d="M138 -190h-92l79 449h92zM244 410h-92l79 449h92z" />
    <glyph glyph-name="section" unicode="&#xa7;" horiz-adv-x="516" 
d="M238 151l-23 9c-113 44 -141 108 -141 154c0 9 1 17 2 24c11 61 58 107 130 127c-53 38 -65 79 -65 112c0 107 83 173 188 173c109 0 182 -56 185 -153h-97c-7 42 -36 69 -95 69c-55 0 -88 -36 -88 -79c0 -37 28 -65 93 -91l27 -11c81 -33 138 -85 139 -157
c0 -67 -47 -132 -115 -157c35 -29 53 -66 53 -107c0 -117 -97 -184 -199 -184c-126 0 -195 67 -202 170h97c8 -53 42 -88 107 -88c60 0 100 44 100 95c0 41 -33 69 -96 94zM247 242l59 -24c52 2 94 47 94 93c0 35 -23 66 -74 88l-49 21c-55 0 -106 -44 -106 -93
c0 -33 23 -64 76 -85z" />
    <glyph glyph-name="dieresis" unicode="&#xa8;" horiz-adv-x="490" 
d="M289 674h-103l20 111h103zM484 674h-103l20 111h103z" />
    <glyph glyph-name="copyright" unicode="&#xa9;" horiz-adv-x="843" 
d="M452 135h-7c-61 0 -122 34 -145 96c-8 20 -11 44 -11 76v138c0 32 4 55 11 75c24 63 84 97 145 97h7c62 0 123 -35 145 -97c7 -18 11 -41 12 -73h-76c-1 21 -4 39 -9 51c-13 30 -43 44 -72 44h-7c-28 0 -57 -14 -71 -44c-7 -15 -9 -32 -9 -53v-138c0 -21 2 -38 9 -53
c14 -30 43 -44 71 -44h7c29 0 59 14 72 44c6 14 9 33 9 55h76c-1 -34 -5 -59 -12 -77c-22 -63 -83 -97 -145 -97zM446 -10c-218 0 -361 172 -361 385s143 385 361 385c219 0 362 -172 362 -385s-143 -385 -362 -385zM446 39c192 0 312 151 312 336s-120 336 -312 336
c-191 0 -311 -151 -311 -336s120 -336 311 -336z" />
    <glyph glyph-name="ordfeminine" unicode="&#xaa;" horiz-adv-x="339" 
d="M301 577h-62c-16 0 -30 -2 -40 -6c-21 -8 -35 -25 -37 -47c-3 -35 14 -57 54 -57s77 47 85 110zM334 418h-39v44c-22 -30 -56 -50 -92 -50c-64 0 -109 41 -102 112c5 47 32 83 80 98c16 5 35 7 58 7h71l2 11c8 43 -9 66 -49 66c-32 0 -51 -16 -60 -38h-62
c16 55 62 92 127 92c81 0 118 -45 104 -125z" />
    <glyph glyph-name="guillemotleft" unicode="&#xab;" horiz-adv-x="521" 
d="M239 77l-184 249l272 249l-21 -118l-151 -138l103 -138zM455 77l-184 249l272 249l-21 -118l-151 -138l103 -138z" />
    <glyph glyph-name="logicalnot" unicode="&#xac;" horiz-adv-x="570" 
d="M500 0h-490l132 750h490zM75 93l217 281l-118 281zM467 93l99 562l-217 -281zM329 421l216 279h-333zM428 50l-116 276l-214 -276h330z" />
    <glyph glyph-name="registered" unicode="&#xae;" horiz-adv-x="482" 
d="M312 381c-114 0 -193 91 -193 202s79 202 193 202s193 -91 193 -202s-79 -202 -193 -202zM312 409c98 0 164 79 164 174s-66 174 -164 174s-164 -79 -164 -174s66 -174 164 -174zM406 469h-43l-47 96h-37v-96h-38v233h77c45 0 80 -22 80 -66c0 -33 -16 -56 -45 -65z
M278 600h44c19 0 36 12 36 36c0 22 -17 31 -40 31h-40v-67z" />
    <glyph glyph-name="macron" unicode="&#xaf;" horiz-adv-x="490" 
d="M486 675h-304l11 65h304z" />
    <glyph glyph-name="degree" unicode="&#xb0;" horiz-adv-x="303" 
d="M235 534c-62 0 -111 50 -111 113s49 114 111 114s112 -51 112 -114s-50 -113 -112 -113zM235 577c36 0 66 31 66 70s-30 71 -66 71s-65 -32 -65 -71s29 -70 65 -70z" />
    <glyph glyph-name="plusminus" unicode="&#xb1;" horiz-adv-x="539" 
d="M497 0h-515l15 88h515zM565 386h-213l-40 -226h-89l40 226h-213l15 88h213l40 226h89l-40 -226h213z" />
    <glyph glyph-name="twosuperior" unicode="&#xb2;" horiz-adv-x="570" 
d="M500 0h-490l132 750h490zM75 93l217 281l-118 281zM467 93l99 562l-217 -281zM329 421l216 279h-333zM428 50l-116 276l-214 -276h330z" />
    <glyph glyph-name="threesuperior" unicode="&#xb3;" horiz-adv-x="570" 
d="M500 0h-490l132 750h490zM75 93l217 281l-118 281zM467 93l99 562l-217 -281zM329 421l216 279h-333zM428 50l-116 276l-214 -276h330z" />
    <glyph glyph-name="acute" unicode="&#xb4;" horiz-adv-x="490" 
d="M311 657h-69l116 180h123z" />
    <glyph glyph-name="mu" unicode="&#xb5;" horiz-adv-x="573" 
d="M470 0h-68l-1 81h-1c-47 -62 -106 -91 -162 -91c-35 0 -69 11 -93 38h-3s-4 -43 -9 -72l-36 -200h-98l142 804h98l-59 -335c-4 -24 -6 -50 -3 -73c6 -41 31 -70 86 -70c64 0 134 59 160 207l47 271h98z" />
    <glyph glyph-name="mu" unicode="&#x3bc;" horiz-adv-x="573" 
d="M470 0h-68l-1 81h-1c-47 -62 -106 -91 -162 -91c-35 0 -69 11 -93 38h-3s-4 -43 -9 -72l-36 -200h-98l142 804h98l-59 -335c-4 -24 -6 -50 -3 -73c6 -41 31 -70 86 -70c64 0 134 59 160 207l47 271h98z" />
    <glyph glyph-name="paragraph" unicode="&#xb6;" horiz-adv-x="593" 
d="M450 -175h-73l152 862h-107l-152 -862h-74l95 541c-103 1 -177 86 -168 191c10 107 101 193 205 193h285z" />
    <glyph glyph-name="periodcentered" unicode="&#xb7;" horiz-adv-x="225" 
d="M202 330h-123l23 131h123z" />
    <glyph glyph-name="cedilla" unicode="&#xb8;" horiz-adv-x="490" 
d="M203 -91l-25 7c-15 4 -20 13 -13 31l41 79l41 -7l-31 -68c48 -12 97 -42 94 -96c-3 -56 -51 -93 -107 -93c-62 0 -102 37 -105 87h52c5 -26 24 -41 56 -41c29 0 51 20 53 45c2 26 -17 45 -56 56z" />
    <glyph glyph-name="onesuperior" unicode="&#xb9;" horiz-adv-x="570" 
d="M500 0h-490l132 750h490zM75 93l217 281l-118 281zM467 93l99 562l-217 -281zM329 421l216 279h-333zM428 50l-116 276l-214 -276h330z" />
    <glyph glyph-name="ordmasculine" unicode="&#xba;" horiz-adv-x="340" 
d="M374 613l-11 -61c-5 -28 -13 -55 -28 -77c-24 -38 -64 -64 -117 -64c-57 0 -94 29 -106 72c-6 22 -7 48 -2 75l11 61c5 28 13 55 28 77c24 38 64 64 117 64c57 0 94 -29 106 -72c6 -22 7 -48 2 -75zM303 555l11 61c2 14 4 29 2 42c-3 26 -18 45 -53 45
c-30 0 -52 -14 -65 -37c-9 -15 -14 -32 -17 -50l-11 -61c-2 -14 -4 -29 -2 -42c3 -25 18 -45 53 -45c30 0 51 15 65 38c8 14 14 31 17 49z" />
    <glyph glyph-name="guillemotright" unicode="&#xbb;" horiz-adv-x="521" 
d="M520 326l-272 -249l21 118l151 138l-103 138l19 104zM304 326l-272 -249l21 118l151 138l-103 138l19 104z" />
    <glyph glyph-name="onequarter" unicode="&#xbc;" horiz-adv-x="570" 
d="M500 0h-490l132 750h490zM75 93l217 281l-118 281zM467 93l99 562l-217 -281zM329 421l216 279h-333zM428 50l-116 276l-214 -276h330z" />
    <glyph glyph-name="onehalf" unicode="&#xbd;" horiz-adv-x="570" 
d="M500 0h-490l132 750h490zM75 93l217 281l-118 281zM467 93l99 562l-217 -281zM329 421l216 279h-333zM428 50l-116 276l-214 -276h330z" />
    <glyph glyph-name="threequarters" unicode="&#xbe;" horiz-adv-x="570" 
d="M500 0h-490l132 750h490zM75 93l217 281l-118 281zM467 93l99 562l-217 -281zM329 421l216 279h-333zM428 50l-116 276l-214 -276h330z" />
    <glyph glyph-name="questiondown" unicode="&#xbf;" horiz-adv-x="490" 
d="M426 22l-2 -18c-13 -119 -106 -204 -224 -204c-119 0 -203 64 -193 182c15 165 224 160 238 347h92c-22 -234 -220 -229 -231 -349c-5 -58 38 -86 101 -86c68 0 115 47 121 108l2 20h96zM365 433h-119l22 127h119z" />
    <glyph glyph-name="Agrave" unicode="&#xc0;" horiz-adv-x="584" 
d="M408 328l-29 317h-4l-139 -317h172zM542 0h-104l-19 229h-228l-99 -229h-110l338 750h149zM467 807h-69l-170 180h123z" />
    <glyph glyph-name="Aacute" unicode="&#xc1;" horiz-adv-x="584" 
d="M408 328l-29 317h-4l-139 -317h172zM542 0h-104l-19 229h-228l-99 -229h-110l338 750h149zM403 807h-69l116 180h123z" />
    <glyph glyph-name="Acircumflex" unicode="&#xc2;" horiz-adv-x="584" 
d="M408 328l-29 317h-4l-139 -317h172zM542 0h-104l-19 229h-228l-99 -229h-110l338 750h149zM592 808h-80l-100 132l-124 -132h-82l169 191h82z" />
    <glyph glyph-name="Atilde" unicode="&#xc3;" horiz-adv-x="584" 
d="M408 328l-29 317h-4l-139 -317h172zM542 0h-104l-19 229h-228l-99 -229h-110l338 750h149zM546 944h60c-13 -85 -57 -137 -123 -137c-26 0 -56 11 -83 33c-40 31 -56 43 -84 43c-22 0 -44 -17 -53 -63h-60c14 85 57 137 122 137c27 0 56 -11 84 -33c41 -31 56 -43 84 -43
c22 0 45 17 53 63z" />
    <glyph glyph-name="Adieresis" unicode="&#xc4;" horiz-adv-x="584" 
d="M408 328l-29 317h-4l-139 -317h172zM542 0h-104l-19 229h-228l-99 -229h-110l338 750h149zM355 824h-103l20 111h103zM550 824h-103l20 111h103z" />
    <glyph glyph-name="Aring" unicode="&#xc5;" horiz-adv-x="584" 
d="M408 328l-29 317h-4l-139 -317h172zM542 0h-104l-19 229h-228l-99 -229h-110l338 750h149zM403 789c-62 0 -111 50 -111 113s49 114 111 114s112 -51 112 -114s-50 -113 -112 -113zM403 832c36 0 66 31 66 70s-30 71 -66 71s-65 -32 -65 -71s29 -70 65 -70z" />
    <glyph glyph-name="AE" unicode="&#xc6;" horiz-adv-x="865" 
d="M795 0h-396l40 232h-217l-137 -232h-121l457 750h506l-18 -101h-292l-38 -215h237l-18 -101h-237l-41 -232h292zM457 333l56 316h-42l-188 -316h174z" />
    <glyph glyph-name="Ccedilla" unicode="&#xc7;" horiz-adv-x="586" 
d="M233 -91l-25 7c-15 4 -20 13 -13 31l26 50c-84 21 -136 89 -145 173c-3 26 0 64 5 92l43 246c24 140 110 252 265 252h8c118 0 193 -78 204 -180c2 -19 1 -45 -2 -68h-103c2 18 3 39 2 53c-5 54 -36 95 -110 95h-6c-90 0 -140 -68 -155 -155l-43 -250
c-4 -20 -7 -51 -5 -70c5 -54 36 -95 110 -95h6c90 0 140 67 155 154h103c-24 -142 -110 -254 -265 -254h-8c-6 0 -11 0 -16 1l-18 -40c48 -12 97 -42 94 -96c-3 -56 -51 -93 -107 -93c-62 0 -102 37 -105 87h52c5 -26 24 -41 56 -41c29 0 51 20 53 45c2 26 -17 45 -56 56z
" />
    <glyph glyph-name="Egrave" unicode="&#xc8;" horiz-adv-x="547" 
d="M477 0h-431l132 750h431l-18 -101h-327l-38 -214h270l-18 -101h-270l-41 -233h327zM484 807h-69l-170 180h123z" />
    <glyph glyph-name="Eacute" unicode="&#xc9;" horiz-adv-x="547" 
d="M477 0h-431l132 750h431l-18 -101h-327l-38 -214h270l-18 -101h-270l-41 -233h327zM394 807h-69l116 180h123z" />
    <glyph glyph-name="Ecircumflex" unicode="&#xca;" horiz-adv-x="547" 
d="M477 0h-431l132 750h431l-18 -101h-327l-38 -214h270l-18 -101h-270l-41 -233h327zM593 818h-80l-100 132l-124 -132h-82l169 191h82z" />
    <glyph glyph-name="Edieresis" unicode="&#xcb;" horiz-adv-x="547" 
d="M477 0h-431l132 750h431l-18 -101h-327l-38 -214h270l-18 -101h-270l-41 -233h327zM357 824h-103l20 111h103zM552 824h-103l20 111h103z" />
    <glyph glyph-name="Igrave" unicode="&#xcc;" horiz-adv-x="256" 
d="M150 0h-104l132 750h104zM286 807h-69l-170 180h123z" />
    <glyph glyph-name="Iacute" unicode="&#xcd;" horiz-adv-x="256" 
d="M150 0h-104l132 750h104zM260 807h-69l116 180h123z" />
    <glyph glyph-name="Icircumflex" unicode="&#xce;" horiz-adv-x="256" 
d="M150 0h-104l132 750h104zM429 808h-80l-100 132l-124 -132h-82l169 191h82z" />
    <glyph glyph-name="Idieresis" unicode="&#xcf;" horiz-adv-x="256" 
d="M150 0h-104l132 750h104zM196 824h-103l20 111h103zM391 824h-103l20 111h103z" />
    <glyph glyph-name="Eth" unicode="&#xd0;" horiz-adv-x="658" 
d="M332 0h-236l63 357h-107l14 76h106l56 317h205c29 0 52 -3 68 -7c88 -21 141 -86 150 -172c3 -26 0 -65 -5 -93l-39 -226c-22 -128 -88 -221 -205 -246c-19 -4 -43 -6 -70 -6zM504 255l39 230c4 20 7 51 5 70c-4 39 -21 72 -59 86c-14 5 -36 8 -71 8h-104l-38 -216h144
l-14 -76h-144l-45 -256h114c29 0 55 3 71 9c57 21 90 77 102 145z" />
    <glyph glyph-name="Ntilde" unicode="&#xd1;" horiz-adv-x="639" 
d="M533 0h-125l-160 581h-1s-5 -33 -9 -58l-92 -523h-100l132 750h124l160 -581h1s5 33 10 58l92 523h100zM578 944h60c-13 -85 -57 -137 -123 -137c-26 0 -56 11 -83 33c-40 31 -56 43 -84 43c-22 0 -44 -17 -53 -63h-60c14 85 57 137 122 137c27 0 56 -11 84 -33
c41 -31 56 -43 84 -43c22 0 45 17 53 63z" />
    <glyph glyph-name="Ograve" unicode="&#xd2;" horiz-adv-x="606" 
d="M288 -10h-8c-118 0 -193 78 -204 180c-3 26 0 64 5 92l43 246c24 140 110 252 265 252h8c118 0 193 -78 204 -180c3 -26 0 -64 -5 -92l-43 -246c-24 -140 -110 -252 -265 -252zM450 245l43 250c4 20 7 51 5 70c-5 54 -36 95 -110 95h-6c-90 0 -140 -68 -155 -155
l-43 -250c-4 -20 -7 -51 -5 -70c5 -54 36 -95 110 -95h6c90 0 140 68 155 155zM503 807h-69l-170 180h123z" />
    <glyph glyph-name="Oacute" unicode="&#xd3;" horiz-adv-x="606" 
d="M288 -10h-8c-118 0 -193 78 -204 180c-3 26 0 64 5 92l43 246c24 140 110 252 265 252h8c118 0 193 -78 204 -180c3 -26 0 -64 -5 -92l-43 -246c-24 -140 -110 -252 -265 -252zM450 245l43 250c4 20 7 51 5 70c-5 54 -36 95 -110 95h-6c-90 0 -140 -68 -155 -155
l-43 -250c-4 -20 -7 -51 -5 -70c5 -54 36 -95 110 -95h6c90 0 140 68 155 155zM394 807h-69l116 180h123z" />
    <glyph glyph-name="Ocircumflex" unicode="&#xd4;" horiz-adv-x="606" 
d="M288 -10h-8c-118 0 -193 78 -204 180c-3 26 0 64 5 92l43 246c24 140 110 252 265 252h8c118 0 193 -78 204 -180c3 -26 0 -64 -5 -92l-43 -246c-24 -140 -110 -252 -265 -252zM450 245l43 250c4 20 7 51 5 70c-5 54 -36 95 -110 95h-6c-90 0 -140 -68 -155 -155
l-43 -250c-4 -20 -7 -51 -5 -70c5 -54 36 -95 110 -95h6c90 0 140 68 155 155zM599 798h-80l-100 132l-124 -132h-82l169 191h82z" />
    <glyph glyph-name="Otilde" unicode="&#xd5;" horiz-adv-x="606" 
d="M288 -10h-8c-118 0 -193 78 -204 180c-3 26 0 64 5 92l43 246c24 140 110 252 265 252h8c118 0 193 -78 204 -180c3 -26 0 -64 -5 -92l-43 -246c-24 -140 -110 -252 -265 -252zM450 245l43 250c4 20 7 51 5 70c-5 54 -36 95 -110 95h-6c-90 0 -140 -68 -155 -155
l-43 -250c-4 -20 -7 -51 -5 -70c5 -54 36 -95 110 -95h6c90 0 140 68 155 155zM565 954h60c-13 -85 -57 -137 -123 -137c-26 0 -56 11 -83 33c-40 31 -56 43 -84 43c-22 0 -44 -17 -53 -63h-60c14 85 57 137 122 137c27 0 56 -11 84 -33c41 -31 56 -43 84 -43
c22 0 45 17 53 63z" />
    <glyph glyph-name="Odieresis" unicode="&#xd6;" horiz-adv-x="606" 
d="M288 -10h-8c-118 0 -193 78 -204 180c-3 26 0 64 5 92l43 246c24 140 110 252 265 252h8c118 0 193 -78 204 -180c3 -26 0 -64 -5 -92l-43 -246c-24 -140 -110 -252 -265 -252zM450 245l43 250c4 20 7 51 5 70c-5 54 -36 95 -110 95h-6c-90 0 -140 -68 -155 -155
l-43 -250c-4 -20 -7 -51 -5 -70c5 -54 36 -95 110 -95h6c90 0 140 68 155 155zM371 824h-103l20 111h103zM566 824h-103l20 111h103z" />
    <glyph glyph-name="multiply" unicode="&#xd7;" horiz-adv-x="549" 
d="M501 117l-67 -58l-145 179l-210 -183l-55 66l212 183l-144 179l68 58l143 -179l212 183l54 -66l-212 -183z" />
    <glyph glyph-name="Oslash" unicode="&#xd8;" horiz-adv-x="606" 
d="M288 -10h-8c-50 0 -92 14 -125 37l-39 -62h-75l69 109c-19 27 -30 60 -34 96c-3 26 0 64 5 92l43 246c24 140 110 252 265 252h8c49 0 91 -14 123 -37l41 62h74l-69 -108c19 -28 31 -61 35 -97c3 -26 0 -64 -5 -92l-43 -246c-24 -140 -110 -252 -265 -252zM450 245
l43 250c4 20 7 51 5 70c0 1 -1 2 -1 3l-286 -453c17 -16 43 -25 78 -25h6c90 0 140 68 155 155zM179 183l287 452c-18 16 -43 25 -78 25h-6c-90 0 -140 -68 -155 -155l-43 -250c-4 -20 -7 -51 -5 -70v-2z" />
    <glyph glyph-name="Ugrave" unicode="&#xd9;" horiz-adv-x="620" 
d="M295 -10h-8c-121 0 -193 78 -204 180c-3 26 0 64 5 92l86 488h103l-86 -495c-4 -20 -7 -51 -5 -70c5 -54 36 -95 110 -95h6c90 0 140 68 155 155l89 505h104l-90 -508c-24 -140 -110 -252 -265 -252zM485 807h-69l-170 180h123z" />
    <glyph glyph-name="Uacute" unicode="&#xda;" horiz-adv-x="620" 
d="M295 -10h-8c-121 0 -193 78 -204 180c-3 26 0 64 5 92l86 488h103l-86 -495c-4 -20 -7 -51 -5 -70c5 -54 36 -95 110 -95h6c90 0 140 68 155 155l89 505h104l-90 -508c-24 -140 -110 -252 -265 -252zM419 807h-69l116 180h123z" />
    <glyph glyph-name="Ucircumflex" unicode="&#xdb;" horiz-adv-x="620" 
d="M295 -10h-8c-121 0 -193 78 -204 180c-3 26 0 64 5 92l86 488h103l-86 -495c-4 -20 -7 -51 -5 -70c5 -54 36 -95 110 -95h6c90 0 140 68 155 155l89 505h104l-90 -508c-24 -140 -110 -252 -265 -252zM616 818h-80l-100 132l-124 -132h-82l169 191h82z" />
    <glyph glyph-name="Udieresis" unicode="&#xdc;" horiz-adv-x="620" 
d="M295 -10h-8c-121 0 -193 78 -204 180c-3 26 0 64 5 92l86 488h103l-86 -495c-4 -20 -7 -51 -5 -70c5 -54 36 -95 110 -95h6c90 0 140 68 155 155l89 505h104l-90 -508c-24 -140 -110 -252 -265 -252zM372 824h-103l20 111h103zM567 824h-103l20 111h103z" />
    <glyph glyph-name="Yacute" unicode="&#xdd;" horiz-adv-x="570" 
d="M307 0h-104l57 324l-155 426h112l108 -315h2l219 315h123l-305 -426zM398 807h-69l116 180h123z" />
    <glyph glyph-name="Thorn" unicode="&#xde;" horiz-adv-x="594" 
d="M194 252h128c40 0 68 6 86 17c38 22 65 61 69 110c5 51 -15 92 -49 113c-17 11 -46 17 -84 17h-105zM315 151h-139l-26 -151h-104l132 750h104l-25 -140h95c44 0 84 -5 109 -15c82 -32 129 -112 120 -216c-9 -102 -70 -181 -158 -213c-26 -10 -65 -15 -108 -15z" />
    <glyph glyph-name="germandbls" unicode="&#xdf;" horiz-adv-x="593" 
d="M114 -153h-98l118 673c8 43 19 82 36 114c44 83 121 126 210 126c121 0 208 -77 197 -195c-7 -74 -56 -145 -128 -173c53 -27 101 -92 93 -183c-13 -148 -117 -219 -234 -219c-47 0 -82 6 -112 15l16 92c30 -13 60 -19 98 -19c71 0 126 45 134 131c8 94 -61 142 -146 142
h-3l15 82h37c60 0 125 48 132 128c5 65 -38 106 -107 106c-48 0 -92 -24 -116 -69c-11 -20 -18 -45 -23 -73z" />
    <glyph glyph-name="agrave" unicode="&#xe0;" horiz-adv-x="532" 
d="M432 0h-65v82h-1c-39 -56 -91 -92 -156 -92c-104 0 -171 69 -160 186c7 84 63 146 148 168c21 5 44 8 78 8h120l5 29c11 65 -15 100 -80 100c-54 0 -87 -27 -107 -65h-99c34 93 105 154 215 154c133 0 188 -78 165 -210zM376 242l5 26h-112c-23 0 -41 -3 -55 -8
c-36 -13 -62 -43 -66 -83c-6 -60 23 -99 81 -99c67 0 131 82 147 164zM438 627h-69l-170 180h123z" />
    <glyph glyph-name="aacute" unicode="&#xe1;" horiz-adv-x="532" 
d="M432 0h-65v82h-1c-39 -56 -91 -92 -156 -92c-104 0 -171 69 -160 186c7 84 63 146 148 168c21 5 44 8 78 8h120l5 29c11 65 -15 100 -80 100c-54 0 -87 -27 -107 -65h-99c34 93 105 154 215 154c133 0 188 -78 165 -210zM376 242l5 26h-112c-23 0 -41 -3 -55 -8
c-36 -13 -62 -43 -66 -83c-6 -60 23 -99 81 -99c67 0 131 82 147 164zM327 627h-69l116 180h123z" />
    <glyph glyph-name="acircumflex" unicode="&#xe2;" horiz-adv-x="532" 
d="M432 0h-65v82h-1c-39 -56 -91 -92 -156 -92c-104 0 -171 69 -160 186c7 84 63 146 148 168c21 5 44 8 78 8h120l5 29c11 65 -15 100 -80 100c-54 0 -87 -27 -107 -65h-99c34 93 105 154 215 154c133 0 188 -78 165 -210zM376 242l5 26h-112c-23 0 -41 -3 -55 -8
c-36 -13 -62 -43 -66 -83c-6 -60 23 -99 81 -99c67 0 131 82 147 164zM536 618h-80l-100 132l-124 -132h-82l169 191h82z" />
    <glyph glyph-name="atilde" unicode="&#xe3;" horiz-adv-x="532" 
d="M432 0h-65v82h-1c-39 -56 -91 -92 -156 -92c-104 0 -171 69 -160 186c7 84 63 146 148 168c21 5 44 8 78 8h120l5 29c11 65 -15 100 -80 100c-54 0 -87 -27 -107 -65h-99c34 93 105 154 215 154c133 0 188 -78 165 -210zM376 242l5 26h-112c-23 0 -41 -3 -55 -8
c-36 -13 -62 -43 -66 -83c-6 -60 23 -99 81 -99c67 0 131 82 147 164zM503 764h60c-13 -85 -57 -137 -123 -137c-26 0 -56 11 -83 33c-40 31 -56 43 -84 43c-22 0 -44 -17 -53 -63h-60c14 85 57 137 122 137c27 0 56 -11 84 -33c41 -31 56 -43 84 -43c22 0 45 17 53 63z" />
    <glyph glyph-name="adieresis" unicode="&#xe4;" horiz-adv-x="532" 
d="M432 0h-65v82h-1c-39 -56 -91 -92 -156 -92c-104 0 -171 69 -160 186c7 84 63 146 148 168c21 5 44 8 78 8h120l5 29c11 65 -15 100 -80 100c-54 0 -87 -27 -107 -65h-99c34 93 105 154 215 154c133 0 188 -78 165 -210zM376 242l5 26h-112c-23 0 -41 -3 -55 -8
c-36 -13 -62 -43 -66 -83c-6 -60 23 -99 81 -99c67 0 131 82 147 164zM306 644h-103l20 111h103zM501 644h-103l20 111h103z" />
    <glyph glyph-name="aring" unicode="&#xe5;" horiz-adv-x="532" 
d="M432 0h-65v82h-1c-39 -56 -91 -92 -156 -92c-104 0 -171 69 -160 186c7 84 63 146 148 168c21 5 44 8 78 8h120l5 29c11 65 -15 100 -80 100c-54 0 -87 -27 -107 -65h-99c34 93 105 154 215 154c133 0 188 -78 165 -210zM376 242l5 26h-112c-23 0 -41 -3 -55 -8
c-36 -13 -62 -43 -66 -83c-6 -60 23 -99 81 -99c67 0 131 82 147 164zM375 614c-62 0 -111 50 -111 113s49 114 111 114s112 -51 112 -114s-50 -113 -112 -113zM375 657c36 0 66 31 66 70s-30 71 -66 71s-65 -32 -65 -71s29 -70 65 -70z" />
    <glyph glyph-name="ae" unicode="&#xe6;" horiz-adv-x="837" 
d="M797 258h-320l-5 -29c-4 -23 -7 -48 -4 -70c6 -42 30 -75 89 -75c50 0 84 25 107 63c3 6 7 12 10 19h103c-9 -26 -19 -49 -33 -70c-40 -63 -104 -106 -193 -106c-87 0 -140 53 -153 128c-37 -65 -99 -128 -188 -128c-104 0 -171 69 -160 186c9 104 88 176 211 176h135
l5 29c11 65 -15 100 -80 100c-54 0 -87 -27 -107 -65h-99c34 93 105 154 215 154c74 0 121 -32 143 -90c36 54 88 90 165 90c99 0 164 -50 176 -135c4 -27 3 -62 -4 -104zM376 242l5 26h-127c-58 0 -101 -35 -106 -91c-6 -60 23 -99 81 -99c67 0 131 82 147 164zM494 346
h218c4 20 9 42 5 69c-6 43 -43 66 -90 66c-50 0 -84 -25 -107 -63c-11 -18 -21 -49 -26 -72z" />
    <glyph glyph-name="ccedilla" unicode="&#xe7;" horiz-adv-x="514" 
d="M194 -91l-25 7c-15 4 -20 13 -13 31l26 51c-58 15 -97 57 -113 112c-10 36 -11 79 -3 124l18 102c8 46 22 91 46 128c40 63 104 106 193 106c92 0 152 -48 173 -120c6 -23 9 -49 8 -76h-97c0 9 0 18 -1 27c-6 42 -30 75 -89 75c-50 0 -84 -25 -107 -63
c-14 -24 -24 -52 -29 -82l-18 -102c-4 -23 -7 -48 -4 -70c6 -42 30 -75 89 -75c50 0 84 25 107 63c5 9 10 19 14 29h102c-9 -29 -20 -56 -36 -80c-40 -63 -104 -106 -193 -106c-6 0 -12 1 -17 1l-18 -40c48 -12 97 -42 94 -96c-3 -56 -51 -93 -107 -93
c-62 0 -102 37 -105 87h52c5 -26 24 -41 56 -41c29 0 51 20 53 45c2 26 -17 45 -56 56z" />
    <glyph glyph-name="egrave" unicode="&#xe8;" 
d="M185 346h218c4 20 9 42 5 69c-6 43 -43 66 -90 66c-50 0 -84 -25 -107 -63c-11 -18 -21 -49 -26 -72zM488 258h-320l-5 -29c-4 -23 -7 -48 -4 -70c6 -42 30 -78 89 -78c50 0 85 28 108 66c3 6 7 12 10 19h102c-9 -26 -19 -49 -33 -70c-40 -63 -104 -106 -193 -106
c-92 0 -152 48 -173 120c-10 36 -11 79 -3 124l18 102c8 46 22 91 46 128c40 63 104 106 199 106c99 0 164 -50 176 -135c4 -27 3 -62 -4 -104zM440 627h-69l-170 180h123z" />
    <glyph glyph-name="eacute" unicode="&#xe9;" 
d="M185 346h218c4 20 9 42 5 69c-6 43 -43 66 -90 66c-50 0 -84 -25 -107 -63c-11 -18 -21 -49 -26 -72zM488 258h-320l-5 -29c-4 -23 -7 -48 -4 -70c6 -42 30 -78 89 -78c50 0 85 28 108 66c3 6 7 12 10 19h102c-9 -26 -19 -49 -33 -70c-40 -63 -104 -106 -193 -106
c-92 0 -152 48 -173 120c-10 36 -11 79 -3 124l18 102c8 46 22 91 46 128c40 63 104 106 199 106c99 0 164 -50 176 -135c4 -27 3 -62 -4 -104zM321 627h-69l116 180h123z" />
    <glyph glyph-name="ecircumflex" unicode="&#xea;" 
d="M185 346h218c4 20 9 42 5 69c-6 43 -43 66 -90 66c-50 0 -84 -25 -107 -63c-11 -18 -21 -49 -26 -72zM488 258h-320l-5 -29c-4 -23 -7 -48 -4 -70c6 -42 30 -78 89 -78c50 0 85 28 108 66c3 6 7 12 10 19h102c-9 -26 -19 -49 -33 -70c-40 -63 -104 -106 -193 -106
c-92 0 -152 48 -173 120c-10 36 -11 79 -3 124l18 102c8 46 22 91 46 128c40 63 104 106 199 106c99 0 164 -50 176 -135c4 -27 3 -62 -4 -104zM534 618h-80l-100 132l-124 -132h-82l169 191h82z" />
    <glyph glyph-name="edieresis" unicode="&#xeb;" 
d="M185 346h218c4 20 9 42 5 69c-6 43 -43 66 -90 66c-50 0 -84 -25 -107 -63c-11 -18 -21 -49 -26 -72zM488 258h-320l-5 -29c-4 -23 -7 -48 -4 -70c6 -42 30 -78 89 -78c50 0 85 28 108 66c3 6 7 12 10 19h102c-9 -26 -19 -49 -33 -70c-40 -63 -104 -106 -193 -106
c-92 0 -152 48 -173 120c-10 36 -11 79 -3 124l18 102c8 46 22 91 46 128c40 63 104 106 199 106c99 0 164 -50 176 -135c4 -27 3 -62 -4 -104zM303 644h-103l20 111h103zM498 644h-103l20 111h103z" />
    <glyph glyph-name="igrave" unicode="&#xec;" horiz-adv-x="243" 
d="M141 0h-98l98 560h98zM250 627h-69l-170 180h123z" />
    <glyph glyph-name="iacute" unicode="&#xed;" horiz-adv-x="243" 
d="M141 0h-98l98 560h98zM224 627h-69l116 180h123z" />
    <glyph glyph-name="icircumflex" unicode="&#xee;" horiz-adv-x="243" 
d="M377 628h-80l-74 129l-120 -129h-81l172 191h79zM141 0h-98l98 560h98z" />
    <glyph glyph-name="idieresis" unicode="&#xef;" horiz-adv-x="243" 
d="M141 0h-98l98 560h98zM159 644h-103l20 111h103zM354 644h-103l20 111h103z" />
    <glyph glyph-name="eth" unicode="&#xf0;" 
d="M493 292l-12 -68c-8 -46 -22 -91 -46 -128c-40 -63 -104 -106 -193 -106c-92 0 -152 48 -173 120c-10 36 -12 79 -3 124l10 52c8 46 22 91 46 128c40 63 100 106 179 106c34 0 78 -17 99 -35c-1 21 -12 73 -37 127l-124 -45l-22 61l119 41c-14 27 -31 56 -48 80l85 36
c17 -26 35 -53 49 -82l114 42l22 -61l-108 -38c45 -110 65 -231 43 -354zM384 229l10 54c4 23 7 48 4 70c-6 42 -34 79 -93 79c-50 0 -80 -29 -103 -67c-14 -24 -24 -52 -29 -82l-10 -54c-4 -23 -7 -48 -4 -70c6 -42 30 -75 89 -75c50 0 84 25 107 63c14 24 23 52 29 82z
" />
    <glyph glyph-name="ntilde" unicode="&#xf1;" horiz-adv-x="570" 
d="M470 0h-98l56 318c5 29 8 55 7 73c-2 48 -24 88 -82 88c-68 0 -140 -70 -163 -198l-49 -281h-98l98 560h68l1 -81h1c47 62 106 91 162 91c102 0 157 -72 161 -163c1 -24 -2 -54 -7 -83zM520 764h60c-13 -85 -57 -137 -123 -137c-26 0 -56 11 -83 33c-40 31 -56 43 -84 43
c-22 0 -44 -17 -53 -63h-60c14 85 57 137 122 137c27 0 56 -11 84 -33c41 -31 56 -43 84 -43c22 0 45 17 53 63z" />
    <glyph glyph-name="ograve" unicode="&#xf2;" 
d="M538 326l-18 -102c-8 -46 -22 -91 -46 -128c-40 -63 -104 -106 -193 -106c-92 0 -152 48 -173 120c-10 36 -11 79 -3 124l18 102c8 46 22 91 46 128c40 63 104 106 193 106c92 0 152 -48 173 -120c10 -36 11 -79 3 -124zM423 229l18 102c4 23 7 48 4 70
c-6 42 -30 75 -89 75c-50 0 -84 -25 -107 -63c-14 -24 -24 -52 -29 -82l-18 -102c-4 -23 -7 -48 -4 -70c6 -42 30 -75 89 -75c50 0 84 25 107 63c14 24 24 52 29 82zM425 627h-69l-170 180h123z" />
    <glyph glyph-name="oacute" unicode="&#xf3;" 
d="M538 326l-18 -102c-8 -46 -22 -91 -46 -128c-40 -63 -104 -106 -193 -106c-92 0 -152 48 -173 120c-10 36 -11 79 -3 124l18 102c8 46 22 91 46 128c40 63 104 106 193 106c92 0 152 -48 173 -120c10 -36 11 -79 3 -124zM423 229l18 102c4 23 7 48 4 70
c-6 42 -30 75 -89 75c-50 0 -84 -25 -107 -63c-14 -24 -24 -52 -29 -82l-18 -102c-4 -23 -7 -48 -4 -70c6 -42 30 -75 89 -75c50 0 84 25 107 63c14 24 24 52 29 82zM325 627h-69l116 180h123z" />
    <glyph glyph-name="ocircumflex" unicode="&#xf4;" 
d="M538 326l-18 -102c-8 -46 -22 -91 -46 -128c-40 -63 -104 -106 -193 -106c-92 0 -152 48 -173 120c-10 36 -11 79 -3 124l18 102c8 46 22 91 46 128c40 63 104 106 193 106c92 0 152 -48 173 -120c10 -36 11 -79 3 -124zM423 229l18 102c4 23 7 48 4 70
c-6 42 -30 75 -89 75c-50 0 -84 -25 -107 -63c-14 -24 -24 -52 -29 -82l-18 -102c-4 -23 -7 -48 -4 -70c6 -42 30 -75 89 -75c50 0 84 25 107 63c14 24 24 52 29 82zM524 618h-80l-100 132l-124 -132h-82l169 191h82z" />
    <glyph glyph-name="otilde" unicode="&#xf5;" 
d="M538 326l-18 -102c-8 -46 -22 -91 -46 -128c-40 -63 -104 -106 -193 -106c-92 0 -152 48 -173 120c-10 36 -11 79 -3 124l18 102c8 46 22 91 46 128c40 63 104 106 193 106c92 0 152 -48 173 -120c10 -36 11 -79 3 -124zM423 229l18 102c4 23 7 48 4 70
c-6 42 -30 75 -89 75c-50 0 -84 -25 -107 -63c-14 -24 -24 -52 -29 -82l-18 -102c-4 -23 -7 -48 -4 -70c6 -42 30 -75 89 -75c50 0 84 25 107 63c14 24 24 52 29 82zM497 764h60c-13 -85 -57 -137 -123 -137c-26 0 -56 11 -83 33c-40 31 -56 43 -84 43
c-22 0 -44 -17 -53 -63h-60c14 85 57 137 122 137c27 0 56 -11 84 -33c41 -31 56 -43 84 -43c22 0 45 17 53 63z" />
    <glyph glyph-name="odieresis" unicode="&#xf6;" 
d="M538 326l-18 -102c-8 -46 -22 -91 -46 -128c-40 -63 -104 -106 -193 -106c-92 0 -152 48 -173 120c-10 36 -11 79 -3 124l18 102c8 46 22 91 46 128c40 63 104 106 193 106c92 0 152 -48 173 -120c10 -36 11 -79 3 -124zM423 229l18 102c4 23 7 48 4 70
c-6 42 -30 75 -89 75c-50 0 -84 -25 -107 -63c-14 -24 -24 -52 -29 -82l-18 -102c-4 -23 -7 -48 -4 -70c6 -42 30 -75 89 -75c50 0 84 25 107 63c14 24 24 52 29 82zM294 644h-103l20 111h103zM489 644h-103l20 111h103z" />
    <glyph glyph-name="divide" unicode="&#xf7;" horiz-adv-x="576" 
d="M389 437h-113l21 123h113zM319 40h-113l21 123h113zM561 256h-516l15 88h516z" />
    <glyph glyph-name="oslash" unicode="&#xf8;" 
d="M499 326l-18 -102c-8 -46 -22 -91 -46 -128c-40 -63 -104 -106 -193 -106c-38 0 -70 8 -96 22l-30 -47h-69l53 84c-14 17 -25 38 -31 61c-10 36 -11 79 -3 124l18 102c8 46 22 91 46 128c40 63 104 106 193 106c37 0 70 -8 96 -23l31 48h69l-54 -85c14 -17 24 -38 31 -60
c10 -36 11 -79 3 -124zM161 144l206 321c-13 7 -30 11 -50 11c-50 0 -84 -25 -107 -63c-14 -24 -24 -52 -29 -82l-18 -102c-5 -28 -8 -57 -2 -85zM384 229l18 102c4 23 7 48 1 83l-204 -320c12 -6 29 -10 49 -10c50 0 84 25 107 63c14 24 24 52 29 82z" />
    <glyph glyph-name="ugrave" unicode="&#xf9;" horiz-adv-x="568" 
d="M465 0h-68l-1 81h-1c-47 -62 -106 -91 -162 -91c-102 0 -157 72 -161 163c-1 24 2 54 7 83l57 324h98l-56 -318c-5 -29 -8 -55 -7 -73c2 -48 24 -88 82 -88c68 0 140 70 163 198l49 281h98zM431 627h-69l-170 180h123z" />
    <glyph glyph-name="uacute" unicode="&#xfa;" horiz-adv-x="568" 
d="M465 0h-68l-1 81h-1c-47 -62 -106 -91 -162 -91c-102 0 -157 72 -161 163c-1 24 2 54 7 83l57 324h98l-56 -318c-5 -29 -8 -55 -7 -73c2 -48 24 -88 82 -88c68 0 140 70 163 198l49 281h98zM355 627h-69l116 180h123z" />
    <glyph glyph-name="ucircumflex" unicode="&#xfb;" horiz-adv-x="568" 
d="M465 0h-68l-1 81h-1c-47 -62 -106 -91 -162 -91c-102 0 -157 72 -161 163c-1 24 2 54 7 83l57 324h98l-56 -318c-5 -29 -8 -55 -7 -73c2 -48 24 -88 82 -88c68 0 140 70 163 198l49 281h98zM552 628h-80l-100 132l-124 -132h-82l169 191h82z" />
    <glyph glyph-name="udieresis" unicode="&#xfc;" horiz-adv-x="568" 
d="M465 0h-68l-1 81h-1c-47 -62 -106 -91 -162 -91c-102 0 -157 72 -161 163c-1 24 2 54 7 83l57 324h98l-56 -318c-5 -29 -8 -55 -7 -73c2 -48 24 -88 82 -88c68 0 140 70 163 198l49 281h98zM321 644h-103l20 111h103zM516 644h-103l20 111h103z" />
    <glyph glyph-name="yacute" unicode="&#xfd;" horiz-adv-x="498" 
d="M130 -39l46 85l-97 514h101l66 -394h2l201 394h108l-341 -637c-51 -95 -111 -139 -194 -139c-29 0 -58 4 -79 11l17 94c19 -5 38 -10 63 -10c46 0 81 33 107 82zM336 627h-69l116 180h123z" />
    <glyph glyph-name="thorn" unicode="&#xfe;" horiz-adv-x="558" 
d="M412 229l19 106c11 64 4 143 -83 143c-64 0 -133 -59 -158 -197l-7 -38c-13 -69 5 -159 97 -159c79 0 118 69 132 145zM97 -244h-98l182 1029h98l-41 -234c-5 -25 -12 -58 -12 -58h1c39 48 89 77 143 77c108 0 159 -73 164 -164c1 -24 -1 -49 -6 -75l-19 -104
c-22 -123 -87 -237 -226 -237c-50 0 -105 25 -133 64h-1s-5 -33 -9 -58z" />
    <glyph glyph-name="ydieresis" unicode="&#xff;" horiz-adv-x="498" 
d="M130 -39l46 85l-97 514h101l66 -394h2l201 394h108l-341 -637c-51 -95 -111 -139 -194 -139c-29 0 -58 4 -79 11l17 94c19 -5 38 -10 63 -10c46 0 81 33 107 82zM279 644h-103l20 111h103zM474 644h-103l20 111h103z" />
    <glyph glyph-name="Amacron" unicode="&#x100;" horiz-adv-x="584" 
d="M560 825h-304l11 65h304zM408 328l-29 317h-4l-139 -317h172zM542 0h-104l-19 229h-228l-99 -229h-110l338 750h149z" />
    <glyph glyph-name="amacron" unicode="&#x101;" horiz-adv-x="532" 
d="M432 0h-65v82h-1c-39 -56 -91 -92 -156 -92c-104 0 -171 69 -160 186c7 84 63 146 148 168c21 5 44 8 78 8h120l5 29c11 65 -15 100 -80 100c-54 0 -87 -27 -107 -65h-99c34 93 105 154 215 154c133 0 188 -78 165 -210zM376 242l5 26h-112c-23 0 -41 -3 -55 -8
c-36 -13 -62 -43 -66 -83c-6 -60 23 -99 81 -99c67 0 131 82 147 164zM513 645h-304l11 65h304z" />
    <glyph glyph-name="Abreve" unicode="&#x102;" horiz-adv-x="584" 
d="M408 328l-29 317h-4l-139 -317h172zM542 0h-104l-19 229h-228l-99 -229h-110l338 750h149zM519 970h63c-15 -101 -84 -167 -181 -167s-156 66 -153 167h63c3 -61 41 -99 96 -99s99 38 112 99z" />
    <glyph glyph-name="abreve" unicode="&#x103;" horiz-adv-x="532" 
d="M432 0h-65v82h-1c-39 -56 -91 -92 -156 -92c-104 0 -171 69 -160 186c7 84 63 146 148 168c21 5 44 8 78 8h120l5 29c11 65 -15 100 -80 100c-54 0 -87 -27 -107 -65h-99c34 93 105 154 215 154c133 0 188 -78 165 -210zM376 242l5 26h-112c-23 0 -41 -3 -55 -8
c-36 -13 -62 -43 -66 -83c-6 -60 23 -99 81 -99c67 0 131 82 147 164zM485 790h63c-15 -101 -84 -167 -181 -167s-156 66 -153 167h63c3 -61 41 -99 96 -99s99 38 112 99z" />
    <glyph glyph-name="Aogonek" unicode="&#x104;" horiz-adv-x="584" 
d="M535 -163l16 -40c-28 -14 -59 -24 -89 -24c-68 0 -115 32 -112 93c2 45 35 84 89 118l-20 245h-228l-99 -229h-110l338 750h149l73 -750c-73 -46 -121 -80 -125 -127c-3 -33 17 -54 54 -54c18 0 41 6 64 18zM408 328l-29 317h-4l-139 -317h172z" />
    <glyph glyph-name="aogonek" unicode="&#x105;" horiz-adv-x="532" 
d="M424 -163l16 -40c-28 -14 -59 -24 -89 -24c-68 0 -115 32 -112 93c2 55 50 101 128 139v77h-1c-39 -56 -91 -92 -156 -92c-104 0 -171 69 -160 186c7 84 63 146 148 168c21 5 44 8 78 8h120l5 29c11 65 -15 100 -80 100c-54 0 -87 -27 -107 -65h-99
c34 93 105 154 215 154c133 0 188 -78 165 -210l-63 -360c-74 -45 -122 -80 -126 -127c-3 -33 17 -54 54 -54c18 0 41 6 64 18zM376 242l5 26h-112c-23 0 -41 -3 -55 -8c-36 -13 -62 -43 -66 -83c-6 -60 23 -99 81 -99c67 0 131 82 147 164z" />
    <glyph glyph-name="Cacute" unicode="&#x106;" horiz-adv-x="586" 
d="M288 -10h-8c-118 0 -193 78 -204 180c-3 26 0 64 5 92l43 246c24 140 110 252 265 252h8c118 0 193 -78 204 -180c2 -19 1 -45 -2 -68h-103c2 18 3 39 2 53c-5 54 -36 95 -110 95h-6c-90 0 -140 -68 -155 -155l-43 -250c-4 -20 -7 -51 -5 -70c5 -54 36 -95 110 -95h6
c90 0 140 67 155 154h103c-24 -142 -110 -254 -265 -254zM382 807h-69l116 180h123z" />
    <glyph glyph-name="cacute" unicode="&#x107;" horiz-adv-x="514" 
d="M369 176h102c-9 -29 -20 -56 -36 -80c-40 -63 -104 -106 -193 -106c-92 0 -152 48 -173 120c-10 36 -11 79 -3 124l18 102c8 46 22 91 46 128c40 63 104 106 193 106c92 0 152 -48 173 -120c6 -23 9 -49 8 -76h-97c0 9 0 18 -1 27c-6 42 -30 75 -89 75
c-50 0 -84 -25 -107 -63c-14 -24 -24 -52 -29 -82l-18 -102c-4 -23 -7 -48 -4 -70c6 -42 30 -75 89 -75c50 0 84 25 107 63c5 9 10 19 14 29zM310 627h-69l116 180h123z" />
    <glyph glyph-name="Ccircumflex" unicode="&#x108;" horiz-adv-x="586" 
d="M288 -10h-8c-118 0 -193 78 -204 180c-3 26 0 64 5 92l43 246c24 140 110 252 265 252h8c118 0 193 -78 204 -180c2 -19 1 -45 -2 -68h-103c2 18 3 39 2 53c-5 54 -36 95 -110 95h-6c-90 0 -140 -68 -155 -155l-43 -250c-4 -20 -7 -51 -5 -70c5 -54 36 -95 110 -95h6
c90 0 140 67 155 154h103c-24 -142 -110 -254 -265 -254zM601 808h-80l-100 132l-124 -132h-82l169 191h82z" />
    <glyph glyph-name="ccircumflex" unicode="&#x109;" horiz-adv-x="514" 
d="M369 176h102c-9 -29 -20 -56 -36 -80c-40 -63 -104 -106 -193 -106c-92 0 -152 48 -173 120c-10 36 -11 79 -3 124l18 102c8 46 22 91 46 128c40 63 104 106 193 106c92 0 152 -48 173 -120c6 -23 9 -49 8 -76h-97c0 9 0 18 -1 27c-6 42 -30 75 -89 75
c-50 0 -84 -25 -107 -63c-14 -24 -24 -52 -29 -82l-18 -102c-4 -23 -7 -48 -4 -70c6 -42 30 -75 89 -75c50 0 84 25 107 63c5 9 10 19 14 29zM539 628h-80l-100 132l-124 -132h-82l169 191h82z" />
    <glyph glyph-name="Cdotaccent" unicode="&#x10a;" horiz-adv-x="586" 
d="M288 -10h-8c-118 0 -193 78 -204 180c-3 26 0 64 5 92l43 246c24 140 110 252 265 252h8c118 0 193 -78 204 -180c2 -19 1 -45 -2 -68h-103c2 18 3 39 2 53c-5 54 -36 95 -110 95h-6c-90 0 -140 -68 -155 -155l-43 -250c-4 -20 -7 -51 -5 -70c5 -54 36 -95 110 -95h6
c90 0 140 67 155 154h103c-24 -142 -110 -254 -265 -254zM464 823h-109l20 114h109z" />
    <glyph glyph-name="cdotaccent" unicode="&#x10b;" horiz-adv-x="514" 
d="M369 176h102c-9 -29 -20 -56 -36 -80c-40 -63 -104 -106 -193 -106c-92 0 -152 48 -173 120c-10 36 -11 79 -3 124l18 102c8 46 22 91 46 128c40 63 104 106 193 106c92 0 152 -48 173 -120c6 -23 9 -49 8 -76h-97c0 9 0 18 -1 27c-6 42 -30 75 -89 75
c-50 0 -84 -25 -107 -63c-14 -24 -24 -52 -29 -82l-18 -102c-4 -23 -7 -48 -4 -70c6 -42 30 -75 89 -75c50 0 84 25 107 63c5 9 10 19 14 29zM396 643h-109l20 114h109z" />
    <glyph glyph-name="Ccaron" unicode="&#x10c;" horiz-adv-x="586" 
d="M288 -10h-8c-118 0 -193 78 -204 180c-3 26 0 64 5 92l43 246c24 140 110 252 265 252h8c118 0 193 -78 204 -180c2 -19 1 -45 -2 -68h-103c2 18 3 39 2 53c-5 54 -36 95 -110 95h-6c-90 0 -140 -68 -155 -155l-43 -250c-4 -20 -7 -51 -5 -70c5 -54 36 -95 110 -95h6
c90 0 140 67 155 154h103c-24 -142 -110 -254 -265 -254zM451 808h-82l-135 191h80l100 -132l124 132h82z" />
    <glyph glyph-name="ccaron" unicode="&#x10d;" horiz-adv-x="514" 
d="M369 176h102c-9 -29 -20 -56 -36 -80c-40 -63 -104 -106 -193 -106c-92 0 -152 48 -173 120c-10 36 -11 79 -3 124l18 102c8 46 22 91 46 128c40 63 104 106 193 106c92 0 152 -48 173 -120c6 -23 9 -49 8 -76h-97c0 9 0 18 -1 27c-6 42 -30 75 -89 75
c-50 0 -84 -25 -107 -63c-14 -24 -24 -52 -29 -82l-18 -102c-4 -23 -7 -48 -4 -70c6 -42 30 -75 89 -75c50 0 84 25 107 63c5 9 10 19 14 29zM379 628h-82l-135 191h80l100 -132l124 132h82z" />
    <glyph glyph-name="Dcaron" unicode="&#x10e;" horiz-adv-x="609" 
d="M282 0h-236l132 750h205c29 0 52 -3 68 -7c88 -21 141 -86 150 -172c3 -26 0 -65 -5 -93l-39 -226c-22 -128 -88 -221 -205 -246c-19 -4 -43 -6 -70 -6zM454 255l39 230c4 20 7 51 5 70c-4 39 -21 72 -59 86c-14 5 -36 8 -71 8h-104l-97 -548h114c29 0 55 3 71 9
c57 21 90 77 102 145zM427 808h-82l-135 191h80l100 -132l124 132h82z" />
    <glyph glyph-name="dcaron" unicode="&#x10f;" horiz-adv-x="634" 
d="M452 0h-68l-1 81h-1c-47 -62 -104 -91 -159 -91c-108 0 -159 73 -164 164c-1 24 1 49 6 75l19 104c22 123 87 237 226 237c50 0 105 -25 133 -64h1s5 33 9 58l39 221h98zM403 279l7 38c13 69 -5 160 -97 160c-79 0 -119 -70 -132 -146l-17 -96c-4 -23 -7 -48 -6 -66
c2 -48 24 -88 82 -88c68 0 139 70 163 198zM611 559l7 40c51 16 69 49 73 71c1 7 -3 10 -8 10h-43l19 105h107l-14 -78c-2 -13 -6 -29 -10 -42c-17 -51 -59 -96 -131 -106z" />
    <glyph glyph-name="Dcroat" unicode="&#x110;" horiz-adv-x="658" 
d="M332 0h-236l63 357h-107l14 76h106l56 317h205c29 0 52 -3 68 -7c88 -21 141 -86 150 -172c3 -26 0 -65 -5 -93l-39 -226c-22 -128 -88 -221 -205 -246c-19 -4 -43 -6 -70 -6zM504 255l39 230c4 20 7 51 5 70c-4 39 -21 72 -59 86c-14 5 -36 8 -71 8h-104l-38 -216h144
l-14 -76h-144l-45 -256h114c29 0 55 3 71 9c57 21 90 77 102 145z" />
    <glyph glyph-name="dcroat" unicode="&#x111;" horiz-adv-x="562" 
d="M452 0h-68l-1 81h-1c-47 -62 -104 -91 -159 -91c-108 0 -159 73 -164 164c-1 24 1 49 6 75l19 104c22 123 87 237 226 237c50 0 105 -25 133 -64h1s5 33 9 58l14 79h-168l12 70h168l13 72h98l-13 -72h90l-12 -70h-90zM403 279l7 38c13 69 -5 160 -97 160
c-79 0 -119 -70 -132 -146l-17 -96c-4 -23 -7 -48 -6 -66c2 -48 24 -88 82 -88c68 0 139 70 163 198z" />
    <glyph glyph-name="Emacron" unicode="&#x112;" horiz-adv-x="547" 
d="M477 0h-431l132 750h431l-18 -101h-327l-38 -214h270l-18 -101h-270l-41 -233h327zM552 825h-304l11 65h304z" />
    <glyph glyph-name="emacron" unicode="&#x113;" 
d="M185 346h218c4 20 9 42 5 69c-6 43 -43 66 -90 66c-50 0 -84 -25 -107 -63c-11 -18 -21 -49 -26 -72zM488 258h-320l-5 -29c-4 -23 -7 -48 -4 -70c6 -42 30 -78 89 -78c50 0 85 28 108 66c3 6 7 12 10 19h102c-9 -26 -19 -49 -33 -70c-40 -63 -104 -106 -193 -106
c-92 0 -152 48 -173 120c-10 36 -11 79 -3 124l18 102c8 46 22 91 46 128c40 63 104 106 199 106c99 0 164 -50 176 -135c4 -27 3 -62 -4 -104zM506 645h-304l11 65h304z" />
    <glyph glyph-name="Ebreve" unicode="&#x114;" horiz-adv-x="547" 
d="M477 0h-431l132 750h431l-18 -101h-327l-38 -214h270l-18 -101h-270l-41 -233h327zM521 970h63c-15 -101 -84 -167 -181 -167s-156 66 -153 167h63c3 -61 41 -99 96 -99s99 38 112 99z" />
    <glyph glyph-name="ebreve" unicode="&#x115;" 
d="M185 346h218c4 20 9 42 5 69c-6 43 -43 66 -90 66c-50 0 -84 -25 -107 -63c-11 -18 -21 -49 -26 -72zM488 258h-320l-5 -29c-4 -23 -7 -48 -4 -70c6 -42 30 -78 89 -78c50 0 85 28 108 66c3 6 7 12 10 19h102c-9 -26 -19 -49 -33 -70c-40 -63 -104 -106 -193 -106
c-92 0 -152 48 -173 120c-10 36 -11 79 -3 124l18 102c8 46 22 91 46 128c40 63 104 106 199 106c99 0 164 -50 176 -135c4 -27 3 -62 -4 -104zM482 790h63c-15 -101 -84 -167 -181 -167s-156 66 -153 167h63c3 -61 41 -99 96 -99s99 38 112 99z" />
    <glyph glyph-name="Edotaccent" unicode="&#x116;" horiz-adv-x="547" 
d="M477 0h-431l132 750h431l-18 -101h-327l-38 -214h270l-18 -101h-270l-41 -233h327zM457 823h-109l20 114h109z" />
    <glyph glyph-name="edotaccent" unicode="&#x117;" 
d="M185 346h218c4 20 9 42 5 69c-6 43 -43 66 -90 66c-50 0 -84 -25 -107 -63c-11 -18 -21 -49 -26 -72zM488 258h-320l-5 -29c-4 -23 -7 -48 -4 -70c6 -42 30 -78 89 -78c50 0 85 28 108 66c3 6 7 12 10 19h102c-9 -26 -19 -49 -33 -70c-40 -63 -104 -106 -193 -106
c-92 0 -152 48 -173 120c-10 36 -11 79 -3 124l18 102c8 46 22 91 46 128c40 63 104 106 199 106c99 0 164 -50 176 -135c4 -27 3 -62 -4 -104zM402 643h-109l20 114h109z" />
    <glyph glyph-name="Eogonek" unicode="&#x118;" horiz-adv-x="547" 
d="M441 -163l16 -40c-28 -14 -59 -24 -89 -24c-68 0 -115 32 -112 93c2 53 46 97 117 134h-327l132 750h431l-18 -101h-327l-38 -214h270l-18 -101h-270l-41 -233h327l-17 -101c-30 0 -52 -15 -62 -22c-54 -37 -89 -66 -92 -105c-3 -33 17 -54 54 -54c18 0 41 6 64 18z" />
    <glyph glyph-name="eogonek" unicode="&#x119;" 
d="M301 -163l16 -40c-28 -14 -59 -24 -89 -24c-68 0 -115 32 -112 93c2 49 40 90 101 126c-78 8 -129 52 -148 118c-10 36 -11 79 -3 124l18 102c8 46 22 91 46 128c40 63 104 106 199 106c99 0 164 -50 176 -135c4 -27 3 -62 -4 -104l-13 -73h-320l-5 -29
c-4 -23 -7 -48 -4 -70c6 -42 30 -78 89 -78c50 0 85 28 108 66c3 6 7 12 10 19h102c-9 -26 -19 -49 -33 -70c-30 -48 -77 -73 -131 -98c-75 -35 -117 -79 -121 -125c-3 -33 17 -54 54 -54c18 0 41 6 64 18zM185 346h218c4 20 9 42 5 69c-6 43 -43 66 -90 66
c-50 0 -84 -25 -107 -63c-11 -18 -21 -49 -26 -72z" />
    <glyph glyph-name="Ecaron" unicode="&#x11a;" horiz-adv-x="547" 
d="M477 0h-431l132 750h431l-18 -101h-327l-38 -214h270l-18 -101h-270l-41 -233h327zM444 808h-82l-135 191h80l100 -132l124 132h82z" />
    <glyph glyph-name="ecaron" unicode="&#x11b;" 
d="M185 346h218c4 20 9 42 5 69c-6 43 -43 66 -90 66c-50 0 -84 -25 -107 -63c-11 -18 -21 -49 -26 -72zM488 258h-320l-5 -29c-4 -23 -7 -48 -4 -70c6 -42 30 -78 89 -78c50 0 85 28 108 66c3 6 7 12 10 19h102c-9 -26 -19 -49 -33 -70c-40 -63 -104 -106 -193 -106
c-92 0 -152 48 -173 120c-10 36 -11 79 -3 124l18 102c8 46 22 91 46 128c40 63 104 106 199 106c99 0 164 -50 176 -135c4 -27 3 -62 -4 -104zM392 628h-82l-135 191h80l100 -132l124 132h82z" />
    <glyph glyph-name="Gcircumflex" unicode="&#x11c;" horiz-adv-x="609" 
d="M511 0h-50l-12 75c-49 -55 -108 -85 -174 -85c-118 0 -188 78 -199 180c-3 26 0 64 5 92l43 246c24 140 110 252 265 252h8c118 0 195 -78 204 -180c1 -17 1 -39 -1 -59h-103c1 15 2 32 1 44c-5 54 -36 95 -110 95h-6c-90 0 -140 -68 -155 -155l-43 -250
c-4 -20 -7 -51 -5 -70c5 -54 36 -95 110 -95h3c66 0 139 38 161 161l5 30h-136l17 98h238zM601 808h-80l-100 132l-124 -132h-82l169 191h82z" />
    <glyph glyph-name="gcircumflex" unicode="&#x11d;" horiz-adv-x="555" 
d="M354 0l2 14c4 25 10 54 10 54h-1c-43 -46 -92 -68 -140 -68c-108 0 -159 73 -164 164c-1 24 1 49 6 75l17 94c22 123 87 237 226 237c60 0 125 -35 146 -88h1l25 78h68l-100 -569c-22 -124 -98 -229 -240 -229c-105 0 -182 57 -187 170h99c7 -56 43 -78 95 -78
c80 0 124 70 137 146zM405 289l5 28c13 69 -5 159 -97 159c-79 0 -118 -69 -132 -145l-17 -96c-11 -64 -4 -141 83 -141c64 0 133 57 158 195zM552 628h-80l-100 132l-124 -132h-82l169 191h82z" />
    <glyph glyph-name="Gbreve" unicode="&#x11e;" horiz-adv-x="609" 
d="M511 0h-50l-12 75c-49 -55 -108 -85 -174 -85c-118 0 -188 78 -199 180c-3 26 0 64 5 92l43 246c24 140 110 252 265 252h8c118 0 195 -78 204 -180c1 -17 1 -39 -1 -59h-103c1 15 2 32 1 44c-5 54 -36 95 -110 95h-6c-90 0 -140 -68 -155 -155l-43 -250
c-4 -20 -7 -51 -5 -70c5 -54 36 -95 110 -95h3c66 0 139 38 161 161l5 30h-136l17 98h238zM538 970h63c-15 -101 -84 -167 -181 -167s-156 66 -153 167h63c3 -61 41 -99 96 -99s99 38 112 99z" />
    <glyph glyph-name="gbreve" unicode="&#x11f;" horiz-adv-x="555" 
d="M354 0l2 14c4 25 10 54 10 54h-1c-43 -46 -92 -68 -140 -68c-108 0 -159 73 -164 164c-1 24 1 49 6 75l17 94c22 123 87 237 226 237c60 0 125 -35 146 -88h1l25 78h68l-100 -569c-22 -124 -98 -229 -240 -229c-105 0 -182 57 -187 170h99c7 -56 43 -78 95 -78
c80 0 124 70 137 146zM405 289l5 28c13 69 -5 159 -97 159c-79 0 -118 -69 -132 -145l-17 -96c-11 -64 -4 -141 83 -141c64 0 133 57 158 195zM482 790h63c-15 -101 -84 -167 -181 -167s-156 66 -153 167h63c3 -61 41 -99 96 -99s99 38 112 99z" />
    <glyph glyph-name="Gdotaccent" unicode="&#x120;" horiz-adv-x="609" 
d="M511 0h-50l-12 75c-49 -55 -108 -85 -174 -85c-118 0 -188 78 -199 180c-3 26 0 64 5 92l43 246c24 140 110 252 265 252h8c118 0 195 -78 204 -180c1 -17 1 -39 -1 -59h-103c1 15 2 32 1 44c-5 54 -36 95 -110 95h-6c-90 0 -140 -68 -155 -155l-43 -250
c-4 -20 -7 -51 -5 -70c5 -54 36 -95 110 -95h3c66 0 139 38 161 161l5 30h-136l17 98h238zM466 823h-109l20 114h109z" />
    <glyph glyph-name="gdotaccent" unicode="&#x121;" horiz-adv-x="564" 
d="M354 0l2 14c4 25 10 54 10 54h-1c-43 -46 -92 -68 -140 -68c-108 0 -159 73 -164 164c-1 24 1 49 6 75l17 94c22 123 87 237 226 237c60 0 125 -35 146 -88h1l25 78h68l-100 -569c-22 -124 -98 -229 -240 -229c-105 0 -182 57 -187 170h99c7 -56 43 -78 95 -78
c80 0 124 70 137 146zM405 289l5 28c13 69 -5 159 -97 159c-79 0 -118 -69 -132 -145l-17 -96c-11 -64 -4 -141 83 -141c64 0 133 57 158 195zM408 643h-109l20 114h109z" />
    <glyph glyph-name="Gcommaaccent" unicode="&#x122;" horiz-adv-x="609" 
d="M511 0h-50l-12 75c-49 -55 -108 -85 -174 -85c-118 0 -188 78 -199 180c-3 26 0 64 5 92l43 246c24 140 110 252 265 252h8c118 0 195 -78 204 -180c1 -17 1 -39 -1 -59h-103c1 15 2 32 1 44c-5 54 -36 95 -110 95h-6c-90 0 -140 -68 -155 -155l-43 -250
c-4 -20 -7 -51 -5 -70c5 -54 36 -95 110 -95h3c66 0 139 38 161 161l5 30h-136l17 98h238zM165 -276l7 40c51 16 69 49 72 71c2 7 -2 10 -7 10h-43l19 105h107l-14 -78c-2 -13 -6 -29 -10 -42c-17 -51 -59 -96 -131 -106z" />
    <glyph glyph-name="gcommaaccent" unicode="&#x123;" horiz-adv-x="555" 
d="M395 641h-107l14 78c2 13 6 29 10 42c17 51 59 96 131 106l-7 -40c-51 -16 -69 -49 -73 -71c-1 -7 2 -10 7 -10h43zM354 0l2 14c4 25 10 54 10 54h-1c-43 -46 -92 -68 -140 -68c-108 0 -159 73 -164 164c-1 24 1 49 6 75l17 94c22 123 87 237 226 237
c60 0 125 -35 146 -88h1l25 78h68l-100 -569c-22 -124 -98 -229 -240 -229c-105 0 -182 57 -187 170h99c7 -56 43 -78 95 -78c80 0 124 70 137 146zM405 289l5 28c13 69 -5 159 -97 159c-79 0 -118 -69 -132 -145l-17 -96c-11 -64 -4 -141 83 -141c64 0 133 57 158 195z" />
    <glyph glyph-name="Hcircumflex" unicode="&#x124;" horiz-adv-x="640" 
d="M571 0h-104l59 340h-280l-59 -340h-104l132 750h104l-55 -309h280l55 309h104zM625 818h-80l-100 132l-124 -132h-82l169 191h82z" />
    <glyph glyph-name="hcircumflex" unicode="&#x125;" horiz-adv-x="570" 
d="M470 0h-98l56 318c5 29 8 55 7 73c-2 48 -24 88 -82 88c-68 0 -140 -70 -163 -198l-49 -281h-98l138 785h98l-41 -234c-5 -25 -12 -58 -12 -58h1c39 48 92 77 146 77c102 0 157 -72 161 -163c1 -24 -2 -54 -7 -83zM563 828h-80l-100 132l-124 -132h-82l169 191h82z" />
    <glyph glyph-name="Hbar" unicode="&#x126;" horiz-adv-x="656" 
d="M542 0h-104l59 340h-280l-59 -340h-104l98 560h-94l13 70h94l21 120h104l-21 -120h280l21 120h104l-21 -120h94l-13 -70h-94zM515 441l21 119h-280l-21 -119h280z" />
    <glyph glyph-name="hbar" unicode="&#x127;" horiz-adv-x="581" 
d="M481 0h-98l56 318c5 29 8 55 7 73c-2 48 -24 88 -82 88c-68 0 -140 -70 -163 -198l-49 -281h-98l113 643h-89l12 70h89l13 72h98l-13 -72h167l-12 -70h-167l-16 -92c-5 -25 -12 -58 -12 -58h1c39 48 92 77 146 77c102 0 157 -72 161 -163c1 -24 -2 -54 -7 -83z" />
    <glyph glyph-name="Itilde" unicode="&#x128;" horiz-adv-x="256" 
d="M150 0h-104l132 750h104zM396 944h60c-13 -85 -57 -137 -123 -137c-26 0 -56 11 -83 33c-40 31 -56 43 -84 43c-22 0 -44 -17 -53 -63h-60c14 85 57 137 122 137c27 0 56 -11 84 -33c41 -31 56 -43 84 -43c22 0 45 17 53 63z" />
    <glyph glyph-name="itilde" unicode="&#x129;" horiz-adv-x="243" 
d="M141 0h-98l98 560h98zM355 764h60c-13 -85 -57 -137 -123 -137c-26 0 -56 11 -83 33c-40 31 -56 43 -84 43c-22 0 -44 -17 -53 -63h-60c14 85 57 137 122 137c27 0 56 -11 84 -33c41 -31 56 -43 84 -43c22 0 45 17 53 63z" />
    <glyph glyph-name="uni012A" unicode="&#x12a;" horiz-adv-x="256" 
d="M150 0h-104l132 750h104zM393 825h-304l11 65h304z" />
    <glyph glyph-name="imacron" unicode="&#x12b;" horiz-adv-x="243" 
d="M141 0h-98l98 560h98zM353 645h-304l11 65h304z" />
    <glyph glyph-name="Ibreve" unicode="&#x12c;" horiz-adv-x="256" 
d="M150 0h-104l132 750h104zM359 970h63c-15 -101 -84 -167 -181 -167s-156 66 -153 167h63c3 -61 41 -99 96 -99s99 38 112 99z" />
    <glyph glyph-name="uni012D" unicode="&#x12d;" horiz-adv-x="243" 
d="M141 0h-98l98 560h98zM321 790h63c-15 -101 -84 -167 -181 -167s-156 66 -153 167h63c3 -61 41 -99 96 -99s99 38 112 99z" />
    <glyph glyph-name="Iogonek" unicode="&#x12e;" horiz-adv-x="256" 
d="M143 -163l16 -40c-28 -14 -59 -24 -89 -24c-68 0 -115 32 -112 93c3 44 33 81 84 114l136 770h104l-132 -750c-73 -46 -121 -80 -125 -127c-3 -33 17 -54 54 -54c18 0 41 6 64 18z" />
    <glyph glyph-name="iogonek" unicode="&#x12f;" horiz-adv-x="243" 
d="M134 -163l16 -40c-28 -14 -59 -24 -89 -24c-68 0 -115 32 -112 93c3 46 36 85 91 119l101 575h98l-98 -560c-73 -46 -121 -80 -125 -127c-3 -33 17 -54 54 -54c18 0 41 6 64 18zM257 647h-103l20 113h103z" />
    <glyph glyph-name="Idotaccent" unicode="&#x130;" horiz-adv-x="258" 
d="M150 0h-104l132 750h104zM297 823h-109l20 114h109z" />
    <glyph glyph-name="dotlessi" unicode="&#x131;" horiz-adv-x="243" 
d="M141 0h-98l98 560h98z" />
    <glyph glyph-name="IJ" unicode="&#x132;" horiz-adv-x="783" 
d="M150 0h-104l132 750h104zM617 231l92 519h104l-91 -517c-8 -40 -17 -76 -35 -116c-38 -76 -100 -127 -201 -127s-165 59 -183 144c-6 30 -6 64 -1 98l6 39h104l-6 -36c-4 -21 -5 -42 -3 -62c6 -47 32 -83 88 -83c55 0 90 34 109 79c7 16 12 36 17 62z" />
    <glyph glyph-name="ij" unicode="&#x133;" horiz-adv-x="493" 
d="M141 0h-98l98 560h98zM257 647h-103l20 113h103zM112 -235l17 94c11 -1 26 -2 36 -2c69 0 105 24 120 108l105 595h98l-106 -606c-25 -142 -105 -191 -220 -191c-16 0 -40 1 -50 2zM507 647h-104l20 113h104z" />
    <glyph glyph-name="Jcircumflex" unicode="&#x134;" horiz-adv-x="537" 
d="M371 231l92 519h104l-91 -517c-8 -40 -17 -76 -35 -116c-38 -76 -100 -127 -201 -127s-165 59 -183 144c-6 30 -6 64 -1 98l6 39h104l-6 -36c-4 -21 -5 -42 -3 -62c6 -47 32 -83 88 -83c55 0 90 34 109 79c7 16 12 36 17 62zM715 808h-80l-100 132l-124 -132h-82l169 191
h82z" />
    <glyph glyph-name="jcircumflex" unicode="&#x135;" horiz-adv-x="250" 
d="M-131 -235l17 94c11 -1 26 -2 36 -2c69 0 105 24 120 108l105 595h98l-106 -606c-25 -142 -105 -191 -220 -191c-16 0 -40 1 -50 2zM397 628h-80l-100 132l-124 -132h-82l169 191h82z" />
    <glyph glyph-name="Kcommaaccent" unicode="&#x136;" horiz-adv-x="616" 
d="M575 0h-117l-137 384l-126 -130l-45 -254h-104l132 750h104l-60 -336l1 -1s23 24 43 44l287 293h137l-284 -285zM179 -276l7 40c51 16 69 49 72 71c2 7 -2 10 -7 10h-43l19 105h107l-14 -78c-2 -13 -6 -29 -10 -42c-17 -51 -59 -96 -131 -106z" />
    <glyph glyph-name="kcommaaccent" unicode="&#x137;" horiz-adv-x="517" 
d="M477 0h-110l-111 284l-77 -69l-38 -215h-98l138 785h98l-77 -435l229 210h136l-232 -207zM138 -276l7 40c51 16 69 49 72 71c2 7 -2 10 -7 10h-43l19 105h107l-14 -78c-2 -13 -6 -29 -10 -42c-17 -51 -59 -96 -131 -106z" />
    <glyph glyph-name="kgreenlandic" unicode="&#x138;" horiz-adv-x="517" 
d="M477 0h-110l-111 284l-77 -69l-38 -215h-98l98 560h98l-37 -210l229 210h136l-232 -207z" />
    <glyph glyph-name="Lacute" unicode="&#x139;" horiz-adv-x="539" 
d="M479 0h-433l132 750h104l-115 -649h329zM255 807h-69l116 180h123z" />
    <glyph glyph-name="lacute" unicode="&#x13a;" horiz-adv-x="244" 
d="M141 0h-98l138 785h98zM259 837h-69l116 180h123z" />
    <glyph glyph-name="Lcommaaccent" unicode="&#x13b;" horiz-adv-x="539" 
d="M479 0h-433l132 750h104l-115 -649h329zM169 -276l7 40c51 16 69 49 72 71c2 7 -2 10 -7 10h-43l19 105h107l-14 -78c-2 -13 -6 -29 -10 -42c-17 -51 -59 -96 -131 -106z" />
    <glyph glyph-name="lcommaaccent" unicode="&#x13c;" horiz-adv-x="244" 
d="M141 0h-98l138 785h98zM-17 -276l7 40c51 16 69 49 72 71c2 7 -2 10 -7 10h-43l19 105h107l-14 -78c-2 -13 -6 -29 -10 -42c-17 -51 -59 -96 -131 -106z" />
    <glyph glyph-name="Lcaron" unicode="&#x13d;" horiz-adv-x="539" 
d="M479 0h-433l132 750h104l-115 -649h329zM413 559l7 40c51 16 69 49 73 71c1 7 -3 10 -8 10h-43l19 105h107l-14 -78c-2 -13 -6 -29 -10 -42c-17 -51 -59 -96 -131 -106z" />
    <glyph glyph-name="lcaron" unicode="&#x13e;" horiz-adv-x="324" 
d="M141 0h-98l138 785h98zM301 559l7 40c51 16 69 49 73 71c1 7 -3 10 -8 10h-43l19 105h107l-14 -78c-2 -13 -6 -29 -10 -42c-17 -51 -59 -96 -131 -106z" />
    <glyph glyph-name="Ldot" unicode="&#x13f;" horiz-adv-x="539" 
d="M479 0h-433l132 750h104l-115 -649h329zM487 348h-109l20 114h109z" />
    <glyph glyph-name="ldot" unicode="&#x140;" horiz-adv-x="360" 
d="M141 0h-98l138 785h98zM391 348h-109l20 114h109z" />
    <glyph glyph-name="Lslash" unicode="&#x141;" horiz-adv-x="584" 
d="M524 0h-432l51 292l-118 -63l15 88l119 63l65 370h103l-55 -309l191 102l-15 -88l-191 -102l-45 -252h329z" />
    <glyph glyph-name="lslash" unicode="&#x142;" horiz-adv-x="347" 
d="M192 0h-98l60 341l-123 -79l15 86l123 79l63 358h98l-51 -288l124 79l-15 -86l-124 -79z" />
    <glyph glyph-name="Nacute" unicode="&#x143;" horiz-adv-x="639" 
d="M533 0h-125l-160 581h-1s-5 -33 -9 -58l-92 -523h-100l132 750h124l160 -581h1s5 33 10 58l92 523h100zM418 807h-69l116 180h123z" />
    <glyph glyph-name="nacute" unicode="&#x144;" horiz-adv-x="570" 
d="M470 0h-98l56 318c5 29 8 55 7 73c-2 48 -24 88 -82 88c-68 0 -140 -70 -163 -198l-49 -281h-98l98 560h68l1 -81h1c47 62 106 91 162 91c102 0 157 -72 161 -163c1 -24 -2 -54 -7 -83zM329 627h-69l116 180h123z" />
    <glyph glyph-name="Ncommaaccent" unicode="&#x145;" horiz-adv-x="639" 
d="M533 0h-125l-160 581h-1s-5 -33 -9 -58l-92 -523h-100l132 750h124l160 -581h1s5 33 10 58l92 523h100zM180 -276l7 40c51 16 69 49 72 71c2 7 -2 10 -7 10h-43l19 105h107l-14 -78c-2 -13 -6 -29 -10 -42c-17 -51 -59 -96 -131 -106z" />
    <glyph glyph-name="ncommaaccent" unicode="&#x146;" horiz-adv-x="570" 
d="M470 0h-98l56 318c5 29 8 55 7 73c-2 48 -24 88 -82 88c-68 0 -140 -70 -163 -198l-49 -281h-98l98 560h68l1 -81h1c47 62 106 91 162 91c102 0 157 -72 161 -163c1 -24 -2 -54 -7 -83zM150 -276l7 40c51 16 69 49 72 71c2 7 -2 10 -7 10h-43l19 105h107l-14 -78
c-2 -13 -6 -29 -10 -42c-17 -51 -59 -96 -131 -106z" />
    <glyph glyph-name="Ncaron" unicode="&#x147;" horiz-adv-x="639" 
d="M533 0h-125l-160 581h-1s-5 -33 -9 -58l-92 -523h-100l132 750h124l160 -581h1s5 33 10 58l92 523h100zM456 808h-82l-135 191h80l100 -132l124 132h82z" />
    <glyph glyph-name="ncaron" unicode="&#x148;" horiz-adv-x="570" 
d="M470 0h-98l56 318c5 29 8 55 7 73c-2 48 -24 88 -82 88c-68 0 -140 -70 -163 -198l-49 -281h-98l98 560h68l1 -81h1c47 62 106 91 162 91c102 0 157 -72 161 -163c1 -24 -2 -54 -7 -83zM404 628h-82l-135 191h80l100 -132l124 132h82z" />
    <glyph glyph-name="napostrophe" unicode="&#x149;" horiz-adv-x="665" 
d="M565 0h-98l56 318c5 29 8 55 7 73c-2 48 -24 88 -82 88c-68 0 -140 -70 -163 -198l-49 -281h-98l98 560h68l1 -81h1c47 62 106 91 162 91c102 0 157 -72 161 -163c1 -24 -2 -54 -7 -83zM66 559l7 40c51 16 69 49 73 71c1 7 -3 10 -8 10h-43l19 105h107l-14 -78
c-2 -13 -6 -29 -10 -42c-17 -51 -59 -96 -131 -106z" />
    <glyph glyph-name="Eng" unicode="&#x14a;" horiz-adv-x="639" 
d="M255 -235l17 94c11 -1 26 -2 36 -2c69 0 105 24 120 108l7 35h-27l-160 581h-1s-5 -33 -9 -58l-92 -523h-100l132 750h124l160 -581h1s5 33 10 58l92 523h100l-140 -796c-25 -142 -105 -191 -220 -191c-16 0 -40 1 -50 2z" />
    <glyph glyph-name="eng" unicode="&#x14b;" horiz-adv-x="570" 
d="M192 -235l17 94c11 -1 26 -2 36 -2c69 0 105 24 120 108l63 353c5 29 8 55 7 73c-2 48 -24 88 -82 88c-68 0 -140 -70 -163 -198l-49 -281h-98l98 560h68l1 -81h1c47 62 106 91 162 91c102 0 157 -72 161 -163c1 -24 -2 -54 -7 -83l-65 -370
c-25 -142 -105 -191 -220 -191c-16 0 -40 1 -50 2z" />
    <glyph glyph-name="Omacron" unicode="&#x14c;" horiz-adv-x="616" 
d="M288 -10h-8c-118 0 -193 78 -204 180c-3 26 0 64 5 92l43 246c24 140 110 252 265 252h8c118 0 193 -78 204 -180c3 -26 0 -64 -5 -92l-43 -246c-24 -140 -110 -252 -265 -252zM450 245l43 250c4 20 7 51 5 70c-5 54 -36 95 -110 95h-6c-90 0 -140 -68 -155 -155
l-43 -250c-4 -20 -7 -51 -5 -70c5 -54 36 -95 110 -95h6c90 0 140 68 155 155zM544 825h-304l11 65h304z" />
    <glyph glyph-name="omacron" unicode="&#x14d;" horiz-adv-x="536" 
d="M538 326l-18 -102c-8 -46 -22 -91 -46 -128c-40 -63 -104 -106 -193 -106c-92 0 -152 48 -173 120c-10 36 -11 79 -3 124l18 102c8 46 22 91 46 128c40 63 104 106 193 106c92 0 152 -48 173 -120c10 -36 11 -79 3 -124zM423 229l18 102c4 23 7 48 4 70
c-6 42 -30 75 -89 75c-50 0 -84 -25 -107 -63c-14 -24 -24 -52 -29 -82l-18 -102c-4 -23 -7 -48 -4 -70c6 -42 30 -75 89 -75c50 0 84 25 107 63c14 24 24 52 29 82zM498 645h-304l11 65h304z" />
    <glyph glyph-name="Obreve" unicode="&#x14e;" horiz-adv-x="616" 
d="M288 -10h-8c-118 0 -193 78 -204 180c-3 26 0 64 5 92l43 246c24 140 110 252 265 252h8c118 0 193 -78 204 -180c3 -26 0 -64 -5 -92l-43 -246c-24 -140 -110 -252 -265 -252zM450 245l43 250c4 20 7 51 5 70c-5 54 -36 95 -110 95h-6c-90 0 -140 -68 -155 -155
l-43 -250c-4 -20 -7 -51 -5 -70c5 -54 36 -95 110 -95h6c90 0 140 68 155 155zM519 970h63c-15 -101 -84 -167 -181 -167s-156 66 -153 167h63c3 -61 41 -99 96 -99s99 38 112 99z" />
    <glyph glyph-name="obreve" unicode="&#x14f;" horiz-adv-x="536" 
d="M538 326l-18 -102c-8 -46 -22 -91 -46 -128c-40 -63 -104 -106 -193 -106c-92 0 -152 48 -173 120c-10 36 -11 79 -3 124l18 102c8 46 22 91 46 128c40 63 104 106 193 106c92 0 152 -48 173 -120c10 -36 11 -79 3 -124zM423 229l18 102c4 23 7 48 4 70
c-6 42 -30 75 -89 75c-50 0 -84 -25 -107 -63c-14 -24 -24 -52 -29 -82l-18 -102c-4 -23 -7 -48 -4 -70c6 -42 30 -75 89 -75c50 0 84 25 107 63c14 24 24 52 29 82zM473 790h63c-15 -101 -84 -167 -181 -167s-156 66 -153 167h63c3 -61 41 -99 96 -99s99 38 112 99z" />
    <glyph glyph-name="Ohungarumlaut" unicode="&#x150;" horiz-adv-x="606" 
d="M288 -10h-8c-118 0 -193 78 -204 180c-3 26 0 64 5 92l43 246c24 140 110 252 265 252h8c118 0 193 -78 204 -180c3 -26 0 -64 -5 -92l-43 -246c-24 -140 -110 -252 -265 -252zM450 245l43 250c4 20 7 51 5 70c-5 54 -36 95 -110 95h-6c-90 0 -140 -68 -155 -155
l-43 -250c-4 -20 -7 -51 -5 -70c5 -54 36 -95 110 -95h6c90 0 140 68 155 155zM330 807h-68l111 180h115zM520 807h-68l111 180h115z" />
    <glyph glyph-name="ohungarumlaut" unicode="&#x151;" 
d="M538 326l-18 -102c-8 -46 -22 -91 -46 -128c-40 -63 -104 -106 -193 -106c-92 0 -152 48 -173 120c-10 36 -11 79 -3 124l18 102c8 46 22 91 46 128c40 63 104 106 193 106c92 0 152 -48 173 -120c10 -36 11 -79 3 -124zM423 229l18 102c4 23 7 48 4 70
c-6 42 -30 75 -89 75c-50 0 -84 -25 -107 -63c-14 -24 -24 -52 -29 -82l-18 -102c-4 -23 -7 -48 -4 -70c6 -42 30 -75 89 -75c50 0 84 25 107 63c14 24 24 52 29 82zM264 627h-68l111 180h115zM454 627h-68l111 180h115z" />
    <glyph glyph-name="OE" unicode="&#x152;" horiz-adv-x="836" 
d="M766 0h-484c-118 0 -193 78 -204 180c-3 26 0 64 5 92l39 226c24 140 110 252 265 252h511l-18 -101h-292l-38 -214h237l-18 -101h-237l-41 -233h292zM387 101l97 548h-104c-90 0 -140 -67 -155 -154l-39 -230c-4 -20 -7 -51 -5 -70c5 -54 36 -94 110 -94h96z" />
    <glyph glyph-name="oe" unicode="&#x153;" horiz-adv-x="848" 
d="M808 258h-320l-5 -29c-4 -23 -7 -48 -4 -70c6 -42 30 -75 89 -75c50 0 84 25 107 63c3 6 7 12 10 19h103c-9 -26 -19 -49 -33 -70c-40 -63 -104 -106 -193 -106c-81 0 -128 37 -150 93c-36 -55 -90 -93 -170 -93c-92 0 -152 48 -173 120c-10 36 -11 79 -3 124l18 102
c8 46 22 91 46 128c40 63 104 106 193 106c80 0 128 -38 150 -94c36 56 92 94 176 94c99 0 164 -50 176 -135c4 -27 3 -62 -4 -104zM384 229l18 102c4 23 7 48 4 70c-6 42 -30 75 -89 75c-50 0 -84 -25 -107 -63c-14 -24 -24 -52 -29 -82l-18 -102c-4 -23 -7 -48 -4 -70
c6 -42 30 -75 89 -75c50 0 84 25 107 63c14 24 24 52 29 82zM505 346h218c4 20 9 42 5 69c-6 43 -43 66 -90 66c-50 0 -84 -25 -107 -63c-11 -18 -21 -49 -26 -72z" />
    <glyph glyph-name="Racute" unicode="&#x154;" horiz-adv-x="596" 
d="M224 423h117c90 0 143 50 149 123c5 55 -21 86 -69 98c-17 4 -39 6 -65 6h-92zM541 0h-113c-16 20 -18 57 -15 90l14 137c7 71 -32 96 -106 96h-115l-56 -323h-104l132 750h190c34 0 63 -3 86 -8c95 -22 150 -86 141 -191c-7 -78 -61 -150 -144 -178v-1
c58 -23 85 -67 78 -144l-12 -130c-4 -38 1 -75 24 -96v-2zM370 807h-69l116 180h123z" />
    <glyph glyph-name="racute" unicode="&#x155;" horiz-adv-x="410" 
d="M141 0h-98l98 560h68l1 -81h1c47 62 104 91 160 91c25 0 54 -5 74 -11l-19 -97c-23 10 -49 16 -78 16c-64 0 -134 -59 -160 -207zM286 627h-69l116 180h123z" />
    <glyph glyph-name="Rcommaaccent" unicode="&#x156;" horiz-adv-x="596" 
d="M224 423h117c90 0 143 50 149 123c5 55 -21 86 -69 98c-17 4 -39 6 -65 6h-92zM541 0h-113c-16 20 -18 57 -15 90l14 137c7 71 -32 96 -106 96h-115l-56 -323h-104l132 750h190c34 0 63 -3 86 -8c95 -22 150 -86 141 -191c-7 -78 -61 -150 -144 -178v-1
c58 -23 85 -67 78 -144l-12 -130c-4 -38 1 -75 24 -96v-2zM178 -276l7 40c51 16 69 49 72 71c2 7 -2 10 -7 10h-43l19 105h107l-14 -78c-2 -13 -6 -29 -10 -42c-17 -51 -59 -96 -131 -106z" />
    <glyph glyph-name="rcommaaccent" unicode="&#x157;" horiz-adv-x="410" 
d="M141 0h-98l98 560h68l1 -81h1c47 62 104 91 160 91c25 0 54 -5 74 -11l-19 -97c-23 10 -49 16 -78 16c-64 0 -134 -59 -160 -207zM-17 -276l7 40c51 16 69 49 72 71c2 7 -2 10 -7 10h-43l19 105h107l-14 -78c-2 -13 -6 -29 -10 -42c-17 -51 -59 -96 -131 -106z" />
    <glyph glyph-name="Rcaron" unicode="&#x158;" horiz-adv-x="596" 
d="M224 423h117c90 0 143 50 149 123c5 55 -21 86 -69 98c-17 4 -39 6 -65 6h-92zM541 0h-113c-16 20 -18 57 -15 90l14 137c7 71 -32 96 -106 96h-115l-56 -323h-104l132 750h190c34 0 63 -3 86 -8c95 -22 150 -86 141 -191c-7 -78 -61 -150 -144 -178v-1
c58 -23 85 -67 78 -144l-12 -130c-4 -38 1 -75 24 -96v-2zM421 808h-82l-135 191h80l100 -132l124 132h82z" />
    <glyph glyph-name="rcaron" unicode="&#x159;" horiz-adv-x="410" 
d="M141 0h-98l98 560h68l1 -81h1c47 62 104 91 160 91c25 0 54 -5 74 -11l-19 -97c-23 10 -49 16 -78 16c-64 0 -134 -59 -160 -207zM355 628h-82l-135 191h80l100 -132l124 132h82z" />
    <glyph glyph-name="Sacute" unicode="&#x15a;" horiz-adv-x="560" 
d="M569 537h-102c12 66 -16 128 -109 128c-96 0 -124 -52 -128 -100c-5 -65 30 -99 85 -123l44 -19c89 -39 174 -108 160 -232c-15 -130 -123 -201 -246 -201c-155 0 -237 102 -224 227h104c-9 -69 36 -132 119 -132c78 0 136 41 144 117c7 69 -51 110 -100 132l-44 20
c-81 36 -161 91 -144 220c16 123 119 186 237 186c134 0 229 -76 204 -223zM356 807h-69l116 180h123z" />
    <glyph glyph-name="sacute" unicode="&#x15b;" horiz-adv-x="481" 
d="M473 413h-96c-4 45 -33 71 -87 71c-62 0 -95 -34 -95 -70s19 -60 86 -81c90 -28 155 -70 155 -169c0 -108 -98 -174 -199 -174c-119 0 -200 62 -200 176h96c3 -58 43 -88 104 -88c60 0 101 41 101 87c0 41 -22 60 -101 87c-98 33 -138 80 -138 151c0 103 89 167 190 167
c95 0 181 -44 184 -157zM299 627h-69l116 180h123z" />
    <glyph glyph-name="Scircumflex" unicode="&#x15c;" horiz-adv-x="560" 
d="M569 537h-102c12 66 -16 128 -109 128c-96 0 -124 -52 -128 -100c-5 -65 30 -99 85 -123l44 -19c89 -39 174 -108 160 -232c-15 -130 -123 -201 -246 -201c-155 0 -237 102 -224 227h104c-9 -69 36 -132 119 -132c78 0 136 41 144 117c7 69 -51 110 -100 132l-44 20
c-81 36 -161 91 -144 220c16 123 119 186 237 186c134 0 229 -76 204 -223zM568 808h-80l-100 132l-124 -132h-82l169 191h82z" />
    <glyph glyph-name="scircumflex" unicode="&#x15d;" horiz-adv-x="481" 
d="M473 413h-96c-4 45 -33 71 -87 71c-62 0 -95 -34 -95 -70s19 -60 86 -81c90 -28 155 -70 155 -169c0 -108 -98 -174 -199 -174c-119 0 -200 62 -200 176h96c3 -58 43 -88 104 -88c60 0 101 41 101 87c0 41 -22 60 -101 87c-98 33 -138 80 -138 151c0 103 89 167 190 167
c95 0 181 -44 184 -157zM506 628h-80l-100 132l-124 -132h-82l169 191h82z" />
    <glyph glyph-name="Scedilla" unicode="&#x15e;" horiz-adv-x="560" 
d="M223 -91l-25 7c-15 4 -22 14 -13 31l25 49c-114 24 -172 114 -161 221h104c-9 -69 36 -132 119 -132c78 0 136 41 144 117c7 69 -51 110 -100 132l-44 20c-81 36 -161 91 -144 220c16 123 119 186 237 186c134 0 229 -76 204 -223h-102c12 66 -16 128 -109 128
c-96 0 -124 -52 -128 -100c-5 -65 30 -99 85 -123l44 -19c89 -39 174 -108 160 -232c-15 -130 -123 -201 -246 -201c-7 0 -13 0 -19 1l-18 -40c48 -12 97 -42 94 -96c-3 -56 -51 -93 -107 -93c-62 0 -102 37 -105 87h52c5 -26 24 -41 56 -41c29 0 51 20 53 45
c2 26 -17 45 -56 56z" />
    <glyph glyph-name="scedilla" unicode="&#x15f;" horiz-adv-x="481" 
d="M187 -91l-25 7c-15 4 -22 14 -13 31l25 50c-84 18 -137 76 -137 169h96c3 -58 43 -88 104 -88c60 0 101 41 101 87c0 41 -22 60 -101 87c-98 33 -138 80 -138 151c0 103 89 167 190 167c95 0 181 -44 184 -157h-96c-4 45 -33 71 -87 71c-62 0 -95 -34 -95 -70
s19 -60 86 -81c90 -28 155 -70 155 -169c0 -108 -98 -174 -199 -174c-7 0 -13 0 -19 1l-18 -40c48 -12 97 -42 94 -96c-3 -56 -51 -93 -107 -93c-62 0 -102 37 -105 87h52c5 -26 24 -41 56 -41c29 0 51 20 53 45c2 26 -17 45 -56 56z" />
    <glyph glyph-name="Scaron" unicode="&#x160;" horiz-adv-x="560" 
d="M569 537h-102c12 66 -16 128 -109 128c-96 0 -124 -52 -128 -100c-5 -65 30 -99 85 -123l44 -19c89 -39 174 -108 160 -232c-15 -130 -123 -201 -246 -201c-155 0 -237 102 -224 227h104c-9 -69 36 -132 119 -132c78 0 136 41 144 117c7 69 -51 110 -100 132l-44 20
c-81 36 -161 91 -144 220c16 123 119 186 237 186c134 0 229 -76 204 -223zM429 808h-82l-135 191h80l100 -132l124 132h82z" />
    <glyph glyph-name="scaron" unicode="&#x161;" horiz-adv-x="481" 
d="M473 413h-96c-4 45 -33 71 -87 71c-62 0 -95 -34 -95 -70s19 -60 86 -81c90 -28 155 -70 155 -169c0 -108 -98 -174 -199 -174c-119 0 -200 62 -200 176h96c3 -58 43 -88 104 -88c60 0 101 41 101 87c0 41 -22 60 -101 87c-98 33 -138 80 -138 151c0 103 89 167 190 167
c95 0 181 -44 184 -157zM354 628h-82l-135 191h80l100 -132l124 132h82z" />
    <glyph glyph-name="Tcommaaccent" unicode="&#x162;" horiz-adv-x="561" 
d="M298 0h-104l114 649h-202l18 101h506l-18 -101h-200zM138 -276l7 40c51 16 69 49 72 71c2 7 -2 10 -7 10h-43l19 105h107l-14 -78c-2 -13 -6 -29 -10 -42c-17 -51 -59 -96 -131 -106z" />
    <glyph glyph-name="tcommaaccent" unicode="&#x163;" horiz-adv-x="377" 
d="M321 93l-17 -93c-15 -2 -25 -3 -38 -3c-143 0 -176 81 -152 214l45 255h-87l16 94h87l25 140h98l-25 -140h129l-16 -94h-129l-45 -256c-12 -66 -14 -119 71 -119c12 0 21 0 38 2zM93 -276l7 40c51 16 69 49 72 71c2 7 -2 10 -7 10h-43l19 105h107l-14 -78
c-2 -13 -6 -29 -10 -42c-17 -51 -59 -96 -131 -106z" />
    <glyph glyph-name="Tcaron" unicode="&#x164;" horiz-adv-x="561" 
d="M298 0h-104l114 649h-202l18 101h506l-18 -101h-200zM409 808h-82l-135 191h80l100 -132l124 132h82z" />
    <glyph glyph-name="tcaron" unicode="&#x165;" horiz-adv-x="480" 
d="M321 93l-17 -93c-15 -2 -25 -3 -38 -3c-143 0 -176 81 -152 214l45 255h-87l16 94h87l25 140h98l-25 -140h129l-16 -94h-129l-45 -256c-12 -66 -14 -119 71 -119c12 0 21 0 38 2zM447 559l7 40c51 16 69 49 73 71c1 7 -3 10 -8 10h-43l19 105h107l-14 -78
c-2 -13 -6 -29 -10 -42c-17 -51 -59 -96 -131 -106z" />
    <glyph glyph-name="Tbar" unicode="&#x166;" horiz-adv-x="550" 
d="M298 0h-104l65 370h-169l12 70h169l37 209h-202l18 101h506l-18 -101h-200l-37 -209h166l-12 -70h-166z" />
    <glyph glyph-name="tbar" unicode="&#x167;" horiz-adv-x="380" 
d="M331 93l-17 -93c-15 -2 -25 -3 -38 -3c-143 0 -176 81 -152 214l12 71h-87l13 70h87l20 114h-87l16 94h87l25 140h98l-25 -140h129l-16 -94h-129l-20 -114h130l-13 -70h-130l-12 -72c-11 -66 -14 -119 71 -119c12 0 21 0 38 2z" />
    <glyph glyph-name="Utilde" unicode="&#x168;" horiz-adv-x="620" 
d="M295 -10h-8c-121 0 -193 78 -204 180c-3 26 0 64 5 92l86 488h103l-86 -495c-4 -20 -7 -51 -5 -70c5 -54 36 -95 110 -95h6c90 0 140 68 155 155l89 505h104l-90 -508c-24 -140 -110 -252 -265 -252zM568 944h60c-13 -85 -57 -137 -123 -137c-26 0 -56 11 -83 33
c-40 31 -56 43 -84 43c-22 0 -44 -17 -53 -63h-60c14 85 57 137 122 137c27 0 56 -11 84 -33c41 -31 56 -43 84 -43c22 0 45 17 53 63z" />
    <glyph glyph-name="utilde" unicode="&#x169;" horiz-adv-x="568" 
d="M465 0h-68l-1 81h-1c-47 -62 -106 -91 -162 -91c-102 0 -157 72 -161 163c-1 24 2 54 7 83l57 324h98l-56 -318c-5 -29 -8 -55 -7 -73c2 -48 24 -88 82 -88c68 0 140 70 163 198l49 281h98zM516 764h60c-13 -85 -57 -137 -123 -137c-26 0 -56 11 -83 33
c-40 31 -56 43 -84 43c-22 0 -44 -17 -53 -63h-60c14 85 57 137 122 137c27 0 56 -11 84 -33c41 -31 56 -43 84 -43c22 0 45 17 53 63z" />
    <glyph glyph-name="Umacron" unicode="&#x16a;" horiz-adv-x="620" 
d="M295 -10h-8c-121 0 -193 78 -204 180c-3 26 0 64 5 92l86 488h103l-86 -495c-4 -20 -7 -51 -5 -70c5 -54 36 -95 110 -95h6c90 0 140 68 155 155l89 505h104l-90 -508c-24 -140 -110 -252 -265 -252zM573 825h-304l11 65h304z" />
    <glyph glyph-name="umacron" unicode="&#x16b;" horiz-adv-x="568" 
d="M465 0h-68l-1 81h-1c-47 -62 -106 -91 -162 -91c-102 0 -157 72 -161 163c-1 24 2 54 7 83l57 324h98l-56 -318c-5 -29 -8 -55 -7 -73c2 -48 24 -88 82 -88c68 0 140 70 163 198l49 281h98zM517 645h-304l11 65h304z" />
    <glyph glyph-name="Ubreve" unicode="&#x16c;" horiz-adv-x="620" 
d="M295 -10h-8c-121 0 -193 78 -204 180c-3 26 0 64 5 92l86 488h103l-86 -495c-4 -20 -7 -51 -5 -70c5 -54 36 -95 110 -95h6c90 0 140 68 155 155l89 505h104l-90 -508c-24 -140 -110 -252 -265 -252zM535 970h63c-15 -101 -84 -167 -181 -167s-156 66 -153 167h63
c3 -61 41 -99 96 -99s99 38 112 99z" />
    <glyph glyph-name="ubreve" unicode="&#x16d;" horiz-adv-x="568" 
d="M465 0h-68l-1 81h-1c-47 -62 -106 -91 -162 -91c-102 0 -157 72 -161 163c-1 24 2 54 7 83l57 324h98l-56 -318c-5 -29 -8 -55 -7 -73c2 -48 24 -88 82 -88c68 0 140 70 163 198l49 281h98zM484 790h63c-15 -101 -84 -167 -181 -167s-156 66 -153 167h63
c3 -61 41 -99 96 -99s99 38 112 99z" />
    <glyph glyph-name="Uring" unicode="&#x16e;" horiz-adv-x="620" 
d="M295 -10h-8c-121 0 -193 78 -204 180c-3 26 0 64 5 92l86 488h103l-86 -495c-4 -20 -7 -51 -5 -70c5 -54 36 -95 110 -95h6c90 0 140 68 155 155l89 505h104l-90 -508c-24 -140 -110 -252 -265 -252zM423 794c-62 0 -111 50 -111 113s49 114 111 114s112 -51 112 -114
s-50 -113 -112 -113zM423 837c36 0 66 31 66 70s-30 71 -66 71s-65 -32 -65 -71s29 -70 65 -70z" />
    <glyph glyph-name="uring" unicode="&#x16f;" horiz-adv-x="568" 
d="M465 0h-68l-1 81h-1c-47 -62 -106 -91 -162 -91c-102 0 -157 72 -161 163c-1 24 2 54 7 83l57 324h98l-56 -318c-5 -29 -8 -55 -7 -73c2 -48 24 -88 82 -88c68 0 140 70 163 198l49 281h98zM367 614c-62 0 -111 50 -111 113s49 114 111 114s112 -51 112 -114
s-50 -113 -112 -113zM367 657c36 0 66 31 66 70s-30 71 -66 71s-65 -32 -65 -71s29 -70 65 -70z" />
    <glyph glyph-name="Uhungarumlaut" unicode="&#x170;" horiz-adv-x="620" 
d="M295 -10h-8c-121 0 -193 78 -204 180c-3 26 0 64 5 92l86 488h103l-86 -495c-4 -20 -7 -51 -5 -70c5 -54 36 -95 110 -95h6c90 0 140 68 155 155l89 505h104l-90 -508c-24 -140 -110 -252 -265 -252zM339 807h-68l111 180h115zM529 807h-68l111 180h115z" />
    <glyph glyph-name="uhungarumlaut" unicode="&#x171;" horiz-adv-x="568" 
d="M465 0h-68l-1 81h-1c-47 -62 -106 -91 -162 -91c-102 0 -157 72 -161 163c-1 24 2 54 7 83l57 324h98l-56 -318c-5 -29 -8 -55 -7 -73c2 -48 24 -88 82 -88c68 0 140 70 163 198l49 281h98zM277 627h-68l111 180h115zM467 627h-68l111 180h115z" />
    <glyph glyph-name="Uogonek" unicode="&#x172;" horiz-adv-x="620" 
d="M354 -163l16 -40c-28 -14 -59 -24 -89 -24c-68 0 -115 32 -112 93c2 48 39 89 100 125c-111 7 -176 82 -186 179c-3 26 0 64 5 92l86 488h103l-86 -495c-4 -20 -7 -51 -5 -70c5 -54 36 -95 110 -95h6c90 0 140 68 155 155l89 505h104l-90 -508c-13 -73 -41 -136 -88 -183
c-41 -41 -96 -51 -117 -63c-70 -39 -115 -77 -119 -123c-3 -33 17 -54 54 -54c18 0 41 6 64 18z" />
    <glyph glyph-name="uogonek" unicode="&#x173;" horiz-adv-x="568" 
d="M458 -163l16 -40c-28 -14 -59 -24 -89 -24c-68 0 -115 32 -112 93c2 54 49 100 124 137l-1 78h-1c-47 -62 -106 -91 -162 -91c-102 0 -157 72 -161 163c-1 24 2 54 7 83l57 324h98l-56 -318c-5 -29 -8 -55 -7 -73c2 -48 24 -88 82 -88c68 0 140 70 163 198l49 281h98
l-98 -560c-73 -46 -121 -80 -125 -127c-3 -33 17 -54 54 -54c18 0 41 6 64 18z" />
    <glyph glyph-name="Wcircumflex" unicode="&#x174;" horiz-adv-x="864" 
d="M659 0h-138l-21 569h-2l-218 -569h-136l-16 750h107l-1 -616h2l234 616h121l16 -616h2l217 616h114zM723 808h-80l-100 132l-124 -132h-82l169 191h82z" />
    <glyph glyph-name="wcircumflex" unicode="&#x175;" horiz-adv-x="741" 
d="M549 0h-107l-35 395h-2l-172 -395h-102l-46 560h101l23 -413h2l179 413h90l34 -412h2l168 412h108zM634 628h-80l-100 132l-124 -132h-82l169 191h82z" />
    <glyph glyph-name="Ycircumflex" unicode="&#x176;" horiz-adv-x="570" 
d="M307 0h-104l57 324l-155 426h112l108 -315h2l219 315h123l-305 -426zM579 808h-80l-100 132l-124 -132h-82l169 191h82z" />
    <glyph glyph-name="ycircumflex" unicode="&#x177;" horiz-adv-x="498" 
d="M130 -39l46 85l-97 514h101l66 -394h2l201 394h108l-341 -637c-51 -95 -111 -139 -194 -139c-29 0 -58 4 -79 11l17 94c19 -5 38 -10 63 -10c46 0 81 33 107 82zM520 628h-80l-100 132l-124 -132h-82l169 191h82z" />
    <glyph glyph-name="Ydieresis" unicode="&#x178;" horiz-adv-x="570" 
d="M307 0h-104l57 324l-155 426h112l108 -315h2l219 315h123l-305 -426zM344 824h-103l20 111h103zM539 824h-103l20 111h103z" />
    <glyph glyph-name="Zacute" unicode="&#x179;" horiz-adv-x="576" 
d="M499 0h-484l16 94l439 555h-327l18 101h464l-17 -93l-441 -556h349zM382 807h-69l116 180h123z" />
    <glyph glyph-name="zacute" unicode="&#x17a;" horiz-adv-x="490" 
d="M425 0h-420l14 85l342 381h-264l16 94h392l-15 -86l-339 -380h290zM304 627h-69l116 180h123z" />
    <glyph glyph-name="Zdotaccent" unicode="&#x17b;" horiz-adv-x="576" 
d="M499 0h-484l16 94l439 555h-327l18 101h464l-17 -93l-441 -556h349zM444 823h-109l20 114h109z" />
    <glyph glyph-name="zdotaccent" unicode="&#x17c;" horiz-adv-x="490" 
d="M425 0h-420l14 85l342 381h-264l16 94h392l-15 -86l-339 -380h290zM370 643h-109l20 114h109z" />
    <glyph glyph-name="Zcaron" unicode="&#x17d;" horiz-adv-x="576" 
d="M499 0h-484l16 94l439 555h-327l18 101h464l-17 -93l-441 -556h349zM441 808h-82l-135 191h80l100 -132l124 132h82z" />
    <glyph glyph-name="zcaron" unicode="&#x17e;" horiz-adv-x="490" 
d="M425 0h-420l14 85l342 381h-264l16 94h392l-15 -86l-339 -380h290zM355 628h-82l-135 191h80l100 -132l124 132h82z" />
    <glyph glyph-name="longs" unicode="&#x17f;" horiz-adv-x="299" 
d="M148 -153h-98l109 619h-87l16 94h87l8 43c26 142 104 193 220 193c19 0 48 -2 55 -3l-16 -94c-13 2 -30 3 -42 3c-70 0 -106 -24 -121 -108z" />
    <glyph glyph-name="florin" unicode="&#x192;" horiz-adv-x="570" 
d="M500 0h-490l132 750h490zM75 93l217 281l-118 281zM467 93l99 562l-217 -281zM329 421l216 279h-333zM428 50l-116 276l-214 -276h330z" />
    <glyph glyph-name="dotlessj" unicode="&#x237;" horiz-adv-x="250" 
d="M-131 -235l17 94c11 -1 26 -2 36 -2c69 0 105 24 120 108l105 595h98l-106 -606c-25 -142 -105 -191 -220 -191c-16 0 -40 1 -50 2z" />
    <glyph glyph-name="circumflex" unicode="&#x2c6;" horiz-adv-x="490" 
d="M524 658h-80l-100 132l-124 -132h-82l169 191h82z" />
    <glyph glyph-name="caron" unicode="&#x2c7;" horiz-adv-x="490" 
d="M379 658h-82l-135 191h80l100 -132l124 132h82z" />
    <glyph glyph-name="breve" unicode="&#x2d8;" horiz-adv-x="490" 
d="M461 820h63c-15 -101 -84 -167 -181 -167s-156 66 -153 167h63c3 -61 41 -99 96 -99s99 38 112 99z" />
    <glyph glyph-name="dotaccent" unicode="&#x2d9;" horiz-adv-x="490" 
d="M387 673h-109l20 114h109z" />
    <glyph glyph-name="ring" unicode="&#x2da;" horiz-adv-x="490" 
d="M347 644c-62 0 -111 50 -111 113s49 114 111 114s112 -51 112 -114s-50 -113 -112 -113zM347 687c36 0 66 31 66 70s-30 71 -66 71s-65 -32 -65 -71s29 -70 65 -70z" />
    <glyph glyph-name="ogonek" unicode="&#x2db;" horiz-adv-x="490" 
d="M274 -163l16 -40c-28 -14 -59 -24 -89 -24c-68 0 -115 32 -112 93s62 111 155 152l37 -18c-73 -46 -121 -80 -125 -127c-3 -33 17 -54 54 -54c18 0 41 6 64 18z" />
    <glyph glyph-name="tilde" unicode="&#x2dc;" horiz-adv-x="490" 
d="M486 794h60c-13 -85 -57 -137 -123 -137c-26 0 -56 11 -83 33c-40 31 -56 43 -84 43c-22 0 -44 -17 -53 -63h-60c14 85 57 137 122 137c27 0 56 -11 84 -33c41 -31 56 -43 84 -43c22 0 45 17 53 63z" />
    <glyph glyph-name="hungarumlaut" unicode="&#x2dd;" horiz-adv-x="490" 
d="M239 657h-68l111 180h115zM429 657h-68l111 180h115z" />
    <glyph glyph-name="pi" unicode="&#x3c0;" horiz-adv-x="596" 
d="M515 466l-48 -276c-5 -29 -6 -44 -5 -57c5 -27 22 -42 57 -42c11 0 21 0 33 1l-16 -92c-15 -2 -23 -2 -36 -2c-81 0 -137 32 -139 116c-1 20 4 49 9 79l47 273h-163l-81 -466h-98l81 466h-85l17 94h532l-17 -94h-88z" />
    <glyph glyph-name="uni0400" unicode="&#x400;" horiz-adv-x="547" 
d="M477 0h-431l132 750h431l-18 -101h-327l-38 -214h270l-18 -101h-270l-41 -233h327zM468 807h-69l-170 180h123z" />
    <glyph glyph-name="afii10023" unicode="&#x401;" horiz-adv-x="547" 
d="M477 0h-431l132 750h431l-18 -101h-327l-38 -214h270l-18 -101h-270l-41 -233h327zM352 824h-103l20 111h103zM547 824h-103l20 111h103z" />
    <glyph glyph-name="afii10051" unicode="&#x402;" horiz-adv-x="714" 
d="M410 0h-23l17 101h13c74 0 147 38 156 122c9 81 -50 125 -136 125h-117l-61 -348h-104l114 649h-163l18 101h447l-18 -101h-180l-36 -200h108c137 0 246 -71 232 -226c-9 -97 -70 -174 -158 -206c-26 -10 -66 -17 -109 -17z" />
    <glyph glyph-name="afii10052" unicode="&#x403;" 
d="M150 0h-104l132 750h423l-18 -101h-319zM370 807h-69l116 180h123z" />
    <glyph glyph-name="afii10053" unicode="&#x404;" horiz-adv-x="584" 
d="M287 -10h-6c-122 0 -197 78 -208 180c-3 26 0 64 5 92l43 246c24 140 110 252 265 252h6c123 0 216 -90 212 -208h-103c-2 62 -41 108 -115 108h-7c-90 0 -140 -68 -155 -155l-12 -70h236l-18 -101h-236l-14 -79c-4 -20 -6 -51 -4 -70c5 -54 36 -95 114 -95h7
c74 0 120 46 144 114h106c-33 -126 -119 -214 -260 -214z" />
    <glyph glyph-name="afii10054" unicode="&#x405;" horiz-adv-x="560" 
d="M569 537h-102c12 66 -16 128 -109 128c-96 0 -124 -52 -128 -100c-5 -65 30 -99 85 -123l44 -19c89 -39 174 -108 160 -232c-15 -130 -123 -201 -246 -201c-155 0 -237 102 -224 227h104c-9 -69 36 -132 119 -132c78 0 136 41 144 117c7 69 -51 110 -100 132l-44 20
c-81 36 -161 91 -144 220c16 123 119 186 237 186c134 0 229 -76 204 -223z" />
    <glyph glyph-name="afii10055" unicode="&#x406;" horiz-adv-x="256" 
d="M150 0h-104l132 750h104z" />
    <glyph glyph-name="afii10056" unicode="&#x407;" horiz-adv-x="256" 
d="M150 0h-104l132 750h104zM194 824h-103l20 111h103zM389 824h-103l20 111h103z" />
    <glyph glyph-name="afii10057" unicode="&#x408;" horiz-adv-x="533" 
d="M367 231l92 519h104l-91 -517c-8 -40 -17 -76 -35 -116c-38 -76 -100 -127 -201 -127s-165 59 -183 144c-6 30 -6 64 -1 98l6 39h104l-6 -36c-4 -21 -5 -42 -3 -62c6 -47 32 -83 88 -83c55 0 90 34 109 79c7 16 12 36 17 62z" />
    <glyph glyph-name="afii10058" unicode="&#x409;" horiz-adv-x="933" 
d="M628 0h-233l114 649h-173l-72 -307c-38 -161 -85 -330 -286 -342l18 103c102 6 139 123 166 243l92 404h377l-52 -291h86c44 0 84 -5 109 -15c82 -32 129 -112 120 -216c-9 -102 -70 -181 -158 -213c-26 -10 -65 -15 -108 -15zM517 101h118c40 0 68 6 86 17
c38 22 65 61 69 110c5 51 -15 92 -49 113c-17 11 -46 17 -84 17h-95z" />
    <glyph glyph-name="afii10059" unicode="&#x40a;" horiz-adv-x="913" 
d="M609 0h-233l63 358h-226l-63 -358h-104l132 750h104l-52 -291h227l51 291h104l-52 -291h86c44 0 84 -5 109 -15c82 -32 129 -112 120 -216c-9 -102 -70 -181 -158 -213c-26 -10 -65 -15 -108 -15zM498 101h118c40 0 68 6 86 17c38 22 65 61 69 110c5 51 -15 92 -49 113
c-17 11 -46 17 -84 17h-95z" />
    <glyph glyph-name="afii10060" unicode="&#x40b;" horiz-adv-x="717" 
d="M627 0h-104l31 181c5 27 8 55 8 69c0 61 -30 98 -118 98h-124l-61 -348h-104l114 649h-163l18 101h447l-18 -101h-180l-35 -200h114c147 0 214 -77 214 -190c0 -19 -4 -52 -9 -83z" />
    <glyph glyph-name="afii10061" unicode="&#x40c;" horiz-adv-x="621" 
d="M580 0h-115l-134 340h-122l-59 -340h-104l132 750h104l-55 -309h79c84 0 119 34 149 114l21 54c36 93 80 145 164 145c17 0 40 -1 60 -4l-17 -95c-11 2 -20 3 -30 3c-38 0 -61 -18 -77 -64l-18 -50c-31 -88 -65 -143 -128 -174zM426 807h-69l116 180h123z" />
    <glyph glyph-name="uni040D" unicode="&#x40d;" horiz-adv-x="639" 
d="M665 750l-132 -750h-104l90 513c4 25 11 58 11 58h-1l-358 -571h-125l132 750h104l-91 -513c-4 -25 -11 -58 -11 -58h1l360 571h124zM491 807h-69l-170 180h123z" />
    <glyph glyph-name="afii10062" unicode="&#x40e;" horiz-adv-x="558" 
d="M234 183l-116 567h105l84 -443h2l228 443h113l-325 -603c-61 -113 -125 -157 -216 -157c-36 0 -68 5 -88 11l16 95c22 -5 40 -10 74 -10c63 0 90 35 123 97zM497 970h69c-15 -101 -88 -167 -182 -167s-155 66 -152 167h69c1 -62 31 -105 89 -105s94 43 107 105z" />
    <glyph glyph-name="afii10145" unicode="&#x40f;" horiz-adv-x="633" 
d="M292 -244h-98l44 244h-192l132 750h104l-115 -649h273l115 649h104l-132 -750h-191z" />
    <glyph glyph-name="afii10017" unicode="&#x410;" horiz-adv-x="584" 
d="M408 328l-29 317h-4l-139 -317h172zM542 0h-104l-19 229h-228l-99 -229h-110l338 750h149z" />
    <glyph glyph-name="afii10018" unicode="&#x411;" horiz-adv-x="594" 
d="M289 0h-243l132 750h415l-18 -101h-311l-34 -190h96c44 0 84 -5 109 -15c82 -32 129 -112 120 -216c-9 -102 -70 -181 -158 -213c-26 -10 -65 -15 -108 -15zM168 101h128c40 0 68 6 86 17c38 22 65 61 69 110c5 51 -15 92 -49 113c-17 11 -46 17 -84 17h-105z" />
    <glyph glyph-name="afii10019" unicode="&#x412;" horiz-adv-x="598" 
d="M294 0h-248l132 750h193c46 0 81 -4 106 -12c80 -26 125 -88 117 -183c-7 -79 -57 -138 -129 -170c70 -33 99 -101 93 -170c-9 -96 -67 -169 -154 -200c-27 -9 -60 -15 -110 -15zM167 100h142c32 0 58 5 75 14c40 20 66 58 70 104c4 49 -19 88 -61 107
c-15 7 -29 11 -61 11h-123zM226 436h124c32 0 50 4 67 11c39 17 69 54 74 105c4 46 -18 76 -56 90c-17 6 -37 8 -66 8h-105z" />
    <glyph glyph-name="afii10020" unicode="&#x413;" horiz-adv-x="529" 
d="M150 0h-104l132 750h423l-18 -101h-319z" />
    <glyph glyph-name="afii10021" unicode="&#x414;" horiz-adv-x="729" 
d="M643 -244h-98l44 244h-509l-44 -244h-97l60 345h26c101 0 149 133 176 253l89 396h415l-115 -649h114zM486 101l97 548h-211l-70 -299c-22 -96 -49 -190 -116 -249h300z" />
    <glyph glyph-name="afii10022" unicode="&#x415;" horiz-adv-x="547" 
d="M477 0h-431l132 750h431l-18 -101h-327l-38 -214h270l-18 -101h-270l-41 -233h327z" />
    <glyph glyph-name="afii10024" unicode="&#x416;" horiz-adv-x="945" 
d="M904 0h-115l-134 340h-102l-59 -340h-104l59 340h-90l-250 -340h-128l279 370c-47 30 -70 86 -68 174l1 51c0 46 -17 64 -55 64c-9 0 -19 -1 -30 -3l17 94c19 3 32 4 47 4c86 0 116 -51 116 -145v-54c0 -80 25 -114 110 -114h69l55 309h104l-55 -309h60
c84 0 118 35 149 114l21 54c35 94 80 145 164 145c21 0 40 -1 59 -4l-17 -94c-10 2 -19 3 -29 3c-38 0 -61 -18 -78 -64l-18 -51c-30 -88 -64 -143 -128 -174z" />
    <glyph glyph-name="afii10025" unicode="&#x417;" horiz-adv-x="562" 
d="M430 375v-1c72 -39 98 -108 86 -183c-19 -119 -127 -201 -261 -201c-147 0 -227 88 -210 213h102c-12 -73 28 -115 114 -115c77 0 142 44 155 118c11 64 -25 127 -135 127h-85l16 91h85c110 0 163 60 174 123c13 74 -35 115 -109 115c-86 0 -140 -42 -154 -115h-104
c22 130 123 213 270 213c132 0 219 -90 202 -208c-11 -78 -60 -138 -146 -177z" />
    <glyph glyph-name="afii10026" unicode="&#x418;" horiz-adv-x="639" 
d="M665 750l-132 -750h-104l90 513c4 25 11 58 11 58h-1l-358 -571h-125l132 750h104l-91 -513c-4 -25 -11 -58 -11 -58h1l360 571h124z" />
    <glyph glyph-name="afii10027" unicode="&#x419;" horiz-adv-x="639" 
d="M665 750l-132 -750h-104l90 513c4 25 11 58 11 58h-1l-358 -571h-125l132 750h104l-91 -513c-4 -25 -11 -58 -11 -58h1l360 571h124zM537 970h69c-15 -101 -88 -167 -182 -167s-155 66 -152 167h69c1 -62 31 -105 89 -105s94 43 107 105z" />
    <glyph glyph-name="afii10028" unicode="&#x41a;" horiz-adv-x="621" 
d="M580 0h-115l-134 340h-122l-59 -340h-104l132 750h104l-55 -309h79c84 0 119 34 149 114l21 54c36 93 80 145 164 145c17 0 40 -1 60 -4l-17 -95c-11 2 -20 3 -30 3c-38 0 -61 -18 -77 -64l-18 -50c-31 -88 -65 -143 -128 -174z" />
    <glyph glyph-name="afii10029" unicode="&#x41b;" horiz-adv-x="650" 
d="M544 0h-104l114 649h-218l-72 -307c-38 -161 -85 -330 -286 -342l18 103c102 6 139 123 166 243l92 404h422z" />
    <glyph glyph-name="afii10030" unicode="&#x41c;" horiz-adv-x="768" 
d="M662 0h-100l89 508c4 25 11 58 11 58h-1l-242 -420h-80l-94 420h-1s-5 -33 -9 -58l-89 -508h-100l132 750h121l102 -460l264 460h129z" />
    <glyph glyph-name="afii10031" unicode="&#x41d;" horiz-adv-x="640" 
d="M534 0h-104l59 340h-280l-59 -340h-104l132 750h104l-55 -309h280l55 309h104z" />
    <glyph glyph-name="afii10032" unicode="&#x41e;" horiz-adv-x="606" 
d="M288 -10h-8c-118 0 -193 78 -204 180c-3 26 0 64 5 92l43 246c24 140 110 252 265 252h8c118 0 193 -78 204 -180c3 -26 0 -64 -5 -92l-43 -246c-24 -140 -110 -252 -265 -252zM450 245l43 250c4 20 7 51 5 70c-5 54 -36 95 -110 95h-6c-90 0 -140 -68 -155 -155
l-43 -250c-4 -20 -7 -51 -5 -70c5 -54 36 -95 110 -95h6c90 0 140 68 155 155z" />
    <glyph glyph-name="afii10033" unicode="&#x41f;" horiz-adv-x="632" 
d="M526 0h-104l114 649h-272l-114 -649h-104l132 750h480z" />
    <glyph glyph-name="afii10034" unicode="&#x420;" horiz-adv-x="594" 
d="M219 392h128c40 0 68 6 86 17c38 22 65 61 69 110c5 51 -15 92 -49 113c-17 11 -46 17 -84 17h-105zM150 0h-104l132 750h199c44 0 84 -5 109 -15c82 -32 129 -112 120 -216c-9 -102 -70 -181 -158 -213c-26 -10 -65 -15 -108 -15h-139z" />
    <glyph glyph-name="afii10035" unicode="&#x421;" horiz-adv-x="579" 
d="M285 -10h-8c-118 0 -193 78 -204 180c-3 26 0 64 5 92l43 246c24 140 110 252 265 252h8c118 0 193 -78 204 -180c2 -19 1 -45 -2 -68h-103c2 18 3 39 2 53c-5 54 -36 95 -110 95h-6c-90 0 -140 -68 -155 -155l-43 -250c-4 -20 -7 -51 -5 -70c5 -54 36 -95 110 -95h6
c90 0 140 67 155 154h103c-24 -142 -110 -254 -265 -254z" />
    <glyph glyph-name="afii10036" unicode="&#x422;" horiz-adv-x="549" 
d="M296 0h-104l114 649h-200l18 101h505l-18 -101h-201z" />
    <glyph glyph-name="afii10037" unicode="&#x423;" horiz-adv-x="558" 
d="M234 183l-116 567h105l84 -443h2l228 443h113l-325 -603c-61 -113 -125 -157 -216 -157c-36 0 -68 5 -88 11l16 95c22 -5 40 -10 74 -10c63 0 90 35 123 97z" />
    <glyph glyph-name="afii10038" unicode="&#x424;" horiz-adv-x="749" 
d="M390 -40h-104l23 130h-20c-162 0 -243 108 -211 272l9 46c29 149 110 252 275 252h48l23 130h104l-23 -130h22c162 0 243 -108 211 -272l-9 -46c-29 -149 -110 -252 -275 -252h-50zM635 345l9 50c17 94 -6 165 -125 165h-23l-66 -370h40c100 0 148 60 165 155zM326 190
l66 370h-37c-100 0 -148 -60 -165 -155l-9 -50c-17 -94 6 -165 125 -165h20z" />
    <glyph glyph-name="afii10039" unicode="&#x425;" horiz-adv-x="574" 
d="M533 0h-112l-108 291l-209 -291h-125l288 393l-132 357h114l89 -262l180 262h127l-262 -363z" />
    <glyph glyph-name="afii10040" unicode="&#x426;" horiz-adv-x="682" 
d="M596 -244h-98l44 244h-496l132 750h104l-115 -649h272l115 649h104l-115 -649h114z" />
    <glyph glyph-name="afii10041" unicode="&#x427;" horiz-adv-x="612" 
d="M506 0h-104l51 291c-39 -6 -84 -11 -131 -11c-131 0 -206 74 -205 187c0 19 3 51 8 80l36 203h104l-36 -203c-4 -24 -8 -53 -8 -69c0 -61 30 -98 119 -98c53 0 90 4 130 9l64 361h104z" />
    <glyph glyph-name="afii10042" unicode="&#x428;" horiz-adv-x="850" 
d="M744 0h-698l132 750h104l-115 -649h193l115 649h104l-115 -649h193l115 649h104z" />
    <glyph glyph-name="afii10043" unicode="&#x429;" horiz-adv-x="901" 
d="M815 -244h-98l44 244h-715l132 750h104l-115 -649h193l115 649h104l-115 -649h193l115 649h104l-115 -649h115z" />
    <glyph glyph-name="afii10044" unicode="&#x42a;" horiz-adv-x="752" 
d="M447 0h-253l114 649h-202l18 101h306l-52 -291h106c44 0 84 -5 109 -15c82 -32 129 -112 120 -216c-9 -102 -70 -181 -158 -213c-26 -10 -65 -15 -108 -15zM316 101h138c40 0 68 6 86 17c38 22 65 61 69 110c5 51 -15 92 -49 113c-17 11 -46 17 -84 17h-115z" />
    <glyph glyph-name="afii10045" unicode="&#x42b;" horiz-adv-x="795" 
d="M689 0h-104l132 750h104zM269 0h-223l132 750h104l-52 -291h76c44 0 84 -5 109 -15c82 -32 129 -112 120 -216c-9 -102 -70 -181 -158 -213c-26 -10 -65 -15 -108 -15zM168 101h108c40 0 68 6 86 17c38 22 65 61 69 110c5 51 -15 92 -49 113c-17 11 -46 17 -84 17h-85z
" />
    <glyph glyph-name="afii10046" unicode="&#x42c;" horiz-adv-x="600" 
d="M299 0h-253l132 750h104l-52 -291h106c44 0 84 -5 109 -15c82 -32 129 -112 120 -216c-9 -102 -70 -181 -158 -213c-26 -10 -65 -15 -108 -15zM168 101h138c40 0 68 6 86 17c38 22 65 61 69 110c5 51 -15 92 -49 113c-17 11 -46 17 -84 17h-115z" />
    <glyph glyph-name="afii10047" unicode="&#x42d;" horiz-adv-x="580" 
d="M263 -10h-10c-121 0 -215 93 -208 214h103c-1 -65 38 -114 111 -114h11c90 0 140 68 155 155l15 89h-237l18 101h237l10 60c4 20 7 51 5 70c-5 54 -36 95 -110 95h-11c-74 0 -120 -45 -143 -108h-106c32 120 118 208 259 208h10c118 0 193 -78 204 -180
c3 -26 0 -64 -5 -92l-43 -246c-24 -140 -110 -252 -265 -252z" />
    <glyph glyph-name="afii10048" unicode="&#x42e;" horiz-adv-x="845" 
d="M839 488l-43 -246c-24 -140 -110 -252 -265 -252c-118 0 -193 78 -204 180c-3 26 0 64 5 92l13 78h-136l-59 -340h-104l132 750h104l-55 -309h136l12 67c24 140 110 252 265 252c118 0 193 -78 204 -180c3 -26 0 -64 -5 -92zM693 245l43 250c4 20 7 51 5 70
c-5 53 -36 95 -108 95c-90 0 -140 -68 -155 -155l-43 -250c-4 -20 -7 -51 -5 -70c5 -54 36 -95 110 -95c88 1 138 68 153 155z" />
    <glyph glyph-name="afii10049" unicode="&#x42f;" horiz-adv-x="596" 
d="M622 750l-132 -750h-103l56 323h-115c-75 0 -120 -24 -138 -95l-36 -138c-10 -40 -23 -73 -45 -90h-114v2c32 20 49 58 59 96l34 140c20 77 55 122 130 145v1c-66 34 -90 94 -82 168c12 108 85 172 190 191c25 5 55 7 89 7h207zM356 423h105l40 227h-100
c-26 0 -49 -2 -67 -6c-51 -12 -87 -43 -96 -98c-13 -73 27 -123 118 -123z" />
    <glyph glyph-name="afii10065" unicode="&#x430;" horiz-adv-x="532" 
d="M432 0h-65v82h-1c-39 -56 -91 -92 -156 -92c-104 0 -171 69 -160 186c7 84 63 146 148 168c21 5 44 8 78 8h120l5 29c11 65 -15 100 -80 100c-54 0 -87 -27 -107 -65h-99c34 93 105 154 215 154c133 0 188 -78 165 -210zM376 242l5 26h-112c-23 0 -41 -3 -55 -8
c-36 -13 -62 -43 -66 -83c-6 -60 23 -99 81 -99c67 0 131 82 147 164z" />
    <glyph glyph-name="afii10066" unicode="&#x431;" 
d="M496 311l-15 -87c-8 -46 -22 -91 -46 -128c-40 -63 -104 -106 -193 -106c-92 0 -152 48 -173 120c-10 36 -11 79 -3 124l45 257c26 146 100 242 225 270c19 4 45 9 71 12l144 16l-16 -93l-126 -15c-30 -4 -50 -8 -65 -13c-74 -24 -115 -81 -134 -174l-4 -18
c36 33 81 54 135 54c92 0 152 -55 160 -140c2 -21 -1 -54 -5 -79zM384 229l14 82c14 78 -12 125 -79 125c-79 0 -132 -69 -145 -145l-11 -62c-4 -23 -7 -48 -4 -70c6 -42 30 -75 89 -75c50 0 84 25 107 63c14 24 24 52 29 82z" />
    <glyph glyph-name="afii10067" unicode="&#x432;" horiz-adv-x="509" 
d="M43 29l91 518c61 15 118 23 179 23c91 0 197 -33 182 -156c-7 -55 -39 -98 -102 -125c62 -27 81 -78 75 -133c-14 -124 -115 -166 -225 -166c-67 0 -134 15 -200 39zM269 242h-91l-28 -145c33 -9 58 -14 103 -15c48 -1 110 17 116 80c6 65 -39 79 -100 80zM194 334h89
c48 0 108 19 114 78c6 55 -37 66 -88 66c-30 0 -64 -6 -92 -13z" />
    <glyph glyph-name="afii10068" unicode="&#x433;" horiz-adv-x="481" 
d="M346 166h96c-30 -112 -100 -176 -234 -176c-101 0 -186 66 -166 174c19 101 111 141 208 169c74 21 108 45 114 81s-12 70 -74 70c-54 0 -92 -26 -108 -71h-96c36 113 110 157 216 157c103 0 175 -64 155 -167c-14 -73 -79 -118 -186 -151c-87 -27 -122 -46 -131 -89
c-9 -45 17 -85 77 -85c61 0 108 30 129 88z" />
    <glyph glyph-name="afii10069" unicode="&#x434;" 
d="M501 339l-20 -115c-8 -46 -22 -96 -46 -133c-40 -63 -104 -101 -193 -101c-92 0 -152 48 -173 120c-10 36 -12 79 -3 124l11 55c9 46 23 97 45 135c37 64 95 96 169 96c44 0 92 -16 127 -53c8 97 9 203 -114 203c-45 0 -90 -13 -142 -36l-29 85c50 22 107 41 178 41
c121 0 200 -70 207 -186c4 -64 -2 -147 -17 -235zM384 229l10 54c4 23 7 48 4 70c-6 42 -34 79 -93 79c-50 0 -84 -28 -105 -66c-13 -24 -22 -53 -27 -83l-10 -54c-4 -23 -7 -48 -4 -70c6 -42 30 -75 89 -75c50 0 84 25 107 63c14 24 23 52 29 82z" />
    <glyph glyph-name="afii10070" unicode="&#x435;" 
d="M185 346h218c4 20 9 42 5 69c-6 43 -43 66 -90 66c-50 0 -84 -25 -107 -63c-11 -18 -21 -49 -26 -72zM488 258h-320l-5 -29c-4 -23 -7 -48 -4 -70c6 -42 30 -78 89 -78c50 0 85 28 108 66c3 6 7 12 10 19h102c-9 -26 -19 -49 -33 -70c-40 -63 -104 -106 -193 -106
c-92 0 -152 48 -173 120c-10 36 -11 79 -3 124l18 102c8 46 22 91 46 128c40 63 104 106 199 106c99 0 164 -50 176 -135c4 -27 3 -62 -4 -104z" />
    <glyph glyph-name="afii10072" unicode="&#x436;" horiz-adv-x="800" 
d="M750 0h-111l-112 247h-65l-43 -247h-98l43 247h-57l-197 -247h-120l223 274c-37 25 -52 64 -53 127v38c-1 27 -14 42 -39 42c-14 0 -22 -2 -37 -5l15 84c20 4 37 5 52 5c75 0 96 -42 101 -111l2 -42c2 -53 19 -77 80 -77h46l39 225h98l-39 -225h40c61 0 85 24 106 77
l18 42c29 69 64 111 138 111c16 0 39 -1 56 -5l-15 -84c-12 3 -20 5 -34 5c-25 0 -42 -15 -53 -42l-14 -38c-24 -63 -44 -101 -97 -127z" />
    <glyph glyph-name="afii10073" unicode="&#x437;" horiz-adv-x="481" 
d="M35 161h98c-9 -48 25 -79 95 -79c60 0 105 28 111 76c5 40 -22 82 -98 82h-67l15 86h67c82 0 118 39 123 79c6 44 -27 74 -88 74c-70 0 -107 -30 -116 -79h-98c16 101 102 170 229 170c109 0 184 -66 173 -155c-7 -58 -44 -105 -117 -137c61 -31 80 -80 73 -132
c-11 -86 -91 -156 -213 -156c-123 0 -201 72 -187 171z" />
    <glyph glyph-name="afii10074" unicode="&#x438;" horiz-adv-x="568" 
d="M465 0h-68l-1 81h-1c-47 -62 -106 -91 -162 -91c-102 0 -157 72 -161 163c-1 24 2 54 7 83l57 324h98l-56 -318c-5 -29 -8 -55 -7 -73c2 -48 24 -88 82 -88c68 0 140 70 163 198l49 281h98z" />
    <glyph glyph-name="afii10075" unicode="&#x439;" horiz-adv-x="568" 
d="M465 0h-68l-1 81h-1c-47 -62 -106 -91 -162 -91c-102 0 -157 72 -161 163c-1 24 2 54 7 83l57 324h98l-56 -318c-5 -29 -8 -55 -7 -73c2 -48 24 -88 82 -88c68 0 140 70 163 198l49 281h98zM477 790h69c-15 -101 -88 -167 -182 -167s-155 66 -152 167h69
c1 -62 31 -105 89 -105s94 43 107 105z" />
    <glyph glyph-name="afii10076" unicode="&#x43a;" horiz-adv-x="540" 
d="M490 0h-111l-112 247h-83l-43 -247h-98l98 560h98l-39 -225h58c61 0 84 25 106 77l18 42c29 69 64 111 138 111c16 0 39 -1 56 -5l-15 -84c-12 3 -20 5 -34 5c-25 0 -42 -15 -53 -42l-14 -38c-24 -63 -44 -101 -97 -127z" />
    <glyph glyph-name="afii10077" unicode="&#x43b;" horiz-adv-x="556" 
d="M453 0h-98l82 467c-27 7 -48 9 -85 9c-39 0 -84 -13 -107 -110c-50 -215 -77 -371 -284 -366l15 94c123 0 130 108 177 300c35 141 124 176 197 176c66 0 132 -10 198 -27z" />
    <glyph glyph-name="afii10078" unicode="&#x43c;" horiz-adv-x="675" 
d="M572 0h-94l57 328c4 25 12 58 12 58h-1l-171 -281h-1h-72l-71 281h-1c-2 -11 -6 -36 -10 -58l-25 -147c-23 -134 -92 -181 -191 -181c-15 0 -25 1 -34 2l16 91c10 -1 12 -2 21 -2c56 0 82 21 96 101l64 368h105l84 -329l199 329h115z" />
    <glyph glyph-name="afii10079" unicode="&#x43d;" horiz-adv-x="559" 
d="M456 0h-98l43 244h-217l-43 -244h-98l98 560h98l-39 -222h217l39 222h98z" />
    <glyph glyph-name="afii10080" unicode="&#x43e;" 
d="M499 326l-18 -102c-8 -46 -22 -91 -46 -128c-40 -63 -104 -106 -193 -106c-92 0 -152 48 -173 120c-10 36 -11 79 -3 124l18 102c8 46 22 91 46 128c40 63 104 106 193 106c92 0 152 -48 173 -120c10 -36 11 -79 3 -124zM384 229l18 102c4 23 7 48 4 70
c-6 42 -30 75 -89 75c-50 0 -84 -25 -107 -63c-14 -24 -24 -52 -29 -82l-18 -102c-4 -23 -7 -48 -4 -70c6 -42 30 -75 89 -75c50 0 84 25 107 63c14 24 24 52 29 82z" />
    <glyph glyph-name="afii10081" unicode="&#x43f;" horiz-adv-x="570" 
d="M470 0h-98l56 318c5 29 8 55 7 73c-2 48 -24 88 -82 88c-68 0 -140 -70 -163 -198l-49 -281h-98l98 560h68l1 -81h1c47 62 106 91 162 91c102 0 157 -72 161 -163c1 -24 -2 -54 -7 -83z" />
    <glyph glyph-name="afii10082" unicode="&#x440;" horiz-adv-x="555" 
d="M97 -244h-98l142 804h68l1 -81h1c47 62 104 91 159 91c108 0 159 -73 164 -164c1 -24 -1 -49 -6 -75l-19 -104c-22 -123 -87 -237 -226 -237c-50 0 -105 25 -133 64h-1s-5 -33 -9 -58zM412 229l17 96c4 23 7 48 6 66c-2 48 -24 88 -82 88c-68 0 -139 -70 -163 -198
l-7 -38c-13 -69 5 -160 97 -160c79 0 119 70 132 146z" />
    <glyph glyph-name="afii10083" unicode="&#x441;" horiz-adv-x="514" 
d="M369 176h102c-9 -29 -20 -56 -36 -80c-40 -63 -104 -106 -193 -106c-92 0 -152 48 -173 120c-10 36 -11 79 -3 124l18 102c8 46 22 91 46 128c40 63 104 106 193 106c92 0 152 -48 173 -120c6 -23 9 -49 8 -76h-97c0 9 0 18 -1 27c-6 42 -30 75 -89 75
c-50 0 -84 -25 -107 -63c-14 -24 -24 -52 -29 -82l-18 -102c-4 -23 -7 -48 -4 -70c6 -42 30 -75 89 -75c50 0 84 25 107 63c5 9 10 19 14 29z" />
    <glyph glyph-name="afii10084" unicode="&#x442;" horiz-adv-x="836" 
d="M735 0h-98l59 335c14 80 5 144 -59 144c-49 0 -125 -57 -148 -189l-51 -290h-98l59 335c14 80 5 144 -59 144c-52 0 -126 -60 -152 -208l-47 -271h-98l98 560h68l1 -81h1c47 65 107 91 154 91c67 0 107 -45 123 -107c36 56 103 107 174 107c78 0 123 -52 136 -124
c6 -34 3 -72 -4 -110z" />
    <glyph glyph-name="afii10085" unicode="&#x443;" horiz-adv-x="498" 
d="M130 -39l46 85l-97 514h101l66 -394h2l201 394h108l-341 -637c-51 -95 -111 -139 -194 -139c-29 0 -58 4 -79 11l17 94c19 -5 38 -10 63 -10c46 0 81 33 107 82z" />
    <glyph glyph-name="afii10086" unicode="&#x444;" horiz-adv-x="663" 
d="M301 -244h-88l41 234h-12c-92 0 -152 48 -173 120c-10 36 -11 79 -3 124l18 102c8 46 22 91 46 128c40 63 104 106 193 106h34l38 215h88l-38 -215h14c92 0 152 -48 173 -120c10 -36 11 -79 3 -124l-18 -102c-8 -46 -22 -91 -46 -128c-40 -63 -104 -106 -193 -106h-36z
M520 229l18 102c4 23 7 48 4 70c-6 42 -30 75 -89 75h-25l-69 -392h25c50 0 84 25 107 63c14 24 24 52 29 82zM271 84l69 392h-23c-50 0 -84 -25 -107 -63c-14 -24 -24 -52 -29 -82l-18 -102c-4 -23 -7 -48 -4 -70c6 -42 30 -75 89 -75h23z" />
    <glyph glyph-name="afii10087" unicode="&#x445;" horiz-adv-x="508" 
d="M464 0h-106l-95 211l-164 -211h-119l242 299l-125 261h107l82 -184l143 184h122l-224 -271z" />
    <glyph glyph-name="afii10088" unicode="&#x446;" horiz-adv-x="580" 
d="M506 -200h-94l36 200c-61 -4 -77 24 -69 81h-1c-36 -62 -98 -91 -152 -91c-100 0 -145 72 -149 163c-1 24 2 54 7 83l57 324h98l-56 -318c-5 -29 -8 -55 -7 -73c2 -48 17 -88 70 -88c63 0 130 70 153 198l49 281h98l-78 -444c-4 -24 13 -34 29 -34h59z" />
    <glyph glyph-name="afii10089" unicode="&#x447;" horiz-adv-x="522" 
d="M419 0h-98l36 208c-33 -4 -65 -7 -99 -7c-113 0 -174 59 -178 143c-1 13 1 37 5 59l27 157h98l-28 -158c-3 -17 -4 -32 -3 -46c4 -34 29 -62 93 -62c39 0 69 2 102 7l45 259h98z" />
    <glyph glyph-name="afii10090" unicode="&#x448;" horiz-adv-x="835" 
d="M732 0h-68l-1 81h-1c-47 -65 -107 -91 -154 -91c-67 0 -107 45 -123 107c-36 -56 -103 -107 -174 -107c-78 0 -123 52 -136 124c-6 34 -3 72 4 110l59 336h98l-59 -335c-14 -80 -5 -144 59 -144c49 0 125 57 148 189l51 290h98l-59 -335c-14 -80 -5 -144 59 -144
c52 0 126 60 152 208l47 271h98z" />
    <glyph glyph-name="afii10091" unicode="&#x449;" horiz-adv-x="863" 
d="M791 -200h-95l36 200c-52 10 -68 28 -54 99h-1c-58 -89 -122 -109 -169 -109c-67 0 -108 40 -124 102c-36 -56 -102 -102 -173 -102c-78 0 -123 52 -136 124c-6 34 -3 72 4 110l59 336h98l-59 -335c-14 -80 -5 -144 59 -144c49 0 125 57 148 189l51 290h98l-59 -335
c-14 -80 -5 -144 59 -144c52 0 126 60 152 208l47 271h98l-75 -426c-10 -57 16 -63 84 -63z" />
    <glyph glyph-name="afii10092" unicode="&#x44a;" horiz-adv-x="626" 
d="M333 0h-182l82 467h-161l16 93h259l-36 -204h68c31 0 54 -2 74 -7c76 -17 135 -69 126 -171c-8 -91 -70 -149 -156 -169c-24 -6 -55 -9 -90 -9zM265 92h91c28 0 55 4 73 13c26 13 46 35 52 73c7 44 -16 71 -53 81c-12 3 -28 5 -54 5h-79z" />
    <glyph glyph-name="afii10093" unicode="&#x44b;" horiz-adv-x="698" 
d="M595 0h-98l98 560h98zM215 0h-172l98 560h98l-36 -204h58c31 0 54 -2 74 -7c76 -17 135 -69 126 -171c-8 -91 -70 -149 -156 -169c-24 -6 -55 -9 -90 -9zM157 92h81c28 0 55 4 73 13c26 13 46 35 52 73c7 44 -16 71 -53 81c-12 3 -28 5 -54 5h-69z" />
    <glyph glyph-name="afii10094" unicode="&#x44c;" 
d="M235 0h-192l98 560h98l-36 -204h78c31 0 54 -2 74 -7c76 -17 135 -69 126 -171c-8 -91 -70 -149 -156 -169c-24 -6 -55 -9 -90 -9zM157 92h101c28 0 55 4 73 13c26 13 46 35 52 73c7 44 -16 71 -53 81c-12 3 -28 5 -54 5h-89z" />
    <glyph glyph-name="afii10095" unicode="&#x44d;" horiz-adv-x="517" 
d="M489 326l-18 -102c-8 -46 -22 -91 -46 -128c-40 -63 -104 -106 -196 -106c-95 0 -155 48 -176 120c-5 17 -8 36 -8 56h97c0 -50 39 -82 93 -82c53 0 87 25 110 63c14 24 24 52 29 80l1 6h-184l16 93h184l1 5c4 23 7 48 4 70c-6 42 -30 75 -91 75c-52 0 -86 -24 -109 -62
c-5 -9 -10 -20 -14 -30h-103c9 29 20 56 36 80c41 63 105 106 196 106c94 0 154 -48 175 -120c10 -36 11 -79 3 -124z" />
    <glyph glyph-name="afii10096" unicode="&#x44e;" horiz-adv-x="714" 
d="M688 336l-22 -122c-21 -119 -86 -224 -227 -224c-139 0 -183 111 -161 243h-97l-41 -233h-98l98 560h98l-41 -233h97l4 20c23 117 87 223 227 223c135 0 184 -110 163 -234zM569 221l22 118c10 56 7 137 -75 137c-78 0 -108 -66 -121 -137l-22 -118
c-10 -57 -10 -137 74 -137c77 0 110 67 122 137z" />
    <glyph glyph-name="afii10097" unicode="&#x44f;" horiz-adv-x="507" 
d="M502 560l-98 -560h-98l41 233h-104c-55 0 -80 -21 -91 -66l-20 -79c-12 -46 -24 -73 -46 -88h-103v2c21 15 39 45 51 89l22 86c15 56 35 91 95 107c-51 27 -67 79 -61 128c11 84 71 128 150 143c20 4 51 5 78 5h184zM274 325h89l25 143h-94c-52 0 -99 -16 -105 -70
c-5 -47 21 -73 85 -73z" />
    <glyph glyph-name="uni0450" unicode="&#x450;" 
d="M185 346h218c4 20 9 42 5 69c-6 43 -43 66 -90 66c-50 0 -84 -25 -107 -63c-11 -18 -21 -49 -26 -72zM488 258h-320l-5 -29c-4 -23 -7 -48 -4 -70c6 -42 30 -78 89 -78c50 0 85 28 108 66c3 6 7 12 10 19h102c-9 -26 -19 -49 -33 -70c-40 -63 -104 -106 -193 -106
c-92 0 -152 48 -173 120c-10 36 -11 79 -3 124l18 102c8 46 22 91 46 128c40 63 104 106 199 106c99 0 164 -50 176 -135c4 -27 3 -62 -4 -104zM441 627h-69l-170 180h123z" />
    <glyph glyph-name="afii10071" unicode="&#x451;" 
d="M185 346h218c4 20 9 42 5 69c-6 43 -43 66 -90 66c-50 0 -84 -25 -107 -63c-11 -18 -21 -49 -26 -72zM488 258h-320l-5 -29c-4 -23 -7 -48 -4 -70c6 -42 30 -78 89 -78c50 0 85 28 108 66c3 6 7 12 10 19h102c-9 -26 -19 -49 -33 -70c-40 -63 -104 -106 -193 -106
c-92 0 -152 48 -173 120c-10 36 -11 79 -3 124l18 102c8 46 22 91 46 128c40 63 104 106 199 106c99 0 164 -50 176 -135c4 -27 3 -62 -4 -104zM307 644h-103l20 111h103zM502 644h-103l20 111h103z" />
    <glyph glyph-name="afii10099" unicode="&#x452;" horiz-adv-x="580" 
d="M201 -235l17 94c11 -1 26 -2 36 -2c69 0 105 24 120 108l63 353c5 29 8 55 7 73c-2 48 -24 88 -82 88c-68 0 -140 -70 -163 -198l-49 -281h-98l113 645h-92l12 68h92l13 72h98l-13 -72h169l-12 -68h-169l-16 -94c-4 -25 -12 -58 -12 -58h1c39 48 92 77 146 77
c102 0 157 -72 161 -163c1 -24 -2 -54 -7 -83l-65 -370c-25 -142 -105 -191 -220 -191c-16 0 -40 1 -50 2z" />
    <glyph glyph-name="afii10100" unicode="&#x453;" horiz-adv-x="481" 
d="M346 166h96c-30 -112 -100 -176 -234 -176c-101 0 -186 66 -166 174c19 101 111 141 208 169c74 21 108 45 114 81s-12 70 -74 70c-54 0 -92 -26 -108 -71h-96c36 113 110 157 216 157c103 0 175 -64 155 -167c-14 -73 -79 -118 -186 -151c-87 -27 -122 -46 -131 -89
c-9 -45 17 -85 77 -85c61 0 108 30 129 88zM285 627h-69l116 180h123z" />
    <glyph glyph-name="afii10101" unicode="&#x454;" horiz-adv-x="517" 
d="M359 166h103c-9 -26 -19 -49 -33 -70c-40 -63 -104 -106 -196 -106c-95 0 -155 48 -176 120c-10 36 -11 79 -3 124l18 102c8 46 22 91 46 128c40 63 104 106 196 106c95 0 156 -48 176 -120c5 -20 8 -43 8 -66h-97c0 53 -34 92 -93 92c-53 0 -87 -25 -110 -63
c-14 -24 -24 -52 -29 -82l-1 -6h183l-16 -91h-183l-1 -5c-4 -23 -7 -48 -4 -70c6 -42 30 -75 92 -75c54 0 98 31 120 82z" />
    <glyph glyph-name="afii10102" unicode="&#x455;" horiz-adv-x="481" 
d="M473 413h-96c-4 45 -33 71 -87 71c-62 0 -95 -34 -95 -70s19 -60 86 -81c90 -28 155 -70 155 -169c0 -108 -98 -174 -199 -174c-119 0 -200 62 -200 176h96c3 -58 43 -88 104 -88c60 0 101 41 101 87c0 41 -22 60 -101 87c-98 33 -138 80 -138 151c0 103 89 167 190 167
c95 0 181 -44 184 -157z" />
    <glyph glyph-name="afii10103" unicode="&#x456;" horiz-adv-x="243" 
d="M141 0h-98l98 560h98zM257 647h-103l20 113h103z" />
    <glyph glyph-name="afii10104" unicode="&#x457;" horiz-adv-x="243" 
d="M141 0h-98l98 560h98zM159 644h-103l20 111h103zM354 644h-103l20 111h103z" />
    <glyph glyph-name="afii10105" unicode="&#x458;" horiz-adv-x="250" 
d="M-131 -235l17 94c11 -1 26 -2 36 -2c69 0 105 24 120 108l105 595h98l-106 -606c-25 -142 -105 -191 -220 -191c-16 0 -40 1 -50 2zM264 647h-104l20 113h104z" />
    <glyph glyph-name="afii10106" unicode="&#x459;" horiz-adv-x="780" 
d="M430 92h81c28 0 55 4 73 13c26 13 46 35 52 73c7 44 -16 71 -53 81c-12 3 -28 5 -54 5h-69zM488 0h-172l82 467c-22 7 -43 11 -70 9c-35 -3 -60 -13 -83 -110c-50 -215 -77 -371 -284 -366l15 94c123 0 130 108 177 300c35 141 105 176 177 176c66 0 117 -10 179 -27
l-33 -187h58c31 0 54 -2 74 -7c76 -17 135 -69 126 -171c-8 -91 -70 -149 -156 -169c-24 -6 -55 -9 -90 -9z" />
    <glyph glyph-name="afii10107" unicode="&#x45a;" horiz-adv-x="774" 
d="M481 0h-172l46 262h-168l-46 -262h-98l98 560h98l-36 -204h168l36 204h98l-36 -204h58c31 0 54 -2 74 -7c76 -17 135 -69 126 -171c-8 -91 -70 -149 -156 -169c-24 -6 -55 -9 -90 -9zM423 92h81c28 0 55 4 73 13c26 13 46 35 52 73c7 44 -16 71 -53 81c-12 3 -28 5 -54 5
h-69z" />
    <glyph glyph-name="afii10108" unicode="&#x45b;" horiz-adv-x="581" 
d="M481 0h-98l56 318c5 29 8 55 7 73c-2 48 -24 88 -82 88c-68 0 -140 -70 -163 -198l-49 -281h-98l113 643h-89l12 70h89l13 72h98l-13 -72h167l-12 -70h-167l-16 -92c-5 -25 -12 -58 -12 -58h1c39 48 92 77 146 77c102 0 157 -72 161 -163c1 -24 -2 -54 -7 -83z" />
    <glyph glyph-name="afii10109" unicode="&#x45c;" horiz-adv-x="540" 
d="M490 0h-111l-112 247h-83l-43 -247h-98l98 560h98l-39 -225h58c61 0 84 25 106 77l18 42c29 69 64 111 138 111c16 0 39 -1 56 -5l-15 -84c-12 3 -20 5 -34 5c-25 0 -42 -15 -53 -42l-14 -38c-24 -63 -44 -101 -97 -127zM352 627h-69l116 180h123z" />
    <glyph glyph-name="uni045D" unicode="&#x45d;" horiz-adv-x="568" 
d="M465 0h-68l-1 81h-1c-47 -62 -106 -91 -162 -91c-102 0 -157 72 -161 163c-1 24 2 54 7 83l57 324h98l-56 -318c-5 -29 -8 -55 -7 -73c2 -48 24 -88 82 -88c68 0 140 70 163 198l49 281h98zM431 627h-69l-170 180h123z" />
    <glyph glyph-name="afii10110" unicode="&#x45e;" horiz-adv-x="498" 
d="M130 -39l46 85l-97 514h101l66 -394h2l201 394h108l-341 -637c-51 -95 -111 -139 -194 -139c-29 0 -58 4 -79 11l17 94c19 -5 38 -10 63 -10c46 0 81 33 107 82zM442 790h69c-15 -101 -88 -167 -182 -167s-155 66 -152 167h69c1 -62 31 -105 89 -105s94 43 107 105z" />
    <glyph glyph-name="afii10193" unicode="&#x45f;" horiz-adv-x="568" 
d="M465 0h-68l-1 81h-1c-32 -42 -68 -68 -106 -81l-36 -200h-94l35 194c-77 16 -119 80 -122 159c-1 24 2 54 7 83l57 324h98l-56 -318c-5 -29 -8 -55 -7 -73c2 -48 24 -88 82 -88c68 0 140 70 163 198l49 281h98z" />
    <glyph glyph-name="uni0460" unicode="&#x460;" horiz-adv-x="837" 
d="M386 283l41 228h103l-41 -228c-22 -124 1 -193 61 -193c53 0 124 83 161 307c18 107 20 253 4 353h103c20 -100 17 -242 -1 -352c-51 -304 -164 -408 -264 -408c-82 0 -128 53 -139 135c-40 -85 -97 -135 -179 -135c-100 0 -186 104 -135 408c18 110 61 252 118 352h109
c-53 -100 -103 -246 -121 -353c-37 -224 -2 -307 50 -307c61 0 108 69 130 193z" />
    <glyph glyph-name="uni0461" unicode="&#x461;" horiz-adv-x="695" 
d="M307 222l29 167h98l-29 -167c-16 -90 -1 -138 44 -138c37 0 86 56 114 211c14 76 10 185 -5 265h98c18 -78 19 -184 6 -264c-38 -228 -134 -306 -218 -306c-60 0 -98 41 -109 103c-34 -62 -80 -103 -142 -103c-82 0 -154 78 -116 306c13 80 46 186 93 264h102
c-44 -80 -82 -189 -96 -265c-28 -155 0 -211 38 -211c43 0 77 48 93 138z" />
    <glyph glyph-name="afii10146" unicode="&#x462;" horiz-adv-x="715" 
d="M411 0h-253l99 562h-172l12 68h172l21 120h104l-22 -120h200l-12 -68h-200l-18 -103h106c44 0 84 -5 109 -15c82 -32 129 -112 120 -216c-9 -102 -70 -181 -158 -213c-26 -10 -65 -15 -108 -15zM280 101h138c40 0 68 6 86 17c38 22 65 61 69 110c5 51 -15 92 -49 113
c-17 11 -46 17 -84 17h-115z" />
    <glyph glyph-name="afii10194" unicode="&#x463;" horiz-adv-x="598" 
d="M305 0h-192l73 420h-130l12 68h130l13 72h98l-13 -72h160l-12 -68h-160l-11 -64h78c31 0 54 -2 74 -7c76 -17 135 -69 126 -171c-8 -91 -70 -149 -156 -169c-24 -6 -55 -9 -90 -9zM227 92h101c28 0 55 4 73 13c26 13 46 35 52 73c7 44 -16 71 -53 81c-12 3 -28 5 -54 5
h-89z" />
    <glyph glyph-name="uni0464" unicode="&#x464;" horiz-adv-x="822" 
d="M679 204h106c-33 -126 -119 -214 -260 -214c-122 0 -197 78 -208 180c-3 26 0 64 5 92l13 78h-126l-59 -340h-104l132 750h104l-55 -309h126l12 67c24 140 110 252 265 252c122 0 215 -91 211 -208h-103c-2 62 -41 108 -115 108c-90 0 -140 -68 -155 -155l-11 -64h226
l-18 -101h-226l-1 -6l-14 -79c-4 -20 -6 -51 -4 -70c5 -54 36 -95 114 -95c74 0 121 46 145 114z" />
    <glyph glyph-name="uni0465" unicode="&#x465;" horiz-adv-x="723" 
d="M579 166h103c-9 -26 -19 -49 -33 -70c-41 -63 -104 -106 -193 -106c-92 0 -152 48 -173 120c-10 36 -11 79 -3 124h-98l-41 -234h-98l98 560h98l-41 -235h98l2 11c8 46 22 91 46 128c40 63 104 106 193 106c92 0 153 -48 173 -120c5 -20 8 -43 8 -66h-97
c0 53 -34 92 -90 92c-50 0 -84 -25 -107 -63c-14 -24 -24 -52 -29 -82l-1 -6h177l-16 -91h-177l-1 -5c-4 -23 -7 -48 -4 -70c6 -42 32 -75 91 -75c51 0 93 31 115 82z" />
    <glyph glyph-name="uni0466" unicode="&#x466;" horiz-adv-x="637" 
d="M492 750l111 -750h-102l-41 288h-73l-50 -288h-91l50 288h-73l-141 -288h-108l375 750h143zM268 381h180l-39 269h-7z" />
    <glyph glyph-name="uni0467" unicode="&#x467;" horiz-adv-x="549" 
d="M409 560l103 -560h-96l-36 207h-56l-36 -207h-81l36 207h-57l-107 -207h-102l299 560h133zM227 288h141l-34 195h-4z" />
    <glyph glyph-name="uni0468" unicode="&#x468;" horiz-adv-x="884" 
d="M850 0h-102l-41 288h-73l-50 -288h-91l50 288h-73l-141 -288h-108l143 288h-164l-50 -288h-104l132 750h104l-65 -369h193l186 369h143zM695 381l-39 269h-7l-134 -269h180z" />
    <glyph glyph-name="uni0469" unicode="&#x469;" horiz-adv-x="766" 
d="M729 0h-96l-36 207h-57l-36 -207h-80l36 207h-57l-108 -207h-102l111 207h-127l-36 -207h-98l98 560h98l-48 -272h155l146 272h134zM585 288l-34 195h-4l-104 -195h142z" />
    <glyph glyph-name="uni046A" unicode="&#x46a;" horiz-adv-x="704" 
d="M618 0h-98l34 193c6 34 7 64 1 86c-13 50 -58 71 -107 71h-16l-61 -350h-98l61 350h-16c-49 0 -100 -21 -131 -71c-14 -22 -23 -52 -29 -86l-34 -193h-98l34 193c8 48 19 87 35 117c39 73 101 119 197 133l-128 307h584l-241 -311c73 -18 129 -61 145 -135
c6 -30 8 -63 0 -111zM399 446l158 210h-245l85 -210h2z" />
    <glyph glyph-name="uni046B" unicode="&#x46b;" horiz-adv-x="608" 
d="M329 338l113 139h-176zM522 0h-91l26 150c4 22 5 44 0 58c-10 32 -41 46 -77 46h-14l-44 -254h-96l44 254h-14c-36 0 -72 -14 -93 -46c-9 -14 -16 -36 -20 -58l-26 -150h-91l26 151c7 41 18 71 30 93c28 49 75 80 150 90l-109 226h500l-191 -230c64 -16 100 -47 114 -95
c7 -22 7 -58 2 -84z" />
    <glyph glyph-name="uni046C" unicode="&#x46c;" horiz-adv-x="952" 
d="M866 0h-98l34 193c6 34 7 64 1 86c-13 50 -58 71 -107 71h-16l-61 -350h-98l61 350h-16c-49 0 -100 -21 -131 -71c-14 -22 -23 -52 -29 -86l-34 -193h-98l34 193c11 63 36 119 80 160c-16 -2 -33 -3 -48 -3h-129l-61 -350h-104l132 750h104l-54 -307h312l-128 307h584
l-241 -311c73 -18 129 -61 145 -135c6 -30 8 -63 0 -111zM647 446l158 210h-245l85 -210h2z" />
    <glyph glyph-name="uni046D" unicode="&#x46d;" horiz-adv-x="817" 
d="M732 0h-91l26 150c4 22 5 44 0 58c-10 32 -41 46 -77 46h-14l-44 -254h-96l44 254h-14c-36 0 -72 -14 -93 -46c-9 -14 -16 -36 -20 -58l-26 -150h-91l26 151c10 54 29 84 63 107c-15 -2 -39 -4 -57 -4h-83l-44 -254h-98l98 560h98l-40 -227h244l-110 227h500l-191 -230
c64 -16 100 -47 114 -95c7 -22 7 -58 2 -84zM539 338l113 139h-176z" />
    <glyph glyph-name="uni046E" unicode="&#x46e;" horiz-adv-x="565" 
d="M396 -111l-15 -88c-13 1 -22 2 -32 2c-93 0 -124 -46 -207 -46c-95 0 -171 54 -163 158c7 89 61 140 220 163l63 9c78 11 141 42 155 118c11 64 -25 128 -135 128h-85l16 91h85c110 0 163 60 174 123c13 74 -35 115 -109 115c-86 0 -140 -42 -154 -115h-104
c20 118 106 198 232 211l-116 188h80l82 -142l84 92c40 44 72 54 107 54c15 0 33 -2 34 -2l-11 -58c-1 0 -8 1 -18 1c-16 0 -36 -6 -63 -34l-94 -101c105 -19 170 -101 155 -204c-11 -78 -60 -138 -146 -177v-1c72 -39 98 -108 86 -183c-21 -118 -123 -180 -259 -197l-56 -7
c-88 -11 -123 -37 -126 -79c-3 -44 30 -64 73 -64c60 0 111 47 207 47c9 0 29 -1 40 -2z" />
    <glyph glyph-name="uni046F" unicode="&#x46f;" horiz-adv-x="482" 
d="M339 -75l-14 -83c-4 0 -17 2 -28 2c-62 0 -116 -34 -175 -34c-76 0 -136 43 -130 130c5 75 48 122 177 136l59 7c56 6 105 29 112 75c6 40 -22 82 -98 82h-67l15 86h67c82 0 118 39 123 79c6 44 -27 74 -88 74c-70 0 -107 -30 -116 -79h-98c14 87 79 150 178 166l-91 146
h80l63 -109l54 59c40 43 72 54 108 54c10 0 23 -1 33 -2l-11 -58c-1 0 -10 1 -20 1c-15 0 -35 -7 -62 -34l-56 -57c82 -16 135 -76 126 -151c-7 -58 -44 -105 -117 -137c61 -31 81 -80 73 -132c-14 -97 -98 -136 -212 -149l-51 -6c-67 -8 -88 -26 -90 -55
c-2 -28 17 -44 47 -44c55 0 106 34 179 34c16 0 26 -1 30 -1z" />
    <glyph glyph-name="uni0470" unicode="&#x470;" horiz-adv-x="741" 
d="M439 284l-50 -284h-98l50 284h-19c-117 0 -183 65 -200 137c-7 30 -7 68 2 119l38 210h98l-39 -218c-6 -34 -7 -64 -1 -86c13 -50 58 -71 107 -71h30l66 375h98l-66 -375h31c49 0 100 21 131 71c14 22 23 52 29 86l39 218h98l-40 -224c-8 -48 -21 -86 -37 -116
c-40 -73 -113 -126 -226 -126h-41z" />
    <glyph glyph-name="uni0471" unicode="&#x471;" horiz-adv-x="677" 
d="M354 -10l-42 -234h-92l42 234h-4c-104 0 -176 57 -187 141c-4 27 -3 65 5 109l56 320h98l-58 -329c-6 -34 -7 -62 -3 -81c9 -43 40 -66 97 -66h12l124 701h92l-124 -701h12c110 0 142 98 166 237c15 87 19 239 19 239h95s2 -131 -17 -251c-33 -211 -101 -319 -268 -319
h-23z" />
    <glyph glyph-name="afii10147" unicode="&#x472;" horiz-adv-x="606" 
d="M485 445l8 50c3 20 7 51 5 70c-5 54 -36 95 -110 95h-6c-90 0 -140 -68 -155 -155l-15 -88c18 26 42 41 76 41c71 0 79 -76 134 -76c22 0 51 17 63 63zM450 245l18 104c-19 -27 -43 -41 -77 -41c-71 0 -79 76 -133 76c-22 0 -51 -17 -63 -63l-11 -66
c-3 -20 -7 -51 -5 -70c5 -54 36 -95 110 -95h6c90 0 140 68 155 155zM288 -10h-8c-118 0 -193 78 -204 180c-3 26 0 64 5 92l43 246c24 140 110 252 265 252h8c118 0 193 -78 204 -180c3 -26 0 -64 -5 -92l-43 -246c-24 -140 -110 -252 -265 -252z" />
    <glyph glyph-name="afii10195" unicode="&#x473;" 
d="M181 331l-3 -19c16 20 35 33 62 33c59 0 71 -59 111 -59c19 0 43 11 51 48c5 23 7 45 4 67c-6 42 -30 75 -89 75c-50 0 -84 -25 -107 -63c-14 -24 -24 -52 -29 -82zM384 229l3 17c-16 -21 -37 -33 -63 -33c-59 0 -71 59 -112 59c-18 0 -39 -11 -50 -48
c-4 -14 -6 -43 -3 -65c6 -42 30 -75 89 -75c50 0 84 25 107 63c14 24 24 52 29 82zM499 326l-18 -102c-8 -46 -22 -91 -46 -128c-40 -63 -104 -106 -193 -106c-92 0 -152 48 -173 120c-10 36 -11 79 -3 124l18 102c8 46 22 91 46 128c40 63 104 106 193 106
c92 0 152 -48 173 -120c10 -36 11 -79 3 -124z" />
    <glyph glyph-name="afii10148" unicode="&#x474;" horiz-adv-x="643" 
d="M320 0h-129l-77 750h105l55 -631h2l211 477c47 107 106 154 199 154c17 0 38 -1 51 -3l-17 -95c-11 1 -23 2 -36 2c-48 0 -74 -25 -101 -85z" />
    <glyph glyph-name="afii10196" unicode="&#x475;" horiz-adv-x="538" 
d="M262 0h-100l-85 560h100l54 -439h2l146 309c47 98 99 130 178 130c16 0 29 -1 43 -3l-15 -85c-2 0 -12 1 -25 1c-39 0 -69 -16 -95 -68z" />
    <glyph glyph-name="uni0476" unicode="&#x476;" horiz-adv-x="570" 
d="M491 987l78 -180h-67l-126 180h115zM301 987l78 -180h-67l-126 180h115zM320 0h-129l-77 750h105l55 -631h2l211 477c47 107 106 154 199 154c17 0 38 -1 51 -3l-17 -95c-11 1 -23 2 -36 2c-48 0 -74 -25 -101 -85z" />
    <glyph glyph-name="uni0477" unicode="&#x477;" horiz-adv-x="538" 
d="M410 837l79 -180h-68l-126 180h115zM220 837l78 -180h-67l-126 180h115zM262 0h-100l-85 560h100l54 -439h2l146 309c47 98 99 130 178 130c16 0 29 -1 43 -3l-15 -85c-2 0 -12 1 -25 1c-39 0 -69 -16 -95 -68z" />
    <glyph glyph-name="uni0478" unicode="&#x478;" horiz-adv-x="1114" 
d="M288 -10h-8c-118 0 -193 78 -204 180c-3 26 0 64 5 92l43 246c24 140 110 252 265 252h8c118 0 193 -78 204 -180c3 -26 0 -64 -5 -92l-43 -246c-24 -140 -110 -252 -265 -252zM450 245l43 250c4 20 7 51 5 70c-5 54 -36 95 -110 95h-6c-90 0 -140 -68 -155 -155
l-43 -250c-4 -20 -7 -51 -5 -70c5 -54 36 -95 110 -95h6c90 0 140 68 155 155zM746 -39l46 85l-97 514h101l66 -394h2l201 394h108l-341 -637c-51 -95 -111 -139 -194 -139c-29 0 -58 4 -79 11l17 94c19 -5 38 -10 63 -10c46 0 81 33 107 82z" />
    <glyph glyph-name="uni0479" unicode="&#x479;" horiz-adv-x="1016" 
d="M499 326l-18 -102c-8 -46 -22 -91 -46 -128c-40 -63 -104 -106 -193 -106c-92 0 -152 48 -173 120c-10 36 -11 79 -3 124l18 102c8 46 22 91 46 128c40 63 104 106 193 106c92 0 152 -48 173 -120c10 -36 11 -79 3 -124zM384 229l18 102c4 23 7 48 4 70
c-6 42 -30 75 -89 75c-50 0 -84 -25 -107 -63c-14 -24 -24 -52 -29 -82l-18 -102c-4 -23 -7 -48 -4 -70c6 -42 30 -75 89 -75c50 0 84 25 107 63c14 24 24 52 29 82zM648 -39l46 85l-97 514h101l66 -394h2l201 394h108l-341 -637c-51 -95 -111 -139 -194 -139
c-29 0 -58 4 -79 11l17 94c19 -5 38 -10 63 -10c46 0 81 33 107 82z" />
    <glyph glyph-name="uni047A" unicode="&#x47a;" horiz-adv-x="606" 
d="M596 488l-43 -246c-23 -131 -99 -237 -235 -250c-10 -25 -34 -44 -60 -44c-29 0 -46 22 -44 50c-78 22 -129 89 -138 172c-3 26 0 64 5 92l43 246c23 131 99 237 236 250c9 25 32 44 59 44c28 0 47 -22 45 -50c77 -22 128 -89 137 -172c3 -26 0 -64 -5 -92zM450 245
l43 250c4 20 7 51 5 70c-4 38 -20 69 -56 85c-11 -22 -33 -36 -56 -36c-26 0 -42 17 -43 41c-66 -17 -104 -77 -116 -150l-43 -250c-4 -20 -7 -51 -5 -70c3 -39 20 -71 56 -86c11 21 31 37 56 37s42 -18 44 -41c65 17 102 77 115 150z" />
    <glyph glyph-name="uni047B" unicode="&#x47b;" 
d="M499 326l-18 -102c-8 -46 -22 -91 -46 -128c-34 -54 -86 -94 -156 -103c-10 -25 -34 -45 -60 -45c-30 0 -47 23 -44 51c-54 17 -91 57 -106 111c-10 36 -11 79 -3 124l18 102c8 46 22 91 46 128c34 54 86 93 157 103c9 25 32 45 60 45s46 -23 44 -51
c52 -17 89 -58 105 -111c10 -36 11 -79 3 -124zM384 229l18 102c4 23 7 48 4 70c-4 26 -15 48 -36 62c-12 -21 -34 -36 -56 -36c-26 0 -42 17 -44 40c-24 -9 -45 -28 -60 -54c-14 -24 -24 -52 -29 -82l-18 -102c-4 -23 -7 -48 -4 -70c3 -26 14 -49 36 -62c10 21 31 36 56 36
c24 0 41 -17 44 -40c23 7 44 27 60 54c14 24 24 52 29 82z" />
    <glyph glyph-name="uni047C" unicode="&#x47c;" horiz-adv-x="837" 
d="M386 283l41 228h103l-41 -228c-22 -124 1 -193 61 -193c53 0 124 83 161 307c18 107 20 253 4 353h103c20 -100 17 -242 -1 -352c-51 -304 -164 -408 -264 -408c-82 0 -128 53 -139 135c-40 -85 -97 -135 -179 -135c-100 0 -186 104 -135 408c18 110 61 252 118 352h109
c-53 -100 -103 -246 -121 -353c-37 -224 -2 -307 50 -307c61 0 108 69 130 193zM690 845h-245l-8 -45h-79l17 95h245l8 45h79z" />
    <glyph glyph-name="uni047D" unicode="&#x47d;" horiz-adv-x="695" 
d="M307 222l29 167h98l-29 -167c-16 -90 -1 -138 44 -138c37 0 86 56 114 211c14 76 10 185 -5 265h98c18 -78 19 -184 6 -264c-38 -228 -134 -306 -218 -306c-60 0 -98 41 -109 103c-34 -62 -80 -103 -142 -103c-82 0 -154 78 -116 306c13 80 46 186 93 264h102
c-44 -80 -82 -189 -96 -265c-28 -155 0 -211 38 -211c43 0 77 48 93 138zM598 695h-245l-8 -45h-79l17 95h245l8 45h79z" />
    <glyph glyph-name="uni047E" unicode="&#x47e;" horiz-adv-x="837" 
d="M691 807h-44l-2 46h-83l-18 -46h-34l-2 46h-83l-18 -46h-44l17 95h328zM386 283l41 228h103l-41 -228c-22 -124 1 -193 61 -193c53 0 124 83 161 307c18 107 20 253 4 353h103c20 -100 17 -242 -1 -352c-51 -304 -164 -408 -264 -408c-82 0 -128 53 -139 135
c-40 -85 -97 -135 -179 -135c-100 0 -186 104 -135 408c18 110 61 252 118 352h109c-53 -100 -103 -246 -121 -353c-37 -224 -2 -307 50 -307c61 0 108 69 130 193z" />
    <glyph glyph-name="uni047F" unicode="&#x47f;" horiz-adv-x="695" 
d="M588 647h-45l-1 46h-84l-17 -46h-35l-2 46h-83l-18 -46h-44l16 95h329zM307 222l29 167h98l-29 -167c-16 -90 -1 -138 44 -138c37 0 86 56 114 211c14 76 10 185 -5 265h98c18 -78 19 -184 6 -264c-38 -228 -134 -306 -218 -306c-60 0 -98 41 -109 103
c-34 -62 -80 -103 -142 -103c-82 0 -154 78 -116 306c13 80 46 186 93 264h102c-44 -80 -82 -189 -96 -265c-28 -155 0 -211 38 -211c43 0 77 48 93 138z" />
    <glyph glyph-name="uni0480" unicode="&#x480;" horiz-adv-x="602" 
d="M468 -244h-98l55 307c-44 -49 -98 -73 -155 -73c-108 0 -184 75 -195 177c-3 26 1 67 6 95l43 246c24 140 110 252 265 252h8c118 0 193 -78 204 -180c2 -19 1 -45 -2 -68h-103c2 18 3 39 2 53c-5 54 -36 95 -110 95h-6c-90 0 -140 -68 -155 -155l-43 -250
c-4 -20 -7 -51 -5 -70c5 -54 38 -95 112 -95c89 0 141 65 159 154h105z" />
    <glyph glyph-name="uni0481" unicode="&#x481;" horiz-adv-x="521" 
d="M404 -200h-94l43 244c-35 -35 -78 -54 -121 -54c-82 0 -142 48 -163 120c-10 36 -11 79 -3 124l18 102c8 46 22 91 46 128c40 63 104 106 193 106c92 0 152 -48 173 -120c6 -23 9 -49 8 -76h-97c0 9 0 18 -1 27c-6 42 -30 75 -89 75c-50 0 -84 -25 -107 -63
c-14 -24 -24 -52 -29 -82l-18 -102c-4 -23 -7 -48 -4 -70c6 -42 30 -75 89 -75c58 0 100 39 121 92h102z" />
    <glyph glyph-name="uni0482" unicode="&#x482;" horiz-adv-x="567" 
d="M386 113l-136 87l-135 -213l-59 38l134 213l-136 88l36 56l137 -87l126 198l-138 87l37 57l136 -87l135 213l59 -38l-134 -213l136 -88l-36 -56l-137 87l-126 -198l138 -87z" />
    <glyph glyph-name="uni0483" unicode="&#x483;" horiz-adv-x="500" 
d="M504 695h-245l-8 -45h-79l17 95h245l8 45h79z" />
    <glyph glyph-name="uni0484" unicode="&#x484;" horiz-adv-x="500" 
d="M532 670h-63c0 45 -21 63 -50 63c-56 0 -93 -50 -152 -66c-20 -6 -50 -10 -85 -10h-41l11 58h38c35 0 55 4 74 12c55 25 98 80 170 80c69 0 107 -50 98 -137z" />
    <glyph glyph-name="uni0485" unicode="&#x485;" horiz-adv-x="500" 
d="M507 693h-275l-8 -46h-54l24 141h54l-8 -46h275z" />
    <glyph glyph-name="uni0486" unicode="&#x486;" horiz-adv-x="500" 
d="M522 788l-24 -141h-54l8 46h-275l8 49h275l8 46h54z" />
    <glyph glyph-name="uni0487" unicode="&#x487;" horiz-adv-x="500" 
d="M538 715l-11 -58h-41c-35 0 -63 4 -81 10c-53 16 -72 66 -128 66c-29 0 -56 -18 -72 -63h-63c21 87 77 137 145 137c73 0 96 -55 143 -80c15 -8 35 -12 70 -12h38z" />
    <glyph glyph-name="uni0488" unicode="&#x488;" horiz-adv-x="833" 
d="M517 561h-36c-5 34 -29 56 -61 56s-56 -22 -61 -56h-36c3 57 40 95 97 95s94 -38 97 -95zM517 12h-36c-5 34 -29 56 -61 56s-56 -22 -61 -56h-36c3 57 40 95 97 95s94 -38 97 -95zM251 287h-36c-5 34 -29 56 -61 56s-56 -22 -61 -56h-36c3 57 40 95 97 95s94 -38 97 -95z
M783 287h-36c-5 34 -29 56 -61 56s-56 -22 -61 -56h-36c3 57 40 95 97 95s94 -38 97 -95zM333 447h-36c-5 34 -29 56 -61 56s-56 -22 -61 -56h-36c3 57 40 95 97 95s94 -38 97 -95zM701 447h-36c-5 34 -29 56 -61 56s-56 -22 -61 -56h-36c3 57 40 95 97 95s94 -38 97 -95z
M333 122h-36c-5 34 -29 56 -61 56s-56 -22 -61 -56h-36c3 57 40 95 97 95s94 -38 97 -95zM701 122h-36c-5 34 -29 56 -61 56s-56 -22 -61 -56h-36c3 57 40 95 97 95s94 -38 97 -95z" />
    <glyph glyph-name="uni0489" unicode="&#x489;" horiz-adv-x="833" 
d="M384 -30v30c36 11 45 37 45 60c0 6 -3 8 -7 8h-32v78h80v-65c0 -50 -20 -102 -86 -111zM470 540h-80v65c0 50 20 102 86 111v-30c-36 -11 -45 -37 -45 -60c0 -6 3 -8 7 -8h32v-78zM793 297h-30c-11 36 -37 45 -60 45c-6 0 -8 -3 -8 -7v-32h-78v80h65
c50 0 102 -20 111 -86zM243 303h-65c-50 0 -102 20 -111 86h30c11 -36 37 -45 60 -45c6 0 8 3 8 7v32h78v-80zM656 47l-21 21c18 33 6 58 -11 74c-4 4 -7 4 -10 1l-23 -23l-55 55l57 57l46 -46c35 -35 58 -86 17 -139zM267 454l-46 46c-35 35 -58 86 -17 139l21 -21
c-18 -33 -6 -58 11 -74c4 -4 7 -4 10 -1l23 23l55 -55zM721 574l-21 -21c-33 18 -58 6 -74 -11c-4 -4 -4 -7 -1 -10l23 -23l-55 -55l-57 57l46 46c35 35 86 58 139 17zM324 175l-46 -46c-35 -35 -86 -58 -139 -17l21 21c33 -18 58 -6 74 11c4 4 4 7 1 10l-23 23l55 55z" />
    <glyph glyph-name="uni048A" unicode="&#x48a;" horiz-adv-x="691" 
d="M534 -244h-98l95 244h-104l90 513c4 25 11 58 10 58l-358 -571h-125l132 750h104l-91 -513c-4 -25 -11 -58 -11 -58h1l360 571h124l-115 -649h118zM529 970h69c-15 -101 -88 -167 -182 -167s-155 66 -152 167h69c1 -62 31 -105 89 -105s94 43 107 105z" />
    <glyph glyph-name="uni048B" unicode="&#x48b;" horiz-adv-x="580" 
d="M469 790h69c-15 -101 -88 -167 -182 -167s-155 66 -152 167h69c1 -62 31 -105 89 -105s94 43 107 105zM506 -200h-94l36 200c-61 -4 -77 24 -69 81h-1c-36 -62 -98 -91 -152 -91c-100 0 -145 72 -149 163c-1 24 2 54 7 83l57 324h98l-56 -318c-5 -29 -8 -55 -7 -73
c2 -48 17 -88 70 -88c63 0 130 70 153 198l49 281h98l-78 -444c-4 -24 13 -34 29 -34h59z" />
    <glyph glyph-name="uni048C" unicode="&#x48c;" horiz-adv-x="672" 
d="M368 0h-253l99 562h-123l12 68h123l21 120h104l-22 -120h151l-12 -68h-151l-18 -103h106c44 0 84 -5 109 -15c82 -32 129 -112 120 -216c-9 -102 -70 -181 -158 -213c-26 -10 -65 -15 -108 -15zM237 101h138c40 0 68 6 86 17c38 22 65 61 69 110c5 51 -15 92 -49 113
c-17 11 -46 17 -84 17h-115z" />
    <glyph glyph-name="uni048D" unicode="&#x48d;" horiz-adv-x="568" 
d="M276 0h-192l73 420h-101l12 68h101l13 72h98l-13 -72h110l-12 -68h-110l-11 -64h78c31 0 54 -2 74 -7c76 -17 135 -69 126 -171c-8 -91 -70 -149 -156 -169c-24 -6 -55 -9 -90 -9zM198 92h101c28 0 55 4 73 13c26 13 46 35 52 73c7 44 -16 71 -53 81c-12 3 -28 5 -54 5
h-89z" />
    <glyph glyph-name="uni048E" unicode="&#x48e;" horiz-adv-x="594" 
d="M495 239l-57 -30l-34 86c-20 -3 -41 -4 -64 -4h-139l-51 -291h-104l132 750h199c44 0 84 -5 109 -15c82 -32 129 -112 120 -216c-9 -95 -62 -171 -141 -206zM428 406l5 3c38 22 65 61 69 110c5 51 -15 92 -49 113c-17 11 -46 17 -84 17h-105l-45 -257h147l-30 77l56 29z
" />
    <glyph glyph-name="uni048F" unicode="&#x48f;" horiz-adv-x="555" 
d="M428 -50l-56 -30l-31 78c-18 -5 -37 -8 -58 -8c-50 0 -105 25 -133 64h-1s-5 -33 -9 -58l-43 -240h-98l142 804h68l1 -81h1c47 62 104 91 159 91c108 0 159 -73 164 -164c1 -24 -1 -49 -6 -75l-19 -104c-15 -83 -49 -161 -112 -204zM305 85l-35 95l55 29l36 -93
c27 28 43 69 51 113l17 96c4 23 7 48 6 66c-2 48 -24 88 -82 88c-68 0 -139 -70 -163 -198l-7 -38c-13 -69 5 -160 97 -160c9 0 17 1 25 2z" />
    <glyph glyph-name="afii10050" unicode="&#x490;" horiz-adv-x="529" 
d="M150 0h-104l132 750h325l36 204h98l-54 -305h-319z" />
    <glyph glyph-name="afii10098" unicode="&#x491;" horiz-adv-x="449" 
d="M141 0h-98l98 560h256l30 170h94l-46 -264h-252z" />
    <glyph glyph-name="uni0492" unicode="&#x492;" horiz-adv-x="573" 
d="M194 0h-103l63 359h-106l13 74h106l56 317h422l-18 -101h-319l-38 -216h185l-13 -74h-185z" />
    <glyph glyph-name="uni0493" unicode="&#x493;" horiz-adv-x="487" 
d="M178 0h-98l43 245h-92l12 68h92l43 247h351l-16 -94h-253l-27 -153h159l-12 -68h-159z" />
    <glyph glyph-name="uni0494" unicode="&#x494;" horiz-adv-x="613" 
d="M421 12l33 191c4 24 8 53 8 69c0 61 -30 98 -119 98c-53 0 -90 -4 -130 -9l-63 -361h-104l132 750h423l-18 -101h-319l-34 -190c39 6 84 11 131 11c131 0 206 -70 205 -183c0 -19 -3 -51 -8 -80l-33 -193c-28 -156 -113 -255 -253 -255c-67 0 -128 26 -165 71l74 70
c22 -25 57 -39 99 -39c63 0 123 49 141 151z" />
    <glyph glyph-name="uni0495" unicode="&#x495;" horiz-adv-x="505" 
d="M143 -235l17 94c11 -1 26 -2 36 -2c69 0 105 24 120 108l33 183c3 17 4 32 3 46c-4 34 -29 62 -93 62c-34 0 -61 -2 -89 -5l-44 -251h-98l98 560h351l-16 -94h-253l-22 -123c29 4 57 6 87 6c113 0 174 -59 178 -143c1 -13 -1 -37 -5 -59l-33 -193
c-25 -142 -105 -191 -220 -191c-16 0 -40 1 -50 2z" />
    <glyph glyph-name="uni0496" unicode="&#x496;" horiz-adv-x="987" 
d="M890 -244h-98l44 244h-47l-134 340h-102l-59 -340h-104l59 340h-89l-251 -340h-128l279 370c-47 30 -70 86 -68 174l1 51c0 46 -17 64 -55 64c-9 0 -19 -1 -30 -3l17 94c19 3 32 4 47 4c86 0 116 -51 116 -145v-54c0 -80 25 -114 110 -114h69l55 309h104l-55 -309h60
c84 0 118 35 149 114l21 54c35 94 80 145 164 145c21 0 40 -1 59 -4l-17 -94c-10 2 -19 3 -29 3c-38 0 -61 -18 -78 -64l-18 -51c-30 -88 -64 -143 -128 -174l108 -269h89z" />
    <glyph glyph-name="uni0497" unicode="&#x497;" horiz-adv-x="830" 
d="M737 -200h-95l36 200h-39l-112 247h-65l-43 -247h-98l43 247h-57l-197 -247h-120l223 274c-37 25 -52 64 -53 127v38c-1 27 -14 42 -39 42c-14 0 -22 -2 -37 -5l15 84c20 4 37 5 52 5c75 0 96 -42 101 -111l2 -42c2 -53 19 -77 80 -77h46l39 225h98l-39 -225h40
c61 0 85 24 106 77l18 42c29 69 64 111 138 111c16 0 39 -1 56 -5l-15 -84c-12 3 -20 5 -34 5c-25 0 -42 -15 -53 -42l-14 -38c-24 -63 -44 -101 -97 -127l83 -180h83z" />
    <glyph glyph-name="uni0498" unicode="&#x498;" horiz-adv-x="591" 
d="M118 -207l25 53c14 -6 40 -13 64 -13c26 0 47 18 53 52c5 28 -4 63 -23 106c-136 7 -209 92 -192 212h102c-12 -73 28 -115 114 -115c77 0 142 44 155 118c11 64 -25 127 -135 127h-85l16 91h85c110 0 163 60 174 123c13 74 -35 115 -109 115c-86 0 -140 -42 -154 -115
h-104c22 130 123 213 270 213c132 0 219 -90 202 -208c-11 -78 -60 -138 -146 -177v-1c72 -39 98 -108 86 -183c-17 -105 -103 -181 -214 -197c20 -41 31 -88 23 -129c-11 -58 -58 -93 -118 -93c-38 0 -71 11 -89 21z" />
    <glyph glyph-name="uni0499" unicode="&#x499;" horiz-adv-x="489" 
d="M84 -207l25 53c14 -6 40 -13 64 -13c26 0 47 18 53 52c5 28 -4 63 -23 106c-112 7 -182 76 -168 170h98c-9 -48 25 -79 95 -79c60 0 105 28 111 76c5 40 -22 82 -98 82h-67l15 86h67c82 0 118 39 123 79c6 44 -27 74 -88 74c-70 0 -107 -30 -116 -79h-98
c16 101 102 170 229 170c109 0 184 -66 173 -155c-7 -58 -44 -105 -117 -137c61 -31 80 -80 73 -132c-10 -75 -71 -137 -167 -152c20 -41 31 -88 23 -129c-11 -58 -58 -93 -118 -93c-38 0 -71 11 -89 21z" />
    <glyph glyph-name="uni049A" unicode="&#x49a;" horiz-adv-x="663" 
d="M574 -244h-98l44 244h-55l-134 340h-122l-59 -340h-104l132 750h104l-55 -309h79c84 0 119 34 149 114l21 54c36 93 80 145 164 145c17 0 40 -1 60 -4l-17 -95c-11 2 -20 3 -30 3c-38 0 -61 -18 -77 -64l-18 -50c-31 -88 -65 -143 -128 -174l109 -269h96z" />
    <glyph glyph-name="uni049B" unicode="&#x49b;" horiz-adv-x="563" 
d="M477 -200h-94l36 200h-40l-112 247h-83l-43 -247h-98l98 560h98l-39 -225h58c61 0 84 25 106 77l18 42c29 69 64 111 138 111c16 0 39 -1 56 -5l-15 -84c-12 3 -20 5 -34 5c-25 0 -42 -15 -53 -42l-14 -38c-24 -63 -44 -101 -97 -127l83 -180h83z" />
    <glyph glyph-name="uni049C" unicode="&#x49c;" horiz-adv-x="641" 
d="M600 0h-115l-134 340h-4l-31 -175h-59l30 175h-78l-59 -340h-104l132 750h104l-55 -309h77l32 175h59l-31 -172c57 10 86 44 111 111l21 54c36 93 80 145 164 145c17 0 40 -1 60 -4l-17 -95c-11 2 -20 3 -30 3c-38 0 -61 -18 -77 -64l-18 -50c-31 -88 -65 -143 -128 -174
z" />
    <glyph glyph-name="uni049D" unicode="&#x49d;" horiz-adv-x="560" 
d="M510 0h-111l-107 236l-27 -148h-55l29 159h-55l-43 -247h-98l98 560h98l-39 -225h54l30 172h55l-30 -170c39 8 57 33 75 75l18 42c29 69 64 111 138 111c16 0 39 -1 56 -5l-15 -84c-12 3 -20 5 -34 5c-25 0 -42 -15 -53 -42l-14 -38c-24 -63 -44 -101 -97 -127z" />
    <glyph glyph-name="uni049E" unicode="&#x49e;" horiz-adv-x="680" 
d="M639 0h-115l-134 340h-122l-59 -340h-104l98 560h-113l13 70h113l21 120h104l-22 -120h107l-13 -70h-106l-21 -119h79c84 0 119 34 149 114l21 54c36 93 80 145 164 145c17 0 40 -1 60 -4l-17 -95c-11 2 -20 3 -30 3c-38 0 -61 -18 -77 -64l-18 -50
c-31 -88 -65 -143 -128 -174z" />
    <glyph glyph-name="uni049F" unicode="&#x49f;" horiz-adv-x="566" 
d="M516 0h-111l-112 247h-83l-43 -247h-98l73 420h-86l12 68h86l13 72h98l-13 -72h81l-12 -68h-81l-14 -85h58c61 0 84 25 106 77l18 42c29 69 64 111 138 111c16 0 39 -1 56 -5l-15 -84c-12 3 -20 5 -34 5c-25 0 -42 -15 -53 -42l-14 -38c-24 -63 -44 -101 -97 -127z" />
    <glyph glyph-name="uni04A0" unicode="&#x4a0;" horiz-adv-x="769" 
d="M728 0h-115l-134 340h-122l-59 -340h-104l114 649h-202l18 101h306l-55 -309h79c84 0 119 34 149 114l21 54c36 93 80 145 164 145c17 0 40 -1 60 -4l-17 -95c-11 2 -20 3 -30 3c-38 0 -61 -18 -77 -64l-18 -50c-31 -88 -65 -143 -128 -174z" />
    <glyph glyph-name="uni04A1" unicode="&#x4a1;" horiz-adv-x="648" 
d="M598 0h-111l-112 247h-83l-43 -247h-98l81 467h-160l16 93h259l-39 -225h58c61 0 84 25 106 77l18 42c29 69 64 111 138 111c16 0 39 -1 56 -5l-15 -84c-12 3 -20 5 -34 5c-25 0 -42 -15 -53 -42l-14 -38c-24 -63 -44 -101 -97 -127z" />
    <glyph glyph-name="uni04A2" unicode="&#x4a2;" horiz-adv-x="690" 
d="M604 -244h-98l44 244h-120l59 340h-280l-59 -340h-104l132 750h104l-55 -309h280l55 309h104l-115 -649h114z" />
    <glyph glyph-name="uni04A3" unicode="&#x4a3;" horiz-adv-x="590" 
d="M514 -200h-94l36 200h-98l43 244h-217l-43 -244h-98l98 560h98l-39 -222h217l39 222h98l-82 -466h94z" />
    <glyph glyph-name="uni04A4" unicode="&#x4a4;" horiz-adv-x="788" 
d="M534 0h-104l59 340h-280l-59 -340h-104l132 750h104l-55 -309h280l55 309h306l-18 -101h-202z" />
    <glyph glyph-name="uni04A5" unicode="&#x4a5;" horiz-adv-x="668" 
d="M456 0h-98l43 244h-217l-43 -244h-98l98 560h98l-39 -222h217l39 222h260l-16 -93h-162z" />
    <glyph glyph-name="uni04A6" unicode="&#x4a6;" horiz-adv-x="954" 
d="M762 12l33 191c4 24 8 53 8 69c0 61 -30 98 -119 98c-48 0 -83 -3 -119 -8l-64 -362h-104l114 649h-247l-114 -649h-104l132 750h455l-51 -289c37 5 77 9 120 9c131 0 206 -70 205 -183c0 -19 -3 -51 -8 -80l-33 -193c-27 -156 -113 -255 -253 -255
c-67 0 -128 26 -165 71l74 70c22 -25 57 -39 99 -39c63 0 123 49 141 151z" />
    <glyph glyph-name="uni04A7" unicode="&#x4a7;" horiz-adv-x="799" 
d="M437 -235l17 94c11 -1 26 -2 36 -2c69 0 105 24 120 108l33 183c3 17 4 32 3 46c-4 34 -29 62 -93 62c-30 0 -55 -2 -79 -4l-44 -252h-98l82 466h-191l-82 -466h-98l98 560h387l-38 -216c25 3 50 5 77 5c113 0 174 -59 178 -143c1 -13 -1 -37 -5 -59l-33 -193
c-25 -142 -105 -191 -220 -191c-16 0 -40 1 -50 2z" />
    <glyph glyph-name="uni04A8" unicode="&#x4a8;" horiz-adv-x="679" 
d="M628 -20l-16 -88c-36 -15 -72 -22 -109 -22c-109 0 -170 46 -189 120h-32c-124 0 -195 80 -206 180c-3 26 0 64 5 92l43 246c24 140 110 252 265 252h8c115 0 200 -83 205 -200h-104v5c-5 54 -36 95 -110 95h-6c-90 0 -140 -68 -155 -155l-43 -250c-4 -20 -7 -51 -5 -70
c5 -54 38 -101 111 -101h23l43 244c19 106 68 178 170 178c94 0 142 -68 122 -188l-15 -89c-20 -118 -79 -220 -215 -236c14 -23 48 -37 97 -37c37 0 81 10 113 24zM539 231l16 92c9 49 7 89 -36 89c-38 0 -58 -33 -68 -89l-42 -239c76 3 115 61 130 147z" />
    <glyph glyph-name="uni04A9" unicode="&#x4a9;" horiz-adv-x="567" 
d="M521 5l-14 -84c-35 -13 -63 -18 -90 -18c-88 0 -140 35 -156 90h-35c-138 0 -184 107 -163 225l26 144c20 113 87 205 218 205h5c90 0 165 -55 174 -150h-104c-6 37 -38 57 -76 57h-5c-70 0 -105 -54 -117 -122l-26 -146c-9 -53 -8 -129 73 -129h25v1l29 162
c14 82 55 138 139 138c77 0 120 -54 104 -143l-11 -60c-14 -81 -56 -159 -162 -175c13 -13 44 -17 69 -17c27 0 66 9 97 22zM433 176l12 68c5 28 2 54 -27 54c-26 0 -38 -22 -44 -54l-30 -165c52 7 79 45 89 97z" />
    <glyph glyph-name="uni04AA" unicode="&#x4aa;" horiz-adv-x="586" 
d="M132 -207l25 53c14 -6 40 -13 64 -13c26 0 47 18 53 52c5 28 -4 64 -23 107c-102 11 -165 84 -175 178c-3 26 0 64 5 92l43 246c24 140 110 252 265 252h8c118 0 193 -78 204 -180c2 -19 1 -45 -2 -68h-103c2 18 3 39 2 53c-5 54 -36 95 -110 95h-6
c-90 0 -140 -68 -155 -155l-43 -250c-4 -20 -7 -51 -5 -70c5 -54 36 -95 110 -95h6c90 0 140 67 155 154h103c-23 -133 -100 -240 -236 -252c19 -41 30 -87 22 -127c-11 -58 -58 -93 -118 -93c-38 0 -71 11 -89 21z" />
    <glyph glyph-name="uni04AB" unicode="&#x4ab;" horiz-adv-x="514" 
d="M92 -207l25 53c14 -6 40 -13 64 -13c26 0 47 18 53 52c5 28 -4 64 -23 107c-75 9 -124 54 -142 118c-10 36 -11 79 -3 124l18 102c8 46 22 91 46 128c40 63 104 106 193 106c92 0 152 -48 173 -120c6 -23 9 -49 8 -76h-97c0 9 0 18 -1 27c-6 42 -30 75 -89 75
c-50 0 -84 -25 -107 -63c-14 -24 -24 -52 -29 -82l-18 -102c-4 -23 -7 -48 -4 -70c6 -42 30 -75 89 -75c50 0 84 25 107 63c5 9 10 19 14 29h102c-9 -29 -20 -56 -36 -80c-35 -55 -87 -94 -158 -103c19 -41 30 -87 22 -128c-11 -58 -58 -93 -118 -93c-38 0 -71 11 -89 21z
" />
    <glyph glyph-name="uni04AC" unicode="&#x4ac;" horiz-adv-x="549" 
d="M367 -244h-98l44 244h-121l114 649h-200l18 101h505l-18 -101h-201l-97 -548h115z" />
    <glyph glyph-name="uni04AD" unicode="&#x4ad;" horiz-adv-x="866" 
d="M793 -200h-94l36 200h-98l59 335c14 80 5 144 -59 144c-49 0 -125 -57 -148 -189l-51 -290h-98l59 335c14 80 5 144 -59 144c-52 0 -126 -60 -152 -208l-47 -271h-98l98 560h68l1 -81h1c47 65 107 91 154 91c67 0 107 -45 123 -107c36 56 103 107 174 107
c78 0 123 -52 136 -124c6 -34 3 -72 -4 -110l-43 -245h93z" />
    <glyph glyph-name="uni04AE" unicode="&#x4ae;" horiz-adv-x="570" 
d="M307 0h-104l57 324l-155 426h112l108 -315h2l219 315h123l-305 -426z" />
    <glyph glyph-name="uni04AF" unicode="&#x4af;" horiz-adv-x="490" 
d="M220 -244h-98l44 244l-89 560h101l55 -434h2l207 434h107l-285 -560z" />
    <glyph glyph-name="uni04B0" unicode="&#x4b0;" horiz-adv-x="570" 
d="M307 0h-104l39 226h-170l12 68h170l6 30l-155 426h113l108 -311h2l219 311h122l-305 -426l-6 -30h168l-12 -68h-168z" />
    <glyph glyph-name="uni04B1" unicode="&#x4b1;" horiz-adv-x="490" 
d="M220 -244h-98l32 176h-130l12 68h130l-89 560h101l55 -434h2l207 434h107l-285 -560h130l-12 -68h-130z" />
    <glyph glyph-name="uni04B2" unicode="&#x4b2;" horiz-adv-x="617" 
d="M531 -244h-98l44 244h-57l-108 291l-209 -291h-125l288 393l-132 357h114l89 -262l180 262h127l-262 -363l111 -286h99z" />
    <glyph glyph-name="uni04B3" unicode="&#x4b3;" horiz-adv-x="536" 
d="M462 -200h-94l36 200h-46l-95 211l-164 -211h-119l242 299l-125 261h107l82 -184l143 184h122l-224 -271l92 -195h95z" />
    <glyph glyph-name="uni04B4" unicode="&#x4b4;" horiz-adv-x="779" 
d="M693 -244h-98l44 244h-496l114 649h-151l18 101h407l-18 -101h-152l-97 -548h272l115 649h104l-115 -649h114z" />
    <glyph glyph-name="uni04B5" unicode="&#x4b5;" horiz-adv-x="641" 
d="M569 -200h-94l36 200c-61 -4 -77 24 -69 81h-1c-36 -62 -98 -91 -152 -91c-100 0 -145 72 -149 163c-1 24 2 54 7 83l41 231h-116l16 93h321l-16 -93h-107l-40 -225c-5 -29 -8 -55 -7 -73c2 -48 17 -88 70 -88c63 0 130 70 153 198l49 281h98l-78 -444
c-4 -24 13 -34 29 -34h59z" />
    <glyph glyph-name="uni04B6" unicode="&#x4b6;" horiz-adv-x="664" 
d="M578 -244h-98l44 244h-121l51 291c-39 -6 -84 -11 -131 -11c-131 0 -206 74 -205 187c0 19 3 51 8 80l36 203h104l-36 -203c-4 -24 -8 -53 -8 -69c0 -61 30 -98 119 -98c53 0 90 4 130 9l64 361h104l-115 -649h115z" />
    <glyph glyph-name="uni04B7" unicode="&#x4b7;" horiz-adv-x="553" 
d="M477 -200h-94l36 200h-98l36 208c-33 -4 -65 -7 -99 -7c-113 0 -174 59 -178 143c-1 13 1 37 5 59l27 157h98l-28 -158c-3 -17 -4 -32 -3 -46c4 -34 29 -62 93 -62c39 0 69 2 102 7l45 259h98l-82 -466h94z" />
    <glyph glyph-name="uni04B8" unicode="&#x4b8;" horiz-adv-x="633" 
d="M527 0h-104l51 291c-32 -5 -74 -9 -116 -10l-27 -156h-59l27 157c-113 6 -182 78 -180 190c0 19 2 50 8 81l35 197h104l-36 -203c-5 -27 -9 -55 -8 -69c-1 -56 25 -91 95 -97l29 166h59l-29 -167c41 1 83 4 115 9l64 361h104z" />
    <glyph glyph-name="uni04B9" unicode="&#x4b9;" horiz-adv-x="541" 
d="M438 0h-98l36 208c-24 -3 -52 -6 -86 -7l-21 -116h-55l22 118c-95 10 -153 66 -155 145c-1 13 1 39 5 61l26 151h98l-27 -156c-4 -19 -5 -34 -4 -48c3 -29 22 -54 73 -60l25 143h55l-26 -145c34 0 60 3 87 7l45 259h98z" />
    <glyph glyph-name="uni04BA" unicode="&#x4ba;" horiz-adv-x="614" 
d="M523 0h-104l36 203c4 24 8 53 8 69c0 61 -30 98 -119 98c-53 0 -90 -4 -130 -9l-64 -361h-104l132 750h104l-51 -291c39 6 84 11 131 11c131 0 206 -74 205 -187c0 -19 -3 -51 -8 -80z" />
    <glyph glyph-name="uni04BB" unicode="&#x4bb;" horiz-adv-x="521" 
d="M448 0h-98l28 158c3 17 4 32 3 46c-4 34 -29 62 -93 62c-39 0 -69 -2 -102 -7l-45 -259h-98l98 560h98l-36 -208c33 4 65 7 99 7c113 0 174 -59 178 -143c1 -13 -1 -37 -5 -59z" />
    <glyph glyph-name="uni04BC" unicode="&#x4bc;" horiz-adv-x="732" 
d="M414 -10h-8c-118 0 -193 78 -204 180c-3 26 0 64 5 92l14 81c-126 0 -173 72 -159 156c3 17 5 28 10 43h94c-4 -14 -6 -21 -8 -34c-6 -36 3 -67 69 -67h11l12 67c24 140 110 252 265 252h8c118 0 193 -78 204 -180c3 -26 0 -64 -5 -92l-25 -145h-372l-15 -88
c-3 -20 -7 -51 -5 -70c5 -54 36 -95 110 -95h6c81 0 129 54 149 128h104c-30 -130 -115 -228 -260 -228zM609 441l10 54c4 20 7 51 5 70c-5 54 -36 95 -110 95h-6c-90 0 -140 -68 -155 -155l-11 -64h267z" />
    <glyph glyph-name="uni04BD" unicode="&#x4bd;" horiz-adv-x="632" 
d="M593 258h-320l-5 -29c-4 -23 -7 -48 -4 -70c6 -42 30 -78 89 -78c50 0 85 28 108 66c3 6 7 12 10 19h102c-9 -26 -19 -49 -33 -70c-40 -63 -104 -106 -193 -106c-92 0 -152 48 -173 120c-10 36 -11 79 -3 124l4 23c-111 6 -142 66 -133 141c2 15 4 26 9 39h85
c-3 -9 -6 -19 -8 -31c-5 -33 1 -61 62 -61c8 43 22 84 45 119c40 63 104 106 199 106c99 0 164 -50 176 -135c4 -27 3 -62 -4 -104zM290 346h218c4 20 9 42 5 69c-6 43 -43 66 -90 66c-50 0 -84 -25 -107 -63c-11 -18 -21 -49 -26 -72z" />
    <glyph glyph-name="uni04BE" unicode="&#x4be;" horiz-adv-x="732" 
d="M409 -200h-94l34 197c-85 20 -138 88 -147 173c-3 26 0 64 5 92l14 81c-126 0 -173 72 -159 156c3 17 5 28 10 43h94c-4 -14 -6 -21 -8 -34c-6 -36 3 -67 69 -67h11l12 67c24 140 110 252 265 252h8c118 0 193 -78 204 -180c3 -26 0 -64 -5 -92l-25 -145h-372l-15 -88
c-3 -20 -7 -51 -5 -70c5 -54 36 -95 110 -95h6c81 0 129 54 149 128h104c-28 -121 -104 -215 -232 -227zM609 441l10 54c4 20 7 51 5 70c-5 54 -36 95 -110 95h-6c-90 0 -140 -68 -155 -155l-11 -64h267z" />
    <glyph glyph-name="uni04BF" unicode="&#x4bf;" horiz-adv-x="632" 
d="M351 -200h-94l34 197c-61 15 -101 56 -117 113c-10 36 -11 79 -3 124l4 23c-111 6 -142 66 -133 141c2 15 4 26 9 39h85c-3 -9 -6 -19 -8 -31c-5 -33 1 -61 62 -61c8 43 22 84 45 119c40 63 104 106 199 106c99 0 164 -50 176 -135c4 -27 3 -62 -4 -104l-13 -73h-320
l-5 -29c-4 -23 -7 -48 -4 -70c6 -42 30 -78 89 -78c50 0 85 28 108 66c3 6 7 12 10 19h102c-9 -26 -19 -49 -33 -70c-34 -54 -85 -93 -154 -103zM290 346h218c4 20 9 42 5 69c-6 43 -43 66 -90 66c-50 0 -84 -25 -107 -63c-11 -18 -21 -49 -26 -72z" />
    <glyph glyph-name="uni04C0" unicode="&#x4c0;" horiz-adv-x="256" 
d="M150 0h-104l132 750h104z" />
    <glyph glyph-name="uni04C1" unicode="&#x4c1;" horiz-adv-x="945" 
d="M904 0h-115l-134 340h-102l-59 -340h-104l59 340h-90l-250 -340h-128l279 370c-47 30 -70 86 -68 174l1 51c0 46 -17 64 -55 64c-9 0 -19 -1 -30 -3l17 94c19 3 32 4 47 4c86 0 116 -51 116 -145v-54c0 -80 25 -114 110 -114h69l55 309h104l-55 -309h60
c84 0 118 35 149 114l21 54c35 94 80 145 164 145c21 0 40 -1 59 -4l-17 -94c-10 2 -19 3 -29 3c-38 0 -61 -18 -78 -64l-18 -51c-30 -88 -64 -143 -128 -174zM694 970h69c-15 -101 -88 -167 -182 -167s-155 66 -152 167h69c1 -62 31 -105 89 -105s94 43 107 105z" />
    <glyph glyph-name="uni04C2" unicode="&#x4c2;" horiz-adv-x="800" 
d="M750 0h-111l-112 247h-65l-43 -247h-98l43 247h-57l-197 -247h-120l223 274c-37 25 -52 64 -53 127v38c-1 27 -14 42 -39 42c-14 0 -22 -2 -37 -5l15 84c20 4 37 5 52 5c75 0 96 -42 101 -111l2 -42c2 -53 19 -77 80 -77h46l39 225h98l-39 -225h40c61 0 85 24 106 77
l18 42c29 69 64 111 138 111c16 0 39 -1 56 -5l-15 -84c-12 3 -20 5 -34 5c-25 0 -42 -15 -53 -42l-14 -38c-24 -63 -44 -101 -97 -127zM588 790h69c-15 -101 -88 -167 -182 -167s-155 66 -152 167h69c1 -62 31 -105 89 -105s94 43 107 105z" />
    <glyph glyph-name="uni04C3" unicode="&#x4c3;" horiz-adv-x="623" 
d="M148 -174l69 73c22 -21 59 -38 102 -38c63 0 127 49 145 151c17 101 -14 224 -95 328h-160l-59 -340h-104l132 750h104l-55 -309h79c84 0 119 34 149 114l21 54c36 93 80 145 164 145c17 0 40 -1 60 -4l-17 -95c-11 2 -20 3 -30 3c-38 0 -61 -18 -77 -64l-18 -50
c-26 -73 -53 -119 -98 -150c101 -137 128 -247 114 -370c-18 -156 -117 -265 -261 -265c-64 0 -128 27 -165 67z" />
    <glyph glyph-name="uni04C4" unicode="&#x4c4;" horiz-adv-x="541" 
d="M129 -117l58 66c21 -18 48 -30 84 -30c48 0 96 32 108 100c11 67 -14 155 -77 228h-118l-43 -247h-98l98 560h98l-39 -225h58c61 0 84 25 106 77l18 42c29 69 64 111 138 111c16 0 39 -1 56 -5l-15 -84c-12 3 -20 5 -34 5c-25 0 -42 -15 -53 -42l-14 -38
c-21 -53 -37 -85 -74 -110c77 -95 99 -172 92 -260c-10 -122 -91 -204 -209 -204c-50 0 -108 21 -140 56z" />
    <glyph glyph-name="uni04C5" unicode="&#x4c5;" horiz-adv-x="705" 
d="M547 -244h-98l95 244h-104l114 649h-218l-72 -307c-38 -161 -85 -330 -286 -342l18 103c102 6 139 123 166 243l92 404h422l-115 -649h119z" />
    <glyph glyph-name="uni04C6" unicode="&#x4c6;" horiz-adv-x="606" 
d="M470 -200h-94l78 200h-99l82 465c-27 7 -48 9 -85 9c-39 0 -84 -13 -107 -110c-50 -215 -77 -369 -284 -364l15 94c123 0 130 106 177 298c35 141 124 176 197 176c66 0 132 -10 198 -27l-79 -448l1 1h114z" />
    <glyph glyph-name="uni04C7" unicode="&#x4c7;" horiz-adv-x="640" 
d="M254 -235l17 94c11 -1 26 -2 37 -2c61 0 101 26 116 110l65 373h-280l-59 -340h-104l132 750h104l-55 -309h280l55 309h104l-138 -784c-27 -153 -107 -203 -228 -203c-16 0 -36 1 -46 2z" />
    <glyph glyph-name="uni04C8" unicode="&#x4c8;" horiz-adv-x="559" 
d="M178 -235l17 94c11 -1 26 -2 36 -2c69 0 106 26 121 110l49 277h-217l-43 -244h-98l98 560h98l-39 -222h217l39 222h98l-106 -606c-25 -142 -105 -191 -220 -191c-16 0 -40 1 -50 2z" />
    <glyph glyph-name="uni04C9" unicode="&#x4c9;" horiz-adv-x="694" 
d="M537 -244h-98l95 244h-104l59 340h-280l-59 -340h-104l132 750h104l-55 -309h280l55 309h104l-115 -649h118z" />
    <glyph glyph-name="uni04CA" unicode="&#x4ca;" horiz-adv-x="608" 
d="M472 -200h-94l78 200h-98l43 244h-217l-43 -244h-98l98 560h98l-39 -222h217l39 222h98l-82 -466h114z" />
    <glyph glyph-name="uni04CB" unicode="&#x4cb;" horiz-adv-x="613" 
d="M358 -244h-98l61 345l99 -1l34 191c-39 -6 -84 -11 -131 -11c-131 0 -206 74 -205 187c0 19 3 51 8 80l36 203h104l-36 -203c-4 -24 -8 -53 -8 -69c0 -61 30 -98 119 -98c53 0 90 4 130 9l64 361h104l-132 -750h-105z" />
    <glyph glyph-name="uni04CC" unicode="&#x4cc;" horiz-adv-x="522" 
d="M285 -200h-94l52 294h94l20 114c-33 -4 -65 -7 -99 -7c-113 0 -174 59 -178 143c-1 13 1 37 5 59l27 157h98l-28 -158c-3 -17 -4 -32 -3 -46c4 -34 29 -62 93 -62c39 0 69 2 102 7l45 259h98l-98 -560h-98z" />
    <glyph glyph-name="uni04CD" unicode="&#x4cd;" horiz-adv-x="822" 
d="M665 -244h-98l95 244h-100l89 508c4 25 11 58 11 58h-1l-242 -420h-80l-94 420h-1s-5 -33 -9 -58l-89 -508h-100l132 750h120l102 -460l264 460h130l-115 -649h118z" />
    <glyph glyph-name="uni04CE" unicode="&#x4ce;" horiz-adv-x="724" 
d="M588 -200h-94l78 200h-94l57 328c4 25 12 58 12 58h-1l-171 -281h-1h-72l-71 281h-1c-2 -11 -6 -36 -10 -58l-27 -157c-23 -134 -92 -181 -191 -181c-15 0 -25 1 -34 2l16 91c10 -1 12 -2 21 -2c56 0 82 21 96 101l66 378h105l84 -329l199 329h115l-82 -466h114z" />
    <glyph glyph-name="uni04CF" unicode="&#x4cf;" horiz-adv-x="243" 
d="M141 0h-98l98 560h98z" />
    <glyph glyph-name="uni04D0" unicode="&#x4d0;" horiz-adv-x="584" 
d="M408 328l-29 317h-4l-139 -317h172zM542 0h-104l-19 229h-228l-99 -229h-110l338 750h149zM511 970h69c-15 -101 -88 -167 -182 -167s-155 66 -152 167h69c1 -62 31 -105 89 -105s94 43 107 105z" />
    <glyph glyph-name="uni04D1" unicode="&#x4d1;" horiz-adv-x="532" 
d="M432 0h-65v82h-1c-39 -56 -91 -92 -156 -92c-104 0 -171 69 -160 186c7 84 63 146 148 168c21 5 44 8 78 8h120l5 29c11 65 -15 100 -80 100c-54 0 -87 -27 -107 -65h-99c34 93 105 154 215 154c133 0 188 -78 165 -210zM376 242l5 26h-112c-23 0 -41 -3 -55 -8
c-36 -13 -62 -43 -66 -83c-6 -60 23 -99 81 -99c67 0 131 82 147 164zM479 790h69c-15 -101 -88 -167 -182 -167s-155 66 -152 167h69c1 -62 31 -105 89 -105s94 43 107 105z" />
    <glyph glyph-name="uni04D2" unicode="&#x4d2;" horiz-adv-x="584" 
d="M408 328l-29 317h-4l-139 -317h172zM542 0h-104l-19 229h-228l-99 -229h-110l338 750h149zM357 824h-103l20 111h103zM552 824h-103l20 111h103z" />
    <glyph glyph-name="uni04D3" unicode="&#x4d3;" horiz-adv-x="532" 
d="M432 0h-65v82h-1c-39 -56 -91 -92 -156 -92c-104 0 -171 69 -160 186c7 84 63 146 148 168c21 5 44 8 78 8h120l5 29c11 65 -15 100 -80 100c-54 0 -87 -27 -107 -65h-99c34 93 105 154 215 154c133 0 188 -78 165 -210zM376 242l5 26h-112c-23 0 -41 -3 -55 -8
c-36 -13 -62 -43 -66 -83c-6 -60 23 -99 81 -99c67 0 131 82 147 164zM309 644h-103l20 111h103zM504 644h-103l20 111h103z" />
    <glyph glyph-name="uni04D4" unicode="&#x4d4;" horiz-adv-x="865" 
d="M795 0h-396l40 232h-217l-137 -232h-121l457 750h506l-18 -101h-292l-38 -215h237l-18 -101h-237l-41 -232h292zM457 333l56 316h-42l-188 -316h174z" />
    <glyph glyph-name="uni04D5" unicode="&#x4d5;" horiz-adv-x="837" 
d="M797 258h-320l-5 -29c-4 -23 -7 -48 -4 -70c6 -42 30 -75 89 -75c50 0 84 25 107 63c3 6 7 12 10 19h103c-9 -26 -19 -49 -33 -70c-40 -63 -104 -106 -193 -106c-87 0 -140 53 -153 128c-37 -65 -99 -128 -188 -128c-104 0 -171 69 -160 186c9 104 88 176 211 176h135
l5 29c11 65 -15 100 -80 100c-54 0 -87 -27 -107 -65h-99c34 93 105 154 215 154c74 0 121 -32 143 -90c36 54 88 90 165 90c99 0 164 -50 176 -135c4 -27 3 -62 -4 -104zM376 242l5 26h-127c-58 0 -101 -35 -106 -91c-6 -60 23 -99 81 -99c67 0 131 82 147 164zM494 346
h218c4 20 9 42 5 69c-6 43 -43 66 -90 66c-50 0 -84 -25 -107 -63c-11 -18 -21 -49 -26 -72z" />
    <glyph glyph-name="uni04D6" unicode="&#x4d6;" horiz-adv-x="547" 
d="M477 0h-431l132 750h431l-18 -101h-327l-38 -214h270l-18 -101h-270l-41 -233h327zM509 970h69c-15 -101 -88 -167 -182 -167s-155 66 -152 167h69c1 -62 31 -105 89 -105s94 43 107 105z" />
    <glyph glyph-name="uni04D7" unicode="&#x4d7;" 
d="M185 346h218c4 20 9 42 5 69c-6 43 -43 66 -90 66c-50 0 -84 -25 -107 -63c-11 -18 -21 -49 -26 -72zM488 258h-320l-5 -29c-4 -23 -7 -48 -4 -70c6 -42 30 -78 89 -78c50 0 85 28 108 66c3 6 7 12 10 19h102c-9 -26 -19 -49 -33 -70c-40 -63 -104 -106 -193 -106
c-92 0 -152 48 -173 120c-10 36 -11 79 -3 124l18 102c8 46 22 91 46 128c40 63 104 106 199 106c99 0 164 -50 176 -135c4 -27 3 -62 -4 -104zM472 790h69c-15 -101 -88 -167 -182 -167s-155 66 -152 167h69c1 -62 31 -105 89 -105s94 43 107 105z" />
    <glyph glyph-name="uni04D8" unicode="&#x4d8;" horiz-adv-x="607" 
d="M289 -10h-8c-118 0 -193 78 -204 180c-3 26 0 64 5 92l25 145h372l15 88c3 20 7 51 5 70c-5 54 -36 95 -110 95h-6c-81 0 -129 -54 -149 -128h-104c30 130 115 228 260 228h8c118 0 193 -78 204 -180c3 -26 0 -64 -5 -92l-43 -246c-24 -140 -110 -252 -265 -252zM451 245
l11 64h-267l-10 -54c-4 -20 -7 -51 -5 -70c5 -54 36 -95 110 -95h6c90 0 140 68 155 155z" />
    <glyph glyph-name="afii10846" unicode="&#x4d9;" 
d="M381 214h-218c-4 -20 -9 -42 -5 -69c6 -43 43 -66 90 -66c50 0 84 25 107 63c11 18 21 49 26 72zM500 326l-18 -102c-8 -46 -22 -91 -46 -128c-40 -63 -104 -106 -199 -106c-99 0 -164 50 -176 135c-4 27 -3 62 4 104l13 73h320l5 29c4 23 7 48 4 70c-6 42 -30 78 -89 78
c-50 0 -85 -28 -108 -66c-3 -6 -7 -12 -10 -19h-102c9 26 19 49 33 70c40 63 104 106 193 106c92 0 152 -48 173 -120c10 -36 11 -79 3 -124z" />
    <glyph glyph-name="uni04DA" unicode="&#x4da;" horiz-adv-x="607" 
d="M289 -10h-8c-118 0 -193 78 -204 180c-3 26 0 64 5 92l25 145h372l15 88c3 20 7 51 5 70c-5 54 -36 95 -110 95h-6c-81 0 -129 -54 -149 -128h-104c30 130 115 228 260 228h8c118 0 193 -78 204 -180c3 -26 0 -64 -5 -92l-43 -246c-24 -140 -110 -252 -265 -252zM451 245
l11 64h-267l-10 -54c-4 -20 -7 -51 -5 -70c5 -54 36 -95 110 -95h6c90 0 140 68 155 155zM362 824h-103l20 111h103zM557 824h-103l20 111h103z" />
    <glyph glyph-name="uni04DB" unicode="&#x4db;" 
d="M381 214h-218c-4 -20 -9 -42 -5 -69c6 -43 43 -66 90 -66c50 0 84 25 107 63c11 18 21 49 26 72zM500 326l-18 -102c-8 -46 -22 -91 -46 -128c-40 -63 -104 -106 -199 -106c-99 0 -164 50 -176 135c-4 27 -3 62 4 104l13 73h320l5 29c4 23 7 48 4 70c-6 42 -30 78 -89 78
c-50 0 -85 -28 -108 -66c-3 -6 -7 -12 -10 -19h-102c9 26 19 49 33 70c40 63 104 106 193 106c92 0 152 -48 173 -120c10 -36 11 -79 3 -124zM294 644h-103l20 111h103zM489 644h-103l20 111h103z" />
    <glyph glyph-name="uni04DC" unicode="&#x4dc;" horiz-adv-x="945" 
d="M904 0h-115l-134 340h-102l-59 -340h-104l59 340h-90l-250 -340h-128l279 370c-47 30 -70 86 -68 174l1 51c0 46 -17 64 -55 64c-9 0 -19 -1 -30 -3l17 94c19 3 32 4 47 4c86 0 116 -51 116 -145v-54c0 -80 25 -114 110 -114h69l55 309h104l-55 -309h60
c84 0 118 35 149 114l21 54c35 94 80 145 164 145c21 0 40 -1 59 -4l-17 -94c-10 2 -19 3 -29 3c-38 0 -61 -18 -78 -64l-18 -51c-30 -88 -64 -143 -128 -174zM538 824h-103l20 111h103zM733 824h-103l20 111h103z" />
    <glyph glyph-name="uni04DD" unicode="&#x4dd;" horiz-adv-x="800" 
d="M750 0h-111l-112 247h-65l-43 -247h-98l43 247h-57l-197 -247h-120l223 274c-37 25 -52 64 -53 127v38c-1 27 -14 42 -39 42c-14 0 -22 -2 -37 -5l15 84c20 4 37 5 52 5c75 0 96 -42 101 -111l2 -42c2 -53 19 -77 80 -77h46l39 225h98l-39 -225h40c61 0 85 24 106 77
l18 42c29 69 64 111 138 111c16 0 39 -1 56 -5l-15 -84c-12 3 -20 5 -34 5c-25 0 -42 -15 -53 -42l-14 -38c-24 -63 -44 -101 -97 -127zM432 644h-103l20 111h103zM627 644h-103l20 111h103z" />
    <glyph glyph-name="uni04DE" unicode="&#x4de;" horiz-adv-x="562" 
d="M430 375v-1c72 -39 98 -108 86 -183c-19 -119 -127 -201 -261 -201c-147 0 -227 88 -210 213h102c-12 -73 28 -115 114 -115c77 0 142 44 155 118c11 64 -25 127 -135 127h-85l16 91h85c110 0 163 60 174 123c13 74 -35 115 -109 115c-86 0 -140 -42 -154 -115h-104
c22 130 123 213 270 213c132 0 219 -90 202 -208c-11 -78 -60 -138 -146 -177zM342 824h-103l20 111h103zM537 824h-103l20 111h103z" />
    <glyph glyph-name="uni04DF" unicode="&#x4df;" horiz-adv-x="481" 
d="M35 161h98c-9 -48 25 -79 95 -79c60 0 105 28 111 76c5 40 -22 82 -98 82h-67l15 86h67c82 0 118 39 123 79c6 44 -27 74 -88 74c-70 0 -107 -30 -116 -79h-98c16 101 102 170 229 170c109 0 184 -66 173 -155c-7 -58 -44 -105 -117 -137c61 -31 80 -80 73 -132
c-11 -86 -91 -156 -213 -156c-123 0 -201 72 -187 171zM273 644h-103l20 111h103zM468 644h-103l20 111h103z" />
    <glyph glyph-name="uni04E0" unicode="&#x4e0;" horiz-adv-x="568" 
d="M530 231l-2 -11c-24 -131 -117 -230 -269 -230c-131 0 -228 90 -209 229h104c-10 -87 32 -128 110 -128c90 0 149 59 163 140l1 6c13 75 -17 135 -124 135h-58l-5 86l215 191h-306l18 101h449l-17 -93l-228 -203c110 -15 181 -98 158 -223z" />
    <glyph glyph-name="uni04E1" unicode="&#x4e1;" horiz-adv-x="503" 
d="M214 165h-45l-11 77l233 226h-302l16 92h432l-17 -88l-237 -231c130 -19 183 -104 164 -234s-114 -230 -259 -230c-112 0 -206 73 -206 194c0 9 0 19 1 30h94c-5 -87 39 -132 115 -132c88 0 147 63 160 148c14 89 -28 148 -138 148z" />
    <glyph glyph-name="uni04E2" unicode="&#x4e2;" horiz-adv-x="639" 
d="M665 750l-132 -750h-104l90 513c4 25 11 58 11 58h-1l-358 -571h-125l132 750h104l-91 -513c-4 -25 -11 -58 -11 -58h1l360 571h124zM583 825h-304l11 65h304z" />
    <glyph glyph-name="uni04E3" unicode="&#x4e3;" horiz-adv-x="568" 
d="M465 0h-68l-1 81h-1c-47 -62 -106 -91 -162 -91c-102 0 -157 72 -161 163c-1 24 2 54 7 83l57 324h98l-56 -318c-5 -29 -8 -55 -7 -73c2 -48 24 -88 82 -88c68 0 140 70 163 198l49 281h98zM513 645h-304l11 65h304z" />
    <glyph glyph-name="uni04E4" unicode="&#x4e4;" horiz-adv-x="639" 
d="M665 750l-132 -750h-104l90 513c4 25 11 58 11 58h-1l-358 -571h-125l132 750h104l-91 -513c-4 -25 -11 -58 -11 -58h1l360 571h124zM385 824h-103l20 111h103zM580 824h-103l20 111h103z" />
    <glyph glyph-name="uni04E5" unicode="&#x4e5;" horiz-adv-x="568" 
d="M465 0h-68l-1 81h-1c-47 -62 -106 -91 -162 -91c-102 0 -157 72 -161 163c-1 24 2 54 7 83l57 324h98l-56 -318c-5 -29 -8 -55 -7 -73c2 -48 24 -88 82 -88c68 0 140 70 163 198l49 281h98zM312 644h-103l20 111h103zM507 644h-103l20 111h103z" />
    <glyph glyph-name="uni04E6" unicode="&#x4e6;" horiz-adv-x="606" 
d="M288 -10h-8c-118 0 -193 78 -204 180c-3 26 0 64 5 92l43 246c24 140 110 252 265 252h8c118 0 193 -78 204 -180c3 -26 0 -64 -5 -92l-43 -246c-24 -140 -110 -252 -265 -252zM450 245l43 250c4 20 7 51 5 70c-5 54 -36 95 -110 95h-6c-90 0 -140 -68 -155 -155
l-43 -250c-4 -20 -7 -51 -5 -70c5 -54 36 -95 110 -95h6c90 0 140 68 155 155zM376 824h-103l20 111h103zM571 824h-103l20 111h103z" />
    <glyph glyph-name="uni04E7" unicode="&#x4e7;" 
d="M499 326l-18 -102c-8 -46 -22 -91 -46 -128c-40 -63 -104 -106 -193 -106c-92 0 -152 48 -173 120c-10 36 -11 79 -3 124l18 102c8 46 22 91 46 128c40 63 104 106 193 106c92 0 152 -48 173 -120c10 -36 11 -79 3 -124zM384 229l18 102c4 23 7 48 4 70
c-6 42 -30 75 -89 75c-50 0 -84 -25 -107 -63c-14 -24 -24 -52 -29 -82l-18 -102c-4 -23 -7 -48 -4 -70c6 -42 30 -75 89 -75c50 0 84 25 107 63c14 24 24 52 29 82zM295 644h-103l20 111h103zM490 644h-103l20 111h103z" />
    <glyph glyph-name="uni04E8" unicode="&#x4e8;" horiz-adv-x="606" 
d="M288 -10h-8c-118 0 -193 78 -204 180c-3 26 0 64 5 92l43 246c24 140 110 252 265 252h8c118 0 193 -78 204 -180c3 -26 0 -64 -5 -92l-43 -246c-24 -140 -110 -252 -265 -252zM450 245l14 83h-268l-12 -73c-4 -20 -7 -51 -5 -70c5 -54 36 -95 110 -95h6
c90 0 140 68 155 155zM481 426l12 69c4 20 7 51 5 70c-5 54 -36 95 -110 95h-6c-90 0 -140 -68 -155 -155l-14 -79h268z" />
    <glyph glyph-name="uni04E9" unicode="&#x4e9;" 
d="M499 326l-18 -102c-8 -46 -22 -91 -46 -128c-40 -63 -104 -106 -193 -106c-92 0 -152 48 -173 120c-10 36 -11 79 -3 124l18 102c8 46 22 91 46 128c40 63 104 106 193 106c92 0 152 -48 173 -120c10 -36 11 -79 3 -124zM386 239h-221c-6 -33 -9 -58 -6 -80
c6 -42 30 -75 89 -75c50 0 84 25 107 63c14 24 24 54 31 92zM180 327h221c5 27 8 52 5 74c-6 42 -30 75 -89 75c-50 0 -84 -25 -107 -63c-14 -24 -24 -52 -30 -86z" />
    <glyph glyph-name="uni04EA" unicode="&#x4ea;" horiz-adv-x="606" 
d="M288 -10h-8c-118 0 -193 78 -204 180c-3 26 0 64 5 92l43 246c24 140 110 252 265 252h8c118 0 193 -78 204 -180c3 -26 0 -64 -5 -92l-43 -246c-24 -140 -110 -252 -265 -252zM450 245l14 83h-268l-12 -73c-4 -20 -7 -51 -5 -70c5 -54 36 -95 110 -95h6
c90 0 140 68 155 155zM481 426l12 69c4 20 7 51 5 70c-5 54 -36 95 -110 95h-6c-90 0 -140 -68 -155 -155l-14 -79h268zM364 824h-103l20 111h103zM559 824h-103l20 111h103z" />
    <glyph glyph-name="uni04EB" unicode="&#x4eb;" 
d="M499 326l-18 -102c-8 -46 -22 -91 -46 -128c-40 -63 -104 -106 -193 -106c-92 0 -152 48 -173 120c-10 36 -11 79 -3 124l18 102c8 46 22 91 46 128c40 63 104 106 193 106c92 0 152 -48 173 -120c10 -36 11 -79 3 -124zM386 239h-221c-6 -33 -9 -58 -6 -80
c6 -42 30 -75 89 -75c50 0 84 25 107 63c14 24 24 54 31 92zM180 327h221c5 27 8 52 5 74c-6 42 -30 75 -89 75c-50 0 -84 -25 -107 -63c-14 -24 -24 -52 -30 -86zM295 644h-103l20 111h103zM490 644h-103l20 111h103z" />
    <glyph glyph-name="uni04EC" unicode="&#x4ec;" horiz-adv-x="580" 
d="M263 -10h-10c-121 0 -215 93 -208 214h103c-1 -65 38 -114 111 -114h11c90 0 140 68 155 155l15 89h-237l18 101h237l10 60c4 20 7 51 5 70c-5 54 -36 95 -110 95h-11c-74 0 -120 -45 -143 -108h-106c32 120 118 208 259 208h10c118 0 193 -78 204 -180
c3 -26 0 -64 -5 -92l-43 -246c-24 -140 -110 -252 -265 -252zM344 824h-103l20 111h103zM539 824h-103l20 111h103z" />
    <glyph glyph-name="uni04ED" unicode="&#x4ed;" horiz-adv-x="517" 
d="M489 326l-18 -102c-8 -46 -22 -91 -46 -128c-40 -63 -104 -106 -196 -106c-95 0 -155 48 -176 120c-5 17 -8 36 -8 56h97c0 -50 39 -82 93 -82c53 0 87 25 110 63c14 24 24 52 29 80l1 6h-184l16 93h184l1 5c4 23 7 48 4 70c-6 42 -30 75 -91 75c-52 0 -86 -24 -109 -62
c-5 -9 -10 -20 -14 -30h-103c9 29 20 56 36 80c41 63 105 106 196 106c94 0 154 -48 175 -120c10 -36 11 -79 3 -124zM296 644h-103l20 111h103zM491 644h-103l20 111h103z" />
    <glyph glyph-name="uni04EE" unicode="&#x4ee;" horiz-adv-x="558" 
d="M234 183l-116 567h105l84 -443h2l228 443h113l-325 -603c-61 -113 -125 -157 -216 -157c-36 0 -68 5 -88 11l16 95c22 -5 40 -10 74 -10c63 0 90 35 123 97zM545 825h-304l11 65h304z" />
    <glyph glyph-name="uni04EF" unicode="&#x4ef;" horiz-adv-x="498" 
d="M130 -39l46 85l-97 514h101l66 -394h2l201 394h108l-341 -637c-51 -95 -111 -139 -194 -139c-29 0 -58 4 -79 11l17 94c19 -5 38 -10 63 -10c46 0 81 33 107 82zM478 645h-304l11 65h304z" />
    <glyph glyph-name="uni04F0" unicode="&#x4f0;" horiz-adv-x="558" 
d="M234 183l-116 567h105l84 -443h2l228 443h113l-325 -603c-61 -113 -125 -157 -216 -157c-36 0 -68 5 -88 11l16 95c22 -5 40 -10 74 -10c63 0 90 35 123 97zM342 824h-103l20 111h103zM537 824h-103l20 111h103z" />
    <glyph glyph-name="uni04F1" unicode="&#x4f1;" horiz-adv-x="498" 
d="M130 -39l46 85l-97 514h101l66 -394h2l201 394h108l-341 -637c-51 -95 -111 -139 -194 -139c-29 0 -58 4 -79 11l17 94c19 -5 38 -10 63 -10c46 0 81 33 107 82zM279 644h-103l20 111h103zM474 644h-103l20 111h103z" />
    <glyph glyph-name="uni04F2" unicode="&#x4f2;" horiz-adv-x="558" 
d="M234 183l-116 567h105l84 -443h2l228 443h113l-325 -603c-61 -113 -125 -157 -216 -157c-36 0 -68 5 -88 11l16 95c22 -5 40 -10 74 -10c63 0 90 35 123 97zM297 807h-68l111 180h115zM487 807h-68l111 180h115z" />
    <glyph glyph-name="uni04F3" unicode="&#x4f3;" horiz-adv-x="498" 
d="M130 -39l46 85l-97 514h101l66 -394h2l201 394h108l-341 -637c-51 -95 -111 -139 -194 -139c-29 0 -58 4 -79 11l17 94c19 -5 38 -10 63 -10c46 0 81 33 107 82zM248 627h-68l111 180h115zM438 627h-68l111 180h115z" />
    <glyph glyph-name="uni04F4" unicode="&#x4f4;" horiz-adv-x="612" 
d="M506 0h-104l51 291c-39 -6 -84 -11 -131 -11c-131 0 -206 74 -205 187c0 19 3 51 8 80l36 203h104l-36 -203c-4 -24 -8 -53 -8 -69c0 -61 30 -98 119 -98c53 0 90 4 130 9l64 361h104zM363 824h-103l20 111h103zM558 824h-103l20 111h103z" />
    <glyph glyph-name="uni04F5" unicode="&#x4f5;" horiz-adv-x="522" 
d="M419 0h-98l36 208c-33 -4 -65 -7 -99 -7c-113 0 -174 59 -178 143c-1 13 1 37 5 59l27 157h98l-28 -158c-3 -17 -4 -32 -3 -46c4 -34 29 -62 93 -62c39 0 69 2 102 7l45 259h98zM279 644h-103l20 111h103zM474 644h-103l20 111h103z" />
    <glyph glyph-name="uni04F6" unicode="&#x4f6;" horiz-adv-x="529" 
d="M221 -244h-98l44 244h-121l132 750h423l-18 -101h-319l-97 -548h115z" />
    <glyph glyph-name="uni04F7" unicode="&#x4f7;" horiz-adv-x="449" 
d="M199 -200h-94l36 200h-98l98 560h350l-16 -94h-252l-66 -372h94z" />
    <glyph glyph-name="uni04F8" unicode="&#x4f8;" horiz-adv-x="795" 
d="M689 0h-104l132 750h104zM269 0h-223l132 750h104l-52 -291h76c44 0 84 -5 109 -15c82 -32 129 -112 120 -216c-9 -102 -70 -181 -158 -213c-26 -10 -65 -15 -108 -15zM168 101h108c40 0 68 6 86 17c38 22 65 61 69 110c5 51 -15 92 -49 113c-17 11 -46 17 -84 17h-85z
M463 824h-103l20 111h103zM658 824h-103l20 111h103z" />
    <glyph glyph-name="uni04F9" unicode="&#x4f9;" horiz-adv-x="698" 
d="M595 0h-98l98 560h98zM215 0h-172l98 560h98l-36 -204h58c31 0 54 -2 74 -7c76 -17 135 -69 126 -171c-8 -91 -70 -149 -156 -169c-24 -6 -55 -9 -90 -9zM157 92h81c28 0 55 4 73 13c26 13 46 35 52 73c7 44 -16 71 -53 81c-12 3 -28 5 -54 5h-69zM386 644h-103l20 111
h103zM581 644h-103l20 111h103z" />
    <glyph glyph-name="uni04FA" unicode="&#x4fa;" horiz-adv-x="573" 
d="M30 -235l16 92c12 -1 26 -2 37 -2c70 0 109 26 123 110l7 35h-122l63 359h-106l13 74h106l56 317h422l-18 -101h-319l-38 -216h185l-13 -74h-185l-46 -258h115l-23 -135c-26 -150 -113 -203 -229 -203c-17 0 -34 1 -44 2z" />
    <glyph glyph-name="uni04FB" unicode="&#x4fb;" horiz-adv-x="487" 
d="M3 -223l16 87c10 -1 29 -2 39 -2c67 0 104 27 118 108l6 30h-102l43 245h-92l12 68h92l43 247h351l-16 -94h-253l-27 -153h159l-12 -68h-159l-27 -151h94l-22 -124c-27 -150 -109 -194 -220 -194c-16 0 -34 0 -43 1z" />
    <glyph glyph-name="uni04FC" unicode="&#x4fc;" horiz-adv-x="603" 
d="M282 -235l16 92c12 -1 26 -2 37 -2c70 0 106 26 123 110l7 35h-45l-108 291l-209 -291h-125l288 393l-132 357h114l89 -262l180 262h127l-262 -363l111 -286h85l-23 -135c-26 -150 -113 -203 -229 -203c-17 0 -34 1 -44 2z" />
    <glyph glyph-name="uni04FD" unicode="&#x4fd;" horiz-adv-x="530" 
d="M218 -223l16 87c10 -1 29 -2 38 -2c68 0 102 27 118 108l6 30h-38l-95 211l-164 -211h-119l242 299l-125 261h107l82 -184l143 184h122l-224 -271l92 -195h83l-22 -124c-27 -150 -108 -194 -220 -194c-15 0 -33 0 -42 1z" />
    <glyph glyph-name="uni04FE" unicode="&#x4fe;" horiz-adv-x="582" 
d="M538 0h-112l-108 291l-209 -291h-125l263 356h-166l12 68h170l-123 326h114l89 -262l180 262h127l-238 -326h165l-12 -68h-168z" />
    <glyph glyph-name="uni04FF" unicode="&#x4ff;" horiz-adv-x="508" 
d="M466 0h-106l-95 211l-164 -211h-119l214 261h-131l11 64h138l-115 235h107l82 -184l143 184h122l-197 -235h130l-11 -64h-136z" />
    <glyph glyph-name="endash" unicode="&#x2013;" horiz-adv-x="566" 
d="M552 346h-476l15 88h476z" />
    <glyph glyph-name="emdash" unicode="&#x2014;" horiz-adv-x="684" 
d="M670 346h-594l15 88h594z" />
    <glyph glyph-name="quoteleft" unicode="&#x2018;" horiz-adv-x="225" 
d="M225 456h-130l19 109c15 83 62 170 173 185l-9 -50c-62 -19 -84 -62 -91 -101c-1 -9 3 -12 9 -12h52z" />
    <glyph glyph-name="quoteright" unicode="&#x2019;" horiz-adv-x="225" 
d="M95 456l9 50c62 19 85 62 92 101c1 9 -3 12 -9 12h-53l23 131h130l-19 -109c-15 -83 -62 -170 -173 -185z" />
    <glyph glyph-name="quotesinglbase" unicode="&#x201a;" horiz-adv-x="225" 
d="M-19 -163l9 50c62 19 85 62 91 101c2 9 -2 12 -8 12h-53l23 131h130l-20 -109c-14 -83 -62 -170 -172 -185z" />
    <glyph glyph-name="quotedblleft" unicode="&#x201c;" horiz-adv-x="421" 
d="M225 456h-130l19 109c15 83 62 170 173 185l-9 -50c-62 -19 -84 -62 -91 -101c-1 -9 3 -12 9 -12h52zM421 456h-130l19 109c15 83 62 170 173 185l-9 -50c-62 -19 -84 -62 -91 -101c-1 -9 3 -12 9 -12h52z" />
    <glyph glyph-name="quotedblright" unicode="&#x201d;" horiz-adv-x="421" 
d="M91 456l9 50c62 19 85 62 92 101c1 9 -3 12 -9 12h-53l23 131h130l-19 -109c-15 -83 -62 -170 -173 -185zM287 456l9 50c62 19 85 62 92 101c1 9 -3 12 -9 12h-53l23 131h130l-19 -109c-15 -83 -62 -170 -173 -185z" />
    <glyph glyph-name="quotedblbase" unicode="&#x201e;" horiz-adv-x="421" 
d="M-19 -163l9 50c62 19 85 62 91 101c2 9 -2 12 -8 12h-53l23 131h130l-20 -109c-14 -83 -62 -170 -172 -185zM177 -163l9 50c62 19 85 62 91 101c2 9 -2 12 -8 12h-53l23 131h130l-20 -109c-14 -83 -62 -170 -172 -185z" />
    <glyph glyph-name="dagger" unicode="&#x2020;" horiz-adv-x="490" 
d="M219 -169h-68l111 629h-171l11 67h171l40 223h68l-40 -223h171l-11 -67h-171z" />
    <glyph glyph-name="daggerdbl" unicode="&#x2021;" horiz-adv-x="500" 
d="M224 -169h-68l39 223h-171l12 67h171l60 339h-171l11 67h171l40 223h68l-40 -223h171l-11 -67h-171l-60 -339h171l-12 -67h-171z" />
    <glyph glyph-name="bullet" unicode="&#x2022;" horiz-adv-x="305" 
d="M288 315h-185v197h185v-197z" />
    <glyph glyph-name="ellipsis" unicode="&#x2026;" horiz-adv-x="672" 
d="M144 0h-123l23 131h123zM368 0h-124l23 131h124zM591 0h-123l23 131h123z" />
    <glyph glyph-name="perthousand" unicode="&#x2030;" horiz-adv-x="892" 
d="M489 139l4 20c9 55 -11 84 -50 84c-38 0 -68 -29 -77 -84l-4 -20c-10 -55 10 -84 48 -84c39 0 69 29 79 84zM561 159l-4 -20c-16 -91 -74 -149 -150 -149c-74 0 -128 58 -112 149l4 20c16 91 74 148 148 148c76 0 130 -57 114 -148zM783 139l4 20c9 55 -11 84 -50 84
c-38 0 -68 -29 -77 -84l-4 -20c-10 -55 10 -84 48 -84c39 0 69 29 79 84zM855 159l-4 -20c-16 -91 -74 -149 -150 -149c-74 0 -128 58 -112 149l4 20c16 91 74 148 148 148c76 0 130 -57 114 -148zM303 592l3 20c10 55 -9 84 -48 84s-68 -29 -78 -84l-3 -20
c-10 -55 9 -84 48 -84s68 29 78 84zM374 612l-3 -20c-16 -91 -74 -149 -149 -149s-129 58 -113 149l3 20c16 91 75 148 150 148s128 -57 112 -148zM123 0h-64l488 750h65z" />
    <glyph glyph-name="guilsinglleft" unicode="&#x2039;" horiz-adv-x="306" 
d="M239 77l-184 249l272 249l-21 -118l-151 -138l103 -138z" />
    <glyph glyph-name="guilsinglright" unicode="&#x203a;" horiz-adv-x="305" 
d="M304 326l-271 -249l21 118l150 138l-102 138l19 104z" />
    <glyph glyph-name="fraction" unicode="&#x2044;" horiz-adv-x="322" 
d="M-86 -132l-63 32l625 950l62 -33z" />
    <glyph glyph-name="Euro" unicode="&#x20ac;" horiz-adv-x="539" 
d="M295 -10h-2c-117 0 -218 98 -192 253l2 12h-89l34 68h67l17 92h-89l34 68h67l8 46c26 150 132 231 249 231h2c112 0 207 -82 198 -212h-98c0 77 -47 118 -108 118h-2c-63 0 -127 -43 -145 -148l-6 -35h225l-36 -68h-201l-17 -92h175l-36 -68h-151l-4 -23
c-18 -106 42 -148 105 -148h2c52 0 110 40 137 116h99c-33 -129 -125 -210 -245 -210z" />
    <glyph glyph-name="uni2120" unicode="&#x2120;" horiz-adv-x="584" 
d="M317 659h-49c4 25 -7 50 -42 50c-31 0 -47 -17 -49 -34c-3 -23 8 -35 27 -42l30 -11c36 -13 68 -40 65 -89c-3 -51 -51 -86 -105 -86c-67 0 -105 43 -97 95h49c-4 -31 17 -51 49 -51c26 0 52 16 54 43c2 25 -16 38 -35 45l-29 11c-32 12 -64 34 -59 83s52 80 104 80
c57 0 100 -32 87 -94zM588 449h-50l36 204l-99 -203h-42l-27 204l-36 -204h-50l53 300h62l29 -234l113 234h64z" />
    <glyph glyph-name="trademark" unicode="&#x2122;" horiz-adv-x="575" 
d="M196 450h-50l44 253h-79l9 47h207l-9 -47h-78zM579 449h-50l36 204l-99 -203h-42l-26 204l-36 -204h-50l53 300h63l29 -234l113 234h62z" />
    <glyph glyph-name="partialdiff" unicode="&#x2202;" horiz-adv-x="570" 
d="M500 0h-490l132 750h490zM75 93l217 281l-118 281zM467 93l99 562l-217 -281zM329 421l216 279h-333zM428 50l-116 276l-214 -276h330z" />
    <glyph glyph-name="product" unicode="&#x220f;" horiz-adv-x="570" 
d="M500 0h-490l132 750h490zM75 93l217 281l-118 281zM467 93l99 562l-217 -281zM329 421l216 279h-333zM428 50l-116 276l-214 -276h330z" />
    <glyph glyph-name="summation" unicode="&#x2211;" horiz-adv-x="570" 
d="M500 0h-490l132 750h490zM75 93l217 281l-118 281zM467 93l99 562l-217 -281zM329 421l216 279h-333zM428 50l-116 276l-214 -276h330z" />
    <glyph glyph-name="minus" unicode="&#x2212;" horiz-adv-x="541" 
d="M524 256h-477l15 88h477z" />
    <glyph glyph-name="radical" unicode="&#x221a;" horiz-adv-x="570" 
d="M500 0h-490l132 750h490zM75 93l217 281l-118 281zM467 93l99 562l-217 -281zM329 421l216 279h-333zM428 50l-116 276l-214 -276h330z" />
    <glyph glyph-name="infinity" unicode="&#x221e;" horiz-adv-x="570" 
d="M500 0h-490l132 750h490zM75 93l217 281l-118 281zM467 93l99 562l-217 -281zM329 421l216 279h-333zM428 50l-116 276l-214 -276h330z" />
    <glyph glyph-name="integral" unicode="&#x222b;" horiz-adv-x="570" 
d="M500 0h-490l132 750h490zM75 93l217 281l-118 281zM467 93l99 562l-217 -281zM329 421l216 279h-333zM428 50l-116 276l-214 -276h330z" />
    <glyph glyph-name="approxequal" unicode="&#x2248;" horiz-adv-x="570" 
d="M500 0h-490l132 750h490zM75 93l217 281l-118 281zM467 93l99 562l-217 -281zM329 421l216 279h-333zM428 50l-116 276l-214 -276h330z" />
    <glyph glyph-name="notequal" unicode="&#x2260;" horiz-adv-x="541" 
d="M500 151h-275l-107 -151h-78l107 151h-114l16 88h161l87 122h-227l16 88h274l108 152h78l-108 -152h115l-16 -88h-162l-87 -122h228z" />
    <glyph glyph-name="lessequal" unicode="&#x2264;" horiz-adv-x="541" 
d="M462 0h-442l15 88h442zM487 143l-401 208l18 98l473 208l-18 -102l-383 -161l327 -161z" />
    <glyph glyph-name="greaterequal" unicode="&#x2265;" horiz-adv-x="541" 
d="M461 0h-442l15 88h442zM517 351l-473 -208l18 102l383 161l-327 161l16 90l401 -208z" />
    <glyph glyph-name="lozenge" unicode="&#x25ca;" horiz-adv-x="570" 
d="M500 0h-490l132 750h490zM75 93l217 281l-118 281zM467 93l99 562l-217 -281zM329 421l216 279h-333zM428 50l-116 276l-214 -276h330z" />
    <glyph glyph-name="brevecyrillic" horiz-adv-x="500" 
d="M460 820h69c-15 -101 -88 -167 -182 -167s-155 66 -152 167h69c1 -62 31 -105 89 -105s94 43 107 105z" />
    <glyph glyph-name="registered.001" horiz-adv-x="843" 
d="M446 -10c-218 0 -361 172 -361 385s143 385 361 385c219 0 362 -172 362 -385s-143 -385 -362 -385zM446 39c192 0 312 151 312 336s-120 336 -312 336c-191 0 -311 -151 -311 -336s120 -336 311 -336zM627 142h-79c-13 15 -17 40 -19 61l-6 76c-4 42 -29 56 -73 56h-65
v-193h-77v472h136c23 0 41 -2 55 -5c63 -16 105 -57 105 -125c0 -45 -21 -84 -64 -107c36 -16 54 -44 58 -90l6 -79c2 -24 8 -46 26 -60zM385 408h59c54 0 84 30 84 73c0 31 -18 49 -47 56c-10 3 -25 4 -40 4h-56v-133z" />
    <glyph glyph-name="regsound" horiz-adv-x="843" 
d="M446 -10c-218 0 -361 172 -361 385s143 385 361 385c219 0 362 -172 362 -385s-143 -385 -362 -385zM446 39c192 0 312 151 312 336s-120 336 -312 336c-191 0 -311 -151 -311 -336s120 -336 311 -336zM398 375h68c26 0 40 4 52 10c21 12 34 37 34 65c0 30 -13 56 -34 67
c-12 6 -26 10 -52 10h-68v-152zM398 128h-76v472h146c32 0 53 -3 70 -10c52 -21 91 -74 91 -140s-36 -117 -91 -139c-17 -6 -35 -9 -70 -9h-70v-174z" />
    <glyph glyph-name="commaaccentlow" horiz-adv-x="500" 
d="M109 -276l7 40c51 16 69 49 72 71c2 7 -2 10 -7 10h-43l19 105h107l-14 -78c-2 -13 -6 -29 -10 -42c-17 -51 -59 -96 -131 -106z" />
    <glyph glyph-name="commaacaron" horiz-adv-x="191" 
d="M106 559l7 40c51 16 69 49 73 71c1 7 -3 10 -8 10h-43l19 105h107l-14 -78c-2 -13 -6 -29 -10 -42c-17 -51 -59 -96 -131 -106z" />
    <glyph glyph-name="CR" horiz-adv-x="216" 
 />
    <glyph glyph-name="apple" horiz-adv-x="947" 
 />
    <glyph glyph-name="_0000" horiz-adv-x="500" 
 />
    <glyph glyph-name=".null" horiz-adv-x="0" 
 />
    <glyph glyph-name="glyph277" unicode="&#x1a0;" horiz-adv-x="626" 
d="M288 -10h-8c-118 0 -193 78 -204 180c-3 26 0 64 5 92l43 246c24 140 110 252 265 252h8c105 0 176 -62 198 -148c32 12 38 29 48 79l16 86h73l-13 -70c-2 -14 -6 -29 -10 -41c-17 -52 -59 -86 -107 -98c1 -25 -2 -56 -6 -80l-43 -246c-24 -140 -110 -252 -265 -252z
M450 245l43 250c4 20 7 51 5 70c-5 54 -36 95 -110 95h-6c-90 0 -140 -68 -155 -155l-43 -250c-4 -20 -7 -51 -5 -70c5 -54 36 -95 110 -95h6c90 0 140 68 155 155z" />
    <glyph glyph-name="glyph278" unicode="&#x1a1;" horiz-adv-x="538" 
d="M499 326l-18 -102c-8 -46 -22 -91 -46 -128c-40 -63 -104 -106 -193 -106c-92 0 -152 48 -173 120c-10 36 -11 79 -3 124l18 102c8 46 22 91 46 128c40 63 104 106 193 106c92 0 152 -48 173 -123c31 11 38 28 47 76l15 83h70l-13 -67c-3 -14 -5 -28 -9 -40
c-16 -50 -57 -82 -103 -94c2 -25 1 -52 -4 -79zM384 229l18 102c4 23 7 48 4 70c-6 42 -30 75 -89 75c-50 0 -84 -25 -107 -63c-14 -24 -24 -52 -29 -82l-18 -102c-4 -23 -7 -48 -4 -70c6 -42 30 -75 89 -75c50 0 84 25 107 63c14 24 24 52 29 82z" />
    <glyph glyph-name="glyph279" unicode="&#x1af;" horiz-adv-x="689" 
d="M295 -10h-8c-121 0 -193 78 -204 180c-3 26 0 64 5 92l86 488h103l-86 -495c-4 -20 -7 -51 -5 -70c5 -54 36 -95 110 -95h6c90 0 140 68 155 155l89 505h104l-26 -143c40 9 66 32 76 83l16 87h73l-13 -70c-4 -20 -8 -45 -20 -65c-29 -51 -86 -75 -140 -80l-56 -320
c-24 -140 -110 -252 -265 -252z" />
    <glyph glyph-name="glyph280" unicode="&#x1b0;" horiz-adv-x="608" 
d="M465 0h-68l-1 81h-1c-47 -62 -106 -91 -162 -91c-102 0 -157 72 -161 163c-1 24 2 54 7 83l57 324h98l-56 -318c-5 -29 -8 -55 -7 -73c2 -48 24 -88 82 -88c68 0 140 70 163 198l49 281h98l-21 -120c38 9 63 31 72 80l15 86h69l-11 -68c-3 -20 -9 -44 -20 -64
c-28 -49 -81 -72 -133 -78z" />
    <glyph glyph-name="glyph281" unicode="&#x1ea0;" horiz-adv-x="584" 
d="M408 328l-29 317h-4l-139 -317h172zM542 0h-104l-19 229h-228l-99 -229h-110l338 750h149zM275 -149h-79l14 82h79z" />
    <glyph glyph-name="glyph282" unicode="&#x1ea1;" horiz-adv-x="532" 
d="M432 0h-65v82h-1c-39 -56 -91 -92 -156 -92c-104 0 -171 69 -160 186c7 84 63 146 148 168c21 5 44 8 78 8h120l5 29c11 65 -15 100 -80 100c-54 0 -87 -27 -107 -65h-99c34 93 105 154 215 154c133 0 188 -78 165 -210zM376 242l5 26h-112c-23 0 -41 -3 -55 -8
c-36 -13 -62 -43 -66 -83c-6 -60 23 -99 81 -99c67 0 131 82 147 164zM248 -149h-79l14 82h79z" />
    <glyph glyph-name="glyph283" unicode="&#x1ea2;" horiz-adv-x="584" 
d="M408 328l-29 317h-4l-139 -317h172zM542 0h-104l-19 229h-228l-99 -229h-110l338 750h149zM429 803h-44l12 67c58 12 87 31 87 58c0 20 -17 28 -44 28c-18 0 -37 -4 -55 -9l2 42c23 7 42 11 68 11c50 0 86 -24 84 -69c-2 -44 -44 -79 -103 -92z" />
    <glyph glyph-name="glyph284" unicode="&#x1ea3;" horiz-adv-x="532" 
d="M432 0h-65v82h-1c-39 -56 -91 -92 -156 -92c-104 0 -171 69 -160 186c7 84 63 146 148 168c21 5 44 8 78 8h120l5 29c11 65 -15 100 -80 100c-54 0 -87 -27 -107 -65h-99c34 93 105 154 215 154c133 0 188 -78 165 -210zM376 242l5 26h-112c-23 0 -41 -3 -55 -8
c-36 -13 -62 -43 -66 -83c-6 -60 23 -99 81 -99c67 0 131 82 147 164zM371 618h-44l12 67c58 12 87 31 87 58c0 20 -17 28 -44 28c-18 0 -37 -4 -55 -9l2 42c23 7 42 11 68 11c50 0 86 -24 84 -69c-2 -44 -44 -79 -103 -92z" />
    <glyph glyph-name="glyph285" unicode="&#x1ea4;" horiz-adv-x="584" 
d="M408 328l-29 317h-4l-139 -317h172zM542 0h-104l-19 229h-228l-99 -229h-110l338 750h149zM452 921l95 -124h-64l-67 83l-93 -83h-72l137 124h64zM698 980l-129 -107h-51l98 107h82z" />
    <glyph glyph-name="glyph286" unicode="&#x1ea5;" horiz-adv-x="532" 
d="M432 0h-65v82h-1c-39 -56 -91 -92 -156 -92c-104 0 -171 69 -160 186c7 84 63 146 148 168c21 5 44 8 78 8h120l5 29c11 65 -15 100 -80 100c-54 0 -87 -27 -107 -65h-99c34 93 105 154 215 154c133 0 188 -78 165 -210zM376 242l5 26h-112c-23 0 -41 -3 -55 -8
c-36 -13 -62 -43 -66 -83c-6 -60 23 -99 81 -99c67 0 131 82 147 164zM627 816l-116 -115h-47l81 115h82zM395 748l96 -135h-62l-66 90l-89 -90h-68l130 135h59z" />
    <glyph glyph-name="glyph287" unicode="&#x1ea6;" horiz-adv-x="584" 
d="M408 328l-29 317h-4l-139 -317h172zM542 0h-104l-19 229h-228l-99 -229h-110l338 750h149zM453 921l95 -124h-64l-67 83l-93 -83h-72l137 124h64zM208 980l98 -107h-51l-129 107h82z" />
    <glyph glyph-name="glyph288" unicode="&#x1ea7;" horiz-adv-x="532" 
d="M432 0h-65v82h-1c-39 -56 -91 -92 -156 -92c-104 0 -171 69 -160 186c7 84 63 146 148 168c21 5 44 8 78 8h120l5 29c11 65 -15 100 -80 100c-54 0 -87 -27 -107 -65h-99c34 93 105 154 215 154c133 0 188 -78 165 -210zM376 242l5 26h-112c-23 0 -41 -3 -55 -8
c-36 -13 -62 -43 -66 -83c-6 -60 23 -99 81 -99c67 0 131 82 147 164zM397 748l96 -135h-62l-66 90l-89 -90h-68l130 135h59zM176 816l81 -115h-47l-116 115h82z" />
    <glyph glyph-name="glyph289" unicode="&#x1ea8;" horiz-adv-x="584" 
d="M408 328l-29 317h-4l-139 -317h172zM542 0h-104l-19 229h-228l-99 -229h-110l338 750h149zM462 921l95 -124h-64l-67 83l-93 -83h-72l137 124h64zM568 866h-34l10 55c43 8 63 22 63 39c0 12 -12 15 -30 15c-14 0 -29 -3 -45 -8l2 39c18 5 33 8 54 8c34 0 63 -17 63 -50
c0 -38 -31 -60 -78 -73z" />
    <glyph glyph-name="glyph290" unicode="&#x1ea9;" horiz-adv-x="532" 
d="M432 0h-65v82h-1c-39 -56 -91 -92 -156 -92c-104 0 -171 69 -160 186c7 84 63 146 148 168c21 5 44 8 78 8h120l5 29c11 65 -15 100 -80 100c-54 0 -87 -27 -107 -65h-99c34 93 105 154 215 154c133 0 188 -78 165 -210zM376 242l5 26h-112c-23 0 -41 -3 -55 -8
c-36 -13 -62 -43 -66 -83c-6 -60 23 -99 81 -99c67 0 131 82 147 164zM510 694h-34l10 55c43 8 63 24 63 41c0 12 -12 16 -30 16c-14 0 -29 -3 -45 -8l2 39c18 5 33 8 54 8c34 0 63 -18 63 -51c0 -38 -31 -62 -78 -75zM401 748l96 -135h-62l-66 90l-89 -90h-68l130 135h59z
" />
    <glyph glyph-name="glyph291" unicode="&#x1eaa;" horiz-adv-x="584" 
d="M408 328l-29 317h-4l-139 -317h172zM542 0h-104l-19 229h-228l-99 -229h-110l338 750h149zM536 1023h42c-9 -56 -41 -89 -88 -89c-16 0 -38 7 -57 21c-28 21 -40 29 -58 29c-15 0 -34 -11 -39 -42h-42c9 56 41 89 88 89c16 0 38 -7 57 -21c28 -21 40 -29 58 -29
c15 0 34 11 39 42zM450 910l95 -124h-64l-67 83l-93 -83h-72l137 124h64z" />
    <glyph glyph-name="glyph292" unicode="&#x1eab;" horiz-adv-x="532" 
d="M432 0h-65v82h-1c-39 -56 -91 -92 -156 -92c-104 0 -171 69 -160 186c7 84 63 146 148 168c21 5 44 8 78 8h120l5 29c11 65 -15 100 -80 100c-54 0 -87 -27 -107 -65h-99c34 93 105 154 215 154c133 0 188 -78 165 -210zM376 242l5 26h-112c-23 0 -41 -3 -55 -8
c-36 -13 -62 -43 -66 -83c-6 -60 23 -99 81 -99c67 0 131 82 147 164zM484 858h41c-9 -59 -40 -94 -86 -94c-17 0 -38 7 -57 22c-28 22 -39 30 -59 30c-15 0 -31 -11 -37 -44h-41c10 59 39 94 83 94c20 0 41 -6 60 -22c28 -22 39 -30 58 -30c15 0 33 13 38 44zM393 738
l96 -135h-62l-66 90l-89 -90h-68l130 135h59z" />
    <glyph glyph-name="glyph293" unicode="&#x1eac;" horiz-adv-x="584" 
d="M408 328l-29 317h-4l-139 -317h172zM542 0h-104l-19 229h-228l-99 -229h-110l338 750h149zM452 943l96 -135h-62l-66 90l-89 -90h-68l130 135h59zM275 -149h-79l14 82h79z" />
    <glyph glyph-name="glyph294" unicode="&#x1ead;" horiz-adv-x="532" 
d="M432 0h-65v82h-1c-39 -56 -91 -92 -156 -92c-104 0 -171 69 -160 186c7 84 63 146 148 168c21 5 44 8 78 8h120l5 29c11 65 -15 100 -80 100c-54 0 -87 -27 -107 -65h-99c34 93 105 154 215 154c133 0 188 -78 165 -210zM376 242l5 26h-112c-23 0 -41 -3 -55 -8
c-36 -13 -62 -43 -66 -83c-6 -60 23 -99 81 -99c67 0 131 82 147 164zM392 748l96 -135h-62l-66 90l-89 -90h-68l130 135h59zM247 -149h-79l14 82h79z" />
    <glyph glyph-name="glyph295" unicode="&#x1eae;" horiz-adv-x="584" 
d="M408 328l-29 317h-4l-139 -317h172zM542 0h-104l-19 229h-228l-99 -229h-110l338 750h149zM505 915h52c-9 -70 -70 -115 -144 -115s-127 45 -126 115h52c4 -42 36 -67 78 -67s78 25 88 67zM565 1009l-130 -94h-47l91 94h86z" />
    <glyph glyph-name="glyph296" unicode="&#x1eaf;" horiz-adv-x="532" 
d="M432 0h-65v82h-1c-39 -56 -91 -92 -156 -92c-104 0 -171 69 -160 186c7 84 63 146 148 168c21 5 44 8 78 8h120l5 29c11 65 -15 100 -80 100c-54 0 -87 -27 -107 -65h-99c34 93 105 154 215 154c133 0 188 -78 165 -210zM376 242l5 26h-112c-23 0 -41 -3 -55 -8
c-36 -13 -62 -43 -66 -83c-6 -60 23 -99 81 -99c67 0 131 82 147 164zM445 740h48c-9 -77 -63 -127 -138 -127c-74 0 -120 50 -119 127h48c4 -46 32 -75 75 -75s76 29 86 75zM497 854l-118 -113h-47l83 113h82z" />
    <glyph glyph-name="glyph297" unicode="&#x1eb0;" horiz-adv-x="584" 
d="M408 328l-29 317h-4l-139 -317h172zM542 0h-104l-19 229h-228l-99 -229h-110l338 750h149zM502 915h52c-9 -70 -70 -115 -144 -115s-127 45 -126 115h52c4 -42 36 -67 78 -67s78 25 88 67zM365 1009l91 -94h-47l-130 94h86z" />
    <glyph glyph-name="glyph298" unicode="&#x1eb1;" horiz-adv-x="532" 
d="M432 0h-65v82h-1c-39 -56 -91 -92 -156 -92c-104 0 -171 69 -160 186c7 84 63 146 148 168c21 5 44 8 78 8h120l5 29c11 65 -15 100 -80 100c-54 0 -87 -27 -107 -65h-99c34 93 105 154 215 154c133 0 188 -78 165 -210zM376 242l5 26h-112c-23 0 -41 -3 -55 -8
c-36 -13 -62 -43 -66 -83c-6 -60 23 -99 81 -99c67 0 131 82 147 164zM445 740h48c-9 -77 -63 -127 -138 -127c-74 0 -120 50 -119 127h48c4 -46 32 -75 75 -75s76 29 86 75zM317 854l83 -113h-47l-118 113h82z" />
    </font>
</defs>
</svg>
