<?xml version="1.0" standalone="no"?>
<!DOCTYPE svg PUBLIC "-//W3C//DTD SVG 1.1//EN" "http://www.w3.org/Graphics/SVG/1.1/DTD/svg11.dtd" >
<svg xmlns="http://www.w3.org/2000/svg" width="100%" height="100%">
<metadata>
Created by FontXChange 20110222 at Fri Apr 26 14:50:35 2013
 By James Beall
Copyright (c) 2011 by GM. All rights reserved.
</metadata>
<defs>
<font id="Louis-CondensedRegular" horiz-adv-x="430" >
  <font-face 
    font-family="Louis"
    font-weight="600"
    font-stretch="normal"
    units-per-em="1000"
    panose-1="2 0 0 0 0 0 0 0 0 0"
    ascent="750"
    descent="-250"
    x-height="560"
    cap-height="750"
    bbox="-82 -283 884 1046"
    underline-thickness="50"
    underline-position="-50"
    stemh="95"
    stemv="98"
    unicode-range="U+0020-FB02"
  />
<missing-glyph horiz-adv-x="490" 
d="M450 0h-410v750h410v-750zM415 62v626l-150 -312zM75 62l150 314l-150 311v-625zM245 412l145 302h-290zM390 36l-145 302l-145 -302h290z" />
    <glyph glyph-name="fi" unicode="fi" horiz-adv-x="473" 
d="M413 0h-95v472h-144s1 -45 1 -71v-401h-95v472h-68v88h68v51c0 130 65 185 162 185c24 0 47 -2 65 -5v-90c-18 4 -33 6 -54 6c-52 0 -78 -22 -78 -99v-48h238v-560z" />
    <glyph glyph-name="fl" unicode="fl" horiz-adv-x="493" 
d="M434 0h-95v704c-27 3 -59 5 -75 5c-65 0 -89 -25 -89 -102v-47h100v-88h-101s1 -45 1 -71v-401h-95v472h-68v88h68v49c0 130 64 188 183 188c41 0 114 -5 171 -11v-786z" />
    <glyph glyph-name=".notdef" horiz-adv-x="490" 
d="M450 0h-410v750h410v-750zM415 62v626l-150 -312zM75 62l150 314l-150 311v-625zM245 412l145 302h-290zM390 36l-145 302l-145 -302h290z" />
    <glyph glyph-name="space" unicode=" " horiz-adv-x="175" 
 />
    <glyph glyph-name="exclam" unicode="!" horiz-adv-x="216" 
d="M148 236h-80l-13 514h106zM162 0h-108v123h108v-123z" />
    <glyph glyph-name="quotedbl" unicode="&#x22;" horiz-adv-x="325" 
d="M116 461h-78v289h97zM284 461h-78v289h97z" />
    <glyph glyph-name="numbersign" unicode="#" horiz-adv-x="461" 
d="M323 0h-70l16 195h-103l-16 -195h-70l16 195h-76v55h80l16 200h-83v55h87l16 195h69l-15 -195h103l16 195h70l-15 -195h77v-55h-82l-16 -200h84v-55h-88zM273 250l16 200h-103l-16 -200h103z" />
    <glyph glyph-name="dollar" unicode="$" horiz-adv-x="438" 
d="M248 -70h-49v98c-105 12 -160 89 -167 190h91c4 -52 30 -100 76 -108v241l-16 9c-74 41 -136 85 -136 187c0 99 62 162 152 171v92h49v-92c89 -11 153 -71 152 -185h-91c-2 51 -21 95 -61 105v-215l8 -4c74 -37 150 -96 150 -204c0 -103 -66 -175 -158 -186v-99zM248 326
v-215c41 8 68 53 68 106c0 42 -26 77 -68 109zM199 447v192c-43 -7 -62 -44 -62 -86c0 -52 21 -79 62 -106z" />
    <glyph glyph-name="percent" unicode="%" horiz-adv-x="559" 
d="M181 585v32c0 62 -17 81 -43 81s-43 -19 -43 -81v-32c0 -60 17 -80 43 -80s43 20 43 80zM248 615v-27c0 -96 -47 -146 -110 -146s-110 50 -110 146v27c0 97 47 145 110 145s110 -48 110 -145zM177 0h-70l276 750h70zM464 133v32c0 62 -17 81 -43 81s-43 -19 -43 -81v-32
c0 -60 17 -80 43 -80s43 20 43 80zM531 163v-27c0 -96 -47 -146 -110 -146s-110 50 -110 146v27c0 97 47 145 110 145s110 -48 110 -145z" />
    <glyph glyph-name="ampersand" unicode="&#x26;" horiz-adv-x="498" 
d="M503 0h-109l-39 59c-37 -44 -79 -69 -138 -69c-108 0 -187 77 -187 212c0 93 54 155 110 202c-38 53 -67 108 -67 179c0 120 74 177 150 177c91 0 154 -61 154 -162c0 -72 -41 -150 -125 -214l104 -162c15 48 21 101 24 138h82c-7 -66 -21 -148 -52 -219zM311 134
l-130 198c-31 -32 -56 -71 -56 -130c0 -83 39 -129 95 -129c40 0 71 25 91 61zM211 453c51 43 73 89 73 141c0 45 -19 82 -59 82c-41 0 -61 -36 -61 -89c0 -44 20 -87 47 -134z" />
    <glyph glyph-name="quotesingle" unicode="'" horiz-adv-x="157" 
d="M116 461h-78v289h97z" />
    <glyph glyph-name="parenleft" unicode="(" horiz-adv-x="266" 
d="M268 -182h-78c-94 167 -139 342 -139 517c0 176 44 348 139 516h78c-84 -166 -120 -342 -120 -516c0 -173 36 -351 120 -517z" />
    <glyph glyph-name="parenright" unicode=")" horiz-adv-x="266" 
d="M76 -182h-78c84 166 120 342 120 516c0 173 -36 351 -120 517h78c94 -167 139 -342 139 -517c0 -176 -44 -348 -139 -516z" />
    <glyph glyph-name="asterisk" unicode="*" horiz-adv-x="366" 
d="M315 429l-58 -43l-75 119l-73 -119l-58 43l96 122l-133 34l24 70l115 -50l-9 145h78l-9 -145l115 49l24 -69l-133 -34z" />
    <glyph glyph-name="plus" unicode="+" horiz-adv-x="494" 
d="M289 20h-84v240h-177v79h177v241h84v-241h177v-79h-177v-240z" />
    <glyph glyph-name="comma" unicode="," horiz-adv-x="188" 
d="M28 -165v38c58 23 70 66 70 106c0 17 -8 21 -21 21h-41v136h119v-127c0 -79 -29 -155 -127 -174z" />
    <glyph glyph-name="hyphen" unicode="-" horiz-adv-x="350" 
d="M322 350h-294v78h294v-78z" />
    <glyph glyph-name="period" unicode="." horiz-adv-x="188" 
d="M151 0h-114v136h114v-136z" />
    <glyph glyph-name="slash" unicode="/" horiz-adv-x="316" 
d="M90 -77h-82l218 881h82z" />
    <glyph glyph-name="zero" unicode="0" horiz-adv-x="482" 
d="M429 519v-288c0 -41 -3 -72 -11 -100c-25 -92 -95 -141 -177 -141s-152 49 -177 141c-8 28 -11 59 -11 100v288c0 40 3 72 11 100c25 92 95 141 177 141s152 -49 177 -141c8 -28 11 -60 11 -100zM331 235v280c0 39 -3 67 -10 88c-14 43 -42 62 -80 62s-66 -19 -80 -62
c-7 -21 -10 -49 -10 -88v-280c0 -39 3 -67 10 -88c14 -43 42 -62 80 -62s66 19 80 62c7 21 10 49 10 88z" />
    <glyph glyph-name="one" unicode="1" horiz-adv-x="310" 
d="M236 0h-98v614l-126 -132h-2v131l132 137h94v-750z" />
    <glyph glyph-name="two" unicode="2" horiz-adv-x="437" 
d="M399 0h-359v36c0 160 70 244 138 316l15 16c53 57 106 107 106 202c0 70 -33 96 -79 96c-48 0 -80 -30 -80 -119v-10h-97v10c0 137 73 213 177 213c98 0 177 -63 177 -190c0 -109 -68 -189 -141 -269l-10 -12c-41 -44 -97 -102 -103 -194h256v-95z" />
    <glyph glyph-name="three" unicode="3" horiz-adv-x="447" 
d="M188 354h-42v85h42c81 0 114 55 114 132c0 73 -37 98 -80 98c-51 0 -81 -35 -84 -102h-96c7 120 76 193 181 193c100 0 177 -63 177 -188c0 -62 -27 -125 -102 -173c87 -35 116 -123 116 -190c0 -136 -84 -219 -194 -219c-116 0 -186 79 -193 204h97
c6 -77 39 -110 95 -110c54 0 97 36 97 133c0 80 -38 137 -128 137z" />
    <glyph glyph-name="four" unicode="4" horiz-adv-x="454" 
d="M363 0h-94v196h-247v90l212 474h129v-478h81v-86h-81v-196zM269 282v367l-158 -367h158z" />
    <glyph glyph-name="five" unicode="5" horiz-adv-x="461" 
d="M418 281v-56c0 -37 -2 -63 -8 -87c-22 -94 -90 -148 -176 -148c-104 0 -181 86 -184 219h98c3 -84 38 -124 85 -124c38 0 68 19 80 65c5 18 7 44 7 80v43c0 34 -2 57 -5 74c-10 50 -35 66 -73 66c-35 0 -70 -25 -88 -60h-96v397h329v-95h-231v-203c32 38 74 53 104 53
c78 0 132 -42 151 -134c5 -23 7 -51 7 -90z" />
    <glyph glyph-name="six" unicode="6" horiz-adv-x="472" 
d="M330 235v10c0 32 -1 50 -3 65c-10 59 -37 84 -78 84c-52 0 -98 -55 -98 -144v-15c0 -39 3 -67 10 -88c14 -43 42 -62 80 -62c37 0 65 21 78 62c7 21 11 49 11 88zM428 255v-24c0 -41 -3 -72 -11 -100c-25 -92 -95 -141 -176 -141c-82 0 -152 49 -177 141
c-8 28 -11 59 -11 100v288c0 40 3 72 11 100c25 92 95 141 177 141c104 0 170 -70 184 -179h-100c-12 62 -50 83 -84 83c-38 0 -66 -19 -80 -62c-7 -21 -10 -49 -10 -88v-106c34 64 83 77 127 77c64 0 119 -38 140 -126c6 -27 10 -59 10 -104z" />
    <glyph glyph-name="seven" unicode="7" horiz-adv-x="399" 
d="M201 0h-105c17 202 97 441 183 655h-263v95h363v-89c-91 -228 -162 -440 -178 -661z" />
    <glyph glyph-name="eight" unicode="8" horiz-adv-x="464" 
d="M319 399c73 -37 110 -112 110 -189c0 -126 -74 -220 -197 -220s-197 94 -197 220c0 77 37 152 110 189c-64 44 -95 105 -95 172c0 122 76 189 182 189s182 -67 182 -189c0 -67 -31 -128 -95 -172zM232 73c60 0 99 51 99 139c0 67 -31 133 -99 133s-99 -66 -99 -133
c0 -88 39 -139 99 -139zM232 447c53 0 84 55 84 120c0 71 -33 110 -84 110s-84 -39 -84 -110c0 -65 31 -120 84 -120z" />
    <glyph glyph-name="nine" unicode="9" horiz-adv-x="472" 
d="M321 500v15c0 39 -3 67 -10 88c-14 43 -42 62 -80 62c-37 0 -65 -21 -78 -62c-7 -21 -11 -49 -11 -88v-10c0 -32 1 -50 3 -65c10 -59 37 -84 78 -84c52 0 98 55 98 144zM321 236v106c-34 -64 -83 -77 -127 -77c-64 0 -119 38 -140 126c-6 27 -10 59 -10 104v24
c0 41 3 72 11 100c25 92 95 141 176 141c82 0 152 -49 177 -141c8 -28 11 -59 11 -100v-288c0 -40 -3 -72 -11 -100c-25 -92 -95 -141 -177 -141c-104 0 -170 70 -184 179h100c12 -62 50 -83 84 -83c38 0 66 19 80 62c7 21 10 49 10 88z" />
    <glyph glyph-name="colon" unicode=":" horiz-adv-x="215" 
d="M164 0h-114v136h114v-136zM164 413h-114v136h114v-136z" />
    <glyph glyph-name="semicolon" unicode=";" horiz-adv-x="215" 
d="M166 413h-114v136h114v-136zM44 -165v38c58 23 70 66 70 106c0 17 -8 21 -21 21h-41v136h119v-127c0 -79 -29 -155 -127 -174z" />
    <glyph glyph-name="less" unicode="&#x3c;" 
d="M394 34l-358 222v90l358 222v-95l-289 -172l289 -172v-95z" />
    <glyph glyph-name="equal" unicode="=" horiz-adv-x="443" 
d="M403 371h-363v79h363v-79zM403 151h-363v79h363v-79z" />
    <glyph glyph-name="greater" unicode="&#x3e;" 
d="M394 256l-358 -222v95l289 172l-289 172v95l358 -222v-90z" />
    <glyph glyph-name="question" unicode="?" horiz-adv-x="390" 
d="M224 245h-89c-1 10 -1 22 -1 31c0 97 42 147 79 191c29 34 54 69 54 125s-31 82 -74 82c-50 0 -80 -42 -80 -112v-9h-91v9c0 127 71 198 170 198c102 0 171 -56 171 -165c0 -75 -37 -124 -72 -165c-34 -39 -73 -80 -67 -185zM236 0h-108v123h108v-123z" />
    <glyph glyph-name="at" unicode="@" horiz-adv-x="734" 
d="M429 241l10 101c4 40 4 139 -57 139c-43 0 -69 -38 -78 -133l-11 -108c-3 -37 -10 -132 48 -132c41 0 81 70 88 133zM506 -39l18 -50c-48 -35 -127 -61 -197 -61h-9c-211 0 -286 188 -266 372l15 137c30 272 164 391 323 391h10c170 0 291 -84 285 -354
c-4 -191 -64 -371 -165 -365c-49 3 -70 43 -79 99c-16 -56 -68 -96 -114 -96c-107 0 -127 110 -117 199l13 114c15 139 71 209 153 209c38 0 77 -23 93 -76l17 63h56l-38 -362c-3 -31 -8 -93 23 -97c51 -6 97 153 101 312c6 232 -82 304 -228 304h-10
c-134 0 -240 -106 -264 -339l-14 -137c-16 -138 22 -320 210 -320h9c58 0 126 22 175 57z" />
    <glyph glyph-name="A" unicode="A" horiz-adv-x="460" 
d="M295 317l-63 315h-4l-63 -315h130zM454 0h-98l-44 225h-164l-44 -225h-98l157 750h134z" />
    <glyph glyph-name="B" unicode="B" horiz-adv-x="485" 
d="M235 0h-171v750h151c39 0 69 -4 93 -10c79 -21 123 -81 123 -176c0 -69 -29 -130 -97 -171c86 -40 116 -111 116 -179c0 -117 -65 -198 -174 -212c-9 -1 -24 -2 -41 -2zM162 93h73c18 0 32 2 40 4c50 14 77 60 77 119c0 56 -24 99 -70 116c-12 5 -30 7 -53 7h-67v-246z
M162 430h58c21 0 39 3 51 8c40 15 64 53 64 114c0 52 -22 83 -59 97c-12 5 -32 8 -54 8h-60v-227z" />
    <glyph glyph-name="C" unicode="C" horiz-adv-x="472" 
d="M248 -10h-4c-107 0 -167 72 -184 167c-5 28 -7 60 -7 88v260c0 28 2 60 7 88c17 95 77 167 184 167h4c106 0 166 -71 184 -168c4 -23 7 -48 8 -73h-98s-1 30 -5 53c-8 47 -33 93 -89 93h-4c-53 0 -79 -46 -88 -93c-4 -22 -5 -51 -5 -70v-254c0 -19 1 -48 5 -70
c9 -47 35 -93 88 -93h4c56 0 81 45 89 93c3 18 5 41 5 58h98c-1 -27 -3 -52 -8 -78c-18 -97 -78 -168 -184 -168z" />
    <glyph glyph-name="D" unicode="D" horiz-adv-x="498" 
d="M347 257v236c0 19 -1 47 -5 70c-5 35 -24 71 -64 85c-12 4 -29 7 -53 7h-63v-560h63c24 0 41 3 53 7c40 14 59 50 64 85c4 23 5 51 5 70zM223 0h-159v750h159c26 0 48 -2 65 -5c90 -19 134 -83 149 -163c5 -28 8 -56 8 -87v-240c0 -31 -3 -59 -8 -87
c-15 -80 -59 -144 -149 -163c-17 -3 -39 -5 -65 -5z" />
    <glyph glyph-name="E" unicode="E" horiz-adv-x="441" 
d="M413 0h-349v750h349v-95h-251v-222h208v-95h-208v-243h251v-95z" />
    <glyph glyph-name="F" unicode="F" horiz-adv-x="436" 
d="M162 0h-98v750h349v-95h-251v-222h208v-95h-208v-338z" />
    <glyph glyph-name="G" unicode="G" horiz-adv-x="495" 
d="M440 0h-51l-20 84c-30 -67 -75 -94 -133 -94c-105 0 -163 77 -179 184c-3 22 -4 49 -4 71v260c0 28 2 60 7 88c17 95 77 167 184 167h4c106 0 166 -71 184 -168c4 -23 7 -48 8 -73h-98s-1 30 -5 53c-8 47 -33 93 -89 93h-4c-53 0 -79 -46 -88 -93c-4 -22 -5 -51 -5 -70
v-254c0 -19 1 -48 5 -70c9 -47 34 -94 88 -94h4c58 0 83 46 91 94c3 22 5 49 5 71v44h-103v90h199v-383z" />
    <glyph glyph-name="H" unicode="H" horiz-adv-x="524" 
d="M460 0h-98v343h-200v-343h-98v750h98v-312h200v312h98v-750z" />
    <glyph glyph-name="I" unicode="I" horiz-adv-x="226" 
d="M162 0h-98v750h98v-750z" />
    <glyph glyph-name="J" unicode="J" horiz-adv-x="436" 
d="M278 214v536h98v-538c0 -24 -1 -42 -3 -58c-13 -92 -68 -164 -168 -164c-96 0 -154 65 -168 160c-2 16 -4 36 -4 63v50h98v-49c0 -25 2 -40 4 -54c7 -45 32 -75 70 -75c37 0 61 26 69 73c2 12 4 29 4 56z" />
    <glyph glyph-name="K" unicode="K" horiz-adv-x="480" 
d="M487 0h-107l-149 371l-69 -113v-258h-98v750h98v-336l1 -1s19 35 28 49l172 288h107l-178 -285z" />
    <glyph glyph-name="L" unicode="L" horiz-adv-x="434" 
d="M416 0h-352v750h98v-655h254v-95z" />
    <glyph glyph-name="M" unicode="M" horiz-adv-x="622" 
d="M558 0h-92v496c0 25 1 58 1 58h-1l-119 -415h-72l-119 415h-1s1 -33 1 -58v-496h-92v750h119l128 -446l128 446h119v-750z" />
    <glyph glyph-name="N" unicode="N" horiz-adv-x="523" 
d="M459 0h-113l-190 546h-1s1 -33 1 -58v-488h-92v750h113l190 -546h1s-1 33 -1 58v488h92v-750z" />
    <glyph glyph-name="O" unicode="O" horiz-adv-x="493" 
d="M244 85h5c54 0 79 46 88 93c4 22 5 51 5 70v254c0 19 -1 48 -5 70c-9 47 -34 93 -88 93h-5c-54 0 -79 -46 -88 -93c-4 -22 -5 -51 -5 -70v-254c0 -19 1 -48 5 -70c9 -47 34 -93 88 -93zM249 -10h-5c-109 0 -167 73 -184 168c-5 28 -7 61 -7 89v256c0 28 2 61 7 89
c17 95 75 168 184 168h5c109 0 167 -73 184 -168c5 -28 7 -61 7 -89v-256c0 -28 -2 -61 -7 -89c-17 -95 -75 -168 -184 -168z" />
    <glyph glyph-name="P" unicode="P" horiz-adv-x="481" 
d="M162 388h64c23 0 39 3 51 8c51 21 73 71 73 125c0 49 -19 108 -72 128c-12 5 -27 8 -52 8h-64v-269zM162 0h-98v750h163c32 0 54 -3 75 -8c94 -24 146 -111 146 -221c0 -104 -50 -196 -155 -220c-18 -4 -37 -6 -65 -6h-66v-295z" />
    <glyph glyph-name="Q" unicode="Q" horiz-adv-x="495" 
d="M492 -3v-84c-105 6 -167 27 -219 78c-8 -1 -16 -1 -24 -1h-5c-109 0 -167 73 -184 168c-5 28 -7 61 -7 89v256c0 28 2 61 7 89c17 95 75 168 184 168h5c109 0 167 -73 184 -168c5 -28 7 -61 7 -89v-256c0 -28 -2 -61 -7 -89c-10 -56 -35 -105 -75 -135
c42 -18 86 -24 134 -26zM244 85h5c54 0 79 46 88 93c4 22 5 51 5 70v254c0 19 -1 48 -5 70c-9 47 -34 93 -88 93h-5c-54 0 -79 -46 -88 -93c-4 -22 -5 -51 -5 -70v-254c0 -19 1 -48 5 -70c9 -47 34 -93 88 -93z" />
    <glyph glyph-name="R" unicode="R" horiz-adv-x="469" 
d="M455 0h-99c-12 17 -18 50 -20 83l-8 136c-4 59 -21 91 -59 103c-11 3 -25 5 -51 5h-56v-327h-98v750h151c25 0 48 -1 67 -5c92 -18 151 -79 151 -189c0 -72 -38 -146 -115 -178v-1c70 -18 103 -75 107 -146l8 -141c2 -37 8 -66 22 -88v-2zM162 420h52c21 0 35 1 47 4
c50 14 74 62 74 124s-31 93 -76 104c-12 3 -30 5 -48 5h-49v-237z" />
    <glyph glyph-name="S" unicode="S" horiz-adv-x="460" 
d="M223 338l-31 16c-79 42 -142 89 -142 212c0 124 79 194 182 194c107 0 188 -70 187 -211h-97c-2 73 -31 123 -90 123c-64 0 -85 -51 -85 -104c0 -68 33 -101 85 -126l36 -18c89 -43 157 -106 157 -225c0 -128 -82 -209 -194 -209c-118 0 -195 92 -197 215h98
c-1 -81 46 -127 100 -127c56 0 96 44 96 123c0 69 -38 103 -105 137z" />
    <glyph glyph-name="T" unicode="T" horiz-adv-x="432" 
d="M265 0h-98v655h-155v95h408v-95h-155v-655z" />
    <glyph glyph-name="U" unicode="U" horiz-adv-x="507" 
d="M256 -10h-5c-109 0 -167 73 -184 168c-5 28 -7 61 -7 89v503h98v-502c0 -19 1 -48 5 -70c9 -47 34 -93 88 -93h5c54 0 79 46 88 93c4 22 5 51 5 70v502h98v-503c0 -28 -2 -61 -7 -89c-17 -95 -75 -168 -184 -168z" />
    <glyph glyph-name="V" unicode="V" horiz-adv-x="447" 
d="M282 0h-117l-163 750h98l121 -617h5l121 617h98z" />
    <glyph glyph-name="W" unicode="W" horiz-adv-x="681" 
d="M553 0h-125l-86 569h-3l-86 -569h-125l-114 750h102l76 -602h3l88 602h115l88 -602h3l76 602h102z" />
    <glyph glyph-name="X" unicode="X" horiz-adv-x="439" 
d="M439 0h-104l-115 287l-114 -287h-106l170 391l-151 359h105l96 -252l97 252h105l-151 -359z" />
    <glyph glyph-name="Y" unicode="Y" horiz-adv-x="440" 
d="M269 0h-98v328l-176 422h105l120 -314l120 314h105l-176 -422v-328z" />
    <glyph glyph-name="Z" unicode="Z" horiz-adv-x="454" 
d="M421 0h-391v88l275 567h-265v95h376v-87l-275 -568h280v-95z" />
    <glyph glyph-name="bracketleft" unicode="[" horiz-adv-x="310" 
d="M300 -190h-227v1049h227v-67h-135v-915h135v-67z" />
    <glyph glyph-name="backslash" unicode="\" horiz-adv-x="316" 
d="M308 -77h-82l-218 881h82z" />
    <glyph glyph-name="bracketright" unicode="]" horiz-adv-x="310" 
d="M237 -190h-227v67h135v915h-135v67h227v-1049z" />
    <glyph glyph-name="asciicircum" unicode="^" horiz-adv-x="368" 
d="M350 405h-80l-86 280l-86 -280h-80l120 355h92z" />
    <glyph glyph-name="underscore" unicode="_" horiz-adv-x="362" 
d="M364 -133h-366v64h366v-64z" />
    <glyph glyph-name="grave" unicode="`" horiz-adv-x="438" 
d="M274 657h-63l-122 167v5h103z" />
    <glyph glyph-name="a" unicode="a" horiz-adv-x="435" 
d="M377 0h-61l-11 81c-28 -65 -70 -91 -128 -91c-77 0 -139 62 -139 182c0 91 47 155 137 170c14 2 31 4 57 4h51v20c0 38 -2 75 -20 99c-11 14 -27 23 -47 23c-32 0 -57 -22 -67 -63h-90c16 88 76 145 161 145c47 0 86 -16 112 -47c39 -48 45 -114 45 -183v-340zM284 244
v26h-55c-23 0 -39 -3 -50 -8c-31 -15 -48 -44 -48 -90c0 -64 22 -97 68 -97c44 0 67 42 78 92c5 21 7 46 7 77z" />
    <glyph glyph-name="b" unicode="b" horiz-adv-x="456" 
d="M121 0h-60v785h95v-232c0 -25 -1 -50 -1 -50h1c20 40 62 67 110 67c82 0 127 -58 141 -137c5 -26 6 -54 6 -91v-124c0 -37 -1 -65 -6 -91c-14 -79 -59 -137 -143 -137c-56 0 -107 26 -134 84zM318 216v128c0 12 -2 41 -4 57c-5 39 -23 80 -69 80c-43 0 -69 -35 -80 -75
c-5 -20 -9 -42 -9 -80v-92c0 -38 4 -60 9 -80c11 -40 37 -75 80 -75c46 0 64 41 69 80c2 16 4 45 4 57z" />
    <glyph glyph-name="c" unicode="c" horiz-adv-x="416" 
d="M289 166h95c-12 -98 -71 -176 -169 -176c-97 0 -153 65 -167 161c-3 20 -5 42 -5 74v110c0 32 2 54 5 74c14 96 70 161 167 161s157 -65 170 -186h-95c-2 47 -24 98 -75 98c-40 0 -65 -29 -73 -78c-3 -17 -4 -39 -4 -71v-106c0 -32 1 -54 4 -71c8 -49 33 -78 73 -78
c47 0 69 48 74 88z" />
    <glyph glyph-name="d" unicode="d" horiz-adv-x="456" 
d="M300 234v92c0 38 -4 60 -9 80c-11 40 -37 75 -80 75c-46 0 -64 -41 -69 -80c-2 -16 -4 -45 -4 -57v-128c0 -12 2 -41 4 -57c5 -39 23 -80 69 -80c43 0 69 35 80 75c5 20 9 42 9 80zM395 0h-60l-10 88c-27 -68 -78 -98 -135 -98c-82 0 -127 58 -141 137c-5 26 -6 54 -6 91
v124c0 37 1 65 6 91c14 79 59 137 141 137c48 0 89 -26 110 -64h1s-1 25 -1 50v229h95v-785z" />
    <glyph glyph-name="e" unicode="e" 
d="M290 152h93c-17 -100 -73 -162 -167 -162c-97 0 -154 65 -168 160c-3 21 -5 43 -5 75v110c0 32 2 54 5 74c14 96 71 161 168 161c98 0 153 -67 166 -161c4 -30 6 -53 6 -105v-44h-250v-36c0 -32 1 -54 4 -72c9 -46 35 -77 74 -77c43 0 67 39 74 77zM138 338h154
c0 22 0 45 -5 69c-10 46 -33 78 -72 78c-40 0 -65 -30 -73 -78c-3 -17 -4 -34 -4 -69z" />
    <glyph glyph-name="f" unicode="f" horiz-adv-x="285" 
d="M175 0h-95v472h-68v88h68v46c0 130 65 190 162 190c17 0 31 -1 45 -3v-89c-12 2 -21 3 -33 3c-54 0 -79 -27 -79 -104v-43h100v-88h-101s1 -45 1 -71v-401z" />
    <glyph glyph-name="g" unicode="g" horiz-adv-x="456" 
d="M300 -12v29c0 25 1 50 1 50h-1c-20 -40 -62 -67 -110 -67c-82 0 -127 58 -141 137c-5 26 -6 54 -6 91v114c0 37 1 65 6 91c14 79 59 137 143 137c56 0 107 -26 134 -84l9 74h60v-571c0 -36 -3 -62 -8 -86c-20 -86 -79 -141 -164 -141c-86 0 -155 50 -169 161h94
c11 -53 43 -76 75 -76c41 0 66 29 74 85c2 13 3 32 3 56zM300 244v82c0 38 -4 60 -9 80c-11 40 -37 75 -80 75c-46 0 -64 -41 -69 -80c-2 -16 -4 -45 -4 -57v-118c0 -12 2 -41 4 -57c5 -39 23 -80 69 -80c43 0 69 35 80 75c5 20 9 42 9 80z" />
    <glyph glyph-name="h" unicode="h" horiz-adv-x="471" 
d="M413 0h-95v344c0 17 -1 39 -4 57c-6 39 -23 80 -69 80c-43 0 -69 -35 -80 -75c-5 -20 -9 -42 -9 -80v-326h-95v785h95v-232c0 -25 -1 -50 -1 -50h1c20 40 62 67 110 67c82 0 127 -58 141 -137c5 -26 6 -54 6 -91v-342z" />
    <glyph glyph-name="i" unicode="i" horiz-adv-x="217" 
d="M156 0h-95v560h95v-560zM158 657h-99v108h99v-108z" />
    <glyph glyph-name="j" unicode="j" horiz-adv-x="220" 
d="M161 657h-99v108h99v-108zM-47 -235v89c8 -1 19 -2 33 -2c54 0 78 27 78 104v604h95v-607c0 -130 -64 -190 -162 -190c-19 0 -32 1 -44 2z" />
    <glyph glyph-name="k" unicode="k" horiz-adv-x="427" 
d="M427 0h-107l-116 285l-48 -66v-219h-95v785h95v-436l145 211h109l-142 -194z" />
    <glyph glyph-name="l" unicode="l" horiz-adv-x="217" 
d="M156 0h-95v785h95v-785z" />
    <glyph glyph-name="m" unicode="m" horiz-adv-x="684" 
d="M626 0h-95v348c0 28 0 52 -4 72c-7 32 -24 61 -59 61c-43 0 -64 -39 -73 -84c-3 -17 -4 -42 -4 -65v-332h-95v348c0 28 0 52 -4 72c-7 32 -24 61 -60 61c-42 0 -64 -39 -72 -84c-3 -17 -4 -42 -4 -65v-332h-95v560h60l9 -77c28 61 78 87 122 87c57 0 98 -31 118 -77
c29 54 76 77 118 77c66 0 110 -41 126 -98c10 -34 12 -74 12 -121v-351z" />
    <glyph glyph-name="n" unicode="n" horiz-adv-x="471" 
d="M413 0h-95v344c0 17 -1 39 -4 57c-6 39 -23 80 -69 80c-43 0 -69 -35 -80 -75c-5 -20 -9 -42 -9 -80v-326h-95v560h60l10 -88c27 68 78 98 135 98c82 0 127 -58 141 -137c5 -26 6 -54 6 -91v-342z" />
    <glyph glyph-name="o" unicode="o" 
d="M387 335v-110c0 -32 -2 -54 -5 -74c-14 -96 -70 -161 -167 -161s-153 65 -167 161c-3 20 -5 42 -5 74v110c0 32 2 54 5 74c14 96 70 161 167 161s153 -65 167 -161c3 -20 5 -42 5 -74zM292 227v106c0 32 -1 54 -4 71c-8 49 -33 78 -73 78s-65 -29 -73 -78
c-3 -17 -4 -39 -4 -71v-106c0 -32 1 -54 4 -71c8 -49 33 -78 73 -78s65 29 73 78c3 17 4 39 4 71z" />
    <glyph glyph-name="p" unicode="p" horiz-adv-x="456" 
d="M318 216v128c0 12 -2 41 -4 57c-5 39 -23 80 -69 80c-43 0 -69 -35 -80 -75c-5 -20 -9 -42 -9 -80v-92c0 -38 4 -60 9 -80c11 -40 37 -75 80 -75c46 0 64 41 69 80c2 16 4 45 4 57zM156 -244h-95v804h60l10 -88c27 68 78 98 135 98c82 0 127 -58 141 -137
c5 -26 6 -54 6 -91v-124c0 -37 -1 -65 -6 -91c-14 -79 -59 -137 -141 -137c-48 0 -90 27 -110 64h-1s1 -25 1 -50v-248z" />
    <glyph glyph-name="q" unicode="q" horiz-adv-x="456" 
d="M395 -244h-95v251c0 25 1 50 1 50h-1c-20 -40 -62 -67 -110 -67c-82 0 -127 58 -141 137c-5 26 -6 54 -6 91v124c0 37 1 65 6 91c14 79 59 137 143 137c56 0 107 -26 134 -84l9 74h60v-804zM300 234v92c0 38 -4 60 -9 80c-11 40 -37 75 -80 75c-46 0 -64 -41 -69 -80
c-2 -16 -4 -45 -4 -57v-128c0 -12 2 -41 4 -57c5 -39 23 -80 69 -80c43 0 69 35 80 75c5 20 9 42 9 80z" />
    <glyph glyph-name="r" unicode="r" horiz-adv-x="338" 
d="M156 0h-95v560h60l10 -92c29 73 84 102 142 102c18 0 39 -3 54 -7l-2 -92c-19 6 -38 10 -60 10c-66 0 -96 -56 -105 -124c-3 -27 -4 -58 -4 -91v-266z" />
    <glyph glyph-name="s" unicode="s" horiz-adv-x="383" 
d="M345 426h-90c-7 46 -29 68 -66 68c-42 0 -63 -27 -63 -70c0 -45 26 -69 82 -94c75 -33 145 -83 145 -177c0 -102 -62 -163 -156 -163c-100 0 -161 63 -171 162h90c7 -52 35 -85 80 -85c42 0 68 33 68 83c0 54 -32 78 -95 105c-86 37 -131 83 -131 163
c0 93 58 152 151 152c88 0 143 -47 156 -144z" />
    <glyph glyph-name="t" unicode="t" horiz-adv-x="298" 
d="M278 86v-86c-15 -2 -26 -2 -36 -2c-89 0 -137 39 -154 126c-4 23 -6 55 -6 88v260h-70v88h70v140h95v-140h100v-88h-100v-257c0 -34 2 -53 5 -69c10 -48 32 -61 77 -61c7 0 10 0 19 1z" />
    <glyph glyph-name="u" unicode="u" horiz-adv-x="471" 
d="M410 0h-60l-10 88c-27 -68 -78 -98 -135 -98c-82 0 -127 58 -141 137c-5 26 -6 54 -6 91v342h95v-344c0 -17 1 -39 4 -57c6 -39 23 -80 69 -80c43 0 69 35 80 75c5 20 9 42 9 80v326h95v-560z" />
    <glyph glyph-name="v" unicode="v" horiz-adv-x="379" 
d="M242 0h-105l-135 560h94l92 -432h3l92 432h94z" />
    <glyph glyph-name="w" unicode="w" horiz-adv-x="577" 
d="M464 0h-101l-73 405h-3l-73 -405h-101l-106 560h94l66 -418h3l74 418h89l74 -418h3l66 418h94z" />
    <glyph glyph-name="x" unicode="x" horiz-adv-x="382" 
d="M379 0h-98l-90 210l-90 -210h-98l139 293l-128 267h99l78 -184l76 184h99l-127 -267z" />
    <glyph glyph-name="y" unicode="y" horiz-adv-x="396" 
d="M2 -207v86c13 -3 28 -6 46 -6c41 0 72 21 90 87l19 69l-149 531h95l99 -386h3l94 386h95l-158 -582c-37 -134 -89 -194 -171 -194c-27 0 -45 4 -63 9z" />
    <glyph glyph-name="z" unicode="z" horiz-adv-x="396" 
d="M370 0h-343v77l224 395h-215v88h322v-79l-222 -393h234v-88z" />
    <glyph glyph-name="braceleft" unicode="{" horiz-adv-x="344" 
d="M334 -190h-60c-115 0 -182 57 -172 165l16 173c6 64 5 151 -78 151h-20v70h20c83 0 84 87 78 151l-16 173c-10 108 57 165 172 165h60v-66h-47c-65 0 -99 -32 -92 -100l16 -159c8 -79 -5 -160 -88 -199c83 -39 96 -120 88 -199l-16 -159c-7 -68 27 -100 92 -100h47v-66z
" />
    <glyph glyph-name="bar" unicode="|" horiz-adv-x="283" 
d="M185 -190h-87v1049h87v-1049z" />
    <glyph glyph-name="braceright" unicode="}" horiz-adv-x="344" 
d="M70 -190h-60v66h47c65 0 99 32 92 100l-16 159c-8 79 5 160 88 199c-83 39 -96 120 -88 199l16 159c7 68 -27 100 -92 100h-47v66h60c115 0 182 -57 172 -165l-16 -173c-6 -64 -5 -151 78 -151h20v-70h-20c-83 0 -84 -87 -78 -151l16 -173c10 -108 -57 -165 -172 -165z
" />
    <glyph glyph-name="asciitilde" unicode="~" horiz-adv-x="433" 
d="M346 473h57c-8 -94 -44 -156 -110 -156c-30 0 -54 13 -79 40c-36 38 -54 56 -77 56c-25 0 -43 -18 -50 -79h-57c8 94 44 156 110 156c30 0 54 -13 79 -40c36 -38 54 -56 77 -56c25 0 43 18 50 79z" />
    <glyph glyph-name="uni00A0" unicode="&#xa0;" horiz-adv-x="175" 
 />
    <glyph glyph-name="exclamdown" unicode="&#xa1;" horiz-adv-x="216" 
d="M161 -190h-106l13 514h80zM162 437h-108v123h108v-123z" />
    <glyph glyph-name="cent" unicode="&#xa2;" horiz-adv-x="419" 
d="M239 -70h-42v101c-85 8 -134 71 -147 160c-3 20 -5 42 -5 74v110c0 32 2 54 5 74c13 89 62 151 147 160v92h42v-92c84 -10 136 -74 148 -185h-95c-2 39 -18 81 -53 94v-396c32 12 48 51 52 84h95c-11 -91 -62 -164 -147 -175v-101zM197 120v399c-29 -8 -47 -35 -53 -75
c-3 -17 -4 -39 -4 -71v-106c0 -32 1 -54 4 -71c6 -40 24 -67 53 -76z" />
    <glyph glyph-name="sterling" unicode="&#xa3;" horiz-adv-x="463" 
d="M271 0h-233v83c41 6 53 38 53 124v140h-63v57h63v147c0 138 65 209 165 209c92 0 157 -66 165 -194h-90c-6 85 -35 110 -74 110c-45 0 -74 -36 -74 -123v-149h143v-57h-143v-135c0 -69 -8 -102 -47 -128v-2h133c54 0 78 13 85 93h86c-3 -145 -68 -175 -169 -175z" />
    <glyph glyph-name="yen" unicode="&#xa5;" horiz-adv-x="463" 
d="M278 0h-93v185h-153v57h153v111h-153v57h139l-151 340h99l112 -277l113 277h99l-151 -340h139v-57h-153v-111h153v-57h-153v-185z" />
    <glyph glyph-name="brokenbar" unicode="&#xa6;" horiz-adv-x="283" 
d="M185 -190h-87v449h87v-449zM185 410h-87v449h87v-449z" />
    <glyph glyph-name="section" unicode="&#xa7;" horiz-adv-x="417" 
d="M196 149l-34 16c-69 33 -126 76 -126 159c0 54 32 102 90 141c-54 38 -74 87 -74 140c0 97 73 145 151 145c76 0 143 -42 156 -143h-84c-8 49 -37 71 -71 71c-40 0 -69 -26 -69 -74c0 -50 28 -81 84 -108l37 -18c69 -33 126 -76 126 -159c0 -52 -32 -102 -89 -140
c51 -38 74 -89 74 -140c0 -101 -68 -158 -156 -158c-92 0 -159 51 -171 158h84c8 -63 43 -87 82 -87c40 0 77 25 77 82c0 60 -36 91 -87 115zM192 234l45 -21c36 21 66 55 66 100c0 46 -30 75 -77 96l-45 20c-36 -21 -66 -54 -66 -99c0 -46 32 -75 77 -96z" />
    <glyph glyph-name="dieresis" unicode="&#xa8;" horiz-adv-x="438" 
d="M179 674h-94v105h94v-105zM353 674h-94v105h94v-105z" />
    <glyph glyph-name="copyright" unicode="&#xa9;" horiz-adv-x="858" 
d="M514 252c6 13 9 30 9 51h66c-1 -29 -6 -53 -12 -69c-22 -60 -82 -93 -142 -93h-7c-59 0 -117 36 -142 92c-8 20 -12 43 -12 74v138c0 31 4 53 12 73c25 56 83 93 142 93h7c61 0 120 -34 142 -93c7 -17 11 -37 12 -65h-66c-1 19 -5 36 -9 47c-14 33 -48 48 -79 48h-7
c-31 0 -63 -15 -78 -47c-8 -17 -10 -34 -10 -56v-138c0 -22 2 -39 10 -56c15 -32 47 -47 78 -47h7c31 0 65 15 79 48zM60 375c0 213 146 385 369 385s369 -172 369 -385s-146 -385 -369 -385s-369 172 -369 385zM111 375c0 -185 123 -336 318 -336s318 151 318 336
s-123 336 -318 336s-318 -151 -318 -336z" />
    <glyph glyph-name="ordfeminine" unicode="&#xaa;" horiz-adv-x="260" 
d="M226 418h-37l-7 46c-18 -40 -47 -52 -78 -52c-46 0 -84 37 -84 110c0 50 30 89 81 100c9 2 21 3 37 3h29v18c0 11 -1 20 -2 30c-3 24 -17 37 -37 37c-21 0 -36 -13 -40 -37h-55c10 55 47 87 97 87c58 0 87 -37 93 -86c2 -15 3 -40 3 -55v-201zM168 561v18h-31
c-14 0 -23 -2 -29 -5c-19 -9 -31 -27 -31 -54c0 -38 14 -57 40 -57c28 0 42 24 47 53c2 13 4 27 4 45z" />
    <glyph glyph-name="guillemotleft" unicode="&#xab;" horiz-adv-x="432" 
d="M204 53l-184 258l184 258v-121l-98 -137l98 -137v-121zM394 53l-184 258l184 258v-121l-98 -137l98 -137v-121z" />
    <glyph glyph-name="logicalnot" unicode="&#xac;" horiz-adv-x="490" 
d="M450 0h-410v750h410v-750zM415 62v626l-150 -312zM75 62l150 314l-150 311v-625zM245 412l145 302h-290zM390 36l-145 302l-145 -302h290z" />
    <glyph glyph-name="registered" unicode="&#xae;" horiz-adv-x="466" 
d="M36 583c0 111 81 202 197 202s197 -91 197 -202s-81 -202 -197 -202s-197 91 -197 202zM66 583c0 -95 67 -174 167 -174s167 79 167 174s-67 174 -167 174s-167 -79 -167 -174zM329 469h-44l-48 96h-38v-96h-39v233h79c46 0 82 -22 82 -66c0 -33 -17 -56 -46 -65z
M239 667h-41v-67h45c20 0 37 12 37 36c0 22 -17 31 -41 31z" />
    <glyph glyph-name="macron" unicode="&#xaf;" horiz-adv-x="438" 
d="M348 675h-258v62h258v-62z" />
    <glyph glyph-name="degree" unicode="&#xb0;" horiz-adv-x="246" 
d="M123 582c31 0 49 28 49 66s-18 66 -49 66s-49 -28 -49 -66s18 -66 49 -66zM123 536c-61 0 -95 49 -95 112s34 112 95 112s95 -49 95 -112s-34 -112 -95 -112z" />
    <glyph glyph-name="plusminus" unicode="&#xb1;" horiz-adv-x="509" 
d="M296 160h-84v230h-177v79h177v231h84v-231h178v-79h-178v-230zM474 -3h-439v79h439v-79z" />
    <glyph glyph-name="twosuperior" unicode="&#xb2;" horiz-adv-x="490" 
d="M450 0h-410v750h410v-750zM415 62v626l-150 -312zM75 62l150 314l-150 311v-625zM245 412l145 302h-290zM390 36l-145 302l-145 -302h290z" />
    <glyph glyph-name="threesuperior" unicode="&#xb3;" horiz-adv-x="490" 
d="M450 0h-410v750h410v-750zM415 62v626l-150 -312zM75 62l150 314l-150 311v-625zM245 412l145 302h-290zM390 36l-145 302l-145 -302h290z" />
    <glyph glyph-name="acute" unicode="&#xb4;" horiz-adv-x="438" 
d="M208 657h-64l82 172h104v-7z" />
    <glyph glyph-name="mu" unicode="&#xb5;" horiz-adv-x="474" 
d="M413 0h-60l-9 76c-32 -58 -72 -86 -121 -86c-39 0 -61 23 -74 39c1 -16 4 -69 4 -88v-185h-92v804h95v-344c0 -12 2 -41 4 -57c5 -39 23 -80 69 -80c43 0 69 35 80 75c5 20 9 42 9 80v326h95v-560z" />
    <glyph glyph-name="mu" unicode="&#x3bc;" horiz-adv-x="474" 
d="M413 0h-60l-9 76c-32 -58 -72 -86 -121 -86c-39 0 -61 23 -74 39c1 -16 4 -69 4 -88v-185h-92v804h95v-344c0 -12 2 -41 4 -57c5 -39 23 -80 69 -80c43 0 69 35 80 75c5 20 9 42 9 80v326h95v-560z" />
    <glyph glyph-name="paragraph" unicode="&#xb6;" horiz-adv-x="507" 
d="M437 -175h-71v869h-85v-869h-73v538c-92 2 -165 88 -165 192c0 108 71 195 179 195h215v-925z" />
    <glyph glyph-name="periodcentered" unicode="&#xb7;" horiz-adv-x="192" 
d="M153 327h-114v136h114v-136z" />
    <glyph glyph-name="cedilla" unicode="&#xb8;" horiz-adv-x="438" 
d="M200 -87l-23 7c-11 3 -15 9 -10 23l29 83l42 -6l-18 -66c49 -14 91 -47 91 -99c0 -56 -39 -90 -86 -90c-50 0 -86 33 -91 82h46c5 -22 20 -37 42 -37c24 0 38 18 38 44c0 28 -22 47 -60 59z" />
    <glyph glyph-name="onesuperior" unicode="&#xb9;" horiz-adv-x="490" 
d="M450 0h-410v750h410v-750zM415 62v626l-150 -312zM75 62l150 314l-150 311v-625zM245 412l145 302h-290zM390 36l-145 302l-145 -302h290z" />
    <glyph glyph-name="ordmasculine" unicode="&#xba;" horiz-adv-x="259" 
d="M172 552v68c0 20 -1 32 -2 42c-4 29 -20 46 -44 46s-40 -17 -44 -46c-1 -10 -2 -22 -2 -42v-68c0 -20 1 -32 2 -42c4 -29 20 -46 44 -46s40 17 44 46c1 10 2 22 2 42zM229 621v-70c0 -19 -1 -32 -3 -45c-9 -57 -41 -94 -100 -94s-91 37 -100 94c-2 13 -3 26 -3 45v70
c0 19 1 32 3 45c9 57 41 94 100 94s91 -37 100 -94c2 -13 3 -26 3 -45z" />
    <glyph glyph-name="guillemotright" unicode="&#xbb;" horiz-adv-x="432" 
d="M228 53v121l98 137l-98 137v121l184 -258zM38 53v121l98 137l-98 137v121l184 -258z" />
    <glyph glyph-name="onequarter" unicode="&#xbc;" horiz-adv-x="490" 
d="M450 0h-410v750h410v-750zM415 62v626l-150 -312zM75 62l150 314l-150 311v-625zM245 412l145 302h-290zM390 36l-145 302l-145 -302h290z" />
    <glyph glyph-name="onehalf" unicode="&#xbd;" horiz-adv-x="490" 
d="M450 0h-410v750h410v-750zM415 62v626l-150 -312zM75 62l150 314l-150 311v-625zM245 412l145 302h-290zM390 36l-145 302l-145 -302h290z" />
    <glyph glyph-name="threequarters" unicode="&#xbe;" horiz-adv-x="490" 
d="M450 0h-410v750h410v-750zM415 62v626l-150 -312zM75 62l150 314l-150 311v-625zM245 412l145 302h-290zM390 36l-145 302l-145 -302h290z" />
    <glyph glyph-name="questiondown" unicode="&#xbf;" horiz-adv-x="390" 
d="M368 7v-9c0 -127 -71 -198 -170 -198c-102 0 -171 56 -171 165c0 75 37 124 72 165c34 39 73 80 67 185h89c1 -10 1 -22 1 -31c0 -97 -42 -147 -79 -191c-29 -34 -54 -69 -54 -125s31 -82 74 -82c50 0 80 42 80 112v9h91zM262 437h-108v123h108v-123z" />
    <glyph glyph-name="Agrave" unicode="&#xc0;" horiz-adv-x="460" 
d="M295 317l-63 315h-4l-63 -315h130zM454 0h-98l-44 225h-164l-44 -225h-98l157 750h134zM278 807h-63l-122 167v5h103z" />
    <glyph glyph-name="Aacute" unicode="&#xc1;" horiz-adv-x="460" 
d="M295 317l-63 315h-4l-63 -315h130zM454 0h-98l-44 225h-164l-44 -225h-98l157 750h134zM239 807h-64l82 172h104v-7z" />
    <glyph glyph-name="Acircumflex" unicode="&#xc2;" horiz-adv-x="460" 
d="M295 317l-63 315h-4l-63 -315h130zM454 0h-98l-44 225h-164l-44 -225h-98l157 750h134zM378 808h-70l-78 126l-78 -126h-70l109 186h78z" />
    <glyph glyph-name="Atilde" unicode="&#xc3;" horiz-adv-x="460" 
d="M295 317l-63 315h-4l-63 -315h130zM454 0h-98l-44 225h-164l-44 -225h-98l157 750h134zM346 936h52c-6 -78 -40 -131 -96 -131c-27 0 -50 12 -72 35c-33 35 -42 43 -63 43c-19 0 -36 -16 -41 -64h-52c7 77 40 130 96 130c27 0 50 -12 72 -35c33 -34 42 -43 64 -43
c18 0 36 17 40 65z" />
    <glyph glyph-name="Adieresis" unicode="&#xc4;" horiz-adv-x="460" 
d="M295 317l-63 315h-4l-63 -315h130zM454 0h-98l-44 225h-164l-44 -225h-98l157 750h134zM190 824h-94v105h94v-105zM364 824h-94v105h94v-105z" />
    <glyph glyph-name="Aring" unicode="&#xc5;" horiz-adv-x="460" 
d="M295 317l-63 315h-4l-63 -315h130zM454 0h-98l-44 225h-164l-44 -225h-98l157 750h134zM230 840c28 0 49 26 49 67s-21 67 -49 67s-49 -26 -49 -67s21 -67 49 -67zM230 794c-56 0 -98 47 -98 113s42 113 98 113s98 -47 98 -113s-42 -113 -98 -113z" />
    <glyph glyph-name="AE" unicode="&#xc6;" horiz-adv-x="701" 
d="M673 0h-323v233h-182l-75 -233h-101l247 750h434v-95h-225v-222h181v-95h-181v-243h225v-95zM350 328v328h-46l-105 -328h151z" />
    <glyph glyph-name="Ccedilla" unicode="&#xc7;" horiz-adv-x="472" 
d="M150 -153h39c7 -25 22 -39 46 -39c27 0 42 22 42 48c0 27 -21 51 -61 63l-23 7c-11 3 -15 9 -10 23l16 46c-79 17 -125 81 -139 162c-5 28 -7 60 -7 88v260c0 28 2 60 7 88c17 95 77 167 184 167h4c106 0 166 -71 184 -168c4 -23 7 -48 8 -73h-98s-1 30 -5 53
c-8 47 -33 93 -89 93h-4c-53 0 -79 -46 -88 -93c-4 -22 -5 -51 -5 -70v-254c0 -19 1 -48 5 -70c9 -47 35 -93 88 -93h4c56 0 81 45 89 93c3 18 5 41 5 58h98c-1 -27 -4 -54 -8 -78c-18 -97 -78 -168 -184 -168h-9l-10 -37c53 -14 95 -46 95 -97c0 -53 -39 -88 -86 -88
c-50 0 -82 31 -88 79z" />
    <glyph glyph-name="Egrave" unicode="&#xc8;" horiz-adv-x="441" 
d="M413 0h-349v750h349v-95h-251v-222h208v-95h-208v-243h251v-95zM297 807h-63l-122 167v5h103z" />
    <glyph glyph-name="Eacute" unicode="&#xc9;" horiz-adv-x="441" 
d="M413 0h-349v750h349v-95h-251v-222h208v-95h-208v-243h251v-95zM233 807h-64l82 172h104v-7z" />
    <glyph glyph-name="Ecircumflex" unicode="&#xca;" horiz-adv-x="441" 
d="M413 0h-349v750h349v-95h-251v-222h208v-95h-208v-243h251v-95zM386 808h-70l-78 126l-78 -126h-70l109 186h78z" />
    <glyph glyph-name="Edieresis" unicode="&#xcb;" horiz-adv-x="441" 
d="M413 0h-349v750h349v-95h-251v-222h208v-95h-208v-243h251v-95zM198 824h-94v105h94v-105zM372 824h-94v105h94v-105z" />
    <glyph glyph-name="Igrave" unicode="&#xcc;" horiz-adv-x="226" 
d="M162 0h-98v750h98v-750zM160 807h-63l-122 167v5h103z" />
    <glyph glyph-name="Iacute" unicode="&#xcd;" horiz-adv-x="226" 
d="M162 0h-98v750h98v-750zM131 807h-64l82 172h104v-7z" />
    <glyph glyph-name="Icircumflex" unicode="&#xce;" horiz-adv-x="226" 
d="M162 0h-98v750h98v-750zM261 808h-70l-78 126l-78 -126h-70l109 186h78z" />
    <glyph glyph-name="Idieresis" unicode="&#xcf;" horiz-adv-x="226" 
d="M162 0h-98v750h98v-750zM73 824h-94v105h94v-105zM247 824h-94v105h94v-105z" />
    <glyph glyph-name="Eth" unicode="&#xd0;" horiz-adv-x="528" 
d="M253 0h-159v363h-80v64h80v323h159c26 0 48 -2 65 -5c90 -19 136 -83 149 -163c5 -28 8 -59 8 -87v-240c0 -28 -3 -59 -8 -87c-13 -80 -59 -144 -149 -163c-17 -3 -39 -5 -65 -5zM377 257v236c0 19 -1 47 -5 70c-5 36 -23 70 -64 85c-12 5 -28 7 -53 7h-63v-228h93v-64
h-93v-268h63c24 0 41 2 53 7c40 15 59 50 64 85c4 23 5 51 5 70z" />
    <glyph glyph-name="Ntilde" unicode="&#xd1;" horiz-adv-x="523" 
d="M459 0h-113l-190 546h-1s1 -33 1 -58v-488h-92v750h113l190 -546h1s-1 33 -1 58v488h92v-750zM371 936h52c-6 -78 -40 -131 -96 -131c-27 0 -50 12 -72 35c-33 35 -42 43 -63 43c-19 0 -36 -16 -41 -64h-52c7 77 40 130 96 130c27 0 50 -12 72 -35c33 -34 42 -43 64 -43
c18 0 36 17 40 65z" />
    <glyph glyph-name="Ograve" unicode="&#xd2;" horiz-adv-x="493" 
d="M244 85h5c54 0 79 46 88 93c4 22 5 51 5 70v254c0 19 -1 48 -5 70c-9 47 -34 93 -88 93h-5c-54 0 -79 -46 -88 -93c-4 -22 -5 -51 -5 -70v-254c0 -19 1 -48 5 -70c9 -47 34 -93 88 -93zM249 -10h-5c-109 0 -167 73 -184 168c-5 28 -7 61 -7 89v256c0 28 2 61 7 89
c17 95 75 168 184 168h5c109 0 167 -73 184 -168c5 -28 7 -61 7 -89v-256c0 -28 -2 -61 -7 -89c-17 -95 -75 -168 -184 -168zM312 807h-63l-122 167v5h103z" />
    <glyph glyph-name="Oacute" unicode="&#xd3;" horiz-adv-x="493" 
d="M244 85h5c54 0 79 46 88 93c4 22 5 51 5 70v254c0 19 -1 48 -5 70c-9 47 -34 93 -88 93h-5c-54 0 -79 -46 -88 -93c-4 -22 -5 -51 -5 -70v-254c0 -19 1 -48 5 -70c9 -47 34 -93 88 -93zM249 -10h-5c-109 0 -167 73 -184 168c-5 28 -7 61 -7 89v256c0 28 2 61 7 89
c17 95 75 168 184 168h5c109 0 167 -73 184 -168c5 -28 7 -61 7 -89v-256c0 -28 -2 -61 -7 -89c-17 -95 -75 -168 -184 -168zM232 807h-64l82 172h104v-7z" />
    <glyph glyph-name="Ocircumflex" unicode="&#xd4;" horiz-adv-x="493" 
d="M244 85h5c54 0 79 46 88 93c4 22 5 51 5 70v254c0 19 -1 48 -5 70c-9 47 -34 93 -88 93h-5c-54 0 -79 -46 -88 -93c-4 -22 -5 -51 -5 -70v-254c0 -19 1 -48 5 -70c9 -47 34 -93 88 -93zM249 -10h-5c-109 0 -167 73 -184 168c-5 28 -7 61 -7 89v256c0 28 2 61 7 89
c17 95 75 168 184 168h5c109 0 167 -73 184 -168c5 -28 7 -61 7 -89v-256c0 -28 -2 -61 -7 -89c-17 -95 -75 -168 -184 -168zM394 798h-70l-78 126l-78 -126h-70l109 186h78z" />
    <glyph glyph-name="Otilde" unicode="&#xd5;" horiz-adv-x="493" 
d="M244 85h5c54 0 79 46 88 93c4 22 5 51 5 70v254c0 19 -1 48 -5 70c-9 47 -34 93 -88 93h-5c-54 0 -79 -46 -88 -93c-4 -22 -5 -51 -5 -70v-254c0 -19 1 -48 5 -70c9 -47 34 -93 88 -93zM249 -10h-5c-109 0 -167 73 -184 168c-5 28 -7 61 -7 89v256c0 28 2 61 7 89
c17 95 75 168 184 168h5c109 0 167 -73 184 -168c5 -28 7 -61 7 -89v-256c0 -28 -2 -61 -7 -89c-17 -95 -75 -168 -184 -168zM360 936h52c-6 -78 -40 -131 -96 -131c-27 0 -50 12 -72 35c-33 35 -42 43 -63 43c-19 0 -36 -16 -41 -64h-52c7 77 40 130 96 130
c27 0 50 -12 72 -35c33 -34 42 -43 64 -43c18 0 36 17 40 65z" />
    <glyph glyph-name="Odieresis" unicode="&#xd6;" horiz-adv-x="493" 
d="M244 85h5c54 0 79 46 88 93c4 22 5 51 5 70v254c0 19 -1 48 -5 70c-9 47 -34 93 -88 93h-5c-54 0 -79 -46 -88 -93c-4 -22 -5 -51 -5 -70v-254c0 -19 1 -48 5 -70c9 -47 34 -93 88 -93zM249 -10h-5c-109 0 -167 73 -184 168c-5 28 -7 61 -7 89v256c0 28 2 61 7 89
c17 95 75 168 184 168h5c109 0 167 -73 184 -168c5 -28 7 -61 7 -89v-256c0 -28 -2 -61 -7 -89c-17 -95 -75 -168 -184 -168zM206 824h-94v105h94v-105zM380 824h-94v105h94v-105z" />
    <glyph glyph-name="multiply" unicode="&#xd7;" horiz-adv-x="432" 
d="M408 109l-58 -47l-134 177l-134 -177l-58 47l146 191l-146 191l58 47l134 -177l134 177l58 -47l-146 -191z" />
    <glyph glyph-name="Oslash" unicode="&#xd8;" horiz-adv-x="493" 
d="M249 -10h-5c-41 0 -74 10 -101 27l-20 -52h-57l35 92c-21 28 -34 63 -41 101c-5 28 -7 61 -7 89v256c0 28 2 61 7 89c17 95 75 168 184 168h5c40 0 74 -10 101 -28l20 53h57l-35 -93c21 -28 34 -62 41 -100c5 -28 7 -61 7 -89v-256c0 -28 -2 -61 -7 -89
c-17 -95 -75 -168 -184 -168zM155 182l157 451c-14 19 -35 32 -63 32h-5c-54 0 -79 -46 -88 -93c-4 -22 -5 -51 -5 -70v-254c0 -18 0 -45 4 -66zM244 85h5c54 0 79 46 88 93c4 22 5 51 5 70v254c0 17 -1 44 -4 65l-158 -450c15 -19 35 -32 64 -32z" />
    <glyph glyph-name="Ugrave" unicode="&#xd9;" horiz-adv-x="507" 
d="M256 -10h-5c-109 0 -167 73 -184 168c-5 28 -7 61 -7 89v503h98v-502c0 -19 1 -48 5 -70c9 -47 34 -93 88 -93h5c54 0 79 46 88 93c4 22 5 51 5 70v502h98v-503c0 -28 -2 -61 -7 -89c-17 -95 -75 -168 -184 -168zM309 807h-63l-122 167v5h103z" />
    <glyph glyph-name="Uacute" unicode="&#xda;" horiz-adv-x="507" 
d="M256 -10h-5c-109 0 -167 73 -184 168c-5 28 -7 61 -7 89v503h98v-502c0 -19 1 -48 5 -70c9 -47 34 -93 88 -93h5c54 0 79 46 88 93c4 22 5 51 5 70v502h98v-503c0 -28 -2 -61 -7 -89c-17 -95 -75 -168 -184 -168zM259 807h-64l82 172h104v-7z" />
    <glyph glyph-name="Ucircumflex" unicode="&#xdb;" horiz-adv-x="507" 
d="M256 -10h-5c-109 0 -167 73 -184 168c-5 28 -7 61 -7 89v503h98v-502c0 -19 1 -48 5 -70c9 -47 34 -93 88 -93h5c54 0 79 46 88 93c4 22 5 51 5 70v502h98v-503c0 -28 -2 -61 -7 -89c-17 -95 -75 -168 -184 -168zM401 808h-70l-78 126l-78 -126h-70l109 186h78z" />
    <glyph glyph-name="Udieresis" unicode="&#xdc;" horiz-adv-x="507" 
d="M256 -10h-5c-109 0 -167 73 -184 168c-5 28 -7 61 -7 89v503h98v-502c0 -19 1 -48 5 -70c9 -47 34 -93 88 -93h5c54 0 79 46 88 93c4 22 5 51 5 70v502h98v-503c0 -28 -2 -61 -7 -89c-17 -95 -75 -168 -184 -168zM213 824h-94v105h94v-105zM387 824h-94v105h94v-105z" />
    <glyph glyph-name="Yacute" unicode="&#xdd;" horiz-adv-x="440" 
d="M269 0h-98v328l-176 422h105l120 -314l120 314h105l-176 -422v-328zM229 807h-64l82 172h104v-7z" />
    <glyph glyph-name="Thorn" unicode="&#xde;" horiz-adv-x="493" 
d="M170 242h64c23 0 39 2 51 7c52 19 73 70 73 127c0 53 -18 109 -72 131c-12 5 -27 8 -52 8h-64v-273zM170 0h-98v750h98v-140h65c32 0 54 -2 75 -8c92 -25 146 -111 146 -225c0 -108 -50 -200 -155 -224c-18 -4 -37 -6 -65 -6h-66v-147z" />
    <glyph glyph-name="germandbls" unicode="&#xdf;" horiz-adv-x="483" 
d="M206 -1v77c15 -3 29 -4 47 -4c62 0 98 46 98 136c0 97 -60 147 -130 147h-7v73h7c65 0 108 49 108 134c0 78 -35 110 -85 110c-42 0 -70 -24 -83 -67c-4 -14 -6 -31 -6 -59v-546h-95v542c0 31 2 50 6 70c20 93 87 148 179 148c100 0 179 -64 179 -189
c0 -74 -30 -137 -97 -174c60 -17 118 -94 118 -191c0 -146 -77 -215 -173 -215c-22 0 -44 2 -66 8z" />
    <glyph glyph-name="agrave" unicode="&#xe0;" horiz-adv-x="435" 
d="M377 0h-61l-11 81c-28 -65 -70 -91 -128 -91c-77 0 -139 62 -139 182c0 91 47 155 137 170c14 2 31 4 57 4h51v20c0 38 -2 75 -20 99c-11 14 -27 23 -47 23c-32 0 -57 -22 -67 -63h-90c16 88 76 145 161 145c47 0 86 -16 112 -47c39 -48 45 -114 45 -183v-340zM284 244
v26h-55c-23 0 -39 -3 -50 -8c-31 -15 -48 -44 -48 -90c0 -64 22 -97 68 -97c44 0 67 42 78 92c5 21 7 46 7 77zM279 627h-63l-122 167v5h103z" />
    <glyph glyph-name="aacute" unicode="&#xe1;" horiz-adv-x="435" 
d="M377 0h-61l-11 81c-28 -65 -70 -91 -128 -91c-77 0 -139 62 -139 182c0 91 47 155 137 170c14 2 31 4 57 4h51v20c0 38 -2 75 -20 99c-11 14 -27 23 -47 23c-32 0 -57 -22 -67 -63h-90c16 88 76 145 161 145c47 0 86 -16 112 -47c39 -48 45 -114 45 -183v-340zM284 244
v26h-55c-23 0 -39 -3 -50 -8c-31 -15 -48 -44 -48 -90c0 -64 22 -97 68 -97c44 0 67 42 78 92c5 21 7 46 7 77zM207 627h-64l82 172h104v-7z" />
    <glyph glyph-name="acircumflex" unicode="&#xe2;" horiz-adv-x="435" 
d="M377 0h-61l-11 81c-28 -65 -70 -91 -128 -91c-77 0 -139 62 -139 182c0 91 47 155 137 170c14 2 31 4 57 4h51v20c0 38 -2 75 -20 99c-11 14 -27 23 -47 23c-32 0 -57 -22 -67 -63h-90c16 88 76 145 161 145c47 0 86 -16 112 -47c39 -48 45 -114 45 -183v-340zM284 244
v26h-55c-23 0 -39 -3 -50 -8c-31 -15 -48 -44 -48 -90c0 -64 22 -97 68 -97c44 0 67 42 78 92c5 21 7 46 7 77zM369 618h-70l-78 126l-78 -126h-70l109 186h78z" />
    <glyph glyph-name="atilde" unicode="&#xe3;" horiz-adv-x="435" 
d="M377 0h-61l-11 81c-28 -65 -70 -91 -128 -91c-77 0 -139 62 -139 182c0 91 47 155 137 170c14 2 31 4 57 4h51v20c0 38 -2 75 -20 99c-11 14 -27 23 -47 23c-32 0 -57 -22 -67 -63h-90c16 88 76 145 161 145c47 0 86 -16 112 -47c39 -48 45 -114 45 -183v-340zM284 244
v26h-55c-23 0 -39 -3 -50 -8c-31 -15 -48 -44 -48 -90c0 -64 22 -97 68 -97c44 0 67 42 78 92c5 21 7 46 7 77zM334 756h52c-6 -78 -40 -131 -96 -131c-27 0 -50 12 -72 35c-33 35 -42 43 -63 43c-19 0 -36 -16 -41 -64h-52c7 77 40 130 96 130c27 0 50 -12 72 -35
c33 -34 42 -43 64 -43c18 0 36 17 40 65z" />
    <glyph glyph-name="adieresis" unicode="&#xe4;" horiz-adv-x="435" 
d="M377 0h-61l-11 81c-28 -65 -70 -91 -128 -91c-77 0 -139 62 -139 182c0 91 47 155 137 170c14 2 31 4 57 4h51v20c0 38 -2 75 -20 99c-11 14 -27 23 -47 23c-32 0 -57 -22 -67 -63h-90c16 88 76 145 161 145c47 0 86 -16 112 -47c39 -48 45 -114 45 -183v-340zM284 244
v26h-55c-23 0 -39 -3 -50 -8c-31 -15 -48 -44 -48 -90c0 -64 22 -97 68 -97c44 0 67 42 78 92c5 21 7 46 7 77zM180 644h-94v105h94v-105zM354 644h-94v105h94v-105z" />
    <glyph glyph-name="aring" unicode="&#xe5;" horiz-adv-x="435" 
d="M377 0h-61l-11 81c-28 -65 -70 -91 -128 -91c-77 0 -139 62 -139 182c0 91 47 155 137 170c14 2 31 4 57 4h51v20c0 38 -2 75 -20 99c-11 14 -27 23 -47 23c-32 0 -57 -22 -67 -63h-90c16 88 76 145 161 145c47 0 86 -16 112 -47c39 -48 45 -114 45 -183v-340zM284 244
v26h-55c-23 0 -39 -3 -50 -8c-31 -15 -48 -44 -48 -90c0 -64 22 -97 68 -97c44 0 67 42 78 92c5 21 7 46 7 77zM221 660c28 0 49 26 49 67s-21 67 -49 67s-49 -26 -49 -67s21 -67 49 -67zM221 614c-56 0 -98 47 -98 113s42 113 98 113s98 -47 98 -113s-42 -113 -98 -113z
" />
    <glyph glyph-name="ae" unicode="&#xe6;" horiz-adv-x="670" 
d="M284 240v27h-56c-22 0 -36 -3 -47 -8c-32 -13 -50 -41 -50 -85c0 -66 22 -103 67 -103s70 42 80 92c4 21 6 46 6 77zM377 341h156c0 23 -1 48 -4 66c-9 46 -34 78 -73 78c-41 0 -68 -30 -75 -78c-2 -18 -4 -35 -4 -66zM530 152h93c-17 -100 -73 -162 -167 -162
c-66 0 -118 36 -139 93c-28 -63 -72 -93 -140 -93c-77 0 -139 63 -139 182c0 89 46 151 137 165c14 2 31 4 57 4h51v35c0 25 -2 41 -4 52c-8 41 -31 60 -64 60s-58 -22 -66 -63h-90c17 88 76 145 160 145c51 0 88 -23 114 -68c29 42 69 68 123 68c98 0 153 -67 166 -161
c4 -30 6 -53 6 -105v-37h-251v-43c0 -32 1 -54 4 -72c9 -46 35 -77 75 -77c42 0 68 39 74 77z" />
    <glyph glyph-name="ccedilla" unicode="&#xe7;" horiz-adv-x="416" 
d="M120 -153h39c7 -25 22 -39 46 -39c27 0 42 22 42 48c0 27 -21 51 -61 63l-23 7c-11 3 -15 9 -10 23l16 47c-69 17 -110 75 -121 155c-3 20 -5 42 -5 74v110c0 32 2 54 5 74c14 96 70 161 167 161s157 -65 170 -186h-95c-2 47 -24 98 -75 98c-40 0 -65 -29 -73 -78
c-3 -17 -4 -39 -4 -71v-106c0 -32 1 -54 4 -71c8 -49 33 -78 73 -78c47 0 69 48 74 88h95c-12 -98 -71 -176 -169 -176h-6l-10 -37c53 -14 95 -46 95 -97c0 -53 -39 -88 -86 -88c-50 0 -82 31 -88 79z" />
    <glyph glyph-name="egrave" unicode="&#xe8;" 
d="M290 152h93c-17 -100 -73 -162 -167 -162c-97 0 -154 65 -168 160c-3 21 -5 43 -5 75v110c0 32 2 54 5 74c14 96 71 161 168 161c98 0 153 -67 166 -161c4 -30 6 -53 6 -105v-44h-250v-36c0 -32 1 -54 4 -72c9 -46 35 -77 74 -77c43 0 67 39 74 77zM138 338h154
c0 22 0 45 -5 69c-10 46 -33 78 -72 78c-40 0 -65 -30 -73 -78c-3 -17 -4 -34 -4 -69zM279 627h-63l-122 167v5h103z" />
    <glyph glyph-name="eacute" unicode="&#xe9;" 
d="M290 152h93c-17 -100 -73 -162 -167 -162c-97 0 -154 65 -168 160c-3 21 -5 43 -5 75v110c0 32 2 54 5 74c14 96 71 161 168 161c98 0 153 -67 166 -161c4 -30 6 -53 6 -105v-44h-250v-36c0 -32 1 -54 4 -72c9 -46 35 -77 74 -77c43 0 67 39 74 77zM138 338h154
c0 22 0 45 -5 69c-10 46 -33 78 -72 78c-40 0 -65 -30 -73 -78c-3 -17 -4 -34 -4 -69zM209 627h-64l82 172h104v-7z" />
    <glyph glyph-name="ecircumflex" unicode="&#xea;" 
d="M290 152h93c-17 -100 -73 -162 -167 -162c-97 0 -154 65 -168 160c-3 21 -5 43 -5 75v110c0 32 2 54 5 74c14 96 71 161 168 161c98 0 153 -67 166 -161c4 -30 6 -53 6 -105v-44h-250v-36c0 -32 1 -54 4 -72c9 -46 35 -77 74 -77c43 0 67 39 74 77zM138 338h154
c0 22 0 45 -5 69c-10 46 -33 78 -72 78c-40 0 -65 -30 -73 -78c-3 -17 -4 -34 -4 -69zM366 618h-70l-78 126l-78 -126h-70l109 186h78z" />
    <glyph glyph-name="edieresis" unicode="&#xeb;" 
d="M290 152h93c-17 -100 -73 -162 -167 -162c-97 0 -154 65 -168 160c-3 21 -5 43 -5 75v110c0 32 2 54 5 74c14 96 71 161 168 161c98 0 153 -67 166 -161c4 -30 6 -53 6 -105v-44h-250v-36c0 -32 1 -54 4 -72c9 -46 35 -77 74 -77c43 0 67 39 74 77zM138 338h154
c0 22 0 45 -5 69c-10 46 -33 78 -72 78c-40 0 -65 -30 -73 -78c-3 -17 -4 -34 -4 -69zM177 644h-94v105h94v-105zM351 644h-94v105h94v-105z" />
    <glyph glyph-name="igrave" unicode="&#xec;" horiz-adv-x="217" 
d="M155 627h-63l-122 167v5h103zM156 0h-95v560h95v-560z" />
    <glyph glyph-name="iacute" unicode="&#xed;" horiz-adv-x="217" 
d="M127 627h-64l82 172h104v-7zM156 0h-95v560h95v-560z" />
    <glyph glyph-name="icircumflex" unicode="&#xee;" horiz-adv-x="217" 
d="M248 628h-70l-69 124l-69 -124h-70l100 181h79zM156 0h-95v560h95v-560z" />
    <glyph glyph-name="idieresis" unicode="&#xef;" horiz-adv-x="217" 
d="M68 644h-94v105h94v-105zM242 644h-94v105h94v-105zM156 0h-95v560h95v-560z" />
    <glyph glyph-name="eth" unicode="&#xf0;" 
d="M387 296v-71c0 -32 -2 -54 -5 -74c-14 -96 -70 -161 -167 -161s-153 65 -167 161c-3 20 -5 42 -5 74v56c0 42 3 79 11 110c20 80 80 125 137 125c32 0 54 -8 80 -23c-11 46 -30 93 -48 126l-94 -47l-24 50l94 48c-17 30 -33 57 -49 82c27 17 46 27 72 43
c23 -34 40 -65 52 -86l82 42l25 -51l-81 -41c27 -55 46 -108 59 -159c17 -67 28 -136 28 -204zM292 227v52c0 32 -1 54 -4 71c-8 49 -33 78 -73 78s-65 -29 -73 -78c-3 -17 -4 -39 -4 -71v-52c0 -32 1 -54 4 -71c8 -49 33 -78 73 -78s65 29 73 78c3 17 4 39 4 71z" />
    <glyph glyph-name="ntilde" unicode="&#xf1;" horiz-adv-x="471" 
d="M413 0h-95v344c0 17 -1 39 -4 57c-6 39 -23 80 -69 80c-43 0 -69 -35 -80 -75c-5 -20 -9 -42 -9 -80v-326h-95v560h60l10 -88c27 68 78 98 135 98c82 0 127 -58 141 -137c5 -26 6 -54 6 -91v-342zM348 757h52c-6 -78 -40 -131 -96 -131c-27 0 -50 12 -72 35
c-33 35 -42 43 -63 43c-19 0 -36 -16 -41 -64h-52c7 77 40 130 96 130c27 0 50 -12 72 -35c33 -34 42 -43 64 -43c18 0 36 17 40 65z" />
    <glyph glyph-name="ograve" unicode="&#xf2;" 
d="M387 335v-110c0 -32 -2 -54 -5 -74c-14 -96 -70 -161 -167 -161s-153 65 -167 161c-3 20 -5 42 -5 74v110c0 32 2 54 5 74c14 96 70 161 167 161s153 -65 167 -161c3 -20 5 -42 5 -74zM292 227v106c0 32 -1 54 -4 71c-8 49 -33 78 -73 78s-65 -29 -73 -78
c-3 -17 -4 -39 -4 -71v-106c0 -32 1 -54 4 -71c8 -49 33 -78 73 -78s65 29 73 78c3 17 4 39 4 71zM290 627h-63l-122 167v5h103z" />
    <glyph glyph-name="oacute" unicode="&#xf3;" 
d="M387 335v-110c0 -32 -2 -54 -5 -74c-14 -96 -70 -161 -167 -161s-153 65 -167 161c-3 20 -5 42 -5 74v110c0 32 2 54 5 74c14 96 70 161 167 161s153 -65 167 -161c3 -20 5 -42 5 -74zM292 227v106c0 32 -1 54 -4 71c-8 49 -33 78 -73 78s-65 -29 -73 -78
c-3 -17 -4 -39 -4 -71v-106c0 -32 1 -54 4 -71c8 -49 33 -78 73 -78s65 29 73 78c3 17 4 39 4 71zM200 627h-64l82 172h104v-7z" />
    <glyph glyph-name="ocircumflex" unicode="&#xf4;" 
d="M387 335v-110c0 -32 -2 -54 -5 -74c-14 -96 -70 -161 -167 -161s-153 65 -167 161c-3 20 -5 42 -5 74v110c0 32 2 54 5 74c14 96 70 161 167 161s153 -65 167 -161c3 -20 5 -42 5 -74zM292 227v106c0 32 -1 54 -4 71c-8 49 -33 78 -73 78s-65 -29 -73 -78
c-3 -17 -4 -39 -4 -71v-106c0 -32 1 -54 4 -71c8 -49 33 -78 73 -78s65 29 73 78c3 17 4 39 4 71zM363 618h-70l-78 126l-78 -126h-70l109 186h78z" />
    <glyph glyph-name="otilde" unicode="&#xf5;" 
d="M387 335v-110c0 -32 -2 -54 -5 -74c-14 -96 -70 -161 -167 -161s-153 65 -167 161c-3 20 -5 42 -5 74v110c0 32 2 54 5 74c14 96 70 161 167 161s153 -65 167 -161c3 -20 5 -42 5 -74zM292 227v106c0 32 -1 54 -4 71c-8 49 -33 78 -73 78s-65 -29 -73 -78
c-3 -17 -4 -39 -4 -71v-106c0 -32 1 -54 4 -71c8 -49 33 -78 73 -78s65 29 73 78c3 17 4 39 4 71zM328 756h52c-6 -78 -40 -131 -96 -131c-27 0 -50 12 -72 35c-33 35 -42 43 -63 43c-19 0 -36 -16 -41 -64h-52c7 77 40 130 96 130c27 0 50 -12 72 -35c33 -34 42 -43 64 -43
c18 0 36 17 40 65z" />
    <glyph glyph-name="odieresis" unicode="&#xf6;" 
d="M387 335v-110c0 -32 -2 -54 -5 -74c-14 -96 -70 -161 -167 -161s-153 65 -167 161c-3 20 -5 42 -5 74v110c0 32 2 54 5 74c14 96 70 161 167 161s153 -65 167 -161c3 -20 5 -42 5 -74zM292 227v106c0 32 -1 54 -4 71c-8 49 -33 78 -73 78s-65 -29 -73 -78
c-3 -17 -4 -39 -4 -71v-106c0 -32 1 -54 4 -71c8 -49 33 -78 73 -78s65 29 73 78c3 17 4 39 4 71zM175 644h-94v105h94v-105zM349 644h-94v105h94v-105z" />
    <glyph glyph-name="divide" unicode="&#xf7;" horiz-adv-x="467" 
d="M452 260h-437v79h437v-79zM284 451h-101v111h101v-111zM284 37h-101v111h101v-111z" />
    <glyph glyph-name="oslash" unicode="&#xf8;" 
d="M127 -35h-51l25 69c-28 28 -46 68 -53 117c-3 20 -5 42 -5 74v110c0 32 2 54 5 74c14 96 70 161 167 161c28 0 53 -6 74 -16l14 41h51l-25 -69c28 -29 46 -69 53 -117c3 -20 5 -42 5 -74v-110c0 -32 -2 -54 -5 -74c-14 -96 -70 -161 -167 -161c-28 0 -53 6 -74 15z
M292 227v106c0 32 -1 59 -6 80l-111 -322c11 -9 24 -13 40 -13c40 0 65 29 73 78c3 17 4 39 4 71zM143 146l112 322c-11 9 -24 14 -40 14c-40 0 -65 -29 -73 -78c-3 -17 -4 -39 -4 -71v-106c0 -27 1 -62 5 -81z" />
    <glyph glyph-name="ugrave" unicode="&#xf9;" horiz-adv-x="471" 
d="M410 0h-60l-10 88c-27 -68 -78 -98 -135 -98c-82 0 -127 58 -141 137c-5 26 -6 54 -6 91v342h95v-344c0 -17 1 -39 4 -57c6 -39 23 -80 69 -80c43 0 69 35 80 75c5 20 9 42 9 80v326h95v-560zM300 627h-63l-122 167v5h103z" />
    <glyph glyph-name="uacute" unicode="&#xfa;" horiz-adv-x="471" 
d="M230 627h-64l82 172h104v-7zM410 0h-60l-10 88c-27 -68 -78 -98 -135 -98c-82 0 -127 58 -141 137c-5 26 -6 54 -6 91v342h95v-344c0 -17 1 -39 4 -57c6 -39 23 -80 69 -80c43 0 69 35 80 75c5 20 9 42 9 80v326h95v-560z" />
    <glyph glyph-name="ucircumflex" unicode="&#xfb;" horiz-adv-x="471" 
d="M410 0h-60l-10 88c-27 -68 -78 -98 -135 -98c-82 0 -127 58 -141 137c-5 26 -6 54 -6 91v342h95v-344c0 -17 1 -39 4 -57c6 -39 23 -80 69 -80c43 0 69 35 80 75c5 20 9 42 9 80v326h95v-560zM382 628h-70l-78 126l-78 -126h-70l109 186h78z" />
    <glyph glyph-name="udieresis" unicode="&#xfc;" horiz-adv-x="471" 
d="M410 0h-60l-10 88c-27 -68 -78 -98 -135 -98c-82 0 -127 58 -141 137c-5 26 -6 54 -6 91v342h95v-344c0 -17 1 -39 4 -57c6 -39 23 -80 69 -80c43 0 69 35 80 75c5 20 9 42 9 80v326h95v-560zM195 644h-94v105h94v-105zM369 644h-94v105h94v-105z" />
    <glyph glyph-name="yacute" unicode="&#xfd;" horiz-adv-x="396" 
d="M2 -207v86c13 -3 28 -6 46 -6c41 0 72 21 90 87l19 69l-149 531h95l99 -386h3l94 386h95l-158 -582c-37 -134 -89 -194 -171 -194c-27 0 -45 4 -63 9zM215 627h-64l82 172h104v-7z" />
    <glyph glyph-name="thorn" unicode="&#xfe;" horiz-adv-x="459" 
d="M321 216v128c0 12 -2 41 -4 57c-5 39 -23 80 -69 80c-43 0 -69 -35 -80 -75c-5 -20 -9 -42 -9 -80v-92c0 -38 4 -60 9 -80c11 -40 37 -75 80 -75c46 0 64 41 69 80c2 16 4 45 4 57zM159 -244h-95v1029h95v-232c0 -25 -1 -50 -1 -50h1c20 40 62 67 110 67
c82 0 127 -58 141 -137c5 -26 6 -54 6 -91v-124c0 -37 -1 -65 -6 -91c-14 -79 -59 -137 -141 -137c-48 0 -90 27 -110 67h-1s1 -25 1 -50v-251z" />
    <glyph glyph-name="ydieresis" unicode="&#xff;" horiz-adv-x="396" 
d="M2 -207v86c13 -3 28 -6 46 -6c41 0 72 21 90 87l19 69l-149 531h95l99 -386h3l94 386h95l-158 -582c-37 -134 -89 -194 -171 -194c-27 0 -45 4 -63 9zM164 644h-94v105h94v-105zM338 644h-94v105h94v-105z" />
    <glyph glyph-name="Amacron" unicode="&#x100;" horiz-adv-x="460" 
d="M295 317l-63 315h-4l-63 -315h130zM454 0h-98l-44 225h-164l-44 -225h-98l157 750h134zM360 825h-258v62h258v-62z" />
    <glyph glyph-name="amacron" unicode="&#x101;" horiz-adv-x="435" 
d="M377 0h-61l-11 81c-28 -65 -70 -91 -128 -91c-77 0 -139 62 -139 182c0 91 47 155 137 170c14 2 31 4 57 4h51v20c0 38 -2 75 -20 99c-11 14 -27 23 -47 23c-32 0 -57 -22 -67 -63h-90c16 88 76 145 161 145c47 0 86 -16 112 -47c39 -48 45 -114 45 -183v-340zM284 244
v26h-55c-23 0 -39 -3 -50 -8c-31 -15 -48 -44 -48 -90c0 -64 22 -97 68 -97c44 0 67 42 78 92c5 21 7 46 7 77zM350 645h-258v62h258v-62z" />
    <glyph glyph-name="Abreve" unicode="&#x102;" horiz-adv-x="460" 
d="M295 317l-63 315h-4l-63 -315h130zM454 0h-98l-44 225h-164l-44 -225h-98l157 750h134zM308 965h60c-7 -110 -62 -162 -138 -162s-131 52 -138 162h60c9 -75 39 -105 78 -105s69 30 78 105z" />
    <glyph glyph-name="abreve" unicode="&#x103;" horiz-adv-x="435" 
d="M377 0h-61l-11 81c-28 -65 -70 -91 -128 -91c-77 0 -139 62 -139 182c0 91 47 155 137 170c14 2 31 4 57 4h51v20c0 38 -2 75 -20 99c-11 14 -27 23 -47 23c-32 0 -57 -22 -67 -63h-90c16 88 76 145 161 145c47 0 86 -16 112 -47c39 -48 45 -114 45 -183v-340zM284 244
v26h-55c-23 0 -39 -3 -50 -8c-31 -15 -48 -44 -48 -90c0 -64 22 -97 68 -97c44 0 67 42 78 92c5 21 7 46 7 77zM298 785h60c-7 -110 -62 -162 -138 -162s-131 52 -138 162h60c9 -75 39 -105 78 -105s69 30 78 105z" />
    <glyph glyph-name="Aogonek" unicode="&#x104;" horiz-adv-x="460" 
d="M469 -163l17 -40c-22 -15 -50 -26 -78 -26c-52 0 -99 28 -99 92c0 41 19 77 52 109l-49 253h-164l-44 -225h-98l157 750h134l157 -750c-60 -49 -87 -91 -87 -128c0 -32 19 -51 51 -51c18 0 34 6 51 16zM295 317l-63 315h-4l-63 -315h130z" />
    <glyph glyph-name="aogonek" unicode="&#x105;" horiz-adv-x="435" 
d="M392 -163l17 -40c-22 -15 -50 -26 -78 -26c-52 0 -99 28 -99 92c0 52 31 97 84 135l-11 83c-28 -65 -70 -91 -128 -91c-77 0 -139 62 -139 182c0 91 47 155 137 170c14 2 31 4 57 4h51v20c0 38 -2 75 -20 99c-11 14 -27 23 -47 23c-32 0 -57 -22 -67 -63h-90
c16 88 76 145 161 145c47 0 86 -16 112 -47c39 -48 45 -114 45 -183v-340c-60 -49 -87 -91 -87 -128c0 -32 19 -51 51 -51c18 0 34 6 51 16zM284 244v26h-55c-23 0 -39 -3 -50 -8c-31 -15 -48 -44 -48 -90c0 -64 22 -97 68 -97c44 0 67 42 78 92c5 21 7 46 7 77z" />
    <glyph glyph-name="Cacute" unicode="&#x106;" horiz-adv-x="472" 
d="M248 -10h-4c-107 0 -167 72 -184 167c-5 28 -7 60 -7 88v260c0 28 2 60 7 88c17 95 77 167 184 167h4c106 0 166 -71 184 -168c4 -23 7 -48 8 -73h-98s-1 30 -5 53c-8 47 -33 93 -89 93h-4c-53 0 -79 -46 -88 -93c-4 -22 -5 -51 -5 -70v-254c0 -19 1 -48 5 -70
c9 -47 35 -93 88 -93h4c56 0 81 45 89 93c3 18 5 41 5 58h98c-1 -27 -3 -52 -8 -78c-18 -97 -78 -168 -184 -168zM236 807h-64l82 172h104v-7z" />
    <glyph glyph-name="cacute" unicode="&#x107;" horiz-adv-x="416" 
d="M289 166h95c-12 -98 -71 -176 -169 -176c-97 0 -153 65 -167 161c-3 20 -5 42 -5 74v110c0 32 2 54 5 74c14 96 70 161 167 161s157 -65 170 -186h-95c-2 47 -24 98 -75 98c-40 0 -65 -29 -73 -78c-3 -17 -4 -39 -4 -71v-106c0 -32 1 -54 4 -71c8 -49 33 -78 73 -78
c47 0 69 48 74 88zM203 627h-64l82 172h104v-7z" />
    <glyph glyph-name="Ccircumflex" unicode="&#x108;" horiz-adv-x="472" 
d="M248 -10h-4c-107 0 -167 72 -184 167c-5 28 -7 60 -7 88v260c0 28 2 60 7 88c17 95 77 167 184 167h4c106 0 166 -71 184 -168c4 -23 7 -48 8 -73h-98s-1 30 -5 53c-8 47 -33 93 -89 93h-4c-53 0 -79 -46 -88 -93c-4 -22 -5 -51 -5 -70v-254c0 -19 1 -48 5 -70
c9 -47 35 -93 88 -93h4c56 0 81 45 89 93c3 18 5 41 5 58h98c-1 -27 -3 -52 -8 -78c-18 -97 -78 -168 -184 -168zM394 808h-70l-78 126l-78 -126h-70l109 186h78z" />
    <glyph glyph-name="ccircumflex" unicode="&#x109;" horiz-adv-x="416" 
d="M289 166h95c-12 -98 -71 -176 -169 -176c-97 0 -153 65 -167 161c-3 20 -5 42 -5 74v110c0 32 2 54 5 74c14 96 70 161 167 161s157 -65 170 -186h-95c-2 47 -24 98 -75 98c-40 0 -65 -29 -73 -78c-3 -17 -4 -39 -4 -71v-106c0 -32 1 -54 4 -71c8 -49 33 -78 73 -78
c47 0 69 48 74 88zM361 628h-70l-78 126l-78 -126h-70l109 186h78z" />
    <glyph glyph-name="Cdotaccent" unicode="&#x10a;" horiz-adv-x="472" 
d="M248 -10h-4c-107 0 -167 72 -184 167c-5 28 -7 60 -7 88v260c0 28 2 60 7 88c17 95 77 167 184 167h4c106 0 166 -71 184 -168c4 -23 7 -48 8 -73h-98s-1 30 -5 53c-8 47 -33 93 -89 93h-4c-53 0 -79 -46 -88 -93c-4 -22 -5 -51 -5 -70v-254c0 -19 1 -48 5 -70
c9 -47 35 -93 88 -93h4c56 0 81 45 89 93c3 18 5 41 5 58h98c-1 -27 -3 -52 -8 -78c-18 -97 -78 -168 -184 -168zM297 823h-101v109h101v-109z" />
    <glyph glyph-name="cdotaccent" unicode="&#x10b;" horiz-adv-x="416" 
d="M289 166h95c-12 -98 -71 -176 -169 -176c-97 0 -153 65 -167 161c-3 20 -5 42 -5 74v110c0 32 2 54 5 74c14 96 70 161 167 161s157 -65 170 -186h-95c-2 47 -24 98 -75 98c-40 0 -65 -29 -73 -78c-3 -17 -4 -39 -4 -71v-106c0 -32 1 -54 4 -71c8 -49 33 -78 73 -78
c47 0 69 48 74 88zM264 643h-101v109h101v-109z" />
    <glyph glyph-name="Ccaron" unicode="&#x10c;" horiz-adv-x="472" 
d="M248 -10h-4c-107 0 -167 72 -184 167c-5 28 -7 60 -7 88v260c0 28 2 60 7 88c17 95 77 167 184 167h4c106 0 166 -71 184 -168c4 -23 7 -48 8 -73h-98s-1 30 -5 53c-8 47 -33 93 -89 93h-4c-53 0 -79 -46 -88 -93c-4 -22 -5 -51 -5 -70v-254c0 -19 1 -48 5 -70
c9 -47 35 -93 88 -93h4c56 0 81 45 89 93c3 18 5 41 5 58h98c-1 -27 -3 -52 -8 -78c-18 -97 -78 -168 -184 -168zM285 808h-78l-110 186h71l78 -125l78 125h71z" />
    <glyph glyph-name="ccaron" unicode="&#x10d;" horiz-adv-x="416" 
d="M289 166h95c-12 -98 -71 -176 -169 -176c-97 0 -153 65 -167 161c-3 20 -5 42 -5 74v110c0 32 2 54 5 74c14 96 70 161 167 161s157 -65 170 -186h-95c-2 47 -24 98 -75 98c-40 0 -65 -29 -73 -78c-3 -17 -4 -39 -4 -71v-106c0 -32 1 -54 4 -71c8 -49 33 -78 73 -78
c47 0 69 48 74 88zM253 628h-78l-110 186h71l78 -125l78 125h71z" />
    <glyph glyph-name="Dcaron" unicode="&#x10e;" horiz-adv-x="498" 
d="M347 257v236c0 19 -1 47 -5 70c-5 35 -24 71 -64 85c-12 4 -29 7 -53 7h-63v-560h63c24 0 41 3 53 7c40 14 59 50 64 85c4 23 5 51 5 70zM223 0h-159v750h159c26 0 48 -2 65 -5c90 -19 134 -83 149 -163c5 -28 8 -56 8 -87v-240c0 -31 -3 -59 -8 -87
c-15 -80 -59 -144 -149 -163c-17 -3 -39 -5 -65 -5zM274 808h-78l-110 186h71l78 -125l78 125h71z" />
    <glyph glyph-name="dcaron" unicode="&#x10f;" horiz-adv-x="540" 
d="M300 234v92c0 38 -4 60 -9 80c-11 40 -37 75 -80 75c-46 0 -64 -41 -69 -80c-2 -16 -4 -45 -4 -57v-128c0 -12 2 -41 4 -57c5 -39 23 -80 69 -80c43 0 69 35 80 75c5 20 9 42 9 80zM395 0h-60l-10 88c-27 -68 -78 -98 -135 -98c-82 0 -127 58 -141 137c-5 26 -6 54 -6 91
v124c0 37 1 65 6 91c14 79 59 137 141 137c48 0 89 -26 110 -64h1s-1 25 -1 50v229h95v-785zM449 552v30c46 19 56 53 56 85c0 14 -7 17 -17 17h-33v101h95v-94c0 -63 -23 -124 -101 -139z" />
    <glyph glyph-name="Dcroat" unicode="&#x110;" horiz-adv-x="528" 
d="M253 0h-159v363h-80v64h80v323h159c26 0 48 -2 65 -5c90 -19 136 -83 149 -163c5 -28 8 -59 8 -87v-240c0 -28 -3 -59 -8 -87c-13 -80 -59 -144 -149 -163c-17 -3 -39 -5 -65 -5zM377 257v236c0 19 -1 47 -5 70c-5 36 -23 70 -64 85c-12 5 -28 7 -53 7h-63v-228h93v-64
h-93v-268h63c24 0 41 2 53 7c40 15 59 50 64 85c4 23 5 51 5 70z" />
    <glyph glyph-name="dcroat" unicode="&#x111;" horiz-adv-x="467" 
d="M395 0h-60l-10 88c-27 -68 -78 -98 -135 -98c-82 0 -127 58 -141 137c-5 26 -6 54 -6 91v124c0 37 1 65 6 91c14 79 59 137 141 137c48 0 90 -27 110 -67h1s-1 25 -1 50v113h-132v53h132v74h95v-74h74v-53h-74v-666zM300 234v92c0 38 -4 60 -9 80c-11 40 -37 75 -80 75
c-46 0 -64 -41 -69 -80c-2 -16 -4 -45 -4 -57v-128c0 -12 2 -41 4 -57c5 -39 23 -80 69 -80c43 0 69 35 80 75c5 20 9 42 9 80z" />
    <glyph glyph-name="Emacron" unicode="&#x112;" horiz-adv-x="441" 
d="M413 0h-349v750h349v-95h-251v-222h208v-95h-208v-243h251v-95zM370 825h-258v62h258v-62z" />
    <glyph glyph-name="emacron" unicode="&#x113;" 
d="M290 152h93c-17 -100 -73 -162 -167 -162c-97 0 -154 65 -168 160c-3 21 -5 43 -5 75v110c0 32 2 54 5 74c14 96 71 161 168 161c98 0 153 -67 166 -161c4 -30 6 -53 6 -105v-44h-250v-36c0 -32 1 -54 4 -72c9 -46 35 -77 74 -77c43 0 67 39 74 77zM138 338h154
c0 22 0 45 -5 69c-10 46 -33 78 -72 78c-40 0 -65 -30 -73 -78c-3 -17 -4 -34 -4 -69zM347 645h-258v62h258v-62z" />
    <glyph glyph-name="Ebreve" unicode="&#x114;" horiz-adv-x="441" 
d="M413 0h-349v750h349v-95h-251v-222h208v-95h-208v-243h251v-95zM315 965h60c-7 -110 -62 -162 -138 -162s-131 52 -138 162h60c9 -75 39 -105 78 -105s69 30 78 105z" />
    <glyph glyph-name="ebreve" unicode="&#x115;" 
d="M290 152h93c-17 -100 -73 -162 -167 -162c-97 0 -154 65 -168 160c-3 21 -5 43 -5 75v110c0 32 2 54 5 74c14 96 71 161 168 161c98 0 153 -67 166 -161c4 -30 6 -53 6 -105v-44h-250v-36c0 -32 1 -54 4 -72c9 -46 35 -77 74 -77c43 0 67 39 74 77zM138 338h154
c0 22 0 45 -5 69c-10 46 -33 78 -72 78c-40 0 -65 -30 -73 -78c-3 -17 -4 -34 -4 -69zM295 785h60c-7 -110 -62 -162 -138 -162s-131 52 -138 162h60c9 -75 39 -105 78 -105s69 30 78 105z" />
    <glyph glyph-name="Edotaccent" unicode="&#x116;" horiz-adv-x="441" 
d="M413 0h-349v750h349v-95h-251v-222h208v-95h-208v-243h251v-95zM294 823h-101v109h101v-109z" />
    <glyph glyph-name="edotaccent" unicode="&#x117;" 
d="M290 152h93c-17 -100 -73 -162 -167 -162c-97 0 -154 65 -168 160c-3 21 -5 43 -5 75v110c0 32 2 54 5 74c14 96 71 161 168 161c98 0 153 -67 166 -161c4 -30 6 -53 6 -105v-44h-250v-36c0 -32 1 -54 4 -72c9 -46 35 -77 74 -77c43 0 67 39 74 77zM138 338h154
c0 22 0 45 -5 69c-10 46 -33 78 -72 78c-40 0 -65 -30 -73 -78c-3 -17 -4 -34 -4 -69zM270 643h-101v109h101v-109z" />
    <glyph glyph-name="Eogonek" unicode="&#x118;" horiz-adv-x="441" 
d="M428 -163l17 -40c-22 -15 -50 -26 -78 -26c-52 0 -99 28 -99 92c0 53 33 98 87 137h-291v750h349v-95h-251v-222h208v-95h-208v-243h251v-95c-60 -49 -87 -91 -87 -128c0 -32 19 -51 51 -51c18 0 34 6 51 16z" />
    <glyph glyph-name="eogonek" unicode="&#x119;" 
d="M294 -163l17 -40c-22 -15 -50 -26 -78 -26c-52 0 -99 28 -99 92c0 49 27 90 74 127c-92 4 -147 67 -160 160c-3 21 -5 43 -5 75v110c0 32 2 54 5 74c14 96 71 161 168 161c98 0 153 -67 166 -161c4 -30 6 -53 6 -105v-44h-250v-36c0 -32 1 -54 4 -72c9 -46 35 -77 74 -77
c43 0 67 39 74 77h93c-9 -55 -30 -98 -62 -126c-45 -39 -129 -94 -129 -154c0 -32 19 -51 51 -51c18 0 34 6 51 16zM138 338h154c0 22 0 45 -5 69c-10 46 -33 78 -72 78c-40 0 -65 -30 -73 -78c-3 -17 -4 -34 -4 -69z" />
    <glyph glyph-name="Ecaron" unicode="&#x11a;" horiz-adv-x="441" 
d="M413 0h-349v750h349v-95h-251v-222h208v-95h-208v-243h251v-95zM280 808h-78l-110 186h71l78 -125l78 125h71z" />
    <glyph glyph-name="ecaron" unicode="&#x11b;" 
d="M290 152h93c-17 -100 -73 -162 -167 -162c-97 0 -154 65 -168 160c-3 21 -5 43 -5 75v110c0 32 2 54 5 74c14 96 71 161 168 161c98 0 153 -67 166 -161c4 -30 6 -53 6 -105v-44h-250v-36c0 -32 1 -54 4 -72c9 -46 35 -77 74 -77c43 0 67 39 74 77zM138 338h154
c0 22 0 45 -5 69c-10 46 -33 78 -72 78c-40 0 -65 -30 -73 -78c-3 -17 -4 -34 -4 -69zM255 628h-78l-110 186h71l78 -125l78 125h71z" />
    <glyph glyph-name="Gcircumflex" unicode="&#x11c;" horiz-adv-x="495" 
d="M440 0h-51l-20 84c-30 -67 -75 -94 -133 -94c-105 0 -163 77 -179 184c-3 22 -4 49 -4 71v260c0 28 2 60 7 88c17 95 77 167 184 167h4c106 0 166 -71 184 -168c4 -23 7 -48 8 -73h-98s-1 30 -5 53c-8 47 -33 93 -89 93h-4c-53 0 -79 -46 -88 -93c-4 -22 -5 -51 -5 -70
v-254c0 -19 1 -48 5 -70c9 -47 34 -94 88 -94h4c58 0 83 46 91 94c3 22 5 49 5 71v44h-103v90h199v-383zM394 808h-70l-78 126l-78 -126h-70l109 186h78z" />
    <glyph glyph-name="gcircumflex" unicode="&#x11d;" horiz-adv-x="456" 
d="M300 -12v29c0 25 1 50 1 50h-1c-20 -40 -62 -67 -110 -67c-82 0 -127 58 -141 137c-5 26 -6 54 -6 91v114c0 37 1 65 6 91c14 79 59 137 143 137c56 0 107 -26 134 -84l9 74h60v-571c0 -36 -3 -62 -8 -86c-20 -86 -79 -141 -164 -141c-86 0 -155 50 -169 161h94
c11 -53 43 -76 75 -76c41 0 66 29 74 85c2 13 3 32 3 56zM300 244v82c0 38 -4 60 -9 80c-11 40 -37 75 -80 75c-46 0 -64 -41 -69 -80c-2 -16 -4 -45 -4 -57v-118c0 -12 2 -41 4 -57c5 -39 23 -80 69 -80c43 0 69 35 80 75c5 20 9 42 9 80zM379 628h-70l-78 126l-78 -126
h-70l109 186h78z" />
    <glyph glyph-name="Gbreve" unicode="&#x11e;" horiz-adv-x="495" 
d="M440 0h-51l-20 84c-30 -67 -75 -94 -133 -94c-105 0 -163 77 -179 184c-3 22 -4 49 -4 71v260c0 28 2 60 7 88c17 95 77 167 184 167h4c106 0 166 -71 184 -168c4 -23 7 -48 8 -73h-98s-1 30 -5 53c-8 47 -33 93 -89 93h-4c-53 0 -79 -46 -88 -93c-4 -22 -5 -51 -5 -70
v-254c0 -19 1 -48 5 -70c9 -47 34 -94 88 -94h4c58 0 83 46 91 94c3 22 5 49 5 71v44h-103v90h199v-383zM324 965h60c-7 -110 -62 -162 -138 -162s-131 52 -138 162h60c9 -75 39 -105 78 -105s69 30 78 105z" />
    <glyph glyph-name="gbreve" unicode="&#x11f;" horiz-adv-x="456" 
d="M300 -12v29c0 25 1 50 1 50h-1c-20 -40 -62 -67 -110 -67c-82 0 -127 58 -141 137c-5 26 -6 54 -6 91v114c0 37 1 65 6 91c14 79 59 137 143 137c56 0 107 -26 134 -84l9 74h60v-571c0 -36 -3 -62 -8 -86c-20 -86 -79 -141 -164 -141c-86 0 -155 50 -169 161h94
c11 -53 43 -76 75 -76c41 0 66 29 74 85c2 13 3 32 3 56zM300 244v82c0 38 -4 60 -9 80c-11 40 -37 75 -80 75c-46 0 -64 -41 -69 -80c-2 -16 -4 -45 -4 -57v-118c0 -12 2 -41 4 -57c5 -39 23 -80 69 -80c43 0 69 35 80 75c5 20 9 42 9 80zM304 785h60
c-7 -110 -62 -162 -138 -162s-131 52 -138 162h60c9 -75 39 -105 78 -105s69 30 78 105z" />
    <glyph glyph-name="Gdotaccent" unicode="&#x120;" horiz-adv-x="495" 
d="M440 0h-51l-20 84c-30 -67 -75 -94 -133 -94c-105 0 -163 77 -179 184c-3 22 -4 49 -4 71v260c0 28 2 60 7 88c17 95 77 167 184 167h4c106 0 166 -71 184 -168c4 -23 7 -48 8 -73h-98s-1 30 -5 53c-8 47 -33 93 -89 93h-4c-53 0 -79 -46 -88 -93c-4 -22 -5 -51 -5 -70
v-254c0 -19 1 -48 5 -70c9 -47 34 -94 88 -94h4c58 0 83 46 91 94c3 22 5 49 5 71v44h-103v90h199v-383zM296 823h-101v109h101v-109z" />
    <glyph glyph-name="gdotaccent" unicode="&#x121;" horiz-adv-x="456" 
d="M300 -12v29c0 25 1 50 1 50h-1c-20 -40 -62 -67 -110 -67c-82 0 -127 58 -141 137c-5 26 -6 54 -6 91v114c0 37 1 65 6 91c14 79 59 137 143 137c56 0 107 -26 134 -84l9 74h60v-571c0 -36 -3 -62 -8 -86c-20 -86 -79 -141 -164 -141c-86 0 -155 50 -169 161h94
c11 -53 43 -76 75 -76c41 0 66 29 74 85c2 13 3 32 3 56zM300 244v82c0 38 -4 60 -9 80c-11 40 -37 75 -80 75c-46 0 -64 -41 -69 -80c-2 -16 -4 -45 -4 -57v-118c0 -12 2 -41 4 -57c5 -39 23 -80 69 -80c43 0 69 35 80 75c5 20 9 42 9 80zM283 643h-101v109h101v-109z" />
    <glyph glyph-name="Gcommaaccent" unicode="&#x122;" horiz-adv-x="495" 
d="M440 0h-51l-20 84c-30 -67 -75 -94 -133 -94c-105 0 -163 77 -179 184c-3 22 -4 49 -4 71v260c0 28 2 60 7 88c17 95 77 167 184 167h4c106 0 166 -71 184 -168c4 -23 7 -48 8 -73h-98s-1 30 -5 53c-8 47 -33 93 -89 93h-4c-53 0 -79 -46 -88 -93c-4 -22 -5 -51 -5 -70
v-254c0 -19 1 -48 5 -70c9 -47 34 -94 88 -94h4c58 0 83 46 91 94c3 22 5 49 5 71v44h-103v90h199v-383zM191 -283v30c46 19 56 53 56 85c0 14 -7 17 -17 17h-33v101h95v-94c0 -63 -23 -124 -101 -139z" />
    <glyph glyph-name="gcommaaccent" unicode="&#x123;" horiz-adv-x="456" 
d="M247 640h-95v94c0 63 23 124 101 139v-30c-46 -19 -56 -53 -56 -85c0 -14 7 -17 17 -17h33v-101zM300 -22v29c0 25 1 50 1 50h-1c-20 -40 -62 -67 -110 -67c-82 0 -127 58 -141 137c-5 26 -6 54 -6 91v114c0 37 1 65 6 91c14 79 59 137 143 137c56 0 107 -26 134 -84
l9 74h60v-571c0 -36 -3 -62 -8 -86c-20 -86 -79 -141 -164 -141c-86 0 -155 50 -169 161h94c11 -53 43 -76 75 -76c41 0 66 29 74 85c2 13 3 32 3 56zM300 234v82c0 38 -4 60 -9 80c-11 40 -37 75 -80 75c-46 0 -64 -41 -69 -80c-2 -16 -4 -45 -4 -57v-118
c0 -12 2 -41 4 -57c5 -39 23 -80 69 -80c43 0 69 35 80 75c5 20 9 42 9 80z" />
    <glyph glyph-name="Hcircumflex" unicode="&#x124;" horiz-adv-x="524" 
d="M460 0h-98v343h-200v-343h-98v750h98v-312h200v312h98v-750zM410 818h-70l-78 126l-78 -126h-70l109 186h78z" />
    <glyph glyph-name="hcircumflex" unicode="&#x125;" horiz-adv-x="471" 
d="M413 0h-95v344c0 17 -1 39 -4 57c-6 39 -23 80 -69 80c-43 0 -69 -35 -80 -75c-5 -20 -9 -42 -9 -80v-326h-95v785h95v-232c0 -25 -1 -50 -1 -50h1c20 40 62 67 110 67c82 0 127 -58 141 -137c5 -26 6 -54 6 -91v-342zM377 828h-70l-78 126l-78 -126h-70l109 186h78z" />
    <glyph glyph-name="Hbar" unicode="&#x126;" horiz-adv-x="549" 
d="M476 0h-98v343h-200v-343h-98v575h-72v53h72v122h98v-122h200v122h98v-122h73v-53h-73v-575zM378 438v137h-200v-137h200z" />
    <glyph glyph-name="hbar" unicode="&#x127;" horiz-adv-x="491" 
d="M433 0h-95v344c0 12 -2 41 -4 57c-5 39 -23 80 -69 80c-43 0 -69 -35 -80 -75c-5 -20 -9 -42 -9 -80v-326h-95v658h-75v53h75v74h95v-74h132v-53h-132v-105c0 -25 -1 -50 -1 -50h1c20 40 62 67 110 67c82 0 127 -58 141 -137c5 -26 6 -54 6 -91v-342z" />
    <glyph glyph-name="Itilde" unicode="&#x128;" horiz-adv-x="226" 
d="M162 0h-98v750h98v-750zM229 936h52c-6 -78 -40 -131 -96 -131c-27 0 -50 12 -72 35c-33 35 -42 43 -63 43c-19 0 -36 -16 -41 -64h-52c7 77 40 130 96 130c27 0 50 -12 72 -35c33 -34 42 -43 64 -43c18 0 36 17 40 65z" />
    <glyph glyph-name="itilde" unicode="&#x129;" horiz-adv-x="217" 
d="M225 756h52c-6 -78 -40 -131 -96 -131c-27 0 -50 12 -72 35c-33 35 -42 43 -63 43c-19 0 -36 -16 -41 -64h-52c7 77 40 130 96 130c27 0 50 -12 72 -35c33 -34 42 -43 64 -43c18 0 36 17 40 65zM156 0h-95v560h95v-560z" />
    <glyph glyph-name="uni012A" unicode="&#x12a;" horiz-adv-x="226" 
d="M162 0h-98v750h98v-750zM243 825h-258v62h258v-62z" />
    <glyph glyph-name="imacron" unicode="&#x12b;" horiz-adv-x="217" 
d="M238 645h-258v62h258v-62zM156 0h-95v560h95v-560z" />
    <glyph glyph-name="Ibreve" unicode="&#x12c;" horiz-adv-x="226" 
d="M162 0h-98v750h98v-750zM191 965h60c-7 -110 -62 -162 -138 -162s-131 52 -138 162h60c9 -75 39 -105 78 -105s69 30 78 105z" />
    <glyph glyph-name="uni012D" unicode="&#x12d;" horiz-adv-x="217" 
d="M186 785h60c-7 -110 -62 -162 -138 -162s-131 52 -138 162h60c9 -75 39 -105 78 -105s69 30 78 105zM156 0h-95v560h95v-560z" />
    <glyph glyph-name="Iogonek" unicode="&#x12e;" horiz-adv-x="226" 
d="M177 -163l17 -40c-22 -15 -50 -26 -78 -26c-52 0 -99 28 -99 92c0 38 17 72 47 103v784h98v-750c-60 -49 -87 -91 -87 -128c0 -32 19 -51 51 -51c18 0 34 6 51 16z" />
    <glyph glyph-name="iogonek" unicode="&#x12f;" horiz-adv-x="217" 
d="M171 -163l17 -40c-22 -15 -50 -26 -78 -26c-52 0 -99 28 -99 92c0 40 18 75 50 106v591h95v-560c-60 -49 -87 -91 -87 -128c0 -32 19 -51 51 -51c18 0 34 6 51 16zM158 657h-99v108h99v-108z" />
    <glyph glyph-name="Idotaccent" unicode="&#x130;" horiz-adv-x="226" 
d="M162 0h-98v750h98v-750zM164 823h-101v109h101v-109z" />
    <glyph glyph-name="dotlessi" unicode="&#x131;" horiz-adv-x="217" 
d="M156 0h-95v560h95v-560z" />
    <glyph glyph-name="IJ" unicode="&#x132;" horiz-adv-x="664" 
d="M162 0h-98v750h98v-750zM506 214v536h98v-538c0 -24 -1 -42 -3 -58c-13 -92 -68 -164 -168 -164c-96 0 -154 65 -168 160c-2 16 -4 36 -4 63v50h98v-49c0 -25 2 -40 4 -54c7 -45 32 -75 70 -75c37 0 61 26 69 73c2 12 4 29 4 56z" />
    <glyph glyph-name="ij" unicode="&#x133;" horiz-adv-x="443" 
d="M156 0h-95v560h95v-560zM158 657h-99v108h99v-108zM384 657h-99v108h99v-108zM176 -235v89c8 -1 19 -2 33 -2c54 0 78 27 78 104v604h95v-607c0 -130 -64 -190 -162 -190c-19 0 -32 1 -44 2z" />
    <glyph glyph-name="Jcircumflex" unicode="&#x134;" horiz-adv-x="436" 
d="M278 214v536h98v-538c0 -24 -1 -42 -3 -58c-13 -92 -68 -164 -168 -164c-96 0 -154 65 -168 160c-2 16 -4 36 -4 63v50h98v-49c0 -25 2 -40 4 -54c7 -45 32 -75 70 -75c37 0 61 26 69 73c2 12 4 29 4 56zM476 808h-70l-78 126l-78 -126h-70l109 186h78z" />
    <glyph glyph-name="jcircumflex" unicode="&#x135;" horiz-adv-x="223" 
d="M-44 -235v89c8 -1 19 -2 33 -2c54 0 79 27 79 104v604h94v-607c0 -130 -64 -190 -162 -190c-19 0 -32 1 -44 2zM269 628h-70l-78 126l-78 -126h-70l109 186h78z" />
    <glyph glyph-name="Kcommaaccent" unicode="&#x136;" horiz-adv-x="480" 
d="M487 0h-107l-149 371l-69 -113v-258h-98v750h98v-336l1 -1s19 35 28 49l172 288h107l-178 -285zM208 -283v30c46 19 56 53 56 85c0 14 -7 17 -17 17h-33v101h95v-94c0 -63 -23 -124 -101 -139z" />
    <glyph glyph-name="kcommaaccent" unicode="&#x137;" horiz-adv-x="427" 
d="M427 0h-107l-116 285l-48 -66v-219h-95v785h95v-436l145 211h109l-142 -194zM180 -283v30c46 19 56 53 56 85c0 14 -7 17 -17 17h-33v101h95v-94c0 -63 -23 -124 -101 -139z" />
    <glyph glyph-name="kgreenlandic" unicode="&#x138;" horiz-adv-x="427" 
d="M427 0h-107l-116 285l-48 -66v-219h-95v560h95v-211l145 211h109l-142 -194z" />
    <glyph glyph-name="Lacute" unicode="&#x139;" horiz-adv-x="434" 
d="M416 0h-352v750h98v-655h254v-95zM137 807h-64l82 172h104v-7z" />
    <glyph glyph-name="lacute" unicode="&#x13a;" horiz-adv-x="217" 
d="M156 0h-95v785h95v-785zM128 837h-64l82 172h104v-7z" />
    <glyph glyph-name="Lcommaaccent" unicode="&#x13b;" horiz-adv-x="434" 
d="M416 0h-352v750h98v-655h254v-95zM190 -283v30c46 19 56 53 56 85c0 14 -7 17 -17 17h-33v101h95v-94c0 -63 -23 -124 -101 -139z" />
    <glyph glyph-name="lcommaaccent" unicode="&#x13c;" horiz-adv-x="217" 
d="M156 0h-95v785h95v-785zM55 -283v30c46 19 56 53 56 85c0 14 -7 17 -17 17h-33v101h95v-94c0 -63 -23 -124 -101 -139z" />
    <glyph glyph-name="Lcaron" unicode="&#x13d;" horiz-adv-x="434" 
d="M416 0h-352v750h98v-655h254v-95zM316 552v30c46 19 56 53 56 85c0 14 -7 17 -17 17h-33v101h95v-94c0 -63 -23 -124 -101 -139z" />
    <glyph glyph-name="lcaron" unicode="&#x13e;" horiz-adv-x="311" 
d="M156 0h-95v785h95v-785zM220 552v30c46 19 56 53 56 85c0 14 -7 17 -17 17h-33v101h95v-94c0 -63 -23 -124 -101 -139z" />
    <glyph glyph-name="Ldot" unicode="&#x13f;" horiz-adv-x="434" 
d="M416 0h-352v750h98v-655h254v-95zM394 348h-101v109h101v-109z" />
    <glyph glyph-name="ldot" unicode="&#x140;" horiz-adv-x="327" 
d="M156 0h-95v785h95v-785zM327 348h-101v109h101v-109z" />
    <glyph glyph-name="Lslash" unicode="&#x141;" horiz-adv-x="469" 
d="M451 0h-352v287l-85 -67v87l85 66v377h98v-303l130 101v-86l-130 -100v-267h254v-95z" />
    <glyph glyph-name="lslash" unicode="&#x142;" horiz-adv-x="295" 
d="M195 0h-95v333l-86 -81v86l86 81v366h95v-282l86 81v-86l-86 -81v-417z" />
    <glyph glyph-name="Nacute" unicode="&#x143;" horiz-adv-x="523" 
d="M459 0h-113l-190 546h-1s1 -33 1 -58v-488h-92v750h113l190 -546h1s-1 33 -1 58v488h92v-750zM267 807h-64l82 172h104v-7z" />
    <glyph glyph-name="nacute" unicode="&#x144;" horiz-adv-x="471" 
d="M413 0h-95v344c0 17 -1 39 -4 57c-6 39 -23 80 -69 80c-43 0 -69 -35 -80 -75c-5 -20 -9 -42 -9 -80v-326h-95v560h60l10 -88c27 68 78 98 135 98c82 0 127 -58 141 -137c5 -26 6 -54 6 -91v-342zM225 627h-64l82 172h104v-7z" />
    <glyph glyph-name="Ncommaaccent" unicode="&#x145;" horiz-adv-x="523" 
d="M459 0h-113l-190 546h-1s1 -33 1 -58v-488h-92v750h113l190 -546h1s-1 33 -1 58v488h92v-750zM206 -283v30c46 19 56 53 56 85c0 14 -7 17 -17 17h-33v101h95v-94c0 -63 -23 -124 -101 -139z" />
    <glyph glyph-name="ncommaaccent" unicode="&#x146;" horiz-adv-x="471" 
d="M413 0h-95v344c0 17 -1 39 -4 57c-6 39 -23 80 -69 80c-43 0 -69 -35 -80 -75c-5 -20 -9 -42 -9 -80v-326h-95v560h60l10 -88c27 68 78 98 135 98c82 0 127 -58 141 -137c5 -26 6 -54 6 -91v-342zM185 -283v30c46 19 56 53 56 85c0 14 -7 17 -17 17h-33v101h95v-94
c0 -63 -23 -124 -101 -139z" />
    <glyph glyph-name="Ncaron" unicode="&#x147;" horiz-adv-x="523" 
d="M459 0h-113l-190 546h-1s1 -33 1 -58v-488h-92v750h113l190 -546h1s-1 33 -1 58v488h92v-750zM300 808h-78l-110 186h71l78 -125l78 125h71z" />
    <glyph glyph-name="ncaron" unicode="&#x148;" horiz-adv-x="471" 
d="M413 0h-95v344c0 17 -1 39 -4 57c-6 39 -23 80 -69 80c-43 0 -69 -35 -80 -75c-5 -20 -9 -42 -9 -80v-326h-95v560h60l10 -88c27 68 78 98 135 98c82 0 127 -58 141 -137c5 -26 6 -54 6 -91v-342zM279 628h-78l-110 186h71l78 -125l78 125h71z" />
    <glyph glyph-name="napostrophe" unicode="&#x149;" horiz-adv-x="571" 
d="M513 0h-95v344c0 17 -1 39 -4 57c-6 39 -23 80 -69 80c-43 0 -69 -35 -80 -75c-5 -20 -9 -42 -9 -80v-326h-95v560h60l10 -88c27 68 78 98 135 98c82 0 127 -58 141 -137c5 -26 6 -54 6 -91v-342zM20 552v30c46 19 56 53 56 85c0 14 -7 17 -17 17h-33v101h95v-94
c0 -63 -23 -124 -101 -139z" />
    <glyph glyph-name="Eng" unicode="&#x14a;" horiz-adv-x="523" 
d="M253 -235v89c8 -1 19 -2 33 -2c54 0 78 27 78 104v44h-18l-190 546h-1s1 -33 1 -58v-488h-92v750h113l190 -546h1s-1 33 -1 58v488h92v-797c0 -130 -64 -190 -162 -190c-19 0 -32 1 -44 2z" />
    <glyph glyph-name="eng" unicode="&#x14b;" horiz-adv-x="471" 
d="M207 -235v89c8 -1 19 -2 33 -2c54 0 78 27 78 104v388c0 17 -1 39 -4 57c-6 39 -23 80 -69 80c-43 0 -69 -35 -80 -75c-5 -20 -9 -42 -9 -80v-326h-95v560h60l10 -88c27 68 78 98 135 98c82 0 127 -58 141 -137c5 -26 6 -54 6 -91v-389c0 -130 -64 -190 -162 -190
c-19 0 -32 1 -44 2z" />
    <glyph glyph-name="Omacron" unicode="&#x14c;" horiz-adv-x="493" 
d="M244 85h5c54 0 79 46 88 93c4 22 5 51 5 70v254c0 19 -1 48 -5 70c-9 47 -34 93 -88 93h-5c-54 0 -79 -46 -88 -93c-4 -22 -5 -51 -5 -70v-254c0 -19 1 -48 5 -70c9 -47 34 -93 88 -93zM249 -10h-5c-109 0 -167 73 -184 168c-5 28 -7 61 -7 89v256c0 28 2 61 7 89
c17 95 75 168 184 168h5c109 0 167 -73 184 -168c5 -28 7 -61 7 -89v-256c0 -28 -2 -61 -7 -89c-17 -95 -75 -168 -184 -168zM376 825h-258v62h258v-62z" />
    <glyph glyph-name="omacron" unicode="&#x14d;" 
d="M387 335v-110c0 -32 -2 -54 -5 -74c-14 -96 -70 -161 -167 -161s-153 65 -167 161c-3 20 -5 42 -5 74v110c0 32 2 54 5 74c14 96 70 161 167 161s153 -65 167 -161c3 -20 5 -42 5 -74zM292 227v106c0 32 -1 54 -4 71c-8 49 -33 78 -73 78s-65 -29 -73 -78
c-3 -17 -4 -39 -4 -71v-106c0 -32 1 -54 4 -71c8 -49 33 -78 73 -78s65 29 73 78c3 17 4 39 4 71zM345 645h-258v62h258v-62z" />
    <glyph glyph-name="Obreve" unicode="&#x14e;" horiz-adv-x="493" 
d="M244 85h5c54 0 79 46 88 93c4 22 5 51 5 70v254c0 19 -1 48 -5 70c-9 47 -34 93 -88 93h-5c-54 0 -79 -46 -88 -93c-4 -22 -5 -51 -5 -70v-254c0 -19 1 -48 5 -70c9 -47 34 -93 88 -93zM249 -10h-5c-109 0 -167 73 -184 168c-5 28 -7 61 -7 89v256c0 28 2 61 7 89
c17 95 75 168 184 168h5c109 0 167 -73 184 -168c5 -28 7 -61 7 -89v-256c0 -28 -2 -61 -7 -89c-17 -95 -75 -168 -184 -168zM324 965h60c-7 -110 -62 -162 -138 -162s-131 52 -138 162h60c9 -75 39 -105 78 -105s69 30 78 105z" />
    <glyph glyph-name="obreve" unicode="&#x14f;" 
d="M387 335v-110c0 -32 -2 -54 -5 -74c-14 -96 -70 -161 -167 -161s-153 65 -167 161c-3 20 -5 42 -5 74v110c0 32 2 54 5 74c14 96 70 161 167 161s153 -65 167 -161c3 -20 5 -42 5 -74zM292 227v106c0 32 -1 54 -4 71c-8 49 -33 78 -73 78s-65 -29 -73 -78
c-3 -17 -4 -39 -4 -71v-106c0 -32 1 -54 4 -71c8 -49 33 -78 73 -78s65 29 73 78c3 17 4 39 4 71zM293 785h60c-7 -110 -62 -162 -138 -162s-131 52 -138 162h60c9 -75 39 -105 78 -105s69 30 78 105z" />
    <glyph glyph-name="Ohungarumlaut" unicode="&#x150;" horiz-adv-x="493" 
d="M244 85h5c54 0 79 46 88 93c4 22 5 51 5 70v254c0 19 -1 48 -5 70c-9 47 -34 93 -88 93h-5c-54 0 -79 -46 -88 -93c-4 -22 -5 -51 -5 -70v-254c0 -19 1 -48 5 -70c9 -47 34 -93 88 -93zM249 -10h-5c-109 0 -167 73 -184 168c-5 28 -7 61 -7 89v256c0 28 2 61 7 89
c17 95 75 168 184 168h5c109 0 167 -73 184 -168c5 -28 7 -61 7 -89v-256c0 -28 -2 -61 -7 -89c-17 -95 -75 -168 -184 -168zM172 807h-63l79 172h100v-3zM342 807h-63l79 172h100v-3z" />
    <glyph glyph-name="ohungarumlaut" unicode="&#x151;" 
d="M387 335v-110c0 -32 -2 -54 -5 -74c-14 -96 -70 -161 -167 -161s-153 65 -167 161c-3 20 -5 42 -5 74v110c0 32 2 54 5 74c14 96 70 161 167 161s153 -65 167 -161c3 -20 5 -42 5 -74zM292 227v106c0 32 -1 54 -4 71c-8 49 -33 78 -73 78s-65 -29 -73 -78
c-3 -17 -4 -39 -4 -71v-106c0 -32 1 -54 4 -71c8 -49 33 -78 73 -78s65 29 73 78c3 17 4 39 4 71zM150 627h-63l79 172h100v-3zM320 627h-63l79 172h100v-3z" />
    <glyph glyph-name="OE" unicode="&#x152;" horiz-adv-x="683" 
d="M331 95v560h-87c-54 0 -79 -46 -88 -93c-4 -22 -5 -51 -5 -70v-234c0 -19 1 -48 5 -70c9 -47 34 -93 88 -93h87zM655 0h-411c-109 0 -167 73 -184 168c-5 28 -7 61 -7 89v236c0 28 2 61 7 89c17 95 75 168 184 168h411v-95h-226v-222h184v-95h-184v-243h226v-95z" />
    <glyph glyph-name="oe" unicode="&#x153;" horiz-adv-x="679" 
d="M387 338h154c0 22 0 45 -5 69c-10 46 -33 78 -72 78c-40 0 -65 -30 -73 -78c-3 -17 -4 -34 -4 -69zM539 152h93c-17 -100 -73 -162 -167 -162c-58 0 -99 28 -127 71c-27 -43 -66 -71 -123 -71c-97 0 -153 65 -167 161c-3 20 -5 42 -5 74v110c0 32 2 54 5 74
c14 96 70 161 167 161c56 0 95 -29 122 -73c27 43 69 73 128 73c98 0 153 -67 166 -161c4 -30 6 -53 6 -105v-44h-250v-36c0 -32 1 -54 4 -72c10 -46 35 -77 74 -77c43 0 67 39 74 77zM292 227v106c0 32 -1 54 -4 71c-8 49 -33 78 -73 78s-65 -29 -73 -78
c-3 -17 -4 -39 -4 -71v-106c0 -32 1 -54 4 -71c8 -49 33 -78 73 -78s65 29 73 78c3 17 4 39 4 71z" />
    <glyph glyph-name="Racute" unicode="&#x154;" horiz-adv-x="469" 
d="M455 0h-99c-12 17 -18 50 -20 83l-8 136c-4 59 -21 91 -59 103c-11 3 -25 5 -51 5h-56v-327h-98v750h151c25 0 48 -1 67 -5c92 -18 151 -79 151 -189c0 -72 -38 -146 -115 -178v-1c70 -18 103 -75 107 -146l8 -141c2 -37 8 -66 22 -88v-2zM162 420h52c21 0 35 1 47 4
c50 14 74 62 74 124s-31 93 -76 104c-12 3 -30 5 -48 5h-49v-237zM226 807h-64l82 172h104v-7z" />
    <glyph glyph-name="racute" unicode="&#x155;" horiz-adv-x="338" 
d="M156 0h-95v560h60l10 -92c29 73 84 102 142 102c18 0 39 -3 54 -7l-2 -92c-19 6 -38 10 -60 10c-66 0 -96 -56 -105 -124c-3 -27 -4 -58 -4 -91v-266zM187 627h-64l82 172h104v-7z" />
    <glyph glyph-name="Rcommaaccent" unicode="&#x156;" horiz-adv-x="469" 
d="M455 0h-99c-12 17 -18 50 -20 83l-8 136c-4 59 -21 91 -59 103c-11 3 -25 5 -51 5h-56v-327h-98v750h151c25 0 48 -1 67 -5c92 -18 151 -79 151 -189c0 -72 -38 -146 -115 -178v-1c70 -18 103 -75 107 -146l8 -141c2 -37 8 -66 22 -88v-2zM162 420h52c21 0 35 1 47 4
c50 14 74 62 74 124s-31 93 -76 104c-12 3 -30 5 -48 5h-49v-237zM205 -283v30c46 19 56 53 56 85c0 14 -7 17 -17 17h-33v101h95v-94c0 -63 -23 -124 -101 -139z" />
    <glyph glyph-name="rcommaaccent" unicode="&#x157;" horiz-adv-x="338" 
d="M156 0h-95v560h60l10 -92c29 73 84 102 142 102c18 0 39 -3 54 -7l-2 -92c-19 6 -38 10 -60 10c-66 0 -96 -56 -105 -124c-3 -27 -4 -58 -4 -91v-266zM55 -283v30c46 19 56 53 56 85c0 14 -7 17 -17 17h-33v101h95v-94c0 -63 -23 -124 -101 -139z" />
    <glyph glyph-name="Rcaron" unicode="&#x158;" horiz-adv-x="469" 
d="M455 0h-99c-12 17 -18 50 -20 83l-8 136c-4 59 -21 91 -59 103c-11 3 -25 5 -51 5h-56v-327h-98v750h151c25 0 48 -1 67 -5c92 -18 151 -79 151 -189c0 -72 -38 -146 -115 -178v-1c70 -18 103 -75 107 -146l8 -141c2 -37 8 -66 22 -88v-2zM162 420h52c21 0 35 1 47 4
c50 14 74 62 74 124s-31 93 -76 104c-12 3 -30 5 -48 5h-49v-237zM265 808h-78l-110 186h71l78 -125l78 125h71z" />
    <glyph glyph-name="rcaron" unicode="&#x159;" horiz-adv-x="338" 
d="M156 0h-95v560h60l10 -92c29 73 84 102 142 102c18 0 39 -3 54 -7l-2 -92c-19 6 -38 10 -60 10c-66 0 -96 -56 -105 -124c-3 -27 -4 -58 -4 -91v-266zM232 628h-78l-110 186h71l78 -125l78 125h71z" />
    <glyph glyph-name="Sacute" unicode="&#x15a;" horiz-adv-x="460" 
d="M223 338l-31 16c-79 42 -142 89 -142 212c0 124 79 194 182 194c107 0 188 -70 187 -211h-97c-2 73 -31 123 -90 123c-64 0 -85 -51 -85 -104c0 -68 33 -101 85 -126l36 -18c89 -43 157 -106 157 -225c0 -128 -82 -209 -194 -209c-118 0 -195 92 -197 215h98
c-1 -81 46 -127 100 -127c56 0 96 44 96 123c0 69 -38 103 -105 137zM223 807h-64l82 172h104v-7z" />
    <glyph glyph-name="sacute" unicode="&#x15b;" horiz-adv-x="383" 
d="M345 426h-90c-7 46 -29 68 -66 68c-42 0 -63 -27 -63 -70c0 -45 26 -69 82 -94c75 -33 145 -83 145 -177c0 -102 -62 -163 -156 -163c-100 0 -161 63 -171 162h90c7 -52 35 -85 80 -85c42 0 68 33 68 83c0 54 -32 78 -95 105c-86 37 -131 83 -131 163
c0 93 58 152 151 152c88 0 143 -47 156 -144zM181 627h-64l82 172h104v-7z" />
    <glyph glyph-name="Scircumflex" unicode="&#x15c;" horiz-adv-x="460" 
d="M223 338l-31 16c-79 42 -142 89 -142 212c0 124 79 194 182 194c107 0 188 -70 187 -211h-97c-2 73 -31 123 -90 123c-64 0 -85 -51 -85 -104c0 -68 33 -101 85 -126l36 -18c89 -43 157 -106 157 -225c0 -128 -82 -209 -194 -209c-118 0 -195 92 -197 215h98
c-1 -81 46 -127 100 -127c56 0 96 44 96 123c0 69 -38 103 -105 137zM385 808h-70l-78 126l-78 -126h-70l109 186h78z" />
    <glyph glyph-name="scircumflex" unicode="&#x15d;" horiz-adv-x="383" 
d="M345 426h-90c-7 46 -29 68 -66 68c-42 0 -63 -27 -63 -70c0 -45 26 -69 82 -94c75 -33 145 -83 145 -177c0 -102 -62 -163 -156 -163c-100 0 -161 63 -171 162h90c7 -52 35 -85 80 -85c42 0 68 33 68 83c0 54 -32 78 -95 105c-86 37 -131 83 -131 163
c0 93 58 152 151 152c88 0 143 -47 156 -144zM342 628h-70l-78 126l-78 -126h-70l109 186h78z" />
    <glyph glyph-name="Scedilla" unicode="&#x15e;" horiz-adv-x="460" 
d="M201 -86l-23 7c-11 3 -15 9 -10 23l18 51c-93 20 -151 103 -152 210h98c-1 -81 46 -127 100 -127c56 0 96 44 96 123c0 69 -38 103 -105 137l-31 16c-79 42 -142 89 -142 212c0 124 79 194 182 194c107 0 188 -70 187 -211h-97c-2 73 -31 123 -90 123
c-64 0 -85 -51 -85 -104c0 -68 33 -101 85 -126l36 -18c89 -43 157 -106 157 -225c0 -128 -82 -209 -194 -209h-5l-10 -37c53 -14 95 -46 95 -98c0 -56 -39 -90 -86 -90c-50 0 -86 33 -91 82h46c5 -22 20 -37 42 -37c24 0 38 18 38 44c0 28 -21 48 -59 60z" />
    <glyph glyph-name="scedilla" unicode="&#x15f;" horiz-adv-x="383" 
d="M166 -86l-23 7c-11 3 -15 9 -10 23l18 51c-71 14 -114 68 -125 157h91c7 -55 33 -85 78 -85c41 0 68 34 68 85c0 57 -31 78 -94 103c-90 36 -131 81 -131 163c0 93 58 152 151 152c88 0 143 -47 156 -144h-91c-6 46 -28 68 -65 68c-42 0 -63 -28 -63 -72
c0 -46 26 -71 82 -92c81 -31 145 -79 145 -177c0 -102 -60 -163 -156 -163h-6l-10 -37c53 -14 95 -46 95 -98c0 -56 -39 -90 -86 -90c-50 0 -86 33 -91 82h46c5 -22 20 -37 42 -37c24 0 38 18 38 44c0 28 -21 48 -59 60z" />
    <glyph glyph-name="Scaron" unicode="&#x160;" horiz-adv-x="460" 
d="M223 338l-31 16c-79 42 -142 89 -142 212c0 124 79 194 182 194c107 0 188 -70 187 -211h-97c-2 73 -31 123 -90 123c-64 0 -85 -51 -85 -104c0 -68 33 -101 85 -126l36 -18c89 -43 157 -106 157 -225c0 -128 -82 -209 -194 -209c-118 0 -195 92 -197 215h98
c-1 -81 46 -127 100 -127c56 0 96 44 96 123c0 69 -38 103 -105 137zM267 808h-78l-110 186h71l78 -125l78 125h71z" />
    <glyph glyph-name="scaron" unicode="&#x161;" horiz-adv-x="383" 
d="M345 426h-90c-7 46 -29 68 -66 68c-42 0 -63 -27 -63 -70c0 -45 26 -69 82 -94c75 -33 145 -83 145 -177c0 -102 -62 -163 -156 -163c-100 0 -161 63 -171 162h90c7 -52 35 -85 80 -85c42 0 68 33 68 83c0 54 -32 78 -95 105c-86 37 -131 83 -131 163
c0 93 58 152 151 152c88 0 143 -47 156 -144zM227 628h-78l-110 186h71l78 -125l78 125h71z" />
    <glyph glyph-name="Tcommaaccent" unicode="&#x162;" horiz-adv-x="432" 
d="M265 0h-98v655h-155v95h408v-95h-155v-655zM162 -283v30c46 19 56 53 56 85c0 14 -7 17 -17 17h-33v101h95v-94c0 -63 -23 -124 -101 -139z" />
    <glyph glyph-name="tcommaaccent" unicode="&#x163;" horiz-adv-x="298" 
d="M278 86v-86c-15 -2 -26 -2 -36 -2c-89 0 -137 39 -154 126c-4 23 -6 55 -6 88v260h-70v88h70v140h95v-140h100v-88h-100v-257c0 -34 2 -53 5 -69c10 -48 32 -61 77 -61c7 0 10 0 19 1zM132 -283v30c46 19 56 53 56 85c0 14 -7 17 -17 17h-33v101h95v-94
c0 -63 -23 -124 -101 -139z" />
    <glyph glyph-name="Tcaron" unicode="&#x164;" horiz-adv-x="432" 
d="M265 0h-98v655h-155v95h408v-95h-155v-655zM255 808h-78l-110 186h71l78 -125l78 125h71z" />
    <glyph glyph-name="tcaron" unicode="&#x165;" horiz-adv-x="413" 
d="M278 86v-86c-15 -2 -26 -2 -36 -2c-89 0 -137 39 -154 126c-4 23 -6 55 -6 88v260h-70v88h70v140h95v-140h100v-88h-100v-257c0 -34 2 -53 5 -69c10 -48 32 -61 77 -61c7 0 10 0 19 1zM322 552v30c46 19 56 53 56 85c0 14 -7 17 -17 17h-33v101h95v-94
c0 -63 -23 -124 -101 -139z" />
    <glyph glyph-name="Tbar" unicode="&#x166;" horiz-adv-x="448" 
d="M273 0h-98v379h-131v53h131v223h-155v95h408v-95h-155v-223h131v-53h-131v-379z" />
    <glyph glyph-name="tbar" unicode="&#x167;" horiz-adv-x="314" 
d="M288 86v-86c-15 -2 -26 -2 -36 -2c-89 0 -137 39 -154 126c-4 23 -6 55 -6 88v79h-70v53h70v128h-70v88h70v140h95v-140h100v-88h-100v-128h101v-53h-101v-76c0 -34 2 -53 5 -69c10 -48 32 -61 77 -61c7 0 10 0 19 1z" />
    <glyph glyph-name="Utilde" unicode="&#x168;" horiz-adv-x="507" 
d="M256 -10h-5c-109 0 -167 73 -184 168c-5 28 -7 61 -7 89v503h98v-502c0 -19 1 -48 5 -70c9 -47 34 -93 88 -93h5c54 0 79 46 88 93c4 22 5 51 5 70v502h98v-503c0 -28 -2 -61 -7 -89c-17 -95 -75 -168 -184 -168zM366 936h52c-6 -78 -40 -131 -96 -131
c-27 0 -50 12 -72 35c-33 35 -42 43 -63 43c-19 0 -36 -16 -41 -64h-52c7 77 40 130 96 130c27 0 50 -12 72 -35c33 -34 42 -43 64 -43c18 0 36 17 40 65z" />
    <glyph glyph-name="utilde" unicode="&#x169;" horiz-adv-x="471" 
d="M410 0h-60l-10 88c-27 -68 -78 -98 -135 -98c-82 0 -127 58 -141 137c-5 26 -6 54 -6 91v342h95v-344c0 -17 1 -39 4 -57c6 -39 23 -80 69 -80c43 0 69 35 80 75c5 20 9 42 9 80v326h95v-560zM349 756h52c-6 -78 -40 -131 -96 -131c-27 0 -50 12 -72 35
c-33 35 -42 43 -63 43c-19 0 -36 -16 -41 -64h-52c7 77 40 130 96 130c27 0 50 -12 72 -35c33 -34 42 -43 64 -43c18 0 36 17 40 65z" />
    <glyph glyph-name="Umacron" unicode="&#x16a;" horiz-adv-x="507" 
d="M256 -10h-5c-109 0 -167 73 -184 168c-5 28 -7 61 -7 89v503h98v-502c0 -19 1 -48 5 -70c9 -47 34 -93 88 -93h5c54 0 79 46 88 93c4 22 5 51 5 70v502h98v-503c0 -28 -2 -61 -7 -89c-17 -95 -75 -168 -184 -168zM383 825h-258v62h258v-62z" />
    <glyph glyph-name="umacron" unicode="&#x16b;" horiz-adv-x="471" 
d="M410 0h-60l-10 88c-27 -68 -78 -98 -135 -98c-82 0 -127 58 -141 137c-5 26 -6 54 -6 91v342h95v-344c0 -17 1 -39 4 -57c6 -39 23 -80 69 -80c43 0 69 35 80 75c5 20 9 42 9 80v326h95v-560zM365 645h-258v62h258v-62z" />
    <glyph glyph-name="Ubreve" unicode="&#x16c;" horiz-adv-x="507" 
d="M256 -10h-5c-109 0 -167 73 -184 168c-5 28 -7 61 -7 89v503h98v-502c0 -19 1 -48 5 -70c9 -47 34 -93 88 -93h5c54 0 79 46 88 93c4 22 5 51 5 70v502h98v-503c0 -28 -2 -61 -7 -89c-17 -95 -75 -168 -184 -168zM331 965h60c-7 -110 -62 -162 -138 -162
s-131 52 -138 162h60c9 -75 39 -105 78 -105s69 30 78 105z" />
    <glyph glyph-name="ubreve" unicode="&#x16d;" horiz-adv-x="471" 
d="M410 0h-60l-10 88c-27 -68 -78 -98 -135 -98c-82 0 -127 58 -141 137c-5 26 -6 54 -6 91v342h95v-344c0 -17 1 -39 4 -57c6 -39 23 -80 69 -80c43 0 69 35 80 75c5 20 9 42 9 80v326h95v-560zM313 785h60c-7 -110 -62 -162 -138 -162s-131 52 -138 162h60
c9 -75 39 -105 78 -105s69 30 78 105z" />
    <glyph glyph-name="Uring" unicode="&#x16e;" horiz-adv-x="507" 
d="M256 -10h-5c-109 0 -167 73 -184 168c-5 28 -7 61 -7 89v503h98v-502c0 -19 1 -48 5 -70c9 -47 34 -93 88 -93h5c54 0 79 46 88 93c4 22 5 51 5 70v502h98v-503c0 -28 -2 -61 -7 -89c-17 -95 -75 -168 -184 -168zM253 840c28 0 49 26 49 67s-21 67 -49 67
s-49 -26 -49 -67s21 -67 49 -67zM253 794c-56 0 -98 47 -98 113s42 113 98 113s98 -47 98 -113s-42 -113 -98 -113z" />
    <glyph glyph-name="uring" unicode="&#x16f;" horiz-adv-x="471" 
d="M410 0h-60l-10 88c-27 -68 -78 -98 -135 -98c-82 0 -127 58 -141 137c-5 26 -6 54 -6 91v342h95v-344c0 -17 1 -39 4 -57c6 -39 23 -80 69 -80c43 0 69 35 80 75c5 20 9 42 9 80v326h95v-560zM235 660c28 0 49 26 49 67s-21 67 -49 67s-49 -26 -49 -67s21 -67 49 -67z
M235 614c-56 0 -98 47 -98 113s42 113 98 113s98 -47 98 -113s-42 -113 -98 -113z" />
    <glyph glyph-name="Uhungarumlaut" unicode="&#x170;" horiz-adv-x="507" 
d="M256 -10h-5c-109 0 -167 73 -184 168c-5 28 -7 61 -7 89v503h98v-502c0 -19 1 -48 5 -70c9 -47 34 -93 88 -93h5c54 0 79 46 88 93c4 22 5 51 5 70v502h98v-503c0 -28 -2 -61 -7 -89c-17 -95 -75 -168 -184 -168zM177 807h-63l79 172h100v-3zM347 807h-63l79 172h100v-3z
" />
    <glyph glyph-name="uhungarumlaut" unicode="&#x171;" horiz-adv-x="471" 
d="M410 0h-60l-10 88c-27 -68 -78 -98 -135 -98c-82 0 -127 58 -141 137c-5 26 -6 54 -6 91v342h95v-344c0 -17 1 -39 4 -57c6 -39 23 -80 69 -80c43 0 69 35 80 75c5 20 9 42 9 80v326h95v-560zM161 627h-63l79 172h100v-3zM331 627h-63l79 172h100v-3z" />
    <glyph glyph-name="Uogonek" unicode="&#x172;" horiz-adv-x="507" 
d="M345 -163l17 -40c-22 -15 -50 -26 -78 -26c-52 0 -99 28 -99 92c0 49 27 90 74 127h-8c-109 0 -167 73 -184 168c-5 28 -7 61 -7 89v503h98v-502c0 -19 1 -48 5 -70c9 -47 34 -93 88 -93h5c54 0 79 46 88 93c4 22 5 51 5 70v502h98v-503c0 -28 -2 -61 -7 -89
c-9 -48 -27 -91 -58 -121c-61 -60 -139 -100 -139 -165c0 -32 19 -51 51 -51c18 0 34 6 51 16z" />
    <glyph glyph-name="uogonek" unicode="&#x173;" horiz-adv-x="471" 
d="M425 -163l17 -40c-22 -15 -50 -26 -78 -26c-52 0 -99 28 -99 92c0 53 32 97 85 136l-10 89c-27 -68 -78 -98 -135 -98c-82 0 -127 58 -141 137c-5 26 -6 54 -6 91v342h95v-344c0 -17 1 -39 4 -57c6 -39 23 -80 69 -80c43 0 69 35 80 75c5 20 9 42 9 80v326h95v-560
c-60 -49 -87 -91 -87 -128c0 -32 19 -51 51 -51c18 0 34 6 51 16z" />
    <glyph glyph-name="Wcircumflex" unicode="&#x174;" horiz-adv-x="681" 
d="M553 0h-125l-86 569h-3l-86 -569h-125l-114 750h102l76 -602h3l88 602h115l88 -602h3l76 602h102zM488 808h-70l-78 126l-78 -126h-70l109 186h78z" />
    <glyph glyph-name="wcircumflex" unicode="&#x175;" horiz-adv-x="577" 
d="M464 0h-101l-73 405h-3l-73 -405h-101l-106 560h94l66 -418h3l74 418h89l74 -418h3l66 418h94zM436 628h-70l-78 126l-78 -126h-70l109 186h78z" />
    <glyph glyph-name="Ycircumflex" unicode="&#x176;" horiz-adv-x="440" 
d="M269 0h-98v328l-176 422h105l120 -314l120 314h105l-176 -422v-328zM368 808h-70l-78 126l-78 -126h-70l109 186h78z" />
    <glyph glyph-name="ycircumflex" unicode="&#x177;" horiz-adv-x="396" 
d="M2 -207v86c13 -3 28 -6 46 -6c41 0 72 21 90 87l19 69l-149 531h95l99 -386h3l94 386h95l-158 -582c-37 -134 -89 -194 -171 -194c-27 0 -45 4 -63 9zM351 628h-70l-78 126l-78 -126h-70l109 186h78z" />
    <glyph glyph-name="Ydieresis" unicode="&#x178;" horiz-adv-x="440" 
d="M269 0h-98v328l-176 422h105l120 -314l120 314h105l-176 -422v-328zM180 824h-94v105h94v-105zM354 824h-94v105h94v-105z" />
    <glyph glyph-name="Zacute" unicode="&#x179;" horiz-adv-x="454" 
d="M421 0h-391v88l275 567h-265v95h376v-87l-275 -568h280v-95zM226 807h-64l82 172h104v-7z" />
    <glyph glyph-name="zacute" unicode="&#x17a;" horiz-adv-x="396" 
d="M370 0h-343v77l224 395h-215v88h322v-79l-222 -393h234v-88zM205 627h-64l82 172h104v-7z" />
    <glyph glyph-name="Zdotaccent" unicode="&#x17b;" horiz-adv-x="454" 
d="M421 0h-391v88l275 567h-265v95h376v-87l-275 -568h280v-95zM280 823h-101v109h101v-109z" />
    <glyph glyph-name="zdotaccent" unicode="&#x17c;" horiz-adv-x="396" 
d="M370 0h-343v77l224 395h-215v88h322v-79l-222 -393h234v-88zM251 643h-101v109h101v-109z" />
    <glyph glyph-name="Zcaron" unicode="&#x17d;" horiz-adv-x="454" 
d="M421 0h-391v88l275 567h-265v95h376v-87l-275 -568h280v-95zM267 808h-78l-110 186h71l78 -125l78 125h71z" />
    <glyph glyph-name="zcaron" unicode="&#x17e;" horiz-adv-x="396" 
d="M370 0h-343v77l224 395h-215v88h322v-79l-222 -393h234v-88zM238 628h-78l-110 186h71l78 -125l78 125h71z" />
    <glyph glyph-name="longs" unicode="&#x17f;" horiz-adv-x="247" 
d="M175 0h-95v472h-68v88h68v46c0 130 65 190 162 190c17 0 31 -1 45 -3v-89c-12 2 -21 3 -33 3c-54 0 -79 -27 -79 -104v-603z" />
    <glyph glyph-name="florin" unicode="&#x192;" horiz-adv-x="490" 
d="M450 0h-410v750h410v-750zM415 62v626l-150 -312zM75 62l150 314l-150 311v-625zM245 412l145 302h-290zM390 36l-145 302l-145 -302h290z" />
    <glyph glyph-name="dotlessj" unicode="&#x237;" horiz-adv-x="220" 
d="M-47 -235v89c8 -1 19 -2 33 -2c54 0 79 27 79 104v604h94v-607c0 -130 -64 -190 -162 -190c-19 0 -32 1 -44 2z" />
    <glyph glyph-name="circumflex" unicode="&#x2c6;" horiz-adv-x="438" 
d="M367 658h-70l-78 126l-78 -126h-70l109 186h78z" />
    <glyph glyph-name="caron" unicode="&#x2c7;" horiz-adv-x="438" 
d="M258 658h-78l-110 186h71l78 -125l78 125h71z" />
    <glyph glyph-name="breve" unicode="&#x2d8;" horiz-adv-x="438" 
d="M297 815h60c-7 -110 -62 -162 -138 -162s-131 52 -138 162h60c9 -75 39 -105 78 -105s69 30 78 105z" />
    <glyph glyph-name="dotaccent" unicode="&#x2d9;" horiz-adv-x="438" 
d="M270 673h-101v109h101v-109z" />
    <glyph glyph-name="ring" unicode="&#x2da;" horiz-adv-x="438" 
d="M219 690c28 0 49 26 49 67s-21 67 -49 67s-49 -26 -49 -67s21 -67 49 -67zM219 644c-56 0 -98 47 -98 113s42 113 98 113s98 -47 98 -113s-42 -113 -98 -113z" />
    <glyph glyph-name="ogonek" unicode="&#x2db;" horiz-adv-x="438" 
d="M294 -163l17 -40c-22 -16 -50 -26 -78 -26c-52 0 -99 28 -99 92c0 61 44 112 114 155l31 -18c-60 -49 -87 -91 -87 -128c0 -32 19 -51 51 -51c18 0 34 6 51 16z" />
    <glyph glyph-name="tilde" unicode="&#x2dc;" horiz-adv-x="438" 
d="M329 786h52c-6 -78 -40 -131 -96 -131c-27 0 -50 12 -72 35c-33 35 -42 43 -63 43c-19 0 -36 -16 -41 -64h-52c7 77 40 130 96 130c27 0 50 -12 72 -35c33 -34 42 -43 64 -43c18 0 36 17 40 65z" />
    <glyph glyph-name="hungarumlaut" unicode="&#x2dd;" horiz-adv-x="438" 
d="M148 657h-63l79 172h100v-3zM318 657h-63l79 172h100v-3z" />
    <glyph glyph-name="Delta" unicode="&#x394;" horiz-adv-x="460" 
d="M454 0h-448l157 750h134zM228 632l-106 -540h216l-106 540h-4z" />
    <glyph glyph-name="Delta" unicode="&#x2206;" horiz-adv-x="460" 
d="M454 0h-448l157 750h134zM228 632l-106 -540h216l-106 540h-4z" />
    <glyph glyph-name="Omega" unicode="&#x3a9;" horiz-adv-x="489" 
d="M247 665h-5c-54 0 -79 -46 -88 -93c-4 -22 -5 -51 -5 -70v-148c0 -19 1 -60 5 -82c7 -40 27 -73 66 -86v-186h-180v91h103v32c-47 29 -74 75 -85 136c-5 28 -7 66 -7 94v150c0 28 2 61 7 89c17 95 75 168 184 168h5c109 0 167 -73 184 -168c5 -28 7 -61 7 -89v-150
c0 -28 -2 -66 -7 -94c-11 -61 -38 -107 -85 -136v-32h103v-91h-180v186c38 13 58 46 66 86c4 22 5 63 5 82v148c0 19 -1 48 -5 70c-9 47 -34 93 -88 93z" />
    <glyph glyph-name="pi" unicode="&#x3c0;" horiz-adv-x="478" 
d="M284 204v268h-108v-472h-95v472h-67v88h432v-88h-67v-268c0 -34 0 -43 2 -59c6 -44 19 -60 60 -60c7 0 9 0 17 1v-85c-12 -2 -18 -3 -28 -3c-87 0 -132 38 -143 126c-3 23 -3 47 -3 80z" />
    <glyph glyph-name="uni0400" unicode="&#x400;" horiz-adv-x="441" 
d="M299 807h-63l-122 167v5h103zM413 0h-349v750h349v-95h-251v-222h208v-95h-208v-243h251v-95z" />
    <glyph glyph-name="afii10023" unicode="&#x401;" horiz-adv-x="441" 
d="M200 824h-94v105h94v-105zM374 824h-94v105h94v-105zM413 0h-349v750h349v-95h-251v-222h208v-95h-208v-243h251v-95z" />
    <glyph glyph-name="afii10051" unicode="&#x402;" horiz-adv-x="568" 
d="M302 0v93c36 0 51 3 63 8c53 20 72 75 72 124c0 54 -22 97 -73 118c-12 5 -28 8 -51 8h-75v-351h-98v655h-128v95h367v-95h-141v-211h77c28 0 47 -2 65 -6c105 -24 155 -109 155 -213c0 -110 -52 -193 -146 -217c-21 -5 -43 -8 -87 -8z" />
    <glyph glyph-name="afii10052" unicode="&#x403;" horiz-adv-x="426" 
d="M162 0h-98v750h344v-95h-246v-655zM229 807h-64l82 172h104v-7z" />
    <glyph glyph-name="afii10053" unicode="&#x404;" horiz-adv-x="474" 
d="M252 -10h-9c-109 0 -166 73 -183 168c-5 28 -7 61 -7 89v256c0 28 2 61 7 89c17 95 75 168 184 168h9c121 0 181 -97 189 -204h-98c-4 52 -34 109 -91 109h-9c-54 0 -79 -46 -88 -93c-4 -22 -5 -51 -5 -70v-69h180v-95h-180v-90c0 -19 1 -48 5 -70c9 -47 34 -93 88 -93h9
c60 0 91 67 91 116h98c-4 -112 -74 -211 -190 -211z" />
    <glyph glyph-name="afii10054" unicode="&#x405;" horiz-adv-x="460" 
d="M223 338l-31 16c-79 42 -142 89 -142 212c0 124 79 194 182 194c107 0 188 -70 187 -211h-97c-2 73 -31 123 -90 123c-64 0 -85 -51 -85 -104c0 -68 33 -101 85 -126l36 -18c89 -43 157 -106 157 -225c0 -128 -82 -209 -194 -209c-118 0 -195 92 -197 215h98
c-1 -81 46 -127 100 -127c56 0 96 44 96 123c0 69 -38 103 -105 137z" />
    <glyph glyph-name="afii10055" unicode="&#x406;" horiz-adv-x="226" 
d="M162 0h-98v750h98v-750z" />
    <glyph glyph-name="afii10056" unicode="&#x407;" horiz-adv-x="226" 
d="M162 0h-98v750h98v-750zM73 824h-94v105h94v-105zM247 824h-94v105h94v-105z" />
    <glyph glyph-name="afii10057" unicode="&#x408;" horiz-adv-x="436" 
d="M278 214v536h98v-538c0 -24 -1 -42 -3 -58c-13 -92 -68 -164 -168 -164c-96 0 -154 65 -168 160c-2 16 -4 36 -4 63v50h98v-49c0 -25 2 -40 4 -54c7 -45 32 -75 70 -75c37 0 61 26 69 73c2 12 4 29 4 56z" />
    <glyph glyph-name="afii10058" unicode="&#x409;" horiz-adv-x="737" 
d="M483 0h-153v655h-117l-13 -305c-6 -152 -20 -338 -196 -351v98c82 10 93 133 98 257l15 396h311v-295h56c28 0 47 -2 65 -6c105 -24 155 -116 155 -220c0 -110 -52 -197 -146 -221c-21 -5 -43 -8 -75 -8zM428 93h54c25 0 40 3 52 8c53 20 72 79 72 128
c0 54 -22 104 -73 125c-12 5 -28 8 -51 8h-54v-269z" />
    <glyph glyph-name="afii10059" unicode="&#x40a;" horiz-adv-x="727" 
d="M473 0h-153v361h-158v-361h-98v750h98v-294h158v294h98v-295h56c28 0 47 -2 65 -6c105 -24 155 -116 155 -220c0 -110 -52 -197 -146 -221c-21 -5 -43 -8 -75 -8zM418 93h54c25 0 40 3 52 8c53 20 72 79 72 128c0 54 -22 104 -73 125c-12 5 -28 8 -51 8h-54v-269z" />
    <glyph glyph-name="afii10060" unicode="&#x40b;" horiz-adv-x="587" 
d="M523 0h-98v179c0 27 -1 54 -3 69c-9 60 -36 102 -105 102h-79v-350h-98v655h-128v95h367v-95h-141v-210h80c128 0 188 -73 202 -185c2 -19 3 -51 3 -81v-179z" />
    <glyph glyph-name="afii10061" unicode="&#x40c;" horiz-adv-x="510" 
d="M500 0h-107l-147 343h-84v-343h-98v750h98v-312h69c59 0 79 35 91 119l8 54c14 93 45 143 118 143c15 0 34 -2 51 -5v-87c-11 2 -22 3 -33 2c-25 -2 -35 -21 -42 -69l-7 -49c-12 -84 -34 -138 -82 -173zM278 807h-64l82 172h104v-7z" />
    <glyph glyph-name="uni040D" unicode="&#x40d;" horiz-adv-x="523" 
d="M459 0h-93v493c0 38 3 68 3 68h-1l-191 -561h-113v750h93v-493c0 -38 -3 -68 -3 -68h1l191 561h113v-750zM320 807h-63l-122 167v5h103z" />
    <glyph glyph-name="afii10062" unicode="&#x40e;" horiz-adv-x="454" 
d="M43 2v92c19 -7 39 -12 60 -12c48 0 65 27 82 94l-169 574h100l119 -428h2l108 428h99l-167 -604c-32 -113 -82 -156 -159 -156c-32 0 -55 5 -75 12zM305 970h70c-5 -98 -61 -162 -139 -162s-134 64 -139 162h70c3 -65 30 -102 69 -102s66 37 69 102z" />
    <glyph glyph-name="afii10145" unicode="&#x40f;" horiz-adv-x="520" 
d="M307 -247h-94v247h-149v750h98v-655h196v655h98v-750h-149v-247z" />
    <glyph glyph-name="afii10017" unicode="&#x410;" horiz-adv-x="460" 
d="M295 317l-63 315h-4l-63 -315h130zM454 0h-98l-44 225h-164l-44 -225h-98l157 750h134z" />
    <glyph glyph-name="afii10018" unicode="&#x411;" horiz-adv-x="480" 
d="M224 0h-160v750h337v-95h-239v-200h63c28 0 47 -2 65 -6c105 -24 155 -116 155 -220c0 -110 -52 -197 -146 -221c-21 -5 -43 -8 -75 -8zM162 93h61c25 0 40 3 52 8c53 20 72 79 72 128c0 54 -22 104 -73 125c-12 5 -28 8 -51 8h-61v-269z" />
    <glyph glyph-name="afii10019" unicode="&#x412;" horiz-adv-x="485" 
d="M235 0h-171v750h151c39 0 69 -4 93 -10c79 -21 123 -81 123 -176c0 -69 -29 -130 -97 -171c86 -40 116 -111 116 -179c0 -117 -65 -198 -174 -212c-9 -1 -24 -2 -41 -2zM162 93h73c18 0 32 2 40 4c50 14 77 60 77 119c0 56 -24 99 -70 116c-12 5 -30 7 -53 7h-67v-246z
M162 430h58c21 0 39 3 51 8c40 15 64 53 64 114c0 52 -22 83 -59 97c-12 5 -32 8 -54 8h-60v-227z" />
    <glyph glyph-name="afii10020" unicode="&#x413;" horiz-adv-x="426" 
d="M162 0h-98v750h344v-95h-246v-655z" />
    <glyph glyph-name="afii10021" unicode="&#x414;" horiz-adv-x="576" 
d="M570 -247h-94v247h-376v-247h-94v342h22c75 0 94 135 99 259l15 396h341v-655h87v-342zM385 95v560h-147l-13 -305c-4 -86 -8 -192 -57 -255h217z" />
    <glyph glyph-name="afii10022" unicode="&#x415;" horiz-adv-x="441" 
d="M413 0h-349v750h349v-95h-251v-222h208v-95h-208v-243h251v-95z" />
    <glyph glyph-name="afii10024" unicode="&#x416;" horiz-adv-x="742" 
d="M732 0h-107l-147 343h-58v-343h-98v343h-58l-147 -343h-107l165 373c-54 33 -70 89 -82 173l-7 49c-7 48 -17 69 -51 69c-9 0 -15 -1 -24 -3v88c17 4 36 5 51 5c73 0 104 -50 118 -143l8 -54c12 -84 32 -119 91 -119h43v312h98v-312h43c59 0 79 35 91 119l8 54
c14 93 45 143 118 143c15 0 34 -1 51 -5v-88c-9 2 -15 3 -24 3c-34 0 -44 -21 -51 -69l-7 -49c-12 -84 -28 -140 -82 -173z" />
    <glyph glyph-name="afii10025" unicode="&#x417;" horiz-adv-x="455" 
d="M208 336h-72v85h72c78 0 110 64 110 129c0 78 -40 117 -91 117c-61 0 -96 -42 -97 -114h-97c0 121 73 207 194 207c108 0 189 -81 189 -206c0 -72 -25 -133 -90 -175c66 -42 94 -107 94 -180c0 -122 -82 -209 -193 -209c-121 0 -194 86 -194 207h97
c1 -72 36 -114 97 -114c54 0 95 43 95 121c0 66 -35 132 -114 132z" />
    <glyph glyph-name="afii10026" unicode="&#x418;" horiz-adv-x="523" 
d="M459 0h-93v493c0 38 3 68 3 68h-1l-191 -561h-113v750h93v-493c0 -38 -3 -68 -3 -68h1l191 561h113v-750z" />
    <glyph glyph-name="afii10027" unicode="&#x419;" horiz-adv-x="523" 
d="M459 0h-93v493c0 38 3 68 3 68h-1l-191 -561h-113v750h93v-493c0 -38 -3 -68 -3 -68h1l191 561h113v-750zM329 970h70c-5 -98 -61 -162 -139 -162s-134 64 -139 162h70c3 -65 30 -102 69 -102s66 37 69 102z" />
    <glyph glyph-name="afii10028" unicode="&#x41a;" horiz-adv-x="510" 
d="M500 0h-107l-147 343h-84v-343h-98v750h98v-312h69c59 0 79 35 91 119l8 54c14 93 45 143 118 143c15 0 34 -2 51 -5v-87c-11 2 -22 3 -33 2c-25 -2 -35 -21 -42 -69l-7 -49c-12 -84 -34 -138 -82 -173z" />
    <glyph glyph-name="afii10029" unicode="&#x41b;" horiz-adv-x="528" 
d="M464 0h-98v655h-153l-13 -305c-6 -152 -20 -338 -196 -351v98c82 10 93 133 98 257l15 396h347v-750z" />
    <glyph glyph-name="afii10030" unicode="&#x41c;" horiz-adv-x="622" 
d="M558 0h-92v496c0 25 1 58 1 58h-1l-119 -415h-72l-119 415h-1s1 -33 1 -58v-496h-92v750h119l128 -446l128 446h119v-750z" />
    <glyph glyph-name="afii10031" unicode="&#x41d;" horiz-adv-x="524" 
d="M460 0h-98v343h-200v-343h-98v750h98v-312h200v312h98v-750z" />
    <glyph glyph-name="afii10032" unicode="&#x41e;" horiz-adv-x="493" 
d="M244 85h5c54 0 79 46 88 93c4 22 5 51 5 70v254c0 19 -1 48 -5 70c-9 47 -34 93 -88 93h-5c-54 0 -79 -46 -88 -93c-4 -22 -5 -51 -5 -70v-254c0 -19 1 -48 5 -70c9 -47 34 -93 88 -93zM249 -10h-5c-109 0 -167 73 -184 168c-5 28 -7 61 -7 89v256c0 28 2 61 7 89
c17 95 75 168 184 168h5c109 0 167 -73 184 -168c5 -28 7 -61 7 -89v-256c0 -28 -2 -61 -7 -89c-17 -95 -75 -168 -184 -168z" />
    <glyph glyph-name="afii10033" unicode="&#x41f;" horiz-adv-x="520" 
d="M456 0h-98v655h-196v-655h-98v750h392v-750z" />
    <glyph glyph-name="afii10034" unicode="&#x420;" horiz-adv-x="481" 
d="M162 388h64c23 0 39 3 51 8c51 21 73 71 73 125c0 49 -19 108 -72 128c-12 5 -27 8 -52 8h-64v-269zM162 0h-98v750h163c32 0 54 -3 75 -8c94 -24 146 -111 146 -221c0 -104 -50 -196 -155 -220c-18 -4 -37 -6 -65 -6h-66v-295z" />
    <glyph glyph-name="afii10035" unicode="&#x421;" horiz-adv-x="472" 
d="M248 -10h-4c-107 0 -167 72 -184 167c-5 28 -7 60 -7 88v260c0 28 2 60 7 88c17 95 77 167 184 167h4c106 0 166 -71 184 -168c4 -23 7 -48 8 -73h-98s-1 30 -5 53c-8 47 -33 93 -89 93h-4c-53 0 -79 -46 -88 -93c-4 -22 -5 -51 -5 -70v-254c0 -19 1 -48 5 -70
c9 -47 35 -93 88 -93h4c56 0 81 45 89 93c3 18 5 41 5 58h98c-1 -27 -4 -54 -8 -78c-18 -97 -78 -168 -184 -168z" />
    <glyph glyph-name="afii10036" unicode="&#x422;" horiz-adv-x="432" 
d="M265 0h-98v655h-155v95h408v-95h-155v-655z" />
    <glyph glyph-name="afii10037" unicode="&#x423;" horiz-adv-x="454" 
d="M43 2v92c19 -7 39 -12 60 -12c48 0 65 27 82 94l-169 574h100l119 -428h2l108 428h99l-167 -604c-32 -113 -82 -156 -159 -156c-32 0 -55 5 -75 12z" />
    <glyph glyph-name="afii10038" unicode="&#x424;" horiz-adv-x="604" 
d="M351 -40h-98v131h-19c-84 0 -156 51 -184 141c-9 31 -14 67 -14 115v56c0 48 5 84 14 115c28 90 100 141 184 141h19v131h98v-131h19c84 0 156 -51 184 -141c9 -31 14 -67 14 -115v-56c0 -48 -5 -84 -14 -115c-28 -90 -100 -141 -184 -141h-19v-131zM351 186h19
c38 0 73 19 90 73c7 22 10 52 10 88v56c0 36 -3 66 -10 88c-17 54 -52 73 -90 73h-19v-378zM253 186v378h-19c-38 0 -73 -19 -90 -73c-7 -22 -10 -52 -10 -88v-56c0 -36 3 -66 10 -88c17 -54 52 -73 90 -73h19z" />
    <glyph glyph-name="afii10039" unicode="&#x425;" horiz-adv-x="439" 
d="M439 0h-104l-115 287l-114 -287h-106l170 391l-151 359h105l96 -252l97 252h105l-151 -359z" />
    <glyph glyph-name="afii10040" unicode="&#x426;" horiz-adv-x="550" 
d="M543 -247h-94v247h-385v750h98v-655h196v655h98v-655h87v-342z" />
    <glyph glyph-name="afii10041" unicode="&#x427;" horiz-adv-x="499" 
d="M435 0h-98v291c-25 -3 -53 -5 -80 -5c-128 0 -195 75 -209 187c-2 19 -3 51 -3 81v196h98v-196c0 -27 1 -54 3 -69c10 -60 43 -104 112 -104c26 0 56 2 79 5v364h98v-750z" />
    <glyph glyph-name="afii10042" unicode="&#x428;" horiz-adv-x="688" 
d="M624 0h-560v750h98v-655h133v655h98v-655h133v655h98v-750z" />
    <glyph glyph-name="afii10043" unicode="&#x429;" horiz-adv-x="718" 
d="M711 -247h-94v247h-553v750h98v-655h133v655h98v-655h133v655h98v-655h87v-342z" />
    <glyph glyph-name="afii10044" unicode="&#x42a;" horiz-adv-x="592" 
d="M338 0h-169v655h-157v95h255v-295h72c28 0 47 -2 65 -6c105 -24 155 -116 155 -220c0 -110 -52 -197 -146 -221c-21 -5 -43 -8 -75 -8zM267 93h70c25 0 40 3 52 8c53 20 72 79 72 128c0 54 -22 104 -73 125c-12 5 -28 8 -51 8h-70v-269z" />
    <glyph glyph-name="afii10045" unicode="&#x42b;" horiz-adv-x="668" 
d="M162 93h47c25 0 40 3 52 8c53 20 72 79 72 128c0 54 -22 104 -73 125c-12 5 -28 8 -51 8h-47v-269zM210 0h-146v750h98v-295h49c28 0 47 -2 65 -6c105 -24 155 -116 155 -220c0 -110 -52 -197 -146 -221c-21 -5 -43 -8 -75 -8zM604 0h-98v750h98v-750z" />
    <glyph glyph-name="afii10046" unicode="&#x42c;" horiz-adv-x="487" 
d="M162 93h70c25 0 40 3 52 8c53 20 72 79 72 128c0 54 -22 104 -73 125c-12 5 -28 8 -51 8h-70v-269zM233 0h-169v750h98v-295h72c28 0 47 -2 65 -6c105 -24 155 -116 155 -220c0 -110 -52 -197 -146 -221c-21 -5 -43 -8 -75 -8z" />
    <glyph glyph-name="afii10047" unicode="&#x42d;" horiz-adv-x="474" 
d="M231 -10h-9c-116 0 -186 99 -190 211h98c0 -49 31 -116 91 -116h9c54 0 79 46 88 93c4 22 5 51 5 70v90h-180v95h180v69c0 19 -1 48 -5 70c-9 47 -34 93 -88 93h-9c-57 0 -87 -57 -91 -109h-98c8 107 68 204 189 204h9c109 0 167 -73 184 -168c5 -28 7 -61 7 -89v-256
c0 -28 -2 -61 -7 -89c-17 -95 -74 -168 -183 -168z" />
    <glyph glyph-name="afii10048" unicode="&#x42e;" horiz-adv-x="683" 
d="M442 -10h-5c-109 0 -164 73 -181 168c-5 28 -7 61 -7 89v96h-87v-343h-98v750h98v-312h87v65c0 28 2 61 7 89c17 95 72 168 181 168h5c109 0 164 -73 181 -168c5 -28 7 -61 7 -89v-256c0 -28 -2 -61 -7 -89c-17 -95 -72 -168 -181 -168zM437 85h5c54 0 76 46 85 93
c4 22 5 51 5 70v254c0 19 -1 48 -5 70c-9 47 -31 93 -85 93h-5c-54 0 -76 -46 -85 -93c-4 -22 -5 -51 -5 -70v-254c0 -19 1 -48 5 -70c9 -47 31 -93 85 -93z" />
    <glyph glyph-name="afii10049" unicode="&#x42f;" horiz-adv-x="477" 
d="M413 0h-98v327h-56c-26 0 -40 -2 -51 -5c-38 -12 -55 -44 -59 -103l-8 -136c-2 -33 -8 -66 -20 -83h-99v2c14 22 20 51 22 88l8 137c4 71 31 128 103 146v1c-82 32 -111 106 -111 182c0 110 59 171 151 189c19 4 42 5 67 5h151v-750zM315 420v237h-49
c-18 0 -36 -2 -48 -5c-45 -11 -76 -42 -76 -104c0 -86 43 -128 121 -128h52z" />
    <glyph glyph-name="afii10065" unicode="&#x430;" horiz-adv-x="435" 
d="M377 0h-61l-11 81c-28 -65 -70 -91 -128 -91c-77 0 -139 62 -139 182c0 91 47 155 137 170c14 2 31 4 57 4h51v20c0 38 -2 75 -20 99c-11 14 -27 23 -47 23c-32 0 -57 -22 -67 -63h-90c16 88 76 145 161 145c47 0 86 -16 112 -47c39 -48 45 -114 45 -183v-340zM284 244
v26h-55c-23 0 -39 -3 -50 -8c-31 -15 -48 -44 -48 -90c0 -64 22 -97 68 -97c44 0 67 42 78 92c5 21 7 46 7 77z" />
    <glyph glyph-name="afii10066" unicode="&#x431;" horiz-adv-x="433" 
d="M390 295v-70c0 -32 -2 -54 -5 -74c-14 -96 -70 -161 -167 -161s-153 65 -167 161c-3 20 -5 42 -5 74v264c0 173 55 263 199 283l120 17v-87l-102 -16c-79 -13 -123 -59 -123 -189v-23c22 37 58 55 98 55c86 0 134 -64 147 -160c3 -20 5 -42 5 -74zM295 227v66
c0 32 -1 54 -4 71c-8 49 -26 77 -66 77c-56 0 -84 -69 -84 -148v-66c0 -32 1 -54 4 -71c8 -49 33 -78 73 -78s65 29 73 78c3 17 4 39 4 71z" />
    <glyph glyph-name="afii10067" unicode="&#x432;" horiz-adv-x="423" 
d="M209 0h-148v560h131c33 0 59 -3 80 -7c68 -15 106 -60 106 -131c0 -50 -24 -98 -78 -129c69 -30 94 -84 94 -133c0 -87 -56 -148 -150 -159c-9 -1 -20 -1 -35 -1zM156 85h54c14 0 25 2 30 3c36 10 58 38 58 78c0 36 -18 64 -53 75c-9 3 -22 5 -39 5h-50v-161zM156 331h43
c16 0 30 2 38 5c30 9 48 33 48 73c0 33 -17 52 -44 61c-9 3 -24 5 -40 5h-45v-144z" />
    <glyph glyph-name="afii10068" unicode="&#x433;" horiz-adv-x="366" 
d="M156 0h-95v560h291v-88h-196v-472z" />
    <glyph glyph-name="afii10069" unicode="&#x434;" horiz-adv-x="501" 
d="M491 -203h-89v203h-303v-203h-89v291h34c47 0 63 94 66 178l12 294h295v-472h74v-291zM322 88v384h-111l-9 -211c-2 -58 -15 -131 -49 -173h169z" />
    <glyph glyph-name="afii10070" unicode="&#x435;" 
d="M290 152h93c-17 -100 -73 -162 -167 -162c-97 0 -154 65 -168 160c-3 21 -5 43 -5 75v110c0 32 2 54 5 74c14 96 71 161 168 161c98 0 153 -67 166 -161c4 -30 6 -53 6 -105v-44h-250v-36c0 -32 1 -54 4 -72c9 -46 35 -77 74 -77c43 0 67 39 74 77zM138 338h154
c0 22 0 45 -5 69c-10 46 -33 78 -72 78c-40 0 -65 -30 -73 -78c-3 -17 -4 -34 -4 -69z" />
    <glyph glyph-name="afii10072" unicode="&#x436;" horiz-adv-x="621" 
d="M613 0h-103l-119 250h-33v-250h-95v250h-33l-119 -250h-103l136 276c-39 28 -55 65 -63 124l-5 36c-5 34 -16 49 -38 49c-9 0 -17 -2 -24 -4l-2 77c14 4 31 7 49 7c67 0 93 -41 105 -112l7 -43c9 -53 23 -77 67 -77h23v227h95v-227h23c44 0 58 24 67 77l7 43
c12 71 38 112 105 112c18 0 35 -3 49 -7l-2 -77c-7 2 -15 4 -24 4c-22 0 -33 -15 -38 -49l-5 -36c-8 -59 -24 -96 -63 -124z" />
    <glyph glyph-name="afii10073" unicode="&#x437;" horiz-adv-x="386" 
d="M174 242h-53v82h53c66 0 86 41 86 83c0 50 -26 76 -66 76c-49 0 -76 -27 -76 -77h-93c0 96 65 164 171 164c90 0 158 -60 158 -148c0 -56 -22 -109 -76 -140c58 -27 79 -78 79 -133c0 -85 -59 -159 -161 -159c-106 0 -171 70 -171 165h94c0 -48 28 -78 77 -78
c40 0 67 31 67 79c0 42 -23 86 -89 86z" />
    <glyph glyph-name="afii10074" unicode="&#x438;" horiz-adv-x="461" 
d="M400 0h-89v332c0 15 1 44 3 65h-1l-147 -397h-105v560h89v-336c0 -15 -1 -44 -3 -65h1l149 401h103v-560z" />
    <glyph glyph-name="afii10075" unicode="&#x439;" horiz-adv-x="461" 
d="M400 0h-89v332c0 15 1 44 3 65h-1l-147 -397h-105v560h89v-336c0 -15 -1 -44 -3 -65h1l149 401h103v-560zM296 790h70c-5 -98 -61 -162 -139 -162s-134 64 -139 162h70c3 -65 30 -102 69 -102s66 37 69 102z" />
    <glyph glyph-name="afii10076" unicode="&#x43a;" horiz-adv-x="432" 
d="M424 0h-103l-119 250h-46v-250h-95v560h95v-227h36c44 0 58 24 67 77l7 43c12 71 38 112 105 112c18 0 35 -3 49 -7l-2 -77c-7 2 -15 4 -24 4c-22 0 -33 -15 -38 -49l-5 -36c-8 -59 -24 -96 -63 -124z" />
    <glyph glyph-name="afii10077" unicode="&#x43b;" horiz-adv-x="456" 
d="M395 0h-95v472h-115l-10 -211c-6 -124 -27 -250 -171 -262v89c62 4 75 84 79 178l12 294h300v-560z" />
    <glyph glyph-name="afii10078" unicode="&#x43c;" horiz-adv-x="532" 
d="M471 0h-89v293c0 19 1 57 2 76h-2l-80 -253h-72l-80 253h-2c1 -19 2 -57 2 -76v-293h-89v560h102l103 -327l103 327h102v-560z" />
    <glyph glyph-name="afii10079" unicode="&#x43d;" horiz-adv-x="462" 
d="M401 0h-95v248h-150v-248h-95v560h95v-224h150v224h95v-560z" />
    <glyph glyph-name="afii10080" unicode="&#x43e;" 
d="M387 335v-110c0 -32 -2 -54 -5 -74c-14 -96 -70 -161 -167 -161s-153 65 -167 161c-3 20 -5 42 -5 74v110c0 32 2 54 5 74c14 96 70 161 167 161s153 -65 167 -161c3 -20 5 -42 5 -74zM292 227v106c0 32 -1 54 -4 71c-8 49 -33 78 -73 78s-65 -29 -73 -78
c-3 -17 -4 -39 -4 -71v-106c0 -32 1 -54 4 -71c8 -49 33 -78 73 -78s65 29 73 78c3 17 4 39 4 71z" />
    <glyph glyph-name="afii10081" unicode="&#x43f;" horiz-adv-x="457" 
d="M396 0h-95v472h-145v-472h-95v560h335v-560z" />
    <glyph glyph-name="afii10082" unicode="&#x440;" horiz-adv-x="456" 
d="M156 -244h-95v804h60l9 -79c28 61 81 89 136 89c82 0 127 -58 141 -137c5 -26 6 -54 6 -91v-124c0 -37 -1 -65 -6 -91c-14 -79 -59 -137 -141 -137c-48 0 -90 21 -110 58h-1s1 -25 1 -50v-242zM318 216v128c0 12 -2 41 -4 57c-5 39 -23 80 -69 80c-43 0 -69 -35 -80 -75
c-5 -20 -9 -42 -9 -80v-92c0 -38 4 -60 9 -80c11 -40 37 -75 80 -75c46 0 64 41 69 80c2 16 4 45 4 57z" />
    <glyph glyph-name="afii10083" unicode="&#x441;" horiz-adv-x="416" 
d="M289 166h95c-12 -98 -71 -176 -169 -176c-97 0 -153 65 -167 161c-3 20 -5 42 -5 74v110c0 32 2 54 5 74c14 96 70 161 167 161s157 -65 170 -186h-95c-2 47 -24 98 -75 98c-40 0 -65 -29 -73 -78c-3 -17 -4 -39 -4 -71v-106c0 -32 1 -54 4 -71c8 -49 33 -78 73 -78
c47 0 69 48 74 88z" />
    <glyph glyph-name="afii10084" unicode="&#x442;" horiz-adv-x="375" 
d="M235 0h-95v472h-128v88h351v-88h-128v-472z" />
    <glyph glyph-name="afii10085" unicode="&#x443;" horiz-adv-x="396" 
d="M2 -207v86c13 -3 28 -6 46 -6c41 0 72 21 90 87l19 69l-149 531h95l99 -386h3l94 386h95l-158 -582c-37 -134 -89 -194 -171 -194c-27 0 -45 4 -63 9z" />
    <glyph glyph-name="afii10086" unicode="&#x444;" horiz-adv-x="535" 
d="M311 -248h-87v238h-9c-97 0 -153 65 -167 161c-3 20 -5 42 -5 74v110c0 32 2 54 5 74c14 96 70 161 167 161h9v218h87v-218h9c97 0 153 -65 167 -161c3 -20 5 -42 5 -74v-110c0 -32 -2 -54 -5 -74c-14 -96 -70 -161 -167 -161h-9v-238zM311 78h9c40 0 65 29 73 78
c3 17 4 39 4 71v106c0 32 -1 54 -4 71c-8 49 -33 78 -73 78h-9v-404zM224 78v404h-9c-40 0 -65 -29 -73 -78c-3 -17 -4 -39 -4 -71v-106c0 -32 1 -54 4 -71c8 -49 33 -78 73 -78h9z" />
    <glyph glyph-name="afii10087" unicode="&#x445;" horiz-adv-x="382" 
d="M379 0h-98l-90 206l-90 -206h-98l139 293l-128 267h99l78 -180l76 180h99l-127 -267z" />
    <glyph glyph-name="afii10088" unicode="&#x446;" horiz-adv-x="489" 
d="M479 -203h-89v203h-329v560h95v-472h145v472h95v-472h83v-291z" />
    <glyph glyph-name="afii10089" unicode="&#x447;" horiz-adv-x="427" 
d="M366 0h-95v210c-22 -4 -47 -7 -73 -7c-93 0 -149 50 -162 143c-2 13 -4 37 -4 59v155h95v-154c0 -17 1 -35 3 -48c6 -38 30 -66 85 -66c20 0 39 2 56 6v262h95v-560z" />
    <glyph glyph-name="afii10090" unicode="&#x448;" horiz-adv-x="607" 
d="M546 0h-485v560h95v-472h100v472h95v-472h100v472h95v-560z" />
    <glyph glyph-name="afii10091" unicode="&#x449;" horiz-adv-x="639" 
d="M629 -203h-89v203h-479v560h95v-472h100v472h95v-472h100v472h95v-472h83v-291z" />
    <glyph glyph-name="afii10092" unicode="&#x44a;" horiz-adv-x="499" 
d="M277 0h-143v472h-126v88h221v-205h48c24 0 40 -2 55 -5c89 -19 131 -90 131 -171c0 -86 -44 -154 -123 -173c-18 -4 -36 -6 -63 -6zM229 86h50c18 0 28 2 38 5c37 13 51 52 51 88c0 38 -15 71 -52 85c-9 3 -21 5 -37 5h-50v-183z" />
    <glyph glyph-name="afii10093" unicode="&#x44b;" horiz-adv-x="606" 
d="M545 0h-95v560h95v-560zM196 0h-135v560h95v-205h40c24 0 40 -2 55 -5c89 -19 131 -90 131 -171c0 -86 -44 -154 -123 -173c-18 -4 -36 -6 -63 -6zM156 86h42c18 0 28 2 38 5c37 13 51 52 51 88c0 38 -15 71 -52 85c-9 3 -21 5 -37 5h-42v-183z" />
    <glyph glyph-name="afii10094" unicode="&#x44c;" horiz-adv-x="432" 
d="M210 0h-149v560h95v-205h54c24 0 40 -2 55 -5c89 -19 131 -90 131 -171c0 -86 -44 -154 -123 -173c-18 -4 -36 -6 -63 -6zM156 86h56c18 0 28 2 38 5c37 13 51 52 51 88c0 38 -15 71 -52 85c-9 3 -21 5 -37 5h-56v-183z" />
    <glyph glyph-name="afii10095" unicode="&#x44d;" horiz-adv-x="417" 
d="M279 227v9h-140v88h140v9c0 32 -1 54 -4 71c-8 49 -33 78 -73 78s-68 -29 -76 -91h-95c14 116 74 179 171 179s153 -65 167 -161c3 -20 5 -42 5 -74v-110c0 -32 -2 -54 -5 -74c-14 -96 -70 -161 -167 -161c-98 0 -161 76 -171 170h95c5 -40 32 -82 76 -82
c40 0 65 29 73 78c3 17 4 39 4 71z" />
    <glyph glyph-name="afii10096" unicode="&#x44e;" horiz-adv-x="594" 
d="M551 335v-110c0 -32 -2 -54 -5 -74c-14 -96 -67 -161 -159 -161s-145 65 -159 161c-3 20 -5 42 -5 74v11h-67v-236h-95v560h95v-234h67v9c0 32 2 54 5 74c14 96 67 161 159 161s145 -65 159 -161c3 -20 5 -42 5 -74zM456 227v106c0 32 -1 54 -4 71c-8 49 -30 78 -65 78
s-57 -29 -65 -78c-3 -17 -4 -39 -4 -71v-106c0 -32 1 -54 4 -71c8 -49 30 -78 65 -78s57 29 65 78c3 17 4 39 4 71z" />
    <glyph glyph-name="afii10097" unicode="&#x44f;" horiz-adv-x="421" 
d="M360 0h-95v235h-67c-36 0 -54 -21 -57 -70l-5 -80c-2 -37 -9 -66 -25 -85h-91v1c15 18 19 47 22 87l5 79c3 53 18 90 68 106c-53 27 -73 87 -73 134c0 78 43 130 106 147c14 4 39 6 59 6h153v-560zM265 323v150h-64c-31 0 -63 -16 -63 -73c0 -49 21 -77 63 -77h64z" />
    <glyph glyph-name="uni0450" unicode="&#x450;" 
d="M289 627h-63l-122 167v5h103zM290 152h93c-17 -100 -73 -162 -167 -162c-97 0 -154 65 -168 160c-3 21 -5 43 -5 75v110c0 32 2 54 5 74c14 96 71 161 168 161c98 0 153 -67 166 -161c4 -30 6 -53 6 -105v-44h-250v-36c0 -32 1 -54 4 -72c9 -46 35 -77 74 -77
c43 0 67 39 74 77zM138 338h154c0 22 0 45 -5 69c-10 46 -33 78 -72 78c-40 0 -65 -30 -73 -78c-3 -17 -4 -34 -4 -69z" />
    <glyph glyph-name="afii10071" unicode="&#x451;" 
d="M175 644h-94v105h94v-105zM349 644h-94v105h94v-105zM290 152h93c-17 -100 -73 -162 -167 -162c-97 0 -154 65 -168 160c-3 21 -5 43 -5 75v110c0 32 2 54 5 74c14 96 71 161 168 161c98 0 153 -67 166 -161c4 -30 6 -53 6 -105v-44h-250v-36c0 -32 1 -54 4 -72
c9 -46 35 -77 74 -77c43 0 67 39 74 77zM138 338h154c0 22 0 45 -5 69c-10 46 -33 78 -72 78c-40 0 -65 -30 -73 -78c-3 -17 -4 -34 -4 -69z" />
    <glyph glyph-name="afii10099" unicode="&#x452;" horiz-adv-x="476" 
d="M214 -234v89c13 -2 30 -3 39 -3c47 0 70 25 70 113v379c0 17 -1 39 -4 57c-6 39 -23 80 -69 80c-43 0 -69 -35 -80 -75c-5 -20 -9 -42 -9 -80v-326h-95v652h-71v63h71v70h95v-70h131v-63h-131v-99c0 -25 -1 -50 -1 -50h1c20 40 62 67 110 67c82 0 127 -58 141 -137
c5 -26 6 -54 6 -91v-378c0 -141 -65 -201 -160 -201c-15 0 -32 1 -44 3z" />
    <glyph glyph-name="afii10100" unicode="&#x453;" horiz-adv-x="366" 
d="M156 0h-95v560h291v-88h-196v-472zM203 627h-64l82 172h104v-7z" />
    <glyph glyph-name="afii10101" unicode="&#x454;" horiz-adv-x="417" 
d="M291 160h95c-10 -94 -73 -170 -171 -170c-97 0 -153 65 -167 161c-3 20 -5 42 -5 74v110c0 32 2 54 5 74c14 96 70 161 167 161s157 -63 171 -179h-95c-8 62 -36 91 -76 91s-65 -29 -73 -78c-3 -17 -4 -39 -4 -71v-9h140v-88h-140v-9c0 -32 1 -54 4 -71
c8 -49 33 -78 73 -78c44 0 71 42 76 82z" />
    <glyph glyph-name="afii10102" unicode="&#x455;" horiz-adv-x="383" 
d="M345 426h-90c-7 46 -29 68 -66 68c-42 0 -63 -27 -63 -70c0 -45 26 -69 82 -94c75 -33 145 -83 145 -177c0 -102 -62 -163 -156 -163c-100 0 -161 63 -171 162h90c7 -52 35 -85 80 -85c42 0 68 33 68 83c0 54 -32 78 -95 105c-86 37 -131 83 -131 163
c0 93 58 152 151 152c88 0 143 -47 156 -144z" />
    <glyph glyph-name="afii10103" unicode="&#x456;" horiz-adv-x="215" 
d="M155 0h-95v560h95v-560zM157 657h-99v108h99v-108z" />
    <glyph glyph-name="afii10104" unicode="&#x457;" horiz-adv-x="217" 
d="M67 644h-94v105h94v-105zM241 644h-94v105h94v-105zM156 0h-95v560h95v-560z" />
    <glyph glyph-name="afii10105" unicode="&#x458;" horiz-adv-x="220" 
d="M161 657h-99v108h99v-108zM-47 -235v89c8 -1 19 -2 33 -2c54 0 78 27 78 104v604h95v-607c0 -130 -64 -190 -162 -190c-19 0 -32 1 -44 2z" />
    <glyph glyph-name="afii10106" unicode="&#x459;" horiz-adv-x="625" 
d="M403 0h-127v472h-91l-10 -211c-6 -124 -24 -252 -171 -262v89c62 4 75 84 79 178l12 294h276v-205h32c24 0 40 -2 55 -5c89 -19 131 -90 131 -171c0 -86 -44 -154 -123 -173c-18 -4 -36 -6 -63 -6zM371 88h34c18 0 28 2 38 5c37 13 51 52 51 86c0 36 -15 69 -52 83
c-9 3 -21 5 -37 5h-34v-179z" />
    <glyph glyph-name="afii10107" unicode="&#x45a;" horiz-adv-x="617" 
d="M395 0h-127v267h-112v-267h-95v560h95v-205h112v205h95v-205h32c24 0 40 -2 55 -5c89 -19 131 -90 131 -171c0 -86 -44 -154 -123 -173c-18 -4 -36 -6 -63 -6zM363 88h34c18 0 28 2 38 5c37 13 51 52 51 86c0 36 -15 69 -52 83c-9 3 -21 5 -37 5h-34v-179z" />
    <glyph glyph-name="afii10108" unicode="&#x45b;" horiz-adv-x="491" 
d="M433 0h-95v344c0 12 -2 41 -4 57c-5 39 -23 80 -69 80c-43 0 -69 -35 -80 -75c-5 -20 -9 -42 -9 -80v-326h-95v658h-75v53h75v74h95v-74h132v-53h-132v-105c0 -25 -1 -50 -1 -50h1c20 40 62 67 110 67c82 0 127 -58 141 -137c5 -26 6 -54 6 -91v-342z" />
    <glyph glyph-name="afii10109" unicode="&#x45c;" horiz-adv-x="432" 
d="M424 0h-103l-119 250h-46v-250h-95v560h95v-227h36c44 0 58 24 67 77l7 43c12 71 38 112 105 112c18 0 35 -3 49 -7l-2 -77c-7 2 -15 4 -24 4c-22 0 -33 -15 -38 -49l-5 -36c-8 -59 -24 -96 -63 -124zM236 627h-64l82 172h104v-7z" />
    <glyph glyph-name="uni045D" unicode="&#x45d;" horiz-adv-x="461" 
d="M400 0h-89v332c0 15 1 44 3 65h-1l-147 -397h-105v560h89v-336c0 -15 -1 -44 -3 -65h1l149 401h103v-560zM289 627h-63l-122 167v5h103z" />
    <glyph glyph-name="afii10110" unicode="&#x45e;" horiz-adv-x="396" 
d="M2 -207v86c13 -3 28 -6 46 -6c41 0 72 21 90 87l19 69l-149 531h95l99 -386h3l94 386h95l-158 -582c-37 -134 -89 -194 -171 -194c-27 0 -45 4 -63 9zM271 790h70c-5 -98 -61 -162 -139 -162s-134 64 -139 162h70c3 -65 30 -102 69 -102s66 37 69 102z" />
    <glyph glyph-name="afii10193" unicode="&#x45f;" horiz-adv-x="457" 
d="M273 -203h-89v203h-123v560h95v-471h145v471h95v-560h-123v-203z" />
    <glyph glyph-name="uni0460" unicode="&#x460;" horiz-adv-x="670" 
d="M286 284v224h98v-224c0 -128 23 -194 65 -194c41 0 73 78 73 307c0 107 -20 254 -46 353h101c29 -99 45 -242 45 -352c0 -304 -77 -408 -168 -408c-58 0 -98 38 -119 101c-21 -63 -61 -101 -119 -101c-91 0 -168 104 -168 408c0 110 16 253 45 352h101
c-26 -99 -46 -246 -46 -353c0 -229 32 -307 73 -307c42 0 65 66 65 194z" />
    <glyph glyph-name="uni0461" unicode="&#x461;" horiz-adv-x="560" 
d="M233 223v164h94v-164c0 -94 16 -141 44 -141c27 0 50 53 50 213c0 78 -15 188 -38 265h95c26 -77 39 -184 39 -264c0 -228 -68 -306 -138 -306c-47 0 -79 27 -99 73c-20 -46 -52 -73 -99 -73c-70 0 -138 78 -138 306c0 80 13 187 39 264h95c-23 -77 -38 -187 -38 -265
c0 -160 23 -213 50 -213c28 0 44 47 44 141z" />
    <glyph glyph-name="afii10146" unicode="&#x462;" horiz-adv-x="554" 
d="M297 0h-169v566h-124v63h124v121h98v-121h154v-63h-154v-111h72c28 0 47 -2 65 -6c105 -24 155 -116 155 -220c0 -110 -52 -197 -146 -221c-21 -5 -43 -8 -75 -8zM226 93h70c25 0 40 3 52 8c53 20 72 79 72 128c0 54 -22 104 -73 125c-12 5 -28 8 -51 8h-70v-269z" />
    <glyph glyph-name="afii10194" unicode="&#x463;" horiz-adv-x="484" 
d="M262 0h-149v424h-103v63h103v73h95v-73h125v-63h-125v-69h54c24 0 40 -2 55 -5c89 -19 131 -90 131 -171c0 -86 -44 -154 -123 -173c-18 -4 -36 -6 -63 -6zM208 88h56c18 0 28 2 38 5c37 13 51 52 51 86c0 36 -15 69 -52 83c-9 3 -21 5 -37 5h-56v-179z" />
    <glyph glyph-name="uni0464" unicode="&#x464;" horiz-adv-x="661" 
d="M441 -10h-2c-109 0 -166 73 -183 168c-5 28 -7 61 -7 89v96h-87v-343h-98v750h98v-312h87v65c0 28 2 61 7 89c17 95 75 168 184 168h2c109 0 167 -73 184 -168c2 -12 4 -23 5 -36h-99c0 5 -2 16 -3 22c-10 45 -35 87 -87 87h-2c-54 0 -79 -46 -88 -93
c-4 -22 -5 -51 -5 -70v-64h173v-95h-173v-95c0 -19 1 -48 5 -70c9 -47 34 -93 88 -93h2c54 0 79 46 88 93c2 8 3 18 3 23h98c-1 -15 -3 -29 -5 -43c-17 -95 -76 -168 -185 -168z" />
    <glyph glyph-name="uni0465" unicode="&#x465;" horiz-adv-x="599" 
d="M473 160h95c-10 -94 -72 -170 -170 -170c-97 0 -150 65 -164 161c-3 20 -5 42 -5 74v11h-73v-236h-95v560h95v-236h73v11c0 32 2 54 5 74c14 96 67 161 164 161s156 -63 170 -179h-95c-8 62 -35 91 -75 91s-62 -29 -70 -78c-3 -17 -4 -39 -4 -71v-9h134v-88h-134v-9
c0 -32 1 -54 4 -71c8 -49 30 -78 70 -78c44 0 70 42 75 82z" />
    <glyph glyph-name="uni0466" unicode="&#x466;" horiz-adv-x="515" 
d="M509 0h-95l-70 291h-47v-291h-79v291h-47l-70 -291h-95l186 750h131zM324 377l-65 281h-2l-66 -281h133z" />
    <glyph glyph-name="uni0467" unicode="&#x467;" horiz-adv-x="436" 
d="M434 0h-89l-55 210h-37v-210h-70v210h-37l-55 -210h-89l154 560h124zM272 282l-53 208h-2l-53 -208h108z" />
    <glyph glyph-name="uni0468" unicode="&#x468;" horiz-adv-x="715" 
d="M709 0h-95l-70 291h-47v-291h-79v291h-47l-70 -291h-95l72 291h-120v-291h-94v750h94v-375h141l93 375h131zM524 375l-65 285h-2l-66 -285h133z" />
    <glyph glyph-name="uni0469" unicode="&#x469;" horiz-adv-x="628" 
d="M626 0h-89l-55 210h-37v-210h-70v210h-37l-55 -210h-89l57 210h-99v-210h-91v560h91v-278h119l77 278h124zM464 282l-53 209h-2l-53 -209h108z" />
    <glyph glyph-name="uni046A" unicode="&#x46a;" horiz-adv-x="565" 
d="M521 0h-90v193c0 35 -3 66 -11 88c-18 53 -51 75 -83 75h-9v-356h-91v356h-9c-32 0 -65 -22 -84 -75c-7 -21 -10 -52 -10 -88v-193h-90v191c0 47 4 84 14 114c21 68 70 115 136 132l-143 313h463l-143 -313c67 -17 115 -64 137 -132c9 -30 13 -67 13 -114v-191zM284 451
l93 214h-188z" />
    <glyph glyph-name="uni046B" unicode="&#x46b;" horiz-adv-x="488" 
d="M446 0h-84v150c0 24 -2 46 -6 60c-10 34 -32 50 -71 50v-260h-82v260c-39 0 -61 -16 -71 -50c-4 -14 -6 -36 -6 -60v-150h-84v149c0 36 4 65 12 87c17 45 49 75 107 92l-117 232h400l-117 -232c58 -17 90 -47 107 -92c8 -22 12 -51 12 -87v-149zM244 331l74 158h-148z
" />
    <glyph glyph-name="uni046C" unicode="&#x46c;" horiz-adv-x="764" 
d="M720 0h-90v193c0 35 -3 66 -11 88c-18 53 -51 75 -83 75h-9v-356h-91v356h-9c-32 0 -65 -22 -84 -75c-7 -21 -10 -52 -10 -88v-193h-90v191c0 57 11 123 52 164c-12 -2 -26 -3 -39 -3h-98v-352h-94v750h94v-314h234l-142 314h463l-143 -313c67 -17 115 -64 137 -132
c9 -30 13 -67 13 -114v-191zM483 451l93 214h-188z" />
    <glyph glyph-name="uni046D" unicode="&#x46d;" horiz-adv-x="666" 
d="M624 0h-84v150c0 24 -2 46 -6 60c-10 34 -32 50 -71 50v-260h-82v260c-39 0 -61 -16 -71 -50c-4 -14 -6 -36 -6 -60v-150h-84v149c0 50 7 81 42 111c-12 -2 -27 -4 -42 -4h-68v-256h-91v560h91v-234h188l-118 234h400l-117 -232c58 -17 90 -47 107 -92
c8 -22 12 -51 12 -87v-149zM422 331l74 158h-148z" />
    <glyph glyph-name="uni046E" unicode="&#x46e;" horiz-adv-x="454" 
d="M362 -119v-88c-12 2 -27 3 -35 3c-59 0 -99 -42 -160 -42c-83 0 -149 52 -149 154c0 83 37 154 164 169l43 5c52 7 95 44 95 121c0 67 -34 133 -113 133h-72v85h72c78 0 110 64 110 129c0 78 -40 117 -91 117c-61 0 -96 -42 -97 -114h-97c0 107 57 187 155 204l-117 191
h82l73 -128l44 80c22 40 45 53 83 53c13 0 23 -2 30 -4l-2 -53c-6 1 -10 2 -16 2c-14 0 -23 -2 -41 -33l-63 -108c90 -16 155 -92 155 -203c0 -72 -25 -133 -90 -175c66 -42 94 -107 94 -183c0 -119 -74 -190 -182 -202l-44 -5c-62 -7 -82 -41 -82 -83s24 -66 56 -66
c47 0 96 44 160 44c11 0 24 -1 35 -3z" />
    <glyph glyph-name="uni046F" unicode="&#x46f;" horiz-adv-x="388" 
d="M309 -84v-80c-12 2 -21 2 -31 2c-48 0 -89 -31 -136 -31c-71 0 -128 45 -128 128c0 69 32 128 139 139l38 4c37 4 69 32 69 78c0 42 -23 86 -89 86h-46v82h46c66 0 86 41 86 83c0 50 -26 76 -66 76c-49 0 -76 -27 -76 -77h-93c0 80 45 140 122 158l-92 150h81l55 -97
l27 51c22 40 45 53 83 53c13 0 23 -2 30 -4l-2 -53c-6 1 -10 2 -16 2c-14 0 -24 -3 -42 -33l-40 -66c72 -14 123 -69 123 -145c0 -56 -22 -109 -76 -140c58 -27 79 -78 79 -133c0 -89 -62 -145 -153 -153l-41 -4c-46 -5 -58 -30 -58 -58c0 -27 15 -49 44 -49
c43 0 83 34 133 34c8 0 18 0 30 -3z" />
    <glyph glyph-name="uni0470" unicode="&#x470;" horiz-adv-x="595" 
d="M345 0h-95v287h-14c-95 0 -153 61 -175 132c-10 31 -13 77 -13 115v216h94v-214c0 -36 4 -66 10 -88c15 -53 51 -75 86 -75h12v377h95v-377h12c35 0 71 22 86 75c6 22 10 52 10 88v214h94v-216c0 -38 -3 -84 -13 -115c-22 -71 -80 -132 -175 -132h-14v-287z" />
    <glyph glyph-name="uni0471" unicode="&#x471;" horiz-adv-x="560" 
d="M328 -248h-90v238h-7c-85 0 -145 54 -168 134c-7 27 -11 64 -11 104v332h95v-330c0 -34 4 -61 9 -81c12 -46 38 -70 75 -70h7v709h90v-709h5c79 0 87 100 87 243c0 84 -18 238 -18 238h94s19 -123 19 -240c0 -214 -42 -330 -182 -330h-5v-238z" />
    <glyph glyph-name="afii10147" unicode="&#x472;" horiz-adv-x="493" 
d="M249 -10h-5c-109 0 -167 73 -184 168c-5 28 -7 61 -7 89v256c0 28 2 61 7 89c17 95 75 168 184 168h5c109 0 167 -73 184 -168c5 -28 7 -61 7 -89v-256c0 -28 -2 -61 -7 -89c-17 -95 -75 -168 -184 -168zM244 85h5c54 0 79 46 88 93c4 22 5 51 5 70v88
c-11 -19 -27 -28 -48 -28c-54 0 -70 76 -112 76c-11 0 -23 -8 -31 -25v-111c0 -19 1 -48 5 -70c9 -47 34 -93 88 -93zM342 412v90c0 19 -1 48 -5 70c-9 47 -34 93 -88 93h-5c-54 0 -79 -46 -88 -93c-4 -22 -5 -51 -5 -70v-68c10 15 24 24 44 24c54 0 71 -76 113 -76
c12 0 26 8 34 30z" />
    <glyph glyph-name="afii10195" unicode="&#x473;" 
d="M387 335v-110c0 -32 -2 -54 -5 -74c-14 -96 -70 -161 -167 -161s-153 65 -167 161c-3 20 -5 42 -5 74v110c0 32 2 54 5 74c14 96 70 161 167 161s153 -65 167 -161c3 -20 5 -42 5 -74zM292 300v33c0 32 -1 54 -4 71c-8 49 -33 78 -73 78s-65 -29 -73 -78
c-3 -17 -4 -39 -4 -71v-6c8 10 19 17 34 17c44 0 59 -64 94 -64c9 0 19 5 26 20zM292 227v7c-9 -13 -22 -20 -38 -20c-44 0 -58 64 -93 64c-8 0 -17 -6 -23 -17v-34c0 -32 1 -54 4 -71c8 -49 33 -78 73 -78s65 29 73 78c3 17 4 39 4 71z" />
    <glyph glyph-name="afii10148" unicode="&#x474;" horiz-adv-x="499" 
d="M282 0h-117l-163 750h98l121 -617h5l88 464c19 99 66 153 144 153c13 0 30 -1 45 -3v-89c-12 2 -21 3 -31 3c-36 0 -51 -25 -65 -89z" />
    <glyph glyph-name="afii10196" unicode="&#x475;" horiz-adv-x="422" 
d="M242 0h-105l-135 560h94l92 -432h3l62 293c19 91 60 141 132 141c12 0 27 -1 41 -3v-82c-11 2 -20 3 -31 3c-33 0 -45 -23 -59 -82z" />
    <glyph glyph-name="uni0476" unicode="&#x476;" horiz-adv-x="499" 
d="M372 806h-66l-117 174h101zM225 806h-65l-118 174h101zM282 -4h-117l-163 750h98l121 -617h5l88 464c19 99 66 153 144 153c13 0 30 -1 45 -3v-89c-12 2 -21 3 -31 3c-36 0 -51 -25 -65 -89z" />
    <glyph glyph-name="uni0477" unicode="&#x477;" horiz-adv-x="422" 
d="M337 617h-65l-118 174h101zM190 617h-66l-117 174h101zM242 -4h-105l-135 560h94l92 -432h3l62 293c19 91 60 141 132 141c12 0 27 -1 41 -3v-82c-11 2 -20 3 -31 3c-33 0 -45 -23 -59 -82z" />
    <glyph glyph-name="uni0478" unicode="&#x478;" horiz-adv-x="886" 
d="M244 85h5c54 0 79 46 88 93c4 22 5 51 5 70v254c0 19 -1 48 -5 70c-9 47 -34 93 -88 93h-5c-54 0 -79 -46 -88 -93c-4 -22 -5 -51 -5 -70v-254c0 -19 1 -48 5 -70c9 -47 34 -93 88 -93zM249 -10h-5c-109 0 -167 73 -184 168c-5 28 -7 61 -7 89v256c0 28 2 61 7 89
c17 95 75 168 184 168h5c109 0 167 -73 184 -168c5 -28 7 -61 7 -89v-256c0 -28 -2 -61 -7 -89c-17 -95 -75 -168 -184 -168zM492 -207v86c13 -3 28 -6 46 -6c41 0 72 21 90 87l19 69l-149 531h95l99 -386h3l94 386h95l-158 -582c-37 -134 -89 -194 -171 -194
c-27 0 -45 4 -63 9z" />
    <glyph glyph-name="uni0479" unicode="&#x479;" horiz-adv-x="809" 
d="M415 -207v86c13 -3 28 -6 46 -6c41 0 72 21 90 87l19 69l-149 531h95l99 -386h3l94 386h95l-158 -582c-37 -134 -89 -194 -171 -194c-27 0 -45 4 -63 9zM387 335v-110c0 -32 -2 -54 -5 -74c-14 -96 -70 -161 -167 -161s-153 65 -167 161c-3 20 -5 42 -5 74v110
c0 32 2 54 5 74c14 96 70 161 167 161s153 -65 167 -161c3 -20 5 -42 5 -74zM292 227v106c0 32 -1 54 -4 71c-8 49 -33 78 -73 78s-65 -29 -73 -78c-3 -17 -4 -39 -4 -71v-106c0 -32 1 -54 4 -71c8 -49 33 -78 73 -78s65 29 73 78c3 17 4 39 4 71z" />
    <glyph glyph-name="uni047A" unicode="&#x47a;" horiz-adv-x="493" 
d="M440 503v-256c0 -28 -2 -61 -7 -89c-14 -79 -57 -143 -134 -162c-4 -31 -24 -52 -53 -52c-28 0 -48 21 -53 52c-76 20 -119 83 -133 162c-5 28 -7 61 -7 89v256c0 28 2 61 7 89c14 79 57 143 134 162c4 31 24 52 53 52c28 0 48 -21 53 -52c76 -20 119 -83 133 -162
c5 -28 7 -61 7 -89zM342 248v254c0 19 -1 48 -5 70c-6 31 -19 62 -44 79c-9 -18 -25 -29 -46 -29s-38 11 -47 30c-25 -17 -38 -48 -44 -80c-4 -22 -5 -51 -5 -70v-254c0 -19 1 -48 5 -70c6 -31 19 -62 44 -79c9 18 25 29 46 29s38 -11 47 -30c25 17 38 48 44 80
c4 22 5 51 5 70z" />
    <glyph glyph-name="uni047B" unicode="&#x47b;" 
d="M387 335v-110c0 -32 -2 -54 -5 -74c-11 -77 -49 -134 -114 -153c-4 -33 -24 -54 -53 -54s-49 21 -53 54c-65 19 -103 76 -114 153c-3 20 -5 42 -5 74v110c0 32 2 54 5 74c11 77 49 134 114 153c4 33 24 54 53 54s49 -21 53 -54c65 -19 103 -76 114 -153
c3 -20 5 -42 5 -74zM292 227v106c0 32 -1 54 -4 71c-4 25 -13 45 -26 59c-9 -20 -26 -31 -47 -31s-38 11 -47 31c-13 -14 -22 -34 -26 -59c-3 -17 -4 -39 -4 -71v-106c0 -32 1 -54 4 -71c4 -25 13 -45 26 -59c9 20 26 31 47 31s38 -11 47 -31c13 14 22 34 26 59
c3 17 4 39 4 71z" />
    <glyph glyph-name="uni047C" unicode="&#x47c;" horiz-adv-x="670" 
d="M286 284v224h98v-224c0 -128 23 -194 65 -194c41 0 73 78 73 307c0 107 -20 254 -46 353h101c29 -99 45 -242 45 -352c0 -304 -77 -408 -168 -408c-58 0 -98 38 -119 101c-21 -63 -61 -101 -119 -101c-91 0 -168 104 -168 408c0 110 16 253 45 352h101
c-26 -99 -46 -246 -46 -353c0 -229 32 -307 73 -307c42 0 65 66 65 194zM469 851h-197v-42h-73v93h197v41h73v-92z" />
    <glyph glyph-name="uni047D" unicode="&#x47d;" horiz-adv-x="560" 
d="M233 223v164h94v-164c0 -94 16 -141 44 -141c27 0 50 53 50 213c0 78 -15 188 -38 265h95c26 -77 39 -184 39 -264c0 -228 -68 -306 -138 -306c-47 0 -79 27 -99 73c-20 -46 -52 -73 -99 -73c-70 0 -138 78 -138 306c0 80 13 187 39 264h95c-23 -77 -38 -187 -38 -265
c0 -160 23 -213 50 -213c28 0 44 47 44 141zM415 701h-197v-42h-73v93h197v41h73v-92z" />
    <glyph glyph-name="uni047E" unicode="&#x47e;" horiz-adv-x="670" 
d="M471 816h-53l-7 46h-47l-6 -46h-46l-7 46h-48l-6 -46h-52v88h272v-88zM286 280v224h98v-224c0 -128 23 -194 65 -194c41 0 73 78 73 307c0 107 -20 254 -46 353h101c29 -99 45 -242 45 -352c0 -304 -77 -408 -168 -408c-58 0 -98 38 -119 101c-21 -63 -61 -101 -119 -101
c-91 0 -168 104 -168 408c0 110 16 253 45 352h101c-26 -99 -46 -246 -46 -353c0 -229 32 -307 73 -307c42 0 65 66 65 194z" />
    <glyph glyph-name="uni047F" unicode="&#x47f;" horiz-adv-x="560" 
d="M415 646h-52l-7 47h-48l-6 -47h-46l-7 47h-48l-6 -47h-52v89h272v-89zM233 219v164h94v-164c0 -94 16 -141 44 -141c27 0 50 53 50 213c0 78 -15 188 -38 265h95c26 -77 39 -184 39 -264c0 -228 -68 -306 -138 -306c-47 0 -79 27 -99 73c-20 -46 -52 -73 -99 -73
c-70 0 -138 78 -138 306c0 80 13 187 39 264h95c-23 -77 -38 -187 -38 -265c0 -160 23 -213 50 -213c28 0 44 47 44 141z" />
    <glyph glyph-name="uni0480" unicode="&#x480;" horiz-adv-x="488" 
d="M440 -247h-94v293c-26 -39 -65 -56 -110 -56c-99 0 -159 72 -176 167c-5 28 -7 60 -7 88v260c0 28 2 60 7 88c17 95 77 167 184 167h4c106 0 166 -71 184 -168c4 -23 7 -48 8 -73h-98s-1 30 -5 53c-8 47 -33 93 -89 93h-4c-53 0 -79 -46 -88 -93c-4 -22 -5 -51 -5 -70
v-254c0 -19 1 -48 5 -70c9 -47 35 -93 88 -93h4c56 0 80 45 88 93c3 18 5 41 5 61h99v-486z" />
    <glyph glyph-name="uni0481" unicode="&#x481;" horiz-adv-x="423" 
d="M384 -203h-91v236c-21 -30 -57 -43 -91 -43c-85 0 -140 65 -154 161c-3 20 -5 42 -5 74v110c0 32 2 54 5 74c14 96 70 161 167 161s157 -65 170 -186h-95c-2 47 -24 98 -75 98c-40 0 -65 -29 -73 -78c-3 -17 -4 -39 -4 -71v-106c0 -32 1 -54 4 -71c8 -49 33 -78 73 -78
c47 0 69 48 74 92h95v-373z" />
    <glyph glyph-name="uni0482" unicode="&#x482;" horiz-adv-x="494" 
d="M365 139l-144 49l-75 -216l-66 23l74 216l-144 50l21 63l145 -49l76 222l-145 49l22 64l144 -49l75 216l66 -23l-74 -216l144 -50l-21 -63l-145 49l-76 -222l145 -49z" />
    <glyph glyph-name="uni0483" unicode="&#x483;" horiz-adv-x="416" 
d="M343 701h-197v-42h-73v93h197v41h73v-92z" />
    <glyph glyph-name="uni0484" unicode="&#x484;" horiz-adv-x="400" 
d="M361 680h-65c-6 45 -22 64 -48 64c-35 0 -59 -48 -99 -66c-15 -7 -37 -11 -67 -11h-41v50h39c22 0 36 3 51 13c39 26 60 81 122 81c61 0 104 -48 108 -131z" />
    <glyph glyph-name="uni0485" unicode="&#x485;" horiz-adv-x="414" 
d="M346 699h-218v-43h-55v135h55v-42h218v-50z" />
    <glyph glyph-name="uni0486" unicode="&#x486;" horiz-adv-x="414" 
d="M341 656h-55v42h-218v50h218v43h55v-135z" />
    <glyph glyph-name="uni0487" unicode="&#x487;" horiz-adv-x="400" 
d="M359 667h-41c-30 0 -52 4 -67 11c-40 18 -64 66 -99 66c-26 0 -42 -19 -48 -64h-65c4 83 47 131 108 131c62 0 83 -55 122 -81c15 -10 29 -13 51 -13h39v-50z" />
    <glyph glyph-name="uni0488" unicode="&#x488;" horiz-adv-x="714" 
d="M440 569h-40c-3 34 -20 55 -43 55c-22 0 -40 -21 -43 -55h-40c3 53 34 88 83 88s80 -35 83 -88zM268 454h-40c-3 34 -20 55 -43 55c-22 0 -40 -21 -43 -55h-40c3 53 34 88 83 88s80 -35 83 -88zM612 454h-40c-3 34 -20 55 -43 55c-22 0 -40 -21 -43 -55h-40
c3 53 34 88 83 88s80 -35 83 -88zM190 291h-40c-3 34 -20 55 -43 55c-22 0 -40 -21 -43 -55h-40c3 53 34 88 83 88s80 -35 83 -88zM690 291h-40c-3 34 -20 55 -43 55c-22 0 -40 -21 -43 -55h-40c3 53 34 88 83 88s80 -35 83 -88zM268 124h-40c-3 34 -20 55 -43 55
c-22 0 -40 -21 -43 -55h-40c3 53 34 88 83 88s80 -35 83 -88zM612 124h-40c-3 34 -20 55 -43 55c-22 0 -40 -21 -43 -55h-40c3 53 34 88 83 88s80 -35 83 -88zM440 12h-40c-3 34 -20 55 -43 55c-22 0 -40 -21 -43 -55h-40c3 53 34 88 83 88s80 -35 83 -88z" />
    <glyph glyph-name="uni0489" unicode="&#x489;" horiz-adv-x="778" 
d="M344 -32v25c31 11 35 39 35 64v9h-30v74h80v-63c0 -48 -20 -98 -85 -109zM429 548h-80v63c0 48 20 98 85 109v-25c-31 -11 -35 -39 -35 -64v-9h30v-74zM750 299h-25c-11 31 -39 35 -64 35h-9v-30h-74v80h63c48 0 98 -20 109 -85zM200 304h-63c-48 0 -98 20 -109 85h25
c11 -31 39 -35 64 -35h9v30h74v-80zM678 562l-17 -18c-30 14 -53 -3 -70 -20l-7 -7l22 -21l-53 -52l-56 56l44 45c34 34 84 55 137 17zM281 188l-44 -45c-34 -34 -84 -55 -137 -17l17 18c30 -14 53 3 70 20l7 7l-22 21l53 52zM615 63l-18 17c14 30 -3 53 -20 70l-7 7
l-21 -22l-52 53l56 56l45 -44c34 -34 55 -84 17 -137zM225 444l-45 44c-34 34 -55 84 -17 137l18 -17c-14 -30 3 -53 20 -70l7 -7l21 22l52 -53z" />
    <glyph glyph-name="uni048A" unicode="&#x48a;" horiz-adv-x="555" 
d="M495 -247h-94l40 247h-75v494c0 38 3 68 3 68h-1l-191 -562h-113v750h93v-494c0 -38 -3 -68 -3 -68h1l191 562h113v-655h91zM334 968h70c-5 -98 -61 -162 -139 -162s-134 64 -139 162h70c3 -65 30 -102 69 -102s66 37 69 102z" />
    <glyph glyph-name="uni048B" unicode="&#x48b;" horiz-adv-x="490" 
d="M441 -203h-90l32 203h-72v332c0 15 1 44 3 65h-1l-147 -397h-105v560h89v-336c0 -15 -1 -44 -3 -65h1l149 401h103v-472h88zM293 786h70c-5 -98 -61 -162 -139 -162s-134 64 -139 162h70c3 -65 30 -102 69 -102s66 37 69 102z" />
    <glyph glyph-name="uni048C" unicode="&#x48c;" horiz-adv-x="532" 
d="M275 0h-169v566h-96v63h96v121h98v-121h117v-63h-117v-111h72c28 0 47 -2 65 -6c105 -24 155 -116 155 -220c0 -110 -52 -197 -146 -221c-21 -5 -43 -8 -75 -8zM204 93h70c25 0 40 3 52 8c53 20 72 79 72 128c0 54 -22 104 -73 125c-12 5 -28 8 -51 8h-70v-269z" />
    <glyph glyph-name="uni048D" unicode="&#x48d;" horiz-adv-x="460" 
d="M238 0h-149v424h-79v63h79v73h95v-73h86v-63h-86v-69h54c24 0 40 -2 55 -5c89 -19 131 -90 131 -171c0 -86 -44 -154 -123 -173c-18 -4 -36 -6 -63 -6zM184 88h56c18 0 28 2 38 5c37 13 51 52 51 86c0 36 -15 69 -52 83c-9 3 -21 5 -37 5h-56v-179z" />
    <glyph glyph-name="uni048E" unicode="&#x48e;" horiz-adv-x="484" 
d="M162 0h-98v750h163c32 0 54 -3 75 -8c94 -24 146 -111 146 -221c0 -80 -30 -152 -91 -193l44 -85l-54 -28l-45 88c-3 -1 -6 -2 -9 -2c-18 -4 -37 -6 -65 -6h-66v-295zM259 390l-39 78l52 28l39 -78c27 26 39 63 39 103c0 49 -19 108 -72 128c-12 5 -27 8 -52 8h-64v-269
h64c13 0 24 0 33 2z" />
    <glyph glyph-name="uni048F" unicode="&#x48f;" horiz-adv-x="456" 
d="M392 -65l-56 -27l-39 85c-10 -2 -20 -3 -31 -3c-48 0 -90 27 -110 64h-1s1 -25 1 -50v-248h-95v804h60l10 -88c27 68 78 98 135 98c82 0 127 -58 141 -137c5 -26 6 -54 6 -91v-124c0 -37 -1 -65 -6 -91c-8 -44 -25 -82 -54 -107zM257 80l-43 96l57 26l35 -77
c4 11 6 22 8 34c2 16 4 45 4 57v128c0 12 -2 41 -4 57c-5 39 -23 80 -69 80c-43 0 -69 -35 -80 -75c-5 -20 -9 -42 -9 -80v-92c0 -38 4 -60 9 -80c11 -40 37 -75 80 -75c4 0 8 0 12 1z" />
    <glyph glyph-name="afii10050" unicode="&#x490;" horiz-adv-x="426" 
d="M162 0h-98v750h250v206h94v-301h-246v-655z" />
    <glyph glyph-name="afii10098" unicode="&#x491;" horiz-adv-x="366" 
d="M156 0h-95v560h202v172h89v-260h-196v-472z" />
    <glyph glyph-name="uni0492" unicode="&#x492;" horiz-adv-x="448" 
d="M184 0h-98v361h-83v69h83v320h344v-95h-246v-225h144v-69h-144v-361z" />
    <glyph glyph-name="uni0493" unicode="&#x493;" horiz-adv-x="384" 
d="M174 0h-95v247h-73v62h73v251h291v-88h-196v-163h123v-62h-123v-247z" />
    <glyph glyph-name="uni0494" unicode="&#x494;" horiz-adv-x="499" 
d="M353 -2v198c0 27 -1 54 -3 69c-7 60 -43 104 -118 104c-25 0 -48 -2 -70 -6v-363h-98v750h344v-95h-246v-197c23 4 49 6 75 6c131 0 199 -75 211 -187c2 -19 3 -51 3 -81v-192c0 -155 -60 -248 -180 -248c-56 0 -110 29 -140 70l61 68c24 -30 50 -42 79 -42
c43 0 82 42 82 146z" />
    <glyph glyph-name="uni0495" unicode="&#x495;" horiz-adv-x="422" 
d="M174 -235v89c8 -1 19 -2 33 -2c54 0 78 27 78 104v188c0 17 -1 35 -3 48c-6 38 -30 66 -85 66c-20 0 -39 -2 -56 -6v-252h-95v560h291v-88h-196v-132c22 4 47 7 73 7c93 0 149 -50 162 -143c2 -13 4 -37 4 -59v-192c0 -130 -64 -190 -162 -190c-19 0 -32 1 -44 2z" />
    <glyph glyph-name="uni0496" unicode="&#x496;" horiz-adv-x="776" 
d="M769 -247h-94v247h-50l-147 343h-58v-343h-98v343h-58l-147 -343h-107l165 373c-54 33 -70 89 -82 173l-7 49c-7 48 -17 69 -51 69c-9 0 -15 -1 -24 -3v88c17 4 36 5 51 5c73 0 104 -50 118 -143l8 -54c12 -84 32 -119 91 -119h43v312h98v-312h43c59 0 79 35 91 119l8 54
c14 93 45 143 118 143c15 0 34 -1 51 -5v-88c-9 2 -15 3 -24 3c-34 0 -44 -21 -51 -69l-7 -49c-12 -84 -28 -140 -82 -173l123 -278h79v-342z" />
    <glyph glyph-name="uni0497" unicode="&#x497;" horiz-adv-x="653" 
d="M643 -203h-89v203h-44l-119 250h-33v-250h-95v250h-33l-119 -250h-103l136 276c-39 28 -55 65 -63 124l-5 36c-5 34 -16 49 -38 49c-9 0 -17 -2 -24 -4l-2 77c14 4 31 7 49 7c67 0 93 -41 105 -112l7 -43c9 -53 23 -77 67 -77h23v227h95v-227h23c44 0 58 24 67 77l7 43
c12 71 38 112 105 112c18 0 35 -3 49 -7l-2 -77c-7 2 -15 4 -24 4c-22 0 -33 -15 -38 -49l-5 -36c-8 -59 -24 -96 -63 -124l92 -188h74v-291z" />
    <glyph glyph-name="uni0498" unicode="&#x498;" horiz-adv-x="455" 
d="M143 -208l17 51c15 -9 31 -16 46 -16c25 0 41 15 41 53c0 29 -16 71 -37 111c-111 7 -177 90 -177 206h97c1 -72 36 -114 97 -114c54 0 95 43 95 121c0 66 -35 132 -114 132h-72v85h72c78 0 110 64 110 129c0 78 -40 117 -91 117c-61 0 -96 -42 -97 -114h-97
c0 121 73 207 194 207c108 0 189 -81 189 -206c0 -72 -25 -133 -90 -175c66 -42 94 -107 94 -180c0 -104 -60 -183 -146 -203c23 -41 41 -89 40 -130c-1 -59 -41 -96 -98 -96c-28 0 -56 10 -73 22z" />
    <glyph glyph-name="uni0499" unicode="&#x499;" horiz-adv-x="386" 
d="M110 -208l17 51c15 -9 31 -16 46 -16c25 0 41 15 41 53c0 29 -16 71 -37 111c-95 8 -152 75 -152 164h94c0 -48 28 -78 77 -78c40 0 67 31 67 79c0 42 -23 86 -89 86h-46v82h46c66 0 86 41 86 83c0 50 -26 76 -66 76c-49 0 -76 -27 -76 -77h-93c0 96 65 164 171 164
c90 0 158 -60 158 -148c0 -56 -22 -109 -76 -140c58 -27 79 -78 79 -133c0 -72 -42 -135 -116 -153c23 -41 41 -89 40 -130c-1 -59 -41 -96 -98 -96c-28 0 -56 10 -73 22z" />
    <glyph glyph-name="uni049A" unicode="&#x49a;" horiz-adv-x="552" 
d="M545 -247h-94v247h-58l-147 343h-84v-343h-98v750h98v-312h69c59 0 79 35 91 119l8 54c14 93 45 143 118 143c15 0 34 -2 51 -5v-87c-11 2 -22 3 -33 2c-25 -2 -35 -21 -42 -69l-7 -49c-12 -84 -34 -138 -82 -173l123 -278h87v-342z" />
    <glyph glyph-name="uni049B" unicode="&#x49b;" horiz-adv-x="463" 
d="M453 -203h-89v203h-43l-119 250h-46v-250h-95v560h95v-227h36c44 0 58 24 67 77l7 43c12 71 38 112 105 112c18 0 35 -3 49 -7l-2 -77c-7 2 -15 4 -24 4c-22 0 -33 -15 -38 -49l-5 -36c-8 -59 -24 -96 -63 -124l92 -188h73v-291z" />
    <glyph glyph-name="uni049C" unicode="&#x49c;" horiz-adv-x="530" 
d="M520 0h-107l-141 329v-165h-56v179h-54v-343h-98v750h98v-312h54v177h56v-176c43 8 59 45 70 118l8 54c14 93 45 143 118 143c15 0 34 -2 51 -5v-87c-11 2 -22 3 -33 2c-25 -2 -35 -21 -42 -69l-7 -49c-12 -84 -34 -138 -82 -173z" />
    <glyph glyph-name="uni049D" unicode="&#x49d;" horiz-adv-x="472" 
d="M464 0h-103l-110 231v-136h-51v155h-44v-250h-95v560h95v-227h44v153h51v-152c29 7 40 31 48 76l7 43c12 71 38 112 105 112c18 0 35 -3 49 -7l-2 -77c-7 2 -15 4 -24 4c-22 0 -33 -15 -38 -49l-5 -36c-8 -59 -24 -96 -63 -124z" />
    <glyph glyph-name="uni049E" unicode="&#x49e;" horiz-adv-x="540" 
d="M530 0h-107l-147 343h-84v-343h-98v566h-88v63h88v121h98v-121h83v-63h-83v-128h69c59 0 79 35 91 119l8 54c14 93 45 143 118 143c15 0 34 -2 51 -5v-87c-11 2 -22 3 -33 2c-25 -2 -35 -21 -42 -69l-7 -49c-12 -84 -34 -138 -82 -173z" />
    <glyph glyph-name="uni049F" unicode="&#x49f;" horiz-adv-x="444" 
d="M436 0h-103l-119 250h-46v-250h-95v424h-67v63h67v73h95v-73h64v-63h-64v-91h36c44 0 58 24 67 77l7 43c12 71 38 112 105 112c18 0 35 -3 49 -7l-2 -77c-7 2 -15 4 -24 4c-22 0 -33 -15 -38 -49l-5 -36c-8 -59 -24 -96 -63 -124z" />
    <glyph glyph-name="uni04A0" unicode="&#x4a0;" horiz-adv-x="617" 
d="M607 0h-107l-147 343h-84v-343h-98v655h-159v95h257v-312h69c59 0 79 35 91 119l8 54c14 93 45 143 118 143c15 0 34 -2 51 -5v-87c-11 2 -22 3 -33 2c-25 -2 -35 -21 -42 -69l-7 -49c-12 -84 -34 -138 -82 -173z" />
    <glyph glyph-name="uni04A1" unicode="&#x4a1;" horiz-adv-x="506" 
d="M498 0h-103l-119 250h-46v-250h-95v472h-127v88h222v-227h36c44 0 58 24 67 77l7 43c12 71 38 112 105 112c18 0 35 -3 49 -7l-2 -77c-7 2 -15 4 -24 4c-22 0 -33 -15 -38 -49l-5 -36c-8 -59 -24 -96 -63 -124z" />
    <glyph glyph-name="uni04A2" unicode="&#x4a2;" horiz-adv-x="554" 
d="M547 -247h-94v247h-91v343h-200v-343h-98v750h98v-312h200v312h98v-655h87v-342z" />
    <glyph glyph-name="uni04A3" unicode="&#x4a3;" horiz-adv-x="494" 
d="M484 -203h-89v203h-89v247h-150v-247h-95v560h95v-224h150v224h95v-472h83v-291z" />
    <glyph glyph-name="uni04A4" unicode="&#x4a4;" horiz-adv-x="629" 
d="M460 0h-98v343h-200v-343h-98v750h98v-312h200v312h257v-95h-159v-655z" />
    <glyph glyph-name="uni04A5" unicode="&#x4a5;" horiz-adv-x="536" 
d="M401 0h-95v248h-150v-248h-95v560h95v-224h150v224h222v-88h-127v-472z" />
    <glyph glyph-name="uni04A6" unicode="&#x4a6;" horiz-adv-x="772" 
d="M626 -2v198c0 27 -1 54 -3 69c-7 60 -43 104 -118 104c-25 0 -48 -2 -70 -6v-363h-98v655h-175v-655h-98v750h371v-292c23 4 49 6 75 6c131 0 199 -75 211 -187c2 -19 3 -51 3 -81v-192c0 -155 -60 -248 -180 -248c-56 0 -110 29 -140 70l61 68c24 -30 50 -42 79 -42
c43 0 82 42 82 146z" />
    <glyph glyph-name="uni04A7" unicode="&#x4a7;" horiz-adv-x="662" 
d="M414 -235v89c8 -1 19 -2 33 -2c54 0 78 27 78 104v188c0 17 -1 35 -3 48c-6 38 -30 66 -85 66c-20 0 -39 -2 -56 -6v-252h-95v472h-130v-472h-95v560h320v-220c22 4 47 7 73 7c93 0 149 -50 162 -143c2 -13 4 -37 4 -59v-192c0 -130 -64 -190 -162 -190
c-19 0 -32 1 -44 2z" />
    <glyph glyph-name="uni04A8" unicode="&#x4a8;" horiz-adv-x="539" 
d="M534 -20v-86c-27 -17 -60 -25 -95 -25c-91 0 -147 45 -169 121h-26c-107 0 -167 72 -184 167c-5 28 -7 60 -7 88v260c0 28 2 60 7 88c17 95 77 167 184 167h4c106 0 168 -71 187 -168c2 -9 3 -17 4 -27h-102c-4 46 -32 100 -89 100h-4c-53 0 -79 -46 -88 -93
c-4 -22 -5 -51 -5 -70v-254c0 -19 1 -48 5 -70c9 -47 35 -99 88 -99h15v257c0 106 40 167 123 167c77 0 122 -52 122 -167v-115c0 -116 -42 -209 -136 -228c15 -30 36 -43 78 -43c25 0 56 9 88 30zM413 223v113c0 53 -6 78 -31 78c-21 0 -31 -18 -31 -78v-256
c44 8 62 62 62 143z" />
    <glyph glyph-name="uni04A9" unicode="&#x4a9;" horiz-adv-x="455" 
d="M451 2v-79c-26 -15 -58 -20 -84 -20c-75 0 -119 33 -138 89h-19c-96 0 -150 63 -163 159c-3 20 -4 42 -4 74v110c0 32 2 54 5 74c14 96 66 159 162 159h2c85 0 139 -49 159 -145h-95c-9 32 -28 59 -64 59h-2c-39 0 -60 -29 -68 -78c-3 -17 -4 -39 -4 -71v-106
c0 -32 1 -54 4 -71c8 -49 29 -83 68 -83h7v165c0 85 33 137 104 137c67 0 104 -44 104 -132v-73c0 -79 -32 -147 -106 -170c12 -19 32 -23 55 -23c21 0 49 7 77 25zM342 168v77c0 31 -3 55 -21 55c-15 0 -19 -20 -19 -55v-165c26 10 40 42 40 88z" />
    <glyph glyph-name="uni04AA" unicode="&#x4aa;" horiz-adv-x="472" 
d="M162 -208l17 51c15 -9 31 -16 46 -16c25 0 41 15 41 53c0 29 -16 71 -37 111c-98 6 -153 75 -169 166c-5 28 -7 60 -7 88v260c0 28 2 60 7 88c17 95 77 167 184 167h4c106 0 166 -71 184 -168c4 -23 7 -48 8 -73h-98s-1 30 -5 53c-8 47 -33 93 -89 93h-4
c-53 0 -79 -46 -88 -93c-4 -22 -5 -51 -5 -70v-254c0 -19 1 -48 5 -70c9 -47 35 -93 88 -93h4c56 0 81 45 89 93c3 18 5 41 5 58h98c-1 -27 -4 -54 -8 -78c-16 -83 -61 -146 -139 -163c23 -41 41 -88 40 -129c-1 -59 -41 -96 -98 -96c-28 0 -56 10 -73 22z" />
    <glyph glyph-name="uni04AB" unicode="&#x4ab;" horiz-adv-x="416" 
d="M126 -208l17 51c15 -9 31 -16 46 -16c25 0 41 15 41 53c0 29 -16 71 -38 111c-83 9 -131 71 -144 160c-3 20 -5 42 -5 74v110c0 32 2 54 5 74c14 96 70 161 167 161s157 -65 170 -186h-95c-2 47 -24 98 -75 98c-40 0 -65 -29 -73 -78c-3 -17 -4 -39 -4 -71v-106
c0 -32 1 -54 4 -71c8 -49 33 -78 73 -78c47 0 69 48 74 88h95c-10 -83 -54 -152 -127 -171c23 -41 41 -88 40 -129c-1 -59 -41 -96 -98 -96c-28 0 -56 10 -73 22z" />
    <glyph glyph-name="uni04AC" unicode="&#x4ac;" horiz-adv-x="428" 
d="M350 -247h-94v247h-91v655h-155v95h408v-95h-155v-560h87v-342z" />
    <glyph glyph-name="uni04AD" unicode="&#x4ad;" horiz-adv-x="367" 
d="M314 -203h-89v203h-89v472h-128v88h351v-88h-128v-384h83v-291z" />
    <glyph glyph-name="uni04AE" unicode="&#x4ae;" horiz-adv-x="440" 
d="M269 0h-98v328l-176 422h105l120 -314l120 314h105l-176 -422v-328z" />
    <glyph glyph-name="uni04AF" unicode="&#x4af;" horiz-adv-x="379" 
d="M237 -244h-95v244l-140 560h94l92 -427h3l92 427h94l-140 -560v-244z" />
    <glyph glyph-name="uni04B0" unicode="&#x4b0;" horiz-adv-x="440" 
d="M269 0h-98v226h-130v63h130v39l-176 422h105l120 -314l120 314h105l-176 -422v-39h130v-63h-130v-226z" />
    <glyph glyph-name="uni04B1" unicode="&#x4b1;" horiz-adv-x="379" 
d="M237 -244h-95v173h-100v63h100v8l-140 560h94l92 -427h3l92 427h94l-140 -560v-8h100v-63h-100v-173z" />
    <glyph glyph-name="uni04B2" unicode="&#x4b2;" horiz-adv-x="483" 
d="M477 -247h-94v247h-51l-115 287l-114 -287h-106l170 391l-151 359h105l96 -252l97 252h105l-151 -359l127 -296h82v-342z" />
    <glyph glyph-name="uni04B3" unicode="&#x4b3;" horiz-adv-x="416" 
d="M406 -203h-89v203h-36l-90 210l-90 -210h-98l139 293l-128 267h99l78 -184l76 184h99l-127 -267l97 -205h70v-291z" />
    <glyph glyph-name="uni04B4" unicode="&#x4b4;" horiz-adv-x="612" 
d="M602 -247h-94v247h-385v655h-113v95h324v-95h-113v-560h196v655h98v-655h87v-342z" />
    <glyph glyph-name="uni04B5" unicode="&#x4b5;" horiz-adv-x="531" 
d="M521 -203h-89v203h-333v472h-91v88h277v-88h-91v-384h149v472h95v-472h83v-291z" />
    <glyph glyph-name="uni04B6" unicode="&#x4b6;" horiz-adv-x="535" 
d="M525 -247h-94v247h-91v291c-25 -3 -53 -5 -80 -5c-128 0 -195 75 -209 187c-2 19 -3 51 -3 81v196h98v-196c0 -27 1 -54 3 -69c10 -60 43 -104 112 -104c26 0 56 2 79 5v364h98v-655h87v-342z" />
    <glyph glyph-name="uni04B7" unicode="&#x4b7;" horiz-adv-x="459" 
d="M449 -203h-89v203h-89v210c-22 -4 -47 -7 -73 -7c-93 0 -149 50 -162 143c-2 13 -4 37 -4 59v155h95v-154c0 -17 1 -35 3 -48c6 -38 30 -66 85 -66c20 0 39 2 56 6v262h95v-472h83v-291z" />
    <glyph glyph-name="uni04B8" unicode="&#x4b8;" horiz-adv-x="514" 
d="M450 0h-98v291c-19 -3 -46 -5 -70 -5v-160h-62v162c-102 13 -157 76 -169 185c-2 19 -3 51 -3 81v196h98v-196c0 -27 1 -54 3 -69c8 -53 29 -86 71 -99v159h62v-164c24 0 52 2 70 5v364h98v-750z" />
    <glyph glyph-name="uni04B9" unicode="&#x4b9;" horiz-adv-x="442" 
d="M381 0h-95v210l-48 -6v-118h-56v117c-84 6 -134 55 -146 143c-2 13 -4 37 -4 59v155h95v-154c0 -17 1 -35 3 -48c4 -30 20 -53 52 -62v141h56v-145c17 1 36 3 48 6v262h95v-560z" />
    <glyph glyph-name="uni04BA" unicode="&#x4ba;" horiz-adv-x="499" 
d="M451 0h-98v196c0 27 -1 54 -3 69c-7 60 -43 104 -122 104c-25 0 -44 -2 -66 -6v-363h-98v750h98v-292c23 4 49 6 75 6c131 0 199 -75 211 -187c2 -19 3 -51 3 -81v-196z" />
    <glyph glyph-name="uni04BB" unicode="&#x4bb;" horiz-adv-x="427" 
d="M395 0h-95v154c0 17 -1 35 -3 48c-6 38 -30 66 -85 66c-20 0 -39 -2 -56 -6v-262h-95v560h95v-210c22 4 47 7 73 7c93 0 149 -50 162 -143c2 -13 4 -37 4 -59v-155z" />
    <glyph glyph-name="uni04BC" unicode="&#x4bc;" horiz-adv-x="597" 
d="M449 440v62c0 19 -1 48 -5 70c-9 47 -34 93 -88 93h-5c-54 0 -79 -46 -88 -93c-4 -22 -5 -51 -5 -70v-62h191zM356 -10h-5c-109 0 -167 73 -184 168c-5 28 -7 61 -7 89v100h-11c-104 0 -143 70 -143 153c0 15 0 25 2 40h90c-1 -7 -2 -15 -2 -31c0 -38 9 -69 53 -69h11v63
c0 28 2 61 7 89c17 95 75 168 184 168h5c109 0 167 -73 184 -168c5 -28 7 -61 7 -89v-156h-289v-99c0 -19 1 -48 5 -70c9 -47 34 -93 88 -93h5c54 0 79 46 88 93c2 10 3 23 4 34l98 -1c-1 -19 -3 -36 -6 -53c-17 -95 -75 -168 -184 -168z" />
    <glyph glyph-name="uni04BD" unicode="&#x4bd;" horiz-adv-x="515" 
d="M375 152h93c-17 -100 -73 -162 -167 -162c-97 0 -154 65 -168 160c-3 21 -5 43 -5 75v35c-88 2 -125 64 -125 138c0 13 0 22 2 35h78c-1 -12 -1 -18 -1 -27c0 -32 11 -63 46 -68c0 30 2 52 5 71c14 96 71 161 168 161c98 0 153 -67 166 -161c4 -30 6 -53 6 -105v-44h-250
v-36c0 -32 1 -54 4 -72c9 -46 35 -77 74 -77c43 0 67 39 74 77zM223 338h154c0 22 0 45 -5 69c-10 46 -33 78 -72 78c-40 0 -65 -30 -73 -78c-3 -17 -4 -34 -4 -69z" />
    <glyph glyph-name="uni04BE" unicode="&#x4be;" horiz-adv-x="597" 
d="M399 -202h-91v197c-82 16 -127 81 -141 163c-5 28 -7 61 -7 89v100h-11c-104 0 -143 70 -143 153c0 15 0 25 2 40h90c-1 -7 -2 -15 -2 -31c0 -38 9 -69 53 -69h11v63c0 28 2 61 7 89c17 95 75 168 184 168h5c109 0 167 -73 184 -168c5 -28 7 -61 7 -89v-156h-289v-99
c0 -19 1 -48 5 -70c9 -47 34 -93 88 -93h5c54 0 79 46 88 93c2 10 3 23 4 34l98 -1c-1 -19 -3 -36 -6 -53c-15 -82 -60 -147 -141 -163v-197zM449 440v62c0 19 -1 48 -5 70c-9 47 -34 93 -88 93h-5c-54 0 -79 -46 -88 -93c-4 -22 -5 -51 -5 -70v-62h191z" />
    <glyph glyph-name="uni04BF" unicode="&#x4bf;" horiz-adv-x="515" 
d="M346 -203h-92v199c-69 18 -110 75 -121 154c-3 21 -5 43 -5 75v35c-88 2 -125 64 -125 138c0 13 0 22 2 35h78c-1 -12 -1 -18 -1 -27c0 -32 11 -63 46 -68c0 30 2 52 5 71c14 96 71 161 168 161c98 0 153 -67 166 -161c4 -30 6 -53 6 -105v-44h-250v-36
c0 -32 1 -54 4 -72c9 -46 35 -77 74 -77c43 0 67 39 74 77h93c-14 -83 -55 -140 -122 -156v-199zM223 338h154c0 22 0 45 -5 69c-10 46 -33 78 -72 78c-40 0 -65 -30 -73 -78c-3 -17 -4 -34 -4 -69z" />
    <glyph glyph-name="uni04C0" unicode="&#x4c0;" horiz-adv-x="226" 
d="M162 0h-98v750h98v-750z" />
    <glyph glyph-name="uni04C1" unicode="&#x4c1;" horiz-adv-x="742" 
d="M440 970h70c-5 -98 -61 -162 -139 -162s-134 64 -139 162h70c3 -65 30 -102 69 -102s66 37 69 102zM732 0h-107l-147 343h-58v-343h-98v343h-58l-147 -343h-107l165 373c-54 33 -70 89 -82 173l-7 49c-7 48 -17 69 -51 69c-9 0 -15 -1 -24 -3v88c17 4 36 5 51 5
c73 0 104 -50 118 -143l8 -54c12 -84 32 -119 91 -119h43v312h98v-312h43c59 0 79 35 91 119l8 54c14 93 45 143 118 143c15 0 34 -1 51 -5v-88c-9 2 -15 3 -24 3c-34 0 -44 -21 -51 -69l-7 -49c-12 -84 -28 -140 -82 -173z" />
    <glyph glyph-name="uni04C2" unicode="&#x4c2;" horiz-adv-x="621" 
d="M613 0h-103l-119 250h-33v-250h-95v250h-33l-119 -250h-103l136 276c-39 28 -55 65 -63 124l-5 36c-5 34 -16 49 -38 49c-9 0 -17 -2 -24 -4l-2 77c14 4 31 7 49 7c67 0 93 -41 105 -112l7 -43c9 -53 23 -77 67 -77h23v227h95v-227h23c44 0 58 24 67 77l7 43
c12 71 38 112 105 112c18 0 35 -3 49 -7l-2 -77c-7 2 -15 4 -24 4c-22 0 -33 -15 -38 -49l-5 -36c-8 -59 -24 -96 -63 -124zM379 790h70c-5 -98 -61 -162 -139 -162s-134 64 -139 162h70c3 -65 30 -102 69 -102s66 37 69 102z" />
    <glyph glyph-name="uni04C3" unicode="&#x4c3;" horiz-adv-x="518" 
d="M173 -174l61 68c24 -30 50 -42 79 -42c42 0 85 46 85 151c0 111 -50 239 -128 340h-108v-343h-98v750h98v-312h69c59 0 79 35 91 119l8 54c14 93 45 143 118 143c15 0 34 -2 51 -5v-87c-11 2 -22 3 -33 2c-25 -2 -35 -21 -42 -69l-7 -49c-10 -69 -26 -117 -58 -152
c91 -134 141 -261 141 -382c0 -158 -69 -256 -187 -256c-56 0 -110 29 -140 70z" />
    <glyph glyph-name="uni04C4" unicode="&#x4c4;" horiz-adv-x="445" 
d="M144 -120l50 66c21 -23 44 -34 67 -34c35 0 65 33 65 103c0 72 -39 162 -100 235h-70v-250h-95v560h95v-227h36c44 0 58 24 67 77l7 43c12 71 38 112 105 112c18 0 35 -3 49 -7l-2 -77c-7 2 -15 4 -24 4c-22 0 -33 -15 -38 -49l-5 -36c-7 -47 -18 -80 -42 -106
c74 -99 111 -185 111 -275c0 -113 -55 -195 -157 -195c-45 0 -93 23 -119 56z" />
    <glyph glyph-name="uni04C5" unicode="&#x4c5;" horiz-adv-x="561" 
d="M501 -247h-94l40 247h-81v655h-153l-13 -305c-6 -152 -20 -338 -196 -351v98c82 10 93 133 98 257l15 396h347v-655h92z" />
    <glyph glyph-name="uni04C6" unicode="&#x4c6;" horiz-adv-x="487" 
d="M437 -203h-89l31 203h-79v471h-115l-10 -210c-6 -124 -27 -250 -171 -262v89c62 4 75 84 79 178l12 294h300v-472h90z" />
    <glyph glyph-name="uni04C7" unicode="&#x4c7;" horiz-adv-x="524" 
d="M254 -235v89c8 -1 19 -2 33 -2c54 0 75 27 75 104v387h-200v-343h-98v750h98v-312h200v312h98v-797c0 -130 -64 -190 -162 -190c-19 0 -32 1 -44 2z" />
    <glyph glyph-name="uni04C8" unicode="&#x4c8;" horiz-adv-x="462" 
d="M195 -235v89c8 -1 19 -2 33 -2c54 0 78 27 78 104v292h-150v-248h-95v560h95v-224h150v224h95v-607c0 -130 -64 -190 -162 -190c-19 0 -32 1 -44 2z" />
    <glyph glyph-name="uni04C9" unicode="&#x4c9;" horiz-adv-x="557" 
d="M497 -247h-94l40 247h-81v343h-200v-343h-98v750h98v-312h200v312h98v-655h92z" />
    <glyph glyph-name="uni04CA" unicode="&#x4ca;" horiz-adv-x="493" 
d="M443 -203h-89l31 203h-79v247h-150v-247h-95v560h95v-224h150v224h95v-472h90z" />
    <glyph glyph-name="uni04CB" unicode="&#x4cb;" horiz-adv-x="502" 
d="M348 -247h-94v342h86v196c-25 -3 -53 -5 -80 -5c-128 0 -195 75 -209 187c-2 19 -3 51 -3 81v196h98v-196c0 -27 1 -54 3 -69c10 -60 43 -104 112 -104c26 0 56 2 79 5v364h98v-750h-90v-247z" />
    <glyph glyph-name="uni04CC" unicode="&#x4cc;" horiz-adv-x="429" 
d="M279 -203h-89v291h83v122c-22 -3 -48 -6 -75 -6c-91 0 -149 59 -162 142c-2 13 -4 38 -4 60v154h95v-153c0 -17 0 -36 3 -49c7 -36 33 -66 75 -66c26 0 47 2 68 6v262h95v-560h-89v-203z" />
    <glyph glyph-name="uni04CD" unicode="&#x4cd;" horiz-adv-x="655" 
d="M595 -247h-94l40 247h-75v498c0 25 1 58 1 58h-1l-119 -417h-72l-119 417h-1s1 -33 1 -58v-498h-92v750h119l128 -448l128 448h119v-655h92z" />
    <glyph glyph-name="uni04CE" unicode="&#x4ce;" horiz-adv-x="563" 
d="M513 -203h-89l31 203h-73v293c0 19 1 57 2 76h-2l-80 -253h-72l-80 253h-2c1 -19 2 -57 2 -76v-293h-89v560h102l103 -327l103 327h102v-472h90z" />
    <glyph glyph-name="uni04CF" unicode="&#x4cf;" horiz-adv-x="217" 
d="M156 0h-95v560h95v-560z" />
    <glyph glyph-name="uni04D0" unicode="&#x4d0;" horiz-adv-x="460" 
d="M297 960h70c-5 -98 -61 -162 -139 -162s-134 64 -139 162h70c3 -65 30 -102 69 -102s66 37 69 102zM295 317l-63 315h-4l-63 -315h130zM454 0h-98l-44 225h-164l-44 -225h-98l157 750h134z" />
    <glyph glyph-name="uni04D1" unicode="&#x4d1;" horiz-adv-x="435" 
d="M289 790h70c-5 -98 -61 -162 -139 -162s-134 64 -139 162h70c3 -65 30 -102 69 -102s66 37 69 102zM377 0h-61l-11 81c-28 -65 -70 -91 -128 -91c-77 0 -139 62 -139 182c0 91 47 155 137 170c14 2 31 4 57 4h51v20c0 38 -2 75 -20 99c-11 14 -27 23 -47 23
c-32 0 -57 -22 -67 -63h-90c16 88 76 145 161 145c47 0 86 -16 112 -47c39 -48 45 -114 45 -183v-340zM284 244v26h-55c-23 0 -39 -3 -50 -8c-31 -15 -48 -44 -48 -90c0 -64 22 -97 68 -97c44 0 67 42 78 92c5 21 7 46 7 77z" />
    <glyph glyph-name="uni04D2" unicode="&#x4d2;" horiz-adv-x="460" 
d="M190 824h-94v105h94v-105zM364 824h-94v105h94v-105zM295 317l-63 315h-4l-63 -315h130zM454 0h-98l-44 225h-164l-44 -225h-98l157 750h134z" />
    <glyph glyph-name="uni04D3" unicode="&#x4d3;" horiz-adv-x="435" 
d="M177 644h-94v105h94v-105zM351 644h-94v105h94v-105zM377 0h-61l-11 81c-28 -65 -70 -91 -128 -91c-77 0 -139 62 -139 182c0 91 47 155 137 170c14 2 31 4 57 4h51v20c0 38 -2 75 -20 99c-11 14 -27 23 -47 23c-32 0 -57 -22 -67 -63h-90c16 88 76 145 161 145
c47 0 86 -16 112 -47c39 -48 45 -114 45 -183v-340zM284 244v26h-55c-23 0 -39 -3 -50 -8c-31 -15 -48 -44 -48 -90c0 -64 22 -97 68 -97c44 0 67 42 78 92c5 21 7 46 7 77z" />
    <glyph glyph-name="uni04D4" unicode="&#x4d4;" horiz-adv-x="701" 
d="M673 0h-323v233h-182l-75 -233h-101l247 750h434v-95h-225v-222h181v-95h-181v-243h225v-95zM350 328v328h-46l-105 -328h151z" />
    <glyph glyph-name="uni04D5" unicode="&#x4d5;" horiz-adv-x="670" 
d="M284 240v27h-56c-22 0 -36 -3 -47 -8c-32 -13 -50 -41 -50 -85c0 -66 22 -103 67 -103s70 42 80 92c4 21 6 46 6 77zM377 341h156c0 23 -1 48 -4 66c-9 46 -34 78 -73 78c-41 0 -68 -30 -75 -78c-2 -18 -4 -35 -4 -66zM530 152h93c-17 -100 -73 -162 -167 -162
c-66 0 -118 36 -139 93c-28 -63 -72 -93 -140 -93c-77 0 -139 63 -139 182c0 89 46 151 137 165c14 2 31 4 57 4h51v35c0 25 -2 41 -4 52c-8 41 -31 60 -64 60s-58 -22 -66 -63h-90c17 88 76 145 160 145c51 0 88 -23 114 -68c29 42 69 68 123 68c98 0 153 -67 166 -161
c4 -30 6 -53 6 -105v-37h-251v-43c0 -32 1 -54 4 -72c9 -46 35 -77 75 -77c42 0 68 39 74 77z" />
    <glyph glyph-name="uni04D6" unicode="&#x4d6;" horiz-adv-x="441" 
d="M304 970h70c-5 -98 -61 -162 -139 -162s-134 64 -139 162h70c3 -65 30 -102 69 -102s66 37 69 102zM413 0h-349v750h349v-95h-251v-222h208v-95h-208v-243h251v-95z" />
    <glyph glyph-name="uni04D7" unicode="&#x4d7;" 
d="M282 790h70c-5 -98 -61 -162 -139 -162s-134 64 -139 162h70c3 -65 30 -102 69 -102s66 37 69 102zM290 152h93c-17 -100 -73 -162 -167 -162c-97 0 -154 65 -168 160c-3 21 -5 43 -5 75v110c0 32 2 54 5 74c14 96 71 161 168 161c98 0 153 -67 166 -161
c4 -30 6 -53 6 -105v-44h-250v-36c0 -32 1 -54 4 -72c9 -46 35 -77 74 -77c43 0 67 39 74 77zM138 338h154c0 22 0 45 -5 69c-10 46 -33 78 -72 78c-40 0 -65 -30 -73 -78c-3 -17 -4 -34 -4 -69z" />
    <glyph glyph-name="uni04D8" unicode="&#x4d8;" horiz-adv-x="490" 
d="M241 85h5c54 0 79 46 88 93c4 22 5 51 5 70v62h-191v-62c0 -19 1 -48 5 -70c9 -47 34 -93 88 -93zM246 -10h-5c-109 0 -167 73 -184 168c-5 28 -7 61 -7 89v156h289v99c0 19 -1 48 -5 70c-9 47 -34 93 -88 93h-5c-54 0 -79 -46 -88 -93c-2 -10 -3 -23 -4 -34l-98 1
c1 19 3 36 6 53c17 95 75 168 184 168h5c109 0 167 -73 184 -168c5 -28 7 -61 7 -89v-256c0 -28 -2 -61 -7 -89c-17 -95 -75 -168 -184 -168z" />
    <glyph glyph-name="afii10846" unicode="&#x4d9;" 
d="M388 335v-110c0 -32 -2 -54 -5 -74c-14 -96 -71 -161 -168 -161c-98 0 -153 67 -166 161c-4 30 -6 53 -6 105v44h250v36c0 32 -1 54 -4 72c-9 46 -35 77 -74 77c-43 0 -67 -39 -74 -77h-93c17 100 73 162 167 162c97 0 154 -65 168 -160c3 -21 5 -43 5 -75zM293 222h-154
c0 -22 0 -45 5 -69c10 -46 33 -78 72 -78c40 0 65 30 73 78c3 17 4 34 4 69z" />
    <glyph glyph-name="uni04DA" unicode="&#x4da;" horiz-adv-x="490" 
d="M241 85h5c54 0 79 46 88 93c4 22 5 51 5 70v62h-191v-62c0 -19 1 -48 5 -70c9 -47 34 -93 88 -93zM246 -10h-5c-109 0 -167 73 -184 168c-5 28 -7 61 -7 89v156h289v99c0 19 -1 48 -5 70c-9 47 -34 93 -88 93h-5c-54 0 -79 -46 -88 -93c-2 -10 -3 -23 -4 -34l-98 1
c1 19 3 36 6 53c17 95 75 168 184 168h5c109 0 167 -73 184 -168c5 -28 7 -61 7 -89v-256c0 -28 -2 -61 -7 -89c-17 -95 -75 -168 -184 -168zM205 824h-94v105h94v-105zM379 824h-94v105h94v-105z" />
    <glyph glyph-name="uni04DB" unicode="&#x4db;" 
d="M388 335v-110c0 -32 -2 -54 -5 -74c-14 -96 -71 -161 -168 -161c-98 0 -153 67 -166 161c-4 30 -6 53 -6 105v44h250v36c0 32 -1 54 -4 72c-9 46 -35 77 -74 77c-43 0 -67 -39 -74 -77h-93c17 100 73 162 167 162c97 0 154 -65 168 -160c3 -21 5 -43 5 -75zM293 222h-154
c0 -22 0 -45 5 -69c10 -46 33 -78 72 -78c40 0 65 30 73 78c3 17 4 34 4 69zM175 644h-94v105h94v-105zM349 644h-94v105h94v-105z" />
    <glyph glyph-name="uni04DC" unicode="&#x4dc;" horiz-adv-x="742" 
d="M732 0h-107l-147 343h-58v-343h-98v343h-58l-147 -343h-107l165 373c-54 33 -70 89 -82 173l-7 49c-7 48 -17 69 -51 69c-9 0 -15 -1 -24 -3v88c17 4 36 5 51 5c73 0 104 -50 118 -143l8 -54c12 -84 32 -119 91 -119h43v312h98v-312h43c59 0 79 35 91 119l8 54
c14 93 45 143 118 143c15 0 34 -1 51 -5v-88c-9 2 -15 3 -24 3c-34 0 -44 -21 -51 -69l-7 -49c-12 -84 -28 -140 -82 -173zM331 824h-94v105h94v-105zM505 824h-94v105h94v-105z" />
    <glyph glyph-name="uni04DD" unicode="&#x4dd;" horiz-adv-x="621" 
d="M613 0h-103l-119 250h-33v-250h-95v250h-33l-119 -250h-103l136 276c-39 28 -55 65 -63 124l-5 36c-5 34 -16 49 -38 49c-9 0 -17 -2 -24 -4l-2 77c14 4 31 7 49 7c67 0 93 -41 105 -112l7 -43c9 -53 23 -77 67 -77h23v227h95v-227h23c44 0 58 24 67 77l7 43
c12 71 38 112 105 112c18 0 35 -3 49 -7l-2 -77c-7 2 -15 4 -24 4c-22 0 -33 -15 -38 -49l-5 -36c-8 -59 -24 -96 -63 -124zM270 644h-94v105h94v-105zM444 644h-94v105h94v-105z" />
    <glyph glyph-name="uni04DE" unicode="&#x4de;" horiz-adv-x="455" 
d="M208 336h-72v85h72c78 0 110 64 110 129c0 78 -40 117 -91 117c-61 0 -96 -42 -97 -114h-97c0 121 73 207 194 207c108 0 189 -81 189 -206c0 -72 -25 -133 -90 -175c66 -42 94 -107 94 -180c0 -122 -82 -209 -193 -209c-121 0 -194 86 -194 207h97
c1 -72 36 -114 97 -114c54 0 95 43 95 121c0 66 -35 132 -114 132zM187 824h-94v105h94v-105zM361 824h-94v105h94v-105z" />
    <glyph glyph-name="uni04DF" unicode="&#x4df;" horiz-adv-x="386" 
d="M174 242h-53v82h53c66 0 86 41 86 83c0 50 -26 76 -66 76c-49 0 -76 -27 -76 -77h-93c0 96 65 164 171 164c90 0 158 -60 158 -148c0 -56 -22 -109 -76 -140c58 -27 79 -78 79 -133c0 -85 -59 -159 -161 -159c-106 0 -171 70 -171 165h94c0 -48 28 -78 77 -78
c40 0 67 31 67 79c0 42 -23 86 -89 86zM154 644h-94v105h94v-105zM328 644h-94v105h94v-105z" />
    <glyph glyph-name="uni04E0" unicode="&#x4e0;" horiz-adv-x="455" 
d="M420 240v-12c0 -130 -70 -238 -196 -238c-113 0 -193 88 -193 223h99c0 -84 33 -127 94 -127c66 0 98 62 98 145v5c0 77 -25 139 -108 139h-53l-15 80l151 199h-246v96h365v-85l-161 -211c100 -9 165 -84 165 -214z" />
    <glyph glyph-name="uni04E1" unicode="&#x4e1;" horiz-adv-x="407" 
d="M14 -4h93c4 -65 30 -132 92 -132c67 0 89 67 90 148c0 75 -26 155 -126 155h-35l-19 70l162 238h-242v85h350v-79l-165 -244c104 -15 169 -91 169 -227c0 -126 -61 -235 -184 -235c-113 0 -180 95 -185 221z" />
    <glyph glyph-name="uni04E2" unicode="&#x4e2;" horiz-adv-x="523" 
d="M459 0h-93v493c0 38 3 68 3 68h-1l-191 -561h-113v750h93v-493c0 -38 -3 -68 -3 -68h1l191 561h113v-750zM390 835h-258v62h258v-62z" />
    <glyph glyph-name="uni04E3" unicode="&#x4e3;" horiz-adv-x="461" 
d="M400 0h-89v332c0 15 1 44 3 65h-1l-147 -397h-105v560h89v-336c0 -15 -1 -44 -3 -65h1l149 401h103v-560zM347 655h-258v62h258v-62z" />
    <glyph glyph-name="uni04E4" unicode="&#x4e4;" horiz-adv-x="523" 
d="M459 0h-93v493c0 38 3 68 3 68h-1l-191 -561h-113v750h93v-493c0 -38 -3 -68 -3 -68h1l191 561h113v-750zM221 864h-94v105h94v-105zM395 864h-94v105h94v-105z" />
    <glyph glyph-name="uni04E5" unicode="&#x4e5;" horiz-adv-x="461" 
d="M400 0h-89v332c0 15 1 44 3 65h-1l-147 -397h-105v560h89v-336c0 -15 -1 -44 -3 -65h1l149 401h103v-560zM190 644h-94v105h94v-105zM364 644h-94v105h94v-105z" />
    <glyph glyph-name="uni04E6" unicode="&#x4e6;" horiz-adv-x="493" 
d="M244 85h5c54 0 79 46 88 93c4 22 5 51 5 70v254c0 19 -1 48 -5 70c-9 47 -34 93 -88 93h-5c-54 0 -79 -46 -88 -93c-4 -22 -5 -51 -5 -70v-254c0 -19 1 -48 5 -70c9 -47 34 -93 88 -93zM249 -10h-5c-109 0 -167 73 -184 168c-5 28 -7 61 -7 89v256c0 28 2 61 7 89
c17 95 75 168 184 168h5c109 0 167 -73 184 -168c5 -28 7 -61 7 -89v-256c0 -28 -2 -61 -7 -89c-17 -95 -75 -168 -184 -168zM206 824h-94v105h94v-105zM380 824h-94v105h94v-105z" />
    <glyph glyph-name="uni04E7" unicode="&#x4e7;" 
d="M175 644h-94v105h94v-105zM349 644h-94v105h94v-105zM387 335v-110c0 -32 -2 -54 -5 -74c-14 -96 -70 -161 -167 -161s-153 65 -167 161c-3 20 -5 42 -5 74v110c0 32 2 54 5 74c14 96 70 161 167 161s153 -65 167 -161c3 -20 5 -42 5 -74zM292 227v106c0 32 -1 54 -4 71
c-8 49 -33 78 -73 78s-65 -29 -73 -78c-3 -17 -4 -39 -4 -71v-106c0 -32 1 -54 4 -71c8 -49 33 -78 73 -78s65 29 73 78c3 17 4 39 4 71z" />
    <glyph glyph-name="uni04E8" unicode="&#x4e8;" horiz-adv-x="493" 
d="M249 -10h-5c-109 0 -167 73 -184 168c-5 28 -7 61 -7 89v256c0 28 2 61 7 89c17 95 75 168 184 168h5c109 0 167 -73 184 -168c5 -28 7 -61 7 -89v-256c0 -28 -2 -61 -7 -89c-17 -95 -75 -168 -184 -168zM244 85h5c54 0 79 46 88 93c4 22 5 51 5 70v83h-191v-83
c0 -19 1 -48 5 -70c9 -47 34 -93 88 -93zM342 424v78c0 19 -1 48 -5 70c-9 47 -34 93 -88 93h-5c-54 0 -79 -46 -88 -93c-4 -22 -5 -51 -5 -70v-78h191z" />
    <glyph glyph-name="uni04E9" unicode="&#x4e9;" 
d="M387 335v-110c0 -32 -2 -54 -5 -74c-14 -96 -70 -161 -167 -161s-153 65 -167 161c-3 20 -5 42 -5 74v110c0 32 2 54 5 74c14 96 70 161 167 161s153 -65 167 -161c3 -20 5 -42 5 -74zM292 227v17h-154v-17c0 -32 1 -54 4 -71c8 -49 33 -78 73 -78s65 29 73 78
c3 17 4 39 4 71zM292 322v11c0 32 -1 54 -4 71c-8 49 -33 78 -73 78s-65 -29 -73 -78c-3 -17 -4 -39 -4 -71v-11h154z" />
    <glyph glyph-name="uni04EA" unicode="&#x4ea;" horiz-adv-x="493" 
d="M249 -10h-5c-109 0 -167 73 -184 168c-5 28 -7 61 -7 89v256c0 28 2 61 7 89c17 95 75 168 184 168h5c109 0 167 -73 184 -168c5 -28 7 -61 7 -89v-256c0 -28 -2 -61 -7 -89c-17 -95 -75 -168 -184 -168zM244 85h5c54 0 79 46 88 93c4 22 5 51 5 70v83h-191v-83
c0 -19 1 -48 5 -70c9 -47 34 -93 88 -93zM342 424v78c0 19 -1 48 -5 70c-9 47 -34 93 -88 93h-5c-54 0 -79 -46 -88 -93c-4 -22 -5 -51 -5 -70v-78h191zM206 824h-94v105h94v-105zM380 824h-94v105h94v-105z" />
    <glyph glyph-name="uni04EB" unicode="&#x4eb;" 
d="M387 335v-110c0 -32 -2 -54 -5 -74c-14 -96 -70 -161 -167 -161s-153 65 -167 161c-3 20 -5 42 -5 74v110c0 32 2 54 5 74c14 96 70 161 167 161s153 -65 167 -161c3 -20 5 -42 5 -74zM292 227v17h-154v-17c0 -32 1 -54 4 -71c8 -49 33 -78 73 -78s65 29 73 78
c3 17 4 39 4 71zM292 322v11c0 32 -1 54 -4 71c-8 49 -33 78 -73 78s-65 -29 -73 -78c-3 -17 -4 -39 -4 -71v-11h154zM175 644h-94v105h94v-105zM349 644h-94v105h94v-105z" />
    <glyph glyph-name="uni04EC" unicode="&#x4ec;" horiz-adv-x="474" 
d="M231 -10h-9c-116 0 -186 99 -190 211h98c0 -49 31 -116 91 -116h9c54 0 79 46 88 93c4 22 5 51 5 70v90h-180v95h180v69c0 19 -1 48 -5 70c-9 47 -34 93 -88 93h-9c-57 0 -87 -57 -91 -109h-98c8 107 68 204 189 204h9c109 0 167 -73 184 -168c5 -28 7 -61 7 -89v-256
c0 -28 -2 -61 -7 -89c-17 -95 -74 -168 -183 -168zM186 824h-94v105h94v-105zM360 824h-94v105h94v-105z" />
    <glyph glyph-name="uni04ED" unicode="&#x4ed;" horiz-adv-x="417" 
d="M279 227v9h-140v88h140v9c0 32 -1 54 -4 71c-8 49 -33 78 -73 78s-68 -29 -76 -91h-95c14 116 74 179 171 179s153 -65 167 -161c3 -20 5 -42 5 -74v-110c0 -32 -2 -54 -5 -74c-14 -96 -70 -161 -167 -161c-98 0 -161 76 -171 170h95c5 -40 32 -82 76 -82
c40 0 65 29 73 78c3 17 4 39 4 71zM168 644h-94v105h94v-105zM342 644h-94v105h94v-105z" />
    <glyph glyph-name="uni04EE" unicode="&#x4ee;" horiz-adv-x="454" 
d="M43 2v92c19 -7 39 -12 60 -12c48 0 65 27 82 94l-169 574h100l119 -428h2l108 428h99l-167 -604c-32 -113 -82 -156 -159 -156c-32 0 -55 5 -75 12zM364 833h-258v62h258v-62z" />
    <glyph glyph-name="uni04EF" unicode="&#x4ef;" horiz-adv-x="396" 
d="M2 -207v86c13 -3 28 -6 46 -6c41 0 72 21 90 87l19 69l-149 531h95l99 -386h3l94 386h95l-158 -582c-37 -134 -89 -194 -171 -194c-27 0 -45 4 -63 9zM332 653h-258v62h258v-62z" />
    <glyph glyph-name="uni04F0" unicode="&#x4f0;" horiz-adv-x="454" 
d="M43 2v92c19 -7 39 -12 60 -12c48 0 65 27 82 94l-169 574h100l119 -428h2l108 428h99l-167 -604c-32 -113 -82 -156 -159 -156c-32 0 -55 5 -75 12zM196 824h-94v105h94v-105zM370 824h-94v105h94v-105z" />
    <glyph glyph-name="uni04F1" unicode="&#x4f1;" horiz-adv-x="396" 
d="M2 -207v86c13 -3 28 -6 46 -6c41 0 72 21 90 87l19 69l-149 531h95l99 -386h3l94 386h95l-158 -582c-37 -134 -89 -194 -171 -194c-27 0 -45 4 -63 9zM163 644h-94v105h94v-105zM337 644h-94v105h94v-105z" />
    <glyph glyph-name="uni04F2" unicode="&#x4f2;" horiz-adv-x="454" 
d="M43 2v92c19 -7 39 -12 60 -12c48 0 65 27 82 94l-169 574h100l119 -428h2l108 428h99l-167 -604c-32 -113 -82 -156 -159 -156c-32 0 -55 5 -75 12zM159 824h-63l79 172h100v-3zM329 824h-63l79 172h100v-3z" />
    <glyph glyph-name="uni04F3" unicode="&#x4f3;" horiz-adv-x="396" 
d="M2 -207v86c13 -3 28 -6 46 -6c41 0 72 21 90 87l19 69l-149 531h95l99 -386h3l94 386h95l-158 -582c-37 -134 -89 -194 -171 -194c-27 0 -45 4 -63 9zM129 644h-63l79 172h100v-3zM299 644h-63l79 172h100v-3z" />
    <glyph glyph-name="uni04F4" unicode="&#x4f4;" horiz-adv-x="499" 
d="M435 0h-98v291c-25 -3 -53 -5 -80 -5c-128 0 -195 75 -209 187c-2 19 -3 51 -3 81v196h98v-196c0 -27 1 -54 3 -69c10 -60 43 -104 112 -104c26 0 56 2 79 5v364h98v-750zM201 824h-94v105h94v-105zM375 824h-94v105h94v-105z" />
    <glyph glyph-name="uni04F5" unicode="&#x4f5;" horiz-adv-x="427" 
d="M366 0h-95v210c-22 -4 -47 -7 -73 -7c-93 0 -149 50 -162 143c-2 13 -4 37 -4 59v155h95v-154c0 -17 1 -35 3 -48c6 -38 30 -66 85 -66c20 0 39 2 56 6v262h95v-560zM159 644h-94v105h94v-105zM333 644h-94v105h94v-105z" />
    <glyph glyph-name="uni04F6" unicode="&#x4f6;" horiz-adv-x="426" 
d="M249 -247h-94v247h-91v750h344v-95h-246v-560h87v-342z" />
    <glyph glyph-name="uni04F7" unicode="&#x4f7;" horiz-adv-x="366" 
d="M239 -203h-89v203h-89v560h291v-89h-196v-383h83v-291z" />
    <glyph glyph-name="uni04F8" unicode="&#x4f8;" horiz-adv-x="668" 
d="M162 93h47c25 0 40 3 52 8c53 20 72 79 72 128c0 54 -22 104 -73 125c-12 5 -28 8 -51 8h-47v-269zM210 0h-146v750h98v-295h49c28 0 47 -2 65 -6c105 -24 155 -116 155 -220c0 -110 -52 -197 -146 -221c-21 -5 -43 -8 -75 -8zM604 0h-98v750h98v-750zM294 824h-94v105
h94v-105zM468 824h-94v105h94v-105z" />
    <glyph glyph-name="uni04F9" unicode="&#x4f9;" horiz-adv-x="606" 
d="M545 0h-95v560h95v-560zM196 0h-135v560h95v-205h40c24 0 40 -2 55 -5c89 -19 131 -90 131 -171c0 -86 -44 -154 -123 -173c-18 -4 -36 -6 -63 -6zM156 86h42c18 0 28 2 38 5c37 13 51 52 51 88c0 38 -15 71 -52 85c-9 3 -21 5 -37 5h-42v-183zM263 644h-94v105h94v-105z
M437 644h-94v105h94v-105z" />
    <glyph glyph-name="uni04FA" unicode="&#x4fa;" horiz-adv-x="448" 
d="M69 -234v89c13 -2 29 -3 37 -3c49 0 71 26 71 114v34h-91v361h-83v69h83v320h344v-95h-246v-225h143v-69h-143v-266h87v-131c0 -141 -65 -201 -159 -201c-14 0 -31 1 -43 3z" />
    <glyph glyph-name="uni04FB" unicode="&#x4fb;" horiz-adv-x="389" 
d="M66 -222v82c12 -2 31 -3 39 -3c47 0 68 26 68 112v31h-89v247h-78v62h78v251h291v-89h-196v-162h129v-62h-129v-159h83v-121c0 -142 -62 -191 -151 -191c-13 0 -27 0 -45 2z" />
    <glyph glyph-name="uni04FC" unicode="&#x4fc;" horiz-adv-x="481" 
d="M269 -234v89c13 -2 29 -3 37 -3c49 0 71 26 71 114v34h-45l-115 287l-114 -287h-106l170 391l-151 359h105l96 -252l97 252h105l-151 -359l127 -296h76v-131c0 -141 -65 -201 -159 -201c-14 0 -31 1 -43 3z" />
    <glyph glyph-name="uni04FD" unicode="&#x4fd;" horiz-adv-x="415" 
d="M209 -222v82c12 -2 31 -3 39 -3c47 0 68 26 68 112v31h-38l-90 210l-90 -210h-98l139 293l-128 267h99l78 -184l76 184h99l-127 -267l97 -205h72v-121c0 -142 -62 -191 -151 -191c-13 0 -27 0 -45 2z" />
    <glyph glyph-name="uni04FE" unicode="&#x4fe;" horiz-adv-x="443" 
d="M441 0h-104l-115 287l-114 -287h-106l157 359h-133v62h134l-139 329h105l96 -252l97 252h105l-140 -329h135v-62h-134z" />
    <glyph glyph-name="uni04FF" unicode="&#x4ff;" horiz-adv-x="382" 
d="M379 0h-98l-90 210l-90 -210h-98l128 264h-109v59h108l-116 237h99l78 -184l76 184h99l-116 -237h109v-59h-109z" />
    <glyph glyph-name="endash" unicode="&#x2013;" horiz-adv-x="451" 
d="M418 350h-385v78h385v-78z" />
    <glyph glyph-name="emdash" unicode="&#x2014;" horiz-adv-x="543" 
d="M510 350h-477v78h477v-78z" />
    <glyph glyph-name="quoteleft" unicode="&#x2018;" horiz-adv-x="193" 
d="M155 449h-119v127c0 79 29 155 127 174v-38c-58 -23 -70 -66 -70 -106c0 -17 8 -21 21 -21h41v-136z" />
    <glyph glyph-name="quoteright" unicode="&#x2019;" horiz-adv-x="188" 
d="M33 449v38c58 23 70 66 70 106c0 17 -8 21 -21 21h-41v136h119v-127c0 -79 -29 -155 -127 -174z" />
    <glyph glyph-name="quotesinglbase" unicode="&#x201a;" horiz-adv-x="188" 
d="M28 -165v38c58 23 70 66 70 106c0 17 -8 21 -21 21h-41v136h119v-127c0 -79 -29 -155 -127 -174z" />
    <glyph glyph-name="quotedblleft" unicode="&#x201c;" horiz-adv-x="385" 
d="M155 449h-119v127c0 79 29 155 127 174v-38c-58 -23 -70 -66 -70 -106c0 -17 8 -21 21 -21h41v-136zM347 449h-119v127c0 79 29 155 127 174v-38c-58 -23 -70 -66 -70 -106c0 -17 8 -21 21 -21h41v-136z" />
    <glyph glyph-name="quotedblright" unicode="&#x201d;" horiz-adv-x="380" 
d="M225 449v38c58 23 70 66 70 106c0 17 -8 21 -21 21h-41v136h119v-127c0 -79 -29 -155 -127 -174zM33 449v38c58 23 70 66 70 106c0 17 -8 21 -21 21h-41v136h119v-127c0 -79 -29 -155 -127 -174z" />
    <glyph glyph-name="quotedblbase" unicode="&#x201e;" horiz-adv-x="380" 
d="M220 -165v38c58 23 70 66 70 106c0 17 -8 21 -21 21h-41v136h119v-127c0 -79 -29 -155 -127 -174zM28 -165v38c58 23 70 66 70 106c0 17 -8 21 -21 21h-41v136h119v-127c0 -79 -29 -155 -127 -174z" />
    <glyph glyph-name="dagger" unicode="&#x2020;" horiz-adv-x="394" 
d="M230 -169h-66v636h-136v58h136v225h66v-225h136v-58h-136v-636z" />
    <glyph glyph-name="daggerdbl" unicode="&#x2021;" horiz-adv-x="404" 
d="M235 -169h-66v225h-136v58h136v353h-136v58h136v225h66v-225h136v-58h-136v-353h136v-58h-136v-225z" />
    <glyph glyph-name="bullet" unicode="&#x2022;" horiz-adv-x="258" 
d="M210 316h-162v194h162v-194z" />
    <glyph glyph-name="ellipsis" unicode="&#x2026;" horiz-adv-x="608" 
d="M151 0h-114v136h114v-136zM361 0h-114v136h114v-136zM571 0h-114v136h114v-136z" />
    <glyph glyph-name="perthousand" unicode="&#x2030;" horiz-adv-x="804" 
d="M183 585v32c0 62 -19 83 -45 83s-45 -21 -45 -83v-32c0 -60 19 -82 45 -82s45 22 45 82zM248 615v-27c0 -96 -47 -146 -110 -146s-110 50 -110 146v27c0 97 47 145 110 145s110 -48 110 -145zM165 0h-66l276 750h66zM446 133v32c0 62 -19 83 -45 83s-45 -21 -45 -83v-32
c0 -60 19 -82 45 -82s45 22 45 82zM511 163v-27c0 -96 -47 -146 -110 -146s-110 50 -110 146v27c0 97 47 145 110 145s110 -48 110 -145zM711 133v32c0 62 -19 83 -45 83s-45 -21 -45 -83v-32c0 -60 19 -82 45 -82s45 22 45 82zM776 163v-27c0 -96 -47 -146 -110 -146
s-110 50 -110 146v27c0 97 47 145 110 145s110 -48 110 -145z" />
    <glyph glyph-name="guilsinglleft" unicode="&#x2039;" horiz-adv-x="242" 
d="M204 53l-184 258l184 258v-121l-98 -137l98 -137v-121z" />
    <glyph glyph-name="guilsinglright" unicode="&#x203a;" horiz-adv-x="242" 
d="M38 53v121l98 137l-98 137v121l184 -258z" />
    <glyph glyph-name="fraction" unicode="&#x2044;" horiz-adv-x="254" 
d="M-16 -133l-66 23l352 953l66 -23z" />
    <glyph glyph-name="Euro" unicode="&#x20ac;" horiz-adv-x="506" 
d="M384 192h90c-7 -144 -90 -202 -183 -202c-96 0 -181 71 -181 209v62h-89l13 57h76l-2 101h-87l13 57h76v75c0 138 85 209 181 209c93 0 176 -58 183 -202h-90c-9 91 -50 117 -92 117c-46 0 -91 -25 -91 -127v-72h172l-16 -57h-158l2 -101h131l-14 -57h-117v-59
c0 -102 45 -127 91 -127c42 0 83 26 92 117z" />
    <glyph glyph-name="uni2120" unicode="&#x2120;" horiz-adv-x="490" 
d="M101 584l-19 10c-31 16 -55 36 -55 86s34 77 78 77c43 0 77 -29 79 -87h-41c-2 31 -15 48 -38 48c-26 0 -35 -18 -35 -38c0 -26 13 -40 35 -51l20 -10c33 -16 61 -42 61 -92s-35 -82 -81 -82c-49 0 -79 39 -85 88h41c4 -31 22 -49 44 -49c21 0 38 11 38 42
c0 28 -16 44 -42 58zM459 450h-42v226l-56 -152h-37l-56 153v-227h-42v300h55l61 -176l62 176h55v-300z" />
    <glyph glyph-name="trademark" unicode="&#x2122;" horiz-adv-x="480" 
d="M123 450h-42v259h-63v41h167v-41h-62v-259zM449 450h-42v226l-56 -152h-37l-56 153v-227h-42v300h55l61 -176l62 176h55v-300z" />
    <glyph glyph-name="partialdiff" unicode="&#x2202;" horiz-adv-x="490" 
d="M450 0h-410v750h410v-750zM415 62v626l-150 -312zM75 62l150 314l-150 311v-625zM245 412l145 302h-290zM390 36l-145 302l-145 -302h290z" />
    <glyph glyph-name="product" unicode="&#x220f;" horiz-adv-x="490" 
d="M450 0h-410v750h410v-750zM415 62v626l-150 -312zM75 62l150 314l-150 311v-625zM245 412l145 302h-290zM390 36l-145 302l-145 -302h290z" />
    <glyph glyph-name="summation" unicode="&#x2211;" horiz-adv-x="490" 
d="M450 0h-410v750h410v-750zM415 62v626l-150 -312zM75 62l150 314l-150 311v-625zM245 412l145 302h-290zM390 36l-145 302l-145 -302h290z" />
    <glyph glyph-name="minus" unicode="&#x2212;" horiz-adv-x="457" 
d="M422 261h-387v78h387v-78z" />
    <glyph glyph-name="radical" unicode="&#x221a;" horiz-adv-x="490" 
d="M450 0h-410v750h410v-750zM415 62v626l-150 -312zM75 62l150 314l-150 311v-625zM245 412l145 302h-290zM390 36l-145 302l-145 -302h290z" />
    <glyph glyph-name="infinity" unicode="&#x221e;" horiz-adv-x="490" 
d="M450 0h-410v750h410v-750zM415 62v626l-150 -312zM75 62l150 314l-150 311v-625zM245 412l145 302h-290zM390 36l-145 302l-145 -302h290z" />
    <glyph glyph-name="integral" unicode="&#x222b;" horiz-adv-x="490" 
d="M450 0h-410v750h410v-750zM415 62v626l-150 -312zM75 62l150 314l-150 311v-625zM245 412l145 302h-290zM390 36l-145 302l-145 -302h290z" />
    <glyph glyph-name="approxequal" unicode="&#x2248;" horiz-adv-x="490" 
d="M450 0h-410v750h410v-750zM415 62v626l-150 -312zM75 62l150 314l-150 311v-625zM245 412l145 302h-290zM390 36l-145 302l-145 -302h290z" />
    <glyph glyph-name="notequal" unicode="&#x2260;" horiz-adv-x="458" 
d="M418 151h-216l-62 -151h-67l62 151h-95v79h127l58 141h-185v79h217l62 151h67l-62 -151h94v-79h-126l-58 -141h184v-79z" />
    <glyph glyph-name="lessequal" unicode="&#x2264;" horiz-adv-x="461" 
d="M416 -1h-371v78h371v-78zM416 142l-368 223v87l368 223v-93l-305 -173l305 -174v-93z" />
    <glyph glyph-name="greaterequal" unicode="&#x2265;" horiz-adv-x="461" 
d="M416 -1h-371v78h371v-78zM413 365l-368 -223v93l305 174l-305 173v93l368 -223v-87z" />
    <glyph glyph-name="lozenge" unicode="&#x25ca;" horiz-adv-x="490" 
d="M450 0h-410v750h410v-750zM415 62v626l-150 -312zM75 62l150 314l-150 311v-625zM245 412l145 302h-290zM390 36l-145 302l-145 -302h290z" />
    <glyph glyph-name="commaaccentlow" horiz-adv-x="400" 
d="M145 -283v30c46 19 56 53 56 85c0 14 -7 17 -17 17h-33v101h95v-94c0 -63 -23 -124 -101 -139z" />
    <glyph glyph-name="commaacaron" horiz-adv-x="400" 
d="M147 552v30c46 19 56 53 56 85c0 14 -7 17 -17 17h-33v101h95v-94c0 -63 -23 -124 -101 -139z" />
    <glyph glyph-name=".null" horiz-adv-x="0" 
 />
    <glyph glyph-name="registered.001" horiz-adv-x="858" 
d="M578 287l6 -77c2 -24 5 -45 21 -60v-2h-70c-10 13 -14 36 -16 55l-6 76c-4 47 -32 62 -80 62h-73v-193h-66v460h133c21 0 40 -2 55 -5c60 -15 102 -55 102 -119c0 -43 -25 -82 -74 -108c42 -19 65 -47 68 -89zM423 547h-63v-145h67c59 0 91 32 91 79c0 34 -20 53 -52 62
c-10 3 -26 4 -43 4zM60 375c0 213 146 385 369 385s369 -172 369 -385s-146 -385 -369 -385s-369 172 -369 385zM111 375c0 -185 123 -336 318 -336s318 151 318 336s-123 336 -318 336s-318 -151 -318 -336z" />
    <glyph glyph-name="regsound" horiz-adv-x="858" 
d="M374 369h75c28 0 43 4 56 11c23 13 38 40 38 70c0 32 -15 60 -38 72c-13 7 -28 11 -56 11h-75v-164zM451 308h-77v-174h-66v460h143c32 0 52 -3 69 -10c52 -20 89 -71 89 -134c0 -61 -35 -112 -89 -133c-17 -6 -36 -9 -69 -9zM60 375c0 213 146 385 369 385
s369 -172 369 -385s-146 -385 -369 -385s-369 172 -369 385zM111 375c0 -185 123 -336 318 -336s318 151 318 336s-123 336 -318 336s-318 -151 -318 -336z" />
    <glyph glyph-name="brevecyrillic" horiz-adv-x="500" 
d="M319 820h70c-5 -98 -61 -162 -139 -162s-134 64 -139 162h70c3 -65 30 -102 69 -102s66 37 69 102z" />
    <glyph glyph-name="CR" horiz-adv-x="175" 
 />
    <glyph glyph-name="apple" horiz-adv-x="250" 
 />
    <glyph glyph-name="_0000" horiz-adv-x="500" 
 />
    <glyph glyph-name="glyph277" horiz-adv-x="512" 
d="M249 -10h-5c-109 0 -167 73 -184 168c-5 28 -7 61 -7 89v256c0 28 2 61 7 89c17 95 75 168 184 168h5c98 0 155 -60 178 -142c18 12 21 31 21 73v86h74v-70c0 -14 -1 -29 -3 -41c-10 -47 -40 -82 -83 -96c3 -23 4 -46 4 -67v-256c0 -28 -2 -61 -7 -89
c-17 -95 -75 -168 -184 -168zM244 85h5c54 0 79 46 88 93c4 22 5 51 5 70v254c0 19 -1 48 -5 70c-9 47 -34 93 -88 93h-5c-54 0 -79 -46 -88 -93c-4 -22 -5 -51 -5 -70v-254c0 -19 1 -48 5 -70c9 -47 34 -93 88 -93z" />
    <glyph glyph-name="glyph278" horiz-adv-x="452" 
d="M387 335v-110c0 -32 -2 -54 -5 -74c-14 -96 -70 -161 -167 -161s-153 65 -167 161c-3 20 -5 42 -5 74v110c0 32 2 54 5 74c14 96 70 161 167 161c81 0 134 -46 157 -118c13 12 16 31 16 69v86h74v-70c0 -14 -1 -29 -3 -41c-10 -45 -37 -79 -76 -94c2 -18 4 -39 4 -67z
M292 227v106c0 32 -1 54 -4 71c-8 49 -33 78 -73 78s-65 -29 -73 -78c-3 -17 -4 -39 -4 -71v-106c0 -32 1 -54 4 -71c8 -49 33 -78 73 -78s65 29 73 78c3 17 4 39 4 71z" />
    <glyph glyph-name="glyph279" horiz-adv-x="552" 
d="M256 -10h-5c-109 0 -167 73 -184 168c-5 28 -7 61 -7 89v503h98v-502c0 -19 1 -48 5 -70c9 -47 34 -93 88 -93h5c54 0 79 46 88 93c4 22 5 51 5 70v502h98v-140c38 15 45 36 45 81v86h74v-70c0 -14 -1 -29 -3 -41c-11 -51 -45 -89 -94 -98l-22 -5v-316
c0 -28 -2 -61 -7 -89c-17 -95 -75 -168 -184 -168z" />
    <glyph glyph-name="glyph280" horiz-adv-x="513" 
d="M410 0h-60l-10 88c-27 -68 -78 -98 -135 -98c-82 0 -127 58 -141 137c-5 26 -6 54 -6 91v342h95v-344c0 -17 1 -39 4 -57c6 -39 23 -80 69 -80c43 0 69 35 80 75c5 20 9 42 9 80v326h95v-119c36 15 43 36 43 80v86h74v-70c0 -14 -1 -29 -3 -41c-11 -51 -45 -89 -94 -98
l-20 -4v-394z" />
    <glyph glyph-name="glyph281" horiz-adv-x="460" 
d="M295 317l-63 315h-4l-63 -315h130zM454 0h-98l-44 225h-164l-44 -225h-98l157 750h134zM270 -149h-80v83h80v-83z" />
    <glyph glyph-name="glyph282" horiz-adv-x="435" 
d="M387 0h-61l-11 81c-28 -65 -70 -91 -128 -91c-77 0 -139 62 -139 182c0 91 47 155 137 170c14 2 31 4 57 4h51v20c0 38 -2 75 -20 99c-11 14 -27 23 -47 23c-32 0 -57 -22 -67 -63h-90c16 88 76 145 161 145c47 0 86 -16 112 -47c39 -48 45 -114 45 -183v-340zM294 244
v26h-55c-23 0 -39 -3 -50 -8c-31 -15 -48 -44 -48 -90c0 -64 22 -97 68 -97c44 0 67 42 78 92c5 21 7 46 7 77zM267 -149h-80v83h80v-83z" />
    <glyph glyph-name="glyph283" horiz-adv-x="475" 
d="M302 317l-63 315h-4l-63 -315h130zM461 0h-98l-44 225h-164l-44 -225h-98l157 750h134zM216 803v64c45 13 67 31 67 56c0 24 -19 35 -44 35c-18 0 -31 -3 -47 -8l-6 39c18 7 38 11 63 11c44 0 81 -27 81 -72c0 -40 -28 -73 -77 -89v-36h-37z" />
    <glyph glyph-name="glyph284" horiz-adv-x="435" 
d="M377 0h-61l-11 81c-28 -65 -70 -91 -128 -91c-77 0 -139 62 -139 182c0 91 47 155 137 170c14 2 31 4 57 4h51v20c0 38 -2 75 -20 99c-11 14 -27 23 -47 23c-32 0 -57 -22 -67 -63h-90c16 88 76 145 161 145c47 0 86 -16 112 -47c39 -48 45 -114 45 -183v-340zM284 244
v26h-55c-23 0 -39 -3 -50 -8c-31 -15 -48 -44 -48 -90c0 -64 22 -97 68 -97c44 0 67 42 78 92c5 21 7 46 7 77zM197 618v64c45 13 67 31 67 56c0 24 -19 35 -44 35c-18 0 -31 -3 -47 -8l-6 39c18 7 38 11 63 11c44 0 81 -27 81 -72c0 -40 -28 -73 -77 -89v-36h-37z" />
    <glyph glyph-name="glyph285" horiz-adv-x="460" 
d="M295 317l-63 315h-4l-63 -315h130zM454 0h-98l-44 225h-164l-44 -225h-98l157 750h134zM203 920h54l98 -123h-55l-70 84l-70 -84h-55zM361 873h-41l67 107h70z" />
    <glyph glyph-name="glyph286" horiz-adv-x="435" 
d="M377 0h-61l-11 81c-28 -65 -70 -91 -128 -91c-77 0 -139 62 -139 182c0 91 47 155 137 170c14 2 31 4 57 4h51v20c0 38 -2 75 -20 99c-11 14 -27 23 -47 23c-32 0 -57 -22 -67 -63h-90c16 88 76 145 161 145c47 0 86 -16 112 -47c39 -48 45 -114 45 -183v-340zM284 244
v26h-55c-23 0 -39 -3 -50 -8c-31 -15 -48 -44 -48 -90c0 -64 22 -97 68 -97c44 0 67 42 78 92c5 21 7 46 7 77zM338 701h-39l65 116h69zM187 748h51l96 -135h-53l-68 91l-68 -91h-54z" />
    <glyph glyph-name="glyph287" horiz-adv-x="460" 
d="M295 317l-63 315h-4l-63 -315h130zM454 0h-98l-44 225h-164l-44 -225h-98l157 750h134zM202 920h54l98 -123h-55l-70 84l-70 -84h-55zM139 873h-41l-96 107h70z" />
    <glyph glyph-name="glyph288" horiz-adv-x="435" 
d="M377 0h-61l-11 81c-28 -65 -70 -91 -128 -91c-77 0 -139 62 -139 182c0 91 47 155 137 170c14 2 31 4 57 4h51v20c0 38 -2 75 -20 99c-11 14 -27 23 -47 23c-32 0 -57 -22 -67 -63h-90c16 88 76 145 161 145c47 0 86 -16 112 -47c39 -48 45 -114 45 -183v-340zM284 244
v26h-55c-23 0 -39 -3 -50 -8c-31 -15 -48 -44 -48 -90c0 -64 22 -97 68 -97c44 0 67 42 78 92c5 21 7 46 7 77zM131 701h-39l-95 116h69zM192 748h51l96 -135h-54l-68 91l-68 -91h-53z" />
    <glyph glyph-name="glyph289" horiz-adv-x="460" 
d="M295 317l-63 315h-4l-63 -315h130zM454 0h-98l-44 225h-164l-44 -225h-98l157 750h134zM202 920h54l98 -123h-55l-70 84l-69 -84h-56zM327 867v51c31 9 47 25 47 40c0 16 -13 22 -29 22c-12 0 -23 -4 -36 -9l-6 36c14 7 30 11 47 11c34 0 64 -21 64 -58
c0 -31 -24 -56 -58 -69l-1 -24h-28z" />
    <glyph glyph-name="glyph290" horiz-adv-x="435" 
d="M377 0h-61l-11 81c-28 -65 -70 -91 -128 -91c-77 0 -139 62 -139 182c0 91 47 155 137 170c14 2 31 4 57 4h51v20c0 38 -2 75 -20 99c-11 14 -27 23 -47 23c-32 0 -57 -22 -67 -63h-90c16 88 76 145 161 145c47 0 86 -16 112 -47c39 -48 45 -114 45 -183v-340zM284 244
v26h-55c-23 0 -39 -3 -50 -8c-31 -15 -48 -44 -48 -90c0 -64 22 -97 68 -97c44 0 67 42 78 92c5 21 7 46 7 77zM314 695v51c31 9 47 25 47 40c0 16 -13 22 -29 22c-12 0 -23 -4 -36 -9l-6 36c14 7 30 11 47 11c34 0 64 -21 64 -58c0 -31 -24 -56 -58 -69l-1 -24h-28z
M193 748h51l96 -135h-54l-68 91l-68 -91h-53z" />
    <glyph glyph-name="glyph291" horiz-adv-x="460" 
d="M295 317l-63 315h-4l-63 -315h130zM454 0h-98l-44 225h-164l-44 -225h-98l157 750h134zM203 910h54l98 -123h-55l-70 84l-70 -84h-55zM118 944c3 56 27 89 66 89c17 0 36 -7 54 -22c24 -20 32 -28 47 -28s25 13 28 41h41c-3 -56 -27 -89 -66 -89c-17 0 -36 7 -54 22
c-24 20 -32 28 -47 28s-25 -13 -28 -41h-41z" />
    <glyph glyph-name="glyph292" horiz-adv-x="435" 
d="M377 0h-61l-11 81c-28 -65 -70 -91 -128 -91c-77 0 -139 62 -139 182c0 91 47 155 137 170c14 2 31 4 57 4h51v20c0 38 -2 75 -20 99c-11 14 -27 23 -47 23c-32 0 -57 -22 -67 -63h-90c16 88 76 145 161 145c47 0 86 -16 112 -47c39 -48 45 -114 45 -183v-340zM284 244
v26h-55c-23 0 -39 -3 -50 -8c-31 -15 -48 -44 -48 -90c0 -64 22 -97 68 -97c44 0 67 42 78 92c5 21 7 46 7 77zM187 738h51l96 -135h-54l-68 91l-68 -91h-53zM221 843c26 -20 33 -30 50 -30c12 0 22 14 25 45h40c-3 -59 -27 -94 -66 -94c-16 0 -36 7 -54 23
c-24 21 -32 31 -49 31c-13 0 -22 -15 -25 -45h-42c4 58 27 93 66 93c17 0 36 -7 55 -23z" />
    <glyph glyph-name="glyph293" horiz-adv-x="460" 
d="M295 317l-63 315h-4l-63 -315h130zM454 0h-98l-44 225h-164l-44 -225h-98l157 750h134zM204 943h51l97 -135h-54l-68 91l-68 -91h-54zM271 -149h-80v83h80v-83z" />
    <glyph glyph-name="glyph294" horiz-adv-x="435" 
d="M377 0h-61l-11 81c-28 -65 -70 -91 -128 -91c-77 0 -139 62 -139 182c0 91 47 155 137 170c14 2 31 4 57 4h51v20c0 38 -2 75 -20 99c-11 14 -27 23 -47 23c-32 0 -57 -22 -67 -63h-90c16 88 76 145 161 145c47 0 86 -16 112 -47c39 -48 45 -114 45 -183v-340zM284 244
v26h-55c-23 0 -39 -3 -50 -8c-31 -15 -48 -44 -48 -90c0 -64 22 -97 68 -97c44 0 67 42 78 92c5 21 7 46 7 77zM191 748h51l97 -135h-54l-68 91l-68 -91h-54zM258 -149h-80v83h80v-83z" />
    <glyph glyph-name="glyph295" horiz-adv-x="460" 
d="M295 317l-63 315h-4l-63 -315h130zM454 0h-98l-44 225h-164l-44 -225h-98l157 750h134zM229 800c-64 0 -112 45 -116 115h46c6 -42 34 -67 70 -67s65 25 70 67h46c-4 -70 -52 -115 -116 -115zM237 915h-39l77 94h73z" />
    <glyph glyph-name="glyph296" horiz-adv-x="435" 
d="M377 0h-61l-11 81c-28 -65 -70 -91 -128 -91c-77 0 -139 62 -139 182c0 91 47 155 137 170c14 2 31 4 57 4h51v20c0 38 -2 75 -20 99c-11 14 -27 23 -47 23c-32 0 -57 -22 -67 -63h-90c16 88 76 145 161 145c47 0 86 -16 112 -47c39 -48 45 -114 45 -183v-340zM284 244
v26h-55c-23 0 -39 -3 -50 -8c-31 -15 -48 -44 -48 -90c0 -64 22 -97 68 -97c44 0 67 42 78 92c5 21 7 46 7 77zM212 613c-64 0 -108 48 -110 127h46c6 -46 27 -75 64 -75s58 29 64 75h46c-2 -79 -46 -127 -110 -127zM224 741h-39l65 116h69z" />
    <glyph glyph-name="glyph297" horiz-adv-x="460" 
d="M295 317l-63 315h-4l-63 -315h130zM454 0h-98l-44 225h-164l-44 -225h-98l157 750h134zM228 800c-64 0 -112 45 -116 115h46c5 -42 34 -67 70 -67s64 25 70 67h46c-4 -70 -52 -115 -116 -115zM259 915h-39l-111 94h73z" />
    <glyph glyph-name="glyph298" horiz-adv-x="435" 
d="M377 0h-61l-11 81c-28 -65 -70 -91 -128 -91c-77 0 -139 62 -139 182c0 91 47 155 137 170c14 2 31 4 57 4h51v20c0 38 -2 75 -20 99c-11 14 -27 23 -47 23c-32 0 -57 -22 -67 -63h-90c16 88 76 145 161 145c47 0 86 -16 112 -47c39 -48 45 -114 45 -183v-340zM284 244
v26h-55c-23 0 -39 -3 -50 -8c-31 -15 -48 -44 -48 -90c0 -64 22 -97 68 -97c44 0 67 42 78 92c5 21 7 46 7 77zM215 613c-64 0 -108 48 -110 127h46c6 -46 27 -75 64 -75s58 29 64 75h46c-2 -79 -46 -127 -110 -127zM242 741h-39l-95 116h69z" />
    <glyph glyph-name="glyph299" horiz-adv-x="460" 
d="M295 317l-63 315h-4l-63 -315h130zM454 0h-98l-44 225h-164l-44 -225h-98l157 750h134zM230 800c-64 0 -112 45 -116 115h46c6 -42 34 -67 70 -67s65 25 70 67h46c-4 -70 -52 -115 -116 -115zM211 905v46c31 8 47 23 47 38s-13 21 -29 21c-12 0 -23 -4 -36 -9l-6 35
c14 6 30 10 47 10c34 0 66 -20 66 -55c0 -30 -26 -54 -60 -66l-1 -20h-28z" />
    <glyph glyph-name="glyph300" horiz-adv-x="435" 
d="M377 0h-61l-11 81c-28 -65 -70 -91 -128 -91c-77 0 -139 62 -139 182c0 91 47 155 137 170c14 2 31 4 57 4h51v20c0 38 -2 75 -20 99c-11 14 -27 23 -47 23c-32 0 -57 -22 -67 -63h-90c16 88 76 145 161 145c47 0 86 -16 112 -47c39 -48 45 -114 45 -183v-340zM284 244
v26h-55c-23 0 -39 -3 -50 -8c-31 -15 -48 -44 -48 -90c0 -64 22 -97 68 -97c44 0 67 42 78 92c5 21 7 46 7 77zM215 613c-64 0 -108 48 -110 127h46c6 -46 27 -75 64 -75s58 29 64 75h46c-2 -79 -46 -127 -110 -127zM197 745v51c31 9 47 25 47 40c0 16 -13 22 -29 22
c-12 0 -23 -4 -36 -9l-6 36c14 7 30 11 47 11c34 0 66 -21 66 -58c0 -31 -26 -56 -60 -69l-1 -24h-28z" />
    <glyph glyph-name="glyph301" horiz-adv-x="460" 
d="M295 317l-63 315h-4l-63 -315h130zM454 0h-98l-44 225h-164l-44 -225h-98l157 750h134zM228 798c-64 0 -112 45 -115 115h44c6 -42 36 -67 71 -67c36 0 66 25 72 67h44c-4 -70 -52 -115 -116 -115zM112 954c3 56 27 89 66 89c17 0 36 -7 54 -22c24 -20 32 -28 47 -28
s25 13 28 41h41c-3 -56 -27 -89 -66 -89c-17 0 -36 7 -54 22c-24 20 -32 28 -47 28s-25 -13 -28 -41h-41z" />
    <glyph glyph-name="glyph302" horiz-adv-x="435" 
d="M377 0h-61l-11 81c-28 -65 -70 -91 -128 -91c-77 0 -139 62 -139 182c0 91 47 155 137 170c14 2 31 4 57 4h51v20c0 38 -2 75 -20 99c-11 14 -27 23 -47 23c-32 0 -57 -22 -67 -63h-90c16 88 76 145 161 145c47 0 86 -16 112 -47c39 -48 45 -114 45 -183v-340zM284 244
v26h-55c-23 0 -39 -3 -50 -8c-31 -15 -48 -44 -48 -90c0 -64 22 -97 68 -97c44 0 67 42 78 92c5 21 7 46 7 77zM222 614c-64 0 -107 50 -110 127h41c6 -46 32 -75 69 -75c36 0 62 29 68 75h41c-3 -77 -46 -127 -109 -127zM222 853c26 -20 33 -30 50 -30c12 0 22 14 25 45h40
c-3 -59 -27 -94 -66 -94c-16 0 -36 7 -54 23c-24 21 -32 31 -49 31c-13 0 -22 -15 -25 -45h-42c4 58 27 93 66 93c17 0 36 -7 55 -23z" />
    <glyph glyph-name="glyph303" horiz-adv-x="460" 
d="M229 812c-64 0 -106 48 -110 127h46c6 -46 27 -78 64 -78s58 32 64 78h46c-4 -79 -46 -127 -110 -127zM295 317l-63 315h-4l-63 -315h130zM454 0h-98l-44 225h-164l-44 -225h-98l157 750h134zM270 -149h-80v83h80v-83z" />
    <glyph glyph-name="glyph304" horiz-adv-x="435" 
d="M215 613c-64 0 -106 48 -110 127h46c6 -46 27 -78 64 -78s58 32 64 78h46c-4 -79 -46 -127 -110 -127zM377 0h-61l-11 81c-28 -65 -70 -91 -128 -91c-77 0 -139 62 -139 182c0 91 47 155 137 170c14 2 31 4 57 4h51v20c0 38 -2 75 -20 99c-11 14 -27 23 -47 23
c-32 0 -57 -22 -67 -63h-90c16 88 76 145 161 145c47 0 86 -16 112 -47c39 -48 45 -114 45 -183v-340zM284 244v26h-55c-23 0 -39 -3 -50 -8c-31 -15 -48 -44 -48 -90c0 -64 22 -97 68 -97c44 0 67 42 78 92c5 21 7 46 7 77z" />
    <glyph glyph-name="glyph305" horiz-adv-x="441" 
d="M413 0h-349v750h349v-95h-251v-222h208v-95h-208v-243h251v-95zM282 -149h-80v83h80v-83z" />
    <glyph glyph-name="glyph306" 
d="M290 152h93c-17 -100 -73 -162 -167 -162c-97 0 -154 65 -168 160c-3 21 -5 43 -5 75v110c0 32 2 54 5 74c14 96 71 161 168 161c98 0 153 -67 166 -161c4 -30 6 -53 6 -105v-44h-250v-36c0 -32 1 -54 4 -72c9 -46 35 -77 74 -77c43 0 67 39 74 77zM138 338h154
c0 22 0 45 -5 69c-10 46 -33 78 -72 78c-40 0 -65 -30 -73 -78c-3 -17 -4 -34 -4 -69zM256 -149h-80v83h80v-83z" />
    <glyph glyph-name="glyph307" horiz-adv-x="441" 
d="M413 0h-349v750h349v-95h-251v-222h208v-95h-208v-243h251v-95zM217 803v64c45 13 67 31 67 56c0 24 -19 35 -44 35c-18 0 -31 -3 -47 -8l-6 39c18 7 38 11 63 11c44 0 81 -27 81 -72c0 -40 -28 -73 -77 -89v-36h-37z" />
    <glyph glyph-name="glyph308" 
d="M290 152h93c-17 -100 -73 -162 -167 -162c-97 0 -154 65 -168 160c-3 21 -5 43 -5 75v110c0 32 2 54 5 74c14 96 71 161 168 161c98 0 153 -67 166 -161c4 -30 6 -53 6 -105v-44h-250v-36c0 -32 1 -54 4 -72c9 -46 35 -77 74 -77c43 0 67 39 74 77zM138 338h154
c0 22 0 45 -5 69c-10 46 -33 78 -72 78c-40 0 -65 -30 -73 -78c-3 -17 -4 -34 -4 -69zM192 618v64c45 13 67 31 67 56c0 24 -19 35 -44 35c-18 0 -31 -3 -47 -8l-6 39c18 7 38 11 63 11c44 0 81 -27 81 -72c0 -40 -28 -73 -77 -89v-36h-37z" />
    <glyph glyph-name="glyph309" horiz-adv-x="441" 
d="M413 0h-349v750h349v-95h-251v-222h208v-95h-208v-243h251v-95zM247 912c28 -25 36 -36 55 -36c14 0 28 16 31 52h46c-4 -67 -33 -108 -77 -108c-19 0 -39 8 -59 26c-28 25 -36 36 -55 36c-14 0 -27 -16 -31 -52h-46c4 67 33 108 77 108c19 0 39 -8 59 -26z" />
    <glyph glyph-name="glyph310" 
d="M290 152h93c-17 -100 -73 -162 -167 -162c-97 0 -154 65 -168 160c-3 21 -5 43 -5 75v110c0 32 2 54 5 74c14 96 71 161 168 161c98 0 153 -67 166 -161c4 -30 6 -53 6 -105v-44h-250v-36c0 -32 1 -54 4 -72c9 -46 35 -77 74 -77c43 0 67 39 74 77zM138 338h154
c0 22 0 45 -5 69c-10 46 -33 78 -72 78c-40 0 -65 -30 -73 -78c-3 -17 -4 -34 -4 -69zM219 714c28 -25 36 -36 55 -36c14 0 28 16 31 52h46c-4 -67 -33 -108 -77 -108c-19 0 -39 8 -59 26c-28 25 -36 36 -55 36c-14 0 -27 -16 -31 -52h-46c4 67 33 108 77 108
c19 0 39 -8 59 -26z" />
    <glyph glyph-name="glyph311" horiz-adv-x="441" 
d="M413 0h-349v750h349v-95h-251v-222h208v-95h-208v-243h251v-95zM215 920h54l98 -123h-55l-70 84l-70 -84h-55zM373 873h-41l67 107h70z" />
    <glyph glyph-name="glyph312" 
d="M290 152h93c-17 -100 -73 -162 -167 -162c-97 0 -154 65 -168 160c-3 21 -5 43 -5 75v110c0 32 2 54 5 74c14 96 71 161 168 161c98 0 153 -67 166 -161c4 -30 6 -53 6 -105v-44h-250v-36c0 -32 1 -54 4 -72c9 -46 35 -77 74 -77c43 0 67 39 74 77zM138 338h154
c0 22 0 45 -5 69c-10 46 -33 78 -72 78c-40 0 -65 -30 -73 -78c-3 -17 -4 -34 -4 -69zM340 701h-39l65 116h69zM189 748h51l96 -135h-53l-68 91l-68 -91h-54z" />
    <glyph glyph-name="glyph313" horiz-adv-x="441" 
d="M413 0h-349v750h349v-95h-251v-222h208v-95h-208v-243h251v-95zM210 920h54l98 -123h-55l-70 84l-70 -84h-55zM147 873h-41l-96 107h70z" />
    <glyph glyph-name="glyph314" 
d="M290 152h93c-17 -100 -73 -162 -167 -162c-97 0 -154 65 -168 160c-3 21 -5 43 -5 75v110c0 32 2 54 5 74c14 96 71 161 168 161c98 0 153 -67 166 -161c4 -30 6 -53 6 -105v-44h-250v-36c0 -32 1 -54 4 -72c9 -46 35 -77 74 -77c43 0 67 39 74 77zM138 338h154
c0 22 0 45 -5 69c-10 46 -33 78 -72 78c-40 0 -65 -30 -73 -78c-3 -17 -4 -34 -4 -69zM129 701h-39l-95 116h69zM190 748h51l96 -135h-54l-68 91l-68 -91h-53z" />
    <glyph glyph-name="glyph315" horiz-adv-x="441" 
d="M413 0h-349v750h349v-95h-251v-222h208v-95h-208v-243h251v-95zM213 920h54l98 -123h-55l-70 84l-70 -84h-55zM371 873h-41l67 107h70z" />
    <glyph glyph-name="glyph316" 
d="M290 152h93c-17 -100 -73 -162 -167 -162c-97 0 -154 65 -168 160c-3 21 -5 43 -5 75v110c0 32 2 54 5 74c14 96 71 161 168 161c98 0 153 -67 166 -161c4 -30 6 -53 6 -105v-44h-250v-36c0 -32 1 -54 4 -72c9 -46 35 -77 74 -77c43 0 67 39 74 77zM138 338h154
c0 22 0 45 -5 69c-10 46 -33 78 -72 78c-40 0 -65 -30 -73 -78c-3 -17 -4 -34 -4 -69zM339 701h-39l65 116h69zM188 748h51l96 -135h-53l-68 91l-68 -91h-54z" />
    <glyph glyph-name="glyph317" horiz-adv-x="441" 
d="M413 0h-349v750h349v-95h-251v-222h208v-95h-208v-243h251v-95zM208 920h54l98 -123h-55l-70 84l-70 -84h-55zM123 954c3 56 27 89 66 89c17 0 36 -7 54 -22c24 -20 32 -28 47 -28s25 13 28 41h41c-3 -56 -27 -89 -66 -89c-17 0 -36 7 -54 22c-24 20 -32 28 -47 28
s-25 -13 -28 -41h-41z" />
    <glyph glyph-name="glyph318" 
d="M290 152h93c-17 -100 -73 -162 -167 -162c-97 0 -154 65 -168 160c-3 21 -5 43 -5 75v110c0 32 2 54 5 74c14 96 71 161 168 161c98 0 153 -67 166 -161c4 -30 6 -53 6 -105v-44h-250v-36c0 -32 1 -54 4 -72c9 -46 35 -77 74 -77c43 0 67 39 74 77zM138 338h154
c0 22 0 45 -5 69c-10 46 -33 78 -72 78c-40 0 -65 -30 -73 -78c-3 -17 -4 -34 -4 -69zM189 748h51l96 -135h-54l-68 91l-68 -91h-53zM223 853c26 -20 33 -30 50 -30c12 0 22 14 25 45h40c-3 -59 -27 -94 -66 -94c-16 0 -36 7 -54 23c-24 21 -32 31 -49 31
c-13 0 -22 -15 -25 -45h-42c4 58 27 93 66 93c17 0 36 -7 55 -23z" />
    </font>
</defs>
</svg>
