<?xml version="1.0" encoding="utf-8"?>
<!-- Generator: Adobe Illustrator 16.0.0, SVG Export Plug-In . SVG Version: 6.00 Build 0)  -->
<!DOCTYPE svg PUBLIC "-//W3C//DTD SVG 1.1//EN" "http://www.w3.org/Graphics/SVG/1.1/DTD/svg11.dtd">
<svg version="1.1" id="Layer_1" xmlns="http://www.w3.org/2000/svg" xmlns:xlink="http://www.w3.org/1999/xlink" x="0px" y="0px"
	 width="107.569px" height="110.561px" viewBox="0 0 107.569 110.561" enable-background="new 0 0 107.569 110.561"
	 xml:space="preserve">
<path fill="#FFB334" d="M92.546,61.55c-1.429-0.366-2.936,0.11-4.135,1.308L59.771,91.44c-1.199,1.196-1.677,2.7-1.311,4.126
	c0.367,1.426,1.512,2.515,3.14,2.987l40.612,11.787c1.66,0.482,3.212,0.161,4.256-0.881s1.365-2.59,0.882-4.247l-11.811-40.53
	C95.065,63.058,93.975,61.916,92.546,61.55z M101.885,104.022l-1.999,0.534l-7.97-2.313l8.767-2.345L101.885,104.022z
	 M98.874,93.692l-18.956,5.069l-7.97-2.313l25.725-6.879L98.874,93.692z M95.81,83.178l-28.426,7.602l6.083-6.07l21.142-5.653
	L95.81,83.178z M92.773,72.759l-10.017,2.679l6.083-6.07l2.732-0.73L92.773,72.759z M17.099,72.93
	c-0.38-0.425-0.225-0.808,0.344-0.85l2.946-0.219c0.569-0.042,1.27-0.479,1.558-0.972l1.49-2.546c0.288-0.491,0.7-0.463,0.916,0.064
	l1.119,2.729c0.216,0.527,0.849,1.058,1.407,1.179l2.887,0.627c0.558,0.121,0.657,0.521,0.222,0.889l-2.255,1.906
	c-0.435,0.368-0.745,1.133-0.688,1.699l0.294,2.934c0.057,0.567-0.293,0.785-0.779,0.485l-2.513-1.551
	c-0.485-0.299-1.31-0.356-1.833-0.128l-2.705,1.187c-0.522,0.229-0.839-0.036-0.704-0.59l0.702-2.864
	c0.136-0.553-0.064-1.354-0.444-1.778L17.099,72.93z M0.208,58.005c-0.38-0.426-0.225-0.808,0.344-0.85l2.946-0.22
	c0.569-0.042,1.27-0.479,1.558-0.971l1.49-2.546c0.288-0.492,0.7-0.464,0.916,0.063l1.119,2.729c0.216,0.526,0.85,1.058,1.407,1.178
	l2.887,0.627c0.558,0.121,0.658,0.521,0.222,0.89l-2.255,1.906c-0.436,0.367-0.745,1.132-0.688,1.698l0.294,2.935
	c0.057,0.566-0.294,0.785-0.779,0.485L7.158,64.38c-0.485-0.3-1.31-0.357-1.833-0.128l-2.705,1.186
	c-0.523,0.229-0.839-0.036-0.704-0.589l0.702-2.864c0.136-0.554-0.064-1.354-0.444-1.778L0.208,58.005z M31.298,20.409
	c-0.303-0.338-0.179-0.643,0.274-0.676l2.346-0.174c0.453-0.034,1.012-0.382,1.24-0.774l1.187-2.027
	c0.229-0.392,0.558-0.369,0.729,0.051l0.891,2.172c0.173,0.42,0.677,0.842,1.121,0.938l2.298,0.5
	c0.444,0.096,0.524,0.415,0.177,0.708l-1.795,1.518c-0.347,0.293-0.593,0.902-0.548,1.353l0.234,2.336
	c0.045,0.451-0.233,0.625-0.62,0.387l-2.001-1.235c-0.386-0.238-1.043-0.284-1.459-0.102l-2.153,0.944
	c-0.416,0.183-0.668-0.028-0.561-0.469l0.56-2.281c0.107-0.44-0.052-1.078-0.354-1.417L31.298,20.409z M69.053,38.702
	c-0.24-0.269-0.143-0.511,0.218-0.537l1.863-0.139c0.36-0.027,0.804-0.304,0.985-0.614l0.942-1.611
	c0.182-0.312,0.443-0.292,0.58,0.041l0.707,1.726c0.137,0.334,0.537,0.669,0.891,0.746l1.826,0.396
	c0.353,0.076,0.416,0.33,0.14,0.563l-1.426,1.205c-0.275,0.233-0.472,0.717-0.436,1.075l0.187,1.855
	c0.036,0.358-0.186,0.496-0.493,0.308l-1.589-0.981c-0.307-0.189-0.828-0.226-1.159-0.081l-1.711,0.75
	c-0.33,0.146-0.53-0.022-0.444-0.372l0.443-1.813c0.086-0.349-0.04-0.855-0.28-1.125L69.053,38.702z M3.205,28.25
	c-0.38-0.425-0.225-0.807,0.344-0.85l2.946-0.219c0.569-0.042,1.27-0.479,1.558-0.971l1.49-2.546c0.288-0.492,0.7-0.463,0.916,0.064
	l1.119,2.729c0.216,0.527,0.849,1.057,1.407,1.178l2.887,0.627c0.558,0.121,0.657,0.521,0.222,0.889l-2.254,1.906
	c-0.436,0.368-0.746,1.132-0.688,1.7l0.294,2.933c0.057,0.567-0.293,0.786-0.779,0.486l-2.513-1.552
	c-0.485-0.299-1.31-0.357-1.832-0.128l-2.705,1.186c-0.522,0.229-0.839-0.036-0.704-0.589l0.702-2.865
	c0.135-0.553-0.064-1.354-0.444-1.778L3.205,28.25z M50.557,7.671c-0.558-0.346-0.511-0.819,0.104-1.05l3.184-1.196
	c0.614-0.231,1.247-0.941,1.404-1.577l0.817-3.295c0.158-0.636,0.623-0.738,1.033-0.226l2.123,2.651
	c0.41,0.512,1.282,0.893,1.938,0.846l3.393-0.243c0.655-0.047,0.896,0.363,0.534,0.911l-1.871,2.835
	c-0.361,0.547-0.454,1.492-0.207,2.1l1.279,3.145c0.247,0.608-0.069,0.962-0.702,0.789l-3.28-0.899
	c-0.633-0.174-1.563,0.03-2.065,0.452l-2.602,2.186c-0.503,0.422-0.938,0.231-0.969-0.423l-0.156-3.391
	c-0.03-0.655-0.511-1.474-1.068-1.82L50.557,7.671z M69.209,73.394c0,0-0.686-0.567-1.887-1.559
	c-0.587-0.513-1.367-1.044-2.22-1.697c-0.845-0.661-1.889-1.301-2.97-2.052c-1.133-0.682-2.331-1.456-3.669-2.151
	c-0.655-0.368-1.338-0.728-2.053-1.062c-0.709-0.345-1.426-0.704-2.183-1.014c-0.751-0.321-1.504-0.662-2.294-0.943
	c-0.782-0.299-1.569-0.604-2.385-0.856c-0.805-0.274-1.621-0.531-2.451-0.753c-0.821-0.248-1.66-0.445-2.496-0.642
	c-1.672-0.396-3.361-0.69-5.025-0.927c-1.669-0.209-3.309-0.386-4.901-0.443c-1.59-0.08-3.127-0.081-4.577-0.031
	c-1.451,0.04-2.814,0.16-4.065,0.283c-2.5,0.277-4.544,0.665-5.923,0.998c-0.693,0.161-1.215,0.309-1.556,0.408
	c-0.355,0.104-0.464,0.15-0.44,0.144l-1.998-7.753c0.205-0.058,4.033-0.736,9.693-0.547c1.412,0.059,2.936,0.143,4.536,0.323
	c1.6,0.172,3.276,0.41,4.991,0.743c1.718,0.309,3.468,0.749,5.226,1.229c1.753,0.508,3.512,1.078,5.229,1.75
	c0.858,0.335,1.714,0.67,2.546,1.055c0.842,0.357,1.663,0.749,2.468,1.157c0.813,0.386,1.594,0.822,2.364,1.248
	c0.779,0.409,1.515,0.875,2.243,1.317c0.735,0.43,1.426,0.907,2.104,1.365c0.686,0.446,1.333,0.914,1.951,1.386
	c1.264,0.903,2.374,1.865,3.417,2.715c0.992,0.919,1.938,1.7,2.7,2.491c0.767,0.78,1.468,1.421,1.977,2.01
	C68.609,72.736,69.209,73.394,69.209,73.394z M68.462,64.508c0,0-0.58-0.536-1.597-1.474c-0.508-0.469-1.125-1.038-1.833-1.691
	c-0.349-0.332-0.742-0.661-1.116-1.054c-0.367-0.401-0.754-0.823-1.158-1.264c-0.801-0.889-1.708-1.837-2.61-2.888
	c-0.841-1.098-1.729-2.256-2.646-3.453c-0.891-1.225-1.675-2.586-2.552-3.933c-0.459-0.664-0.771-1.412-1.163-2.128
	c-0.374-0.728-0.75-1.457-1.126-2.188c-0.346-0.746-0.635-1.518-0.954-2.277c-0.292-0.77-0.667-1.512-0.887-2.3
	c-0.476-1.563-1.027-3.095-1.319-4.644c-0.163-0.77-0.366-1.524-0.484-2.276c-0.109-0.756-0.217-1.496-0.321-2.217
	c-0.125-0.721-0.146-1.434-0.202-2.122c-0.036-0.689-0.124-1.356-0.106-2.002c-0.002-0.647-0.004-1.267-0.005-1.856
	c0.004-0.592,0.058-1.156,0.084-1.688c0.042-1.062,0.198-2,0.289-2.776c0.134-0.786,0.237-1.4,0.354-1.858
	c0.084-0.408,0.214-0.801,0.205-0.78l7.521,2.781c-0.005,0.023-0.021-0.003-0.138,0.299c-0.112,0.244-0.258,0.683-0.452,1.234
	c-0.157,0.577-0.403,1.268-0.57,2.115c-0.087,0.42-0.208,0.864-0.288,1.345c-0.076,0.483-0.156,0.991-0.241,1.521
	c-0.104,0.531-0.112,1.096-0.178,1.678c-0.044,0.583-0.132,1.188-0.118,1.815c-0.011,0.629-0.021,1.275-0.032,1.935
	c-0.005,0.663,0.072,1.337,0.104,2.029c0.03,1.391,0.308,2.803,0.502,4.264c0.078,0.736,0.313,1.443,0.463,2.177
	c0.178,0.728,0.325,1.471,0.529,2.198c0.236,0.72,0.474,1.439,0.709,2.156c0.255,0.713,0.43,1.459,0.758,2.136
	c0.612,1.37,1.141,2.771,1.797,4.06c0.689,1.278,1.357,2.514,1.99,3.686c0.694,1.132,1.411,2.167,2.048,3.151
	c0.322,0.491,0.632,0.961,0.927,1.408c0.304,0.443,0.642,0.832,0.934,1.215c0.595,0.756,1.114,1.416,1.542,1.959
	C67.974,63.888,68.462,64.508,68.462,64.508z M64.986,77.607c0,0-0.098-0.069-0.28-0.198c-0.186-0.124-0.447-0.328-0.8-0.548
	c-0.364-0.205-0.766-0.48-1.289-0.723c-0.502-0.268-1.097-0.515-1.738-0.773c-0.327-0.114-0.668-0.233-1.021-0.357
	c-0.358-0.104-0.728-0.211-1.108-0.321c-0.384-0.091-0.778-0.185-1.182-0.28c-0.407-0.075-0.823-0.152-1.246-0.23
	c-1.696-0.276-3.525-0.413-5.353-0.431c-3.656-0.046-7.303,0.412-9.982,0.884c-1.341,0.237-2.444,0.476-3.199,0.655
	c-0.368,0.093-0.658,0.166-0.855,0.216c-0.198,0.052-0.265,0.077-0.256,0.076l-1.075-7.933c0,0,0.146-0.003,0.42-0.007
	c0.245,0.005,0.604,0.011,1.06,0.019c0.897,0.027,2.158,0.091,3.659,0.224c2.999,0.268,6.969,0.82,10.818,1.907
	c1.923,0.538,3.812,1.2,5.513,1.97c0.421,0.201,0.834,0.398,1.239,0.593c0.394,0.212,0.779,0.421,1.154,0.624
	c0.364,0.221,0.718,0.436,1.061,0.643c0.329,0.226,0.647,0.443,0.953,0.651c0.593,0.445,1.123,0.856,1.56,1.265
	c0.453,0.378,0.801,0.78,1.099,1.074c0.285,0.308,0.482,0.569,0.63,0.738C64.91,77.516,64.986,77.607,64.986,77.607z M54.266,58.768
	c0,0-0.5-0.399-1.375-1.099c-0.882-0.688-2.109-1.721-3.639-2.871c-0.761-0.576-1.585-1.2-2.457-1.86
	c-0.865-0.663-1.82-1.316-2.782-2.016c-0.961-0.702-1.974-1.398-3.011-2.09c-1.027-0.704-2.079-1.405-3.149-2.07
	c-0.531-0.338-1.063-0.675-1.592-1.012c-0.537-0.32-1.072-0.639-1.603-0.955c-1.053-0.645-2.114-1.225-3.134-1.79
	c-1.017-0.572-2.025-1.062-2.964-1.552c-0.955-0.447-1.846-0.896-2.682-1.245c-0.831-0.376-1.594-0.67-2.266-0.937
	c-0.67-0.242-1.254-0.459-1.718-0.596c-0.47-0.155-0.819-0.238-1.033-0.292c-0.094-0.019-0.195-0.044-0.214-0.043
	c-0.005,0.006-0.007,0.009-0.007,0.009l2.349-7.654c0,0,0.073,0.028,0.215,0.083c0.097,0.043,0.24,0.106,0.427,0.189
	c0.342,0.163,0.813,0.39,1.358,0.697c0.562,0.3,1.191,0.685,1.915,1.125c0.703,0.454,1.498,0.96,2.319,1.547
	c0.841,0.568,1.696,1.232,2.617,1.913c0.891,0.712,1.847,1.438,2.783,2.241c0.941,0.796,1.915,1.611,2.86,2.482
	c0.477,0.431,0.957,0.863,1.439,1.298c0.469,0.447,0.939,0.896,1.41,1.346c0.947,0.887,1.865,1.802,2.756,2.713
	c0.901,0.898,1.773,1.794,2.592,2.684c0.822,0.889,1.635,1.72,2.367,2.553c0.734,0.826,1.429,1.607,2.07,2.328
	c1.283,1.434,2.28,2.68,3.013,3.528C53.853,58.278,54.266,58.768,54.266,58.768z"/>
</svg>
